%TF.GenerationSoftware,KiCad,Pcbnew,10.0.5*%
%TF.CreationDate,2026-08-06T01:52:51-04:00*%
%TF.ProjectId,USB3.0 To Gigabit Ethernet Adapter Design,55534233-2e30-4205-946f-204769676162,rev?*%
%TF.SameCoordinates,Original*%
%TF.FileFunction,Soldermask,Top*%
%TF.FilePolarity,Negative*%
%FSLAX46Y46*%
G04 Gerber Fmt 4.6, Leading zero omitted, Abs format (unit mm)*
G04 Created by KiCad (PCBNEW 10.0.5) date 2026-08-06 01:52:51*
%MOMM*%
%LPD*%
G01*
G04 APERTURE LIST*
G04 Aperture macros list*
%AMRoundRect*
0 Rectangle with rounded corners*
0 $1 Rounding radius*
0 $2 $3 $4 $5 $6 $7 $8 $9 X,Y pos of 4 corners*
0 Add a 4 corners polygon primitive as box body*
4,1,4,$2,$3,$4,$5,$6,$7,$8,$9,$2,$3,0*
0 Add four circle primitives for the rounded corners*
1,1,$1+$1,$2,$3*
1,1,$1+$1,$4,$5*
1,1,$1+$1,$6,$7*
1,1,$1+$1,$8,$9*
0 Add four rect primitives between the rounded corners*
20,1,$1+$1,$2,$3,$4,$5,0*
20,1,$1+$1,$4,$5,$6,$7,0*
20,1,$1+$1,$6,$7,$8,$9,0*
20,1,$1+$1,$8,$9,$2,$3,0*%
G04 Aperture macros list end*
%ADD10C,0.001000*%
%ADD11RoundRect,0.140000X0.140000X0.170000X-0.140000X0.170000X-0.140000X-0.170000X0.140000X-0.170000X0*%
%ADD12RoundRect,0.140000X-0.140000X-0.170000X0.140000X-0.170000X0.140000X0.170000X-0.140000X0.170000X0*%
%ADD13RoundRect,0.135000X-0.135000X-0.185000X0.135000X-0.185000X0.135000X0.185000X-0.135000X0.185000X0*%
%ADD14RoundRect,0.140000X-0.170000X0.140000X-0.170000X-0.140000X0.170000X-0.140000X0.170000X0.140000X0*%
%ADD15RoundRect,0.140000X0.170000X-0.140000X0.170000X0.140000X-0.170000X0.140000X-0.170000X-0.140000X0*%
%ADD16RoundRect,0.135000X0.135000X0.185000X-0.135000X0.185000X-0.135000X-0.185000X0.135000X-0.185000X0*%
%ADD17RoundRect,0.062500X-0.337500X-0.062500X0.337500X-0.062500X0.337500X0.062500X-0.337500X0.062500X0*%
%ADD18RoundRect,0.062500X-0.062500X-0.337500X0.062500X-0.337500X0.062500X0.337500X-0.062500X0.337500X0*%
%ADD19R,5.700000X5.700000*%
%ADD20C,3.250000*%
%ADD21RoundRect,0.102000X0.699000X-0.699000X0.699000X0.699000X-0.699000X0.699000X-0.699000X-0.699000X0*%
%ADD22C,1.602000*%
%ADD23C,1.734000*%
%ADD24C,2.649000*%
%ADD25C,1.632000*%
%ADD26C,1.412000*%
%ADD27C,3.520000*%
%ADD28RoundRect,0.250000X-0.350000X0.450000X-0.350000X-0.450000X0.350000X-0.450000X0.350000X0.450000X0*%
%ADD29RoundRect,0.135000X-0.185000X0.135000X-0.185000X-0.135000X0.185000X-0.135000X0.185000X0.135000X0*%
%ADD30RoundRect,0.135000X0.185000X-0.135000X0.185000X0.135000X-0.185000X0.135000X-0.185000X-0.135000X0*%
%ADD31RoundRect,0.150000X0.512500X0.150000X-0.512500X0.150000X-0.512500X-0.150000X0.512500X-0.150000X0*%
%ADD32RoundRect,0.102000X0.150000X0.150000X-0.150000X0.150000X-0.150000X-0.150000X0.150000X-0.150000X0*%
%ADD33RoundRect,0.102000X0.175000X0.150000X-0.175000X0.150000X-0.175000X-0.150000X0.175000X-0.150000X0*%
%ADD34RoundRect,0.102000X0.250000X0.150000X-0.250000X0.150000X-0.250000X-0.150000X0.250000X-0.150000X0*%
G04 APERTURE END LIST*
D10*
%TO.C,U3*%
X157800000Y-68250000D02*
X157800000Y-67550000D01*
X157330000Y-67550000D01*
X157100000Y-67780000D01*
X157100000Y-68020000D01*
X157330000Y-68250000D01*
X157800000Y-68250000D01*
G36*
X157800000Y-68250000D02*
G01*
X157330000Y-68250000D01*
X157100000Y-68020000D01*
X157100000Y-67780000D01*
X157330000Y-67550000D01*
X157800000Y-67550000D01*
X157800000Y-68250000D01*
G37*
X157800000Y-69750000D02*
X157800000Y-69050000D01*
X157330000Y-69050000D01*
X157100000Y-69280000D01*
X157100000Y-69520000D01*
X157330000Y-69750000D01*
X157800000Y-69750000D01*
G36*
X157800000Y-69750000D02*
G01*
X157330000Y-69750000D01*
X157100000Y-69520000D01*
X157100000Y-69280000D01*
X157330000Y-69050000D01*
X157800000Y-69050000D01*
X157800000Y-69750000D01*
G37*
X157800000Y-71250000D02*
X157800000Y-70550000D01*
X157330000Y-70550000D01*
X157100000Y-70780000D01*
X157100000Y-71020000D01*
X157330000Y-71250000D01*
X157800000Y-71250000D01*
G36*
X157800000Y-71250000D02*
G01*
X157330000Y-71250000D01*
X157100000Y-71020000D01*
X157100000Y-70780000D01*
X157330000Y-70550000D01*
X157800000Y-70550000D01*
X157800000Y-71250000D01*
G37*
%TD*%
D11*
%TO.C,C20*%
X136600000Y-76500000D03*
X137560000Y-76500000D03*
%TD*%
D12*
%TO.C,C13*%
X150400000Y-80000000D03*
X149440000Y-80000000D03*
%TD*%
%TO.C,C19*%
X140300000Y-79500000D03*
X139340000Y-79500000D03*
%TD*%
%TO.C,C17*%
X140300000Y-76500000D03*
X139340000Y-76500000D03*
%TD*%
D11*
%TO.C,C21*%
X136640000Y-78000000D03*
X137600000Y-78000000D03*
%TD*%
D13*
%TO.C,R5*%
X150400000Y-76900000D03*
X149380000Y-76900000D03*
%TD*%
D11*
%TO.C,C16*%
X146440000Y-81600000D03*
X147400000Y-81600000D03*
%TD*%
D12*
%TO.C,C18*%
X140300000Y-78000000D03*
X139340000Y-78000000D03*
%TD*%
D11*
%TO.C,C12*%
X146540000Y-78400000D03*
X147500000Y-78400000D03*
%TD*%
D14*
%TO.C,C26*%
X154200000Y-74880000D03*
X154200000Y-73920000D03*
%TD*%
%TO.C,C27*%
X151800000Y-74980000D03*
X151800000Y-74020000D03*
%TD*%
%TO.C,C25*%
X156500000Y-74880000D03*
X156500000Y-73920000D03*
%TD*%
D12*
%TO.C,C11*%
X150400000Y-78400000D03*
X149440000Y-78400000D03*
%TD*%
%TO.C,C15*%
X150400000Y-81600000D03*
X149440000Y-81600000D03*
%TD*%
D11*
%TO.C,C14*%
X146540000Y-80000000D03*
X147500000Y-80000000D03*
%TD*%
D15*
%TO.C,L2*%
X142200000Y-74440000D03*
X142200000Y-75400000D03*
%TD*%
D16*
%TO.C,R11*%
X115300000Y-57720000D03*
X114280000Y-57720000D03*
%TD*%
D17*
%TO.C,U1*%
X141500000Y-66500000D03*
X141500000Y-67000000D03*
X141500000Y-67500001D03*
X141500000Y-68000000D03*
X141500001Y-68500000D03*
X141500000Y-69000000D03*
X141500000Y-69500000D03*
X141500001Y-70000000D03*
X141500000Y-70500000D03*
X141500000Y-70999999D03*
X141500000Y-71500000D03*
X141500000Y-72000000D03*
D18*
X142200000Y-72700000D03*
X142700000Y-72700000D03*
X143200001Y-72700000D03*
X143700000Y-72700000D03*
X144200000Y-72699999D03*
X144700000Y-72700000D03*
X145200000Y-72700000D03*
X145700000Y-72699999D03*
X146200000Y-72700000D03*
X146699999Y-72700000D03*
X147200000Y-72700000D03*
X147700000Y-72700000D03*
D17*
X148400000Y-72000000D03*
X148400000Y-71500000D03*
X148400000Y-70999999D03*
X148400000Y-70500000D03*
X148399999Y-70000000D03*
X148400000Y-69500000D03*
X148400000Y-69000000D03*
X148399999Y-68500000D03*
X148400000Y-68000000D03*
X148400000Y-67500001D03*
X148400000Y-67000000D03*
X148400000Y-66500000D03*
D18*
X147700000Y-65800000D03*
X147200000Y-65800000D03*
X146699999Y-65800000D03*
X146200000Y-65800000D03*
X145700000Y-65800001D03*
X145200000Y-65800000D03*
X144700000Y-65800000D03*
X144200000Y-65800001D03*
X143700000Y-65800000D03*
X143200001Y-65800000D03*
X142700000Y-65800000D03*
X142200000Y-65800000D03*
D19*
X144950000Y-69250000D03*
%TD*%
D16*
%TO.C,R8*%
X143420000Y-61800000D03*
X142400000Y-61800000D03*
%TD*%
D20*
%TO.C,J2*%
X119010000Y-74595000D03*
X119010000Y-63165000D03*
D21*
X127900000Y-63160000D03*
D22*
X125360000Y-64440000D03*
X127900000Y-65700000D03*
X125360000Y-66980000D03*
X127900000Y-68240000D03*
X125360000Y-69520000D03*
X127900000Y-70780000D03*
X125360000Y-72060000D03*
X127900000Y-73320000D03*
X125360000Y-74600000D03*
D23*
X114110000Y-62255000D03*
X114110000Y-64795000D03*
X114110000Y-72965000D03*
X114110000Y-75505000D03*
D24*
X122060000Y-61135000D03*
X122060000Y-76625000D03*
%TD*%
D25*
%TO.C,J1*%
X165440000Y-67550000D03*
X165440000Y-70050000D03*
X167440000Y-70050000D03*
X167440000Y-67550000D03*
D26*
X163440000Y-73050000D03*
X163440000Y-71300000D03*
X163440000Y-68800000D03*
X163440000Y-66300000D03*
X163440000Y-64550000D03*
D27*
X170150000Y-74820000D03*
X170150000Y-62780000D03*
%TD*%
D13*
%TO.C,R3*%
X152975000Y-63200000D03*
X153995000Y-63200000D03*
%TD*%
D11*
%TO.C,C8*%
X150100000Y-58600000D03*
X149140000Y-58600000D03*
%TD*%
D12*
%TO.C,C10*%
X138600000Y-65700000D03*
X139560000Y-65700000D03*
%TD*%
D28*
%TO.C,Y1*%
X145300000Y-60000000D03*
X145300000Y-62200000D03*
X146900000Y-62200000D03*
X146900000Y-60000000D03*
%TD*%
D13*
%TO.C,R9*%
X139880000Y-63300000D03*
X140900000Y-63300000D03*
%TD*%
D16*
%TO.C,R7*%
X150100000Y-60100000D03*
X149080000Y-60100000D03*
%TD*%
D11*
%TO.C,L1*%
X158780000Y-61000000D03*
X157820000Y-61000000D03*
%TD*%
D29*
%TO.C,R4*%
X150300000Y-65280000D03*
X150300000Y-66300000D03*
%TD*%
D11*
%TO.C,C5*%
X153995000Y-64800000D03*
X153035000Y-64800000D03*
%TD*%
D16*
%TO.C,R6*%
X151200000Y-67300000D03*
X150180000Y-67300000D03*
%TD*%
D15*
%TO.C,C24*%
X147600000Y-57360000D03*
X147600000Y-56400000D03*
%TD*%
D13*
%TO.C,R10*%
X139860000Y-59500000D03*
X140880000Y-59500000D03*
%TD*%
D14*
%TO.C,C3*%
X153300000Y-58400000D03*
X153300000Y-59360000D03*
%TD*%
D30*
%TO.C,R2*%
X156400000Y-59420000D03*
X156400000Y-58400000D03*
%TD*%
D13*
%TO.C,R12*%
X130980000Y-63120000D03*
X132000000Y-63120000D03*
%TD*%
D14*
%TO.C,C2*%
X157980000Y-58440000D03*
X157980000Y-59400000D03*
%TD*%
D29*
%TO.C,R1*%
X154880000Y-58400000D03*
X154880000Y-59420000D03*
%TD*%
D12*
%TO.C,C4*%
X153035000Y-61500000D03*
X153995000Y-61500000D03*
%TD*%
D15*
%TO.C,C23*%
X145300000Y-57360000D03*
X145300000Y-56400000D03*
%TD*%
D16*
%TO.C,R13*%
X115220000Y-79120000D03*
X114200000Y-79120000D03*
%TD*%
D11*
%TO.C,C7*%
X153900000Y-70000000D03*
X152940000Y-70000000D03*
%TD*%
D15*
%TO.C,C1*%
X160695000Y-65260000D03*
X160695000Y-64300000D03*
%TD*%
D12*
%TO.C,C9*%
X142420000Y-60300000D03*
X143380000Y-60300000D03*
%TD*%
D31*
%TO.C,U2*%
X158795000Y-65200000D03*
X158795000Y-64250000D03*
X158795000Y-63300000D03*
X156520000Y-63300000D03*
X156520000Y-65200000D03*
%TD*%
D11*
%TO.C,C6*%
X151800000Y-70500000D03*
X150840000Y-70500000D03*
%TD*%
D15*
%TO.C,C22*%
X143000000Y-57360000D03*
X143000000Y-56400000D03*
%TD*%
D32*
%TO.C,U3*%
X158100000Y-71900000D03*
X158100000Y-71400000D03*
D33*
X158100000Y-70900000D03*
X158100000Y-70400000D03*
X158100000Y-69900000D03*
X158100000Y-69400000D03*
X158100000Y-68900000D03*
X158100000Y-68400000D03*
D32*
X158100000Y-67900000D03*
X158100000Y-67400000D03*
D34*
X158100000Y-66900000D03*
X156800000Y-67150000D03*
D32*
X156800000Y-67900000D03*
X156800000Y-68650000D03*
X156800000Y-69400000D03*
D34*
X156800000Y-70150000D03*
D32*
X156800000Y-70900000D03*
D34*
X156800000Y-71650000D03*
%TD*%
M02*
