M48
; DRILL file KiCad 10.0.5 date 2026-08-06T01:52:35
; FORMAT={-:-/ absolute / metric / decimal}
; #@! TF.CreationDate,2026-08-06T01:52:35-04:00
; #@! TF.GenerationSoftware,Kicad,Pcbnew,10.0.5
; #@! TF.FileFunction,Plated,1,2,PTH
FMAT,2
METRIC
; #@! TA.AperFunction,Plated,PTH,ViaDrill
T1C0.200
; #@! TA.AperFunction,Plated,PTH,ComponentDrill
T2C0.200
; #@! TA.AperFunction,Plated,PTH,ComponentDrill
T3C0.700
; #@! TA.AperFunction,Plated,PTH,ComponentDrill
T4C0.890
; #@! TA.AperFunction,Plated,PTH,ComponentDrill
T5C0.920
; #@! TA.AperFunction,Plated,PTH,ComponentDrill
T6C1.020
; #@! TA.AperFunction,Plated,PTH,ComponentDrill
T7C1.630
; #@! TA.AperFunction,Plated,PTH,ComponentDrill
T8C2.300
%
G90
G05
T1
X131.65Y-68.97
X136.7Y-78.9
X138.0Y-68.95
X138.6Y-64.9
X138.7Y-67.45
X138.811Y-71.011
X139.88Y-62.0
X139.9Y-60.4
X139.989Y-72.189
X141.2Y-78.0
X141.6Y-59.5
X142.3Y-63.5
X142.87Y-62.6
X143.01Y-74.367
X143.666Y-64.444
X143.939Y-75.339
X144.214Y-73.791
X144.819Y-64.819
X145.4Y-74.7
X147.0Y-64.8
X148.25Y-64.839
X148.3Y-73.35
X149.05Y-57.35
X149.25Y-67.95
X149.8Y-69.45
X150.4Y-82.4
X151.5Y-72.65
X152.3Y-64.8
X153.3Y-60.41
X154.2Y-75.6
X155.07Y-69.186
X155.2Y-70.0
X155.3Y-68.525
X155.7Y-70.7
X155.8Y-67.9
X155.921Y-71.364
X156.0Y-69.4
X156.4Y-57.71
X159.01Y-69.45
X159.1Y-67.7
X159.204Y-71.096
X159.4Y-66.7
X159.571Y-68.95
X159.7Y-68.1
X159.7Y-70.55
X160.695Y-63.5
X160.9Y-69.6
X161.3Y-71.4
X161.474Y-67.674
T2
X142.35Y-69.25
X142.35Y-66.65
X142.35Y-67.95
X142.35Y-70.55
X142.35Y-71.85
X143.65Y-66.65
X143.65Y-67.95
X143.65Y-69.25
X143.65Y-70.55
X143.65Y-71.85
X144.95Y-66.65
X144.95Y-67.95
X144.95Y-69.25
X144.95Y-70.55
X144.95Y-71.85
X146.25Y-66.65
X146.25Y-67.95
X146.25Y-69.25
X146.25Y-70.55
X146.25Y-71.85
X147.55Y-66.65
X147.55Y-67.95
X147.55Y-70.55
X147.55Y-71.85
X147.55Y-69.25
T3
X163.44Y-64.55
X163.44Y-66.3
X163.44Y-68.8
X163.44Y-71.3
X163.44Y-73.05
T4
X125.36Y-64.44
X125.36Y-66.98
X125.36Y-69.52
X125.36Y-72.06
X125.36Y-74.6
X127.9Y-63.16
X127.9Y-65.7
X127.9Y-68.24
X127.9Y-70.78
X127.9Y-73.32
T5
X165.44Y-67.55
X165.44Y-70.05
X167.44Y-67.55
X167.44Y-70.05
T6
X114.11Y-62.255
X114.11Y-64.795
X114.11Y-72.965
X114.11Y-75.505
T7
X122.06Y-61.135
X122.06Y-76.625
T8
X170.15Y-62.78
X170.15Y-74.82
M30
