%TF.GenerationSoftware,Altium Limited,Altium Designer,26.4.1 (12)*%
G04 Layer_Physical_Order=1*
G04 Layer_Color=255*
%FSLAX45Y45*%
%MOMM*%
%TF.SameCoordinates,75F45EBC-610C-434E-9A20-4094D29078DF*%
%TF.FilePolarity,Positive*%
%TF.FileFunction,Copper,L1,Top,Signal*%
%TF.Part,Single*%
G01*
G75*
%TA.AperFunction,Conductor*%
%ADD10C,0.25400*%
%TA.AperFunction,SMDPad,CuDef*%
%ADD11R,1.00000X0.66000*%
%ADD12R,1.70000X0.60000*%
%ADD13R,1.45000X1.25000*%
%ADD14R,2.70000X1.00000*%
%TA.AperFunction,ViaPad*%
%ADD15C,0.38100*%
%ADD16C,0.25400*%
D10*
X905853Y531470D02*
G03*
X818353Y443970I0J-87500D01*
G01*
X512853Y256870D02*
G03*
X537853Y281870I0J25000D01*
G01*
X1304999Y444816D02*
G03*
X1316653Y456471I0J11655D01*
G01*
X1184464Y392460D02*
G03*
X1189716Y407928I-20148J15468D01*
G01*
X1184464Y392460D02*
G03*
X1176839Y378453I40253J-30990D01*
G01*
X1152874Y361470D02*
G03*
X1176839Y378453I-1J25401D01*
G01*
X691353Y437670D02*
G03*
X678653Y450370I-12700J0D01*
G01*
X939053Y278970D02*
G03*
X945353Y285270I0J6300D01*
G01*
X691353D02*
G03*
X697653Y278970I6300J0D01*
G01*
X1600353Y324370D02*
G03*
X1554953Y278970I0J-45400D01*
G01*
X1059653Y263470D02*
G03*
X1056653Y266470I-3000J0D01*
G01*
X1835453Y449370D02*
X1843153D01*
X1860453Y432071D01*
X1554953Y443970D02*
Y531470D01*
X1860453Y398820D02*
Y432071D01*
X1224716Y361470D02*
X1319716D01*
X905853Y531470D02*
X918353D01*
X537853Y281870D02*
Y324370D01*
X1316653Y456471D02*
X1353953Y436170D01*
X1189716Y444816D02*
X1304999D01*
X1189716Y407928D02*
Y444816D01*
X1319716Y265496D02*
Y266470D01*
X1152874Y265496D02*
X1319716D01*
X1152874D02*
Y361470D01*
X691353Y285270D02*
Y437670D01*
X945353Y361470D02*
X1152874D01*
X678653Y449370D02*
Y450370D01*
X537853Y449370D02*
X678653D01*
X945353Y285270D02*
Y361470D01*
X818353Y278970D02*
X939053D01*
X697653D02*
X818353D01*
X1600353Y324370D02*
X1835453D01*
X1554953Y183670D02*
Y278970D01*
X1059653Y183670D02*
X1554953D01*
X1059653D02*
Y263470D01*
D11*
X1059716Y266470D02*
D03*
Y456471D02*
D03*
X1319716D02*
D03*
Y361470D02*
D03*
Y266470D02*
D03*
D12*
X1835453Y449370D02*
D03*
X537853Y324370D02*
D03*
Y449370D02*
D03*
X1835453Y324370D02*
D03*
D13*
X1554953Y443970D02*
D03*
X818353D02*
D03*
Y278970D02*
D03*
X1554953D02*
D03*
D14*
X2155453Y634370D02*
D03*
Y139371D02*
D03*
X217853D02*
D03*
Y634370D02*
D03*
D15*
X1554953Y531470D02*
D03*
X1860453Y398820D02*
D03*
D16*
X918353Y531470D02*
D03*
X1224716Y361470D02*
D03*
X512853Y256870D02*
D03*
%TF.MD5,38213d889d137090b734a1c87a073467*%
M02*
