%TF.GenerationSoftware,Altium Limited,Altium Designer,26.4.1 (12)*%
G04 Layer_Color=8388736*
%FSLAX45Y45*%
%MOMM*%
%TF.SameCoordinates,75F45EBC-610C-434E-9A20-4094D29078DF*%
%TF.FilePolarity,Negative*%
%TF.FileFunction,Soldermask,Top*%
%TF.Part,Single*%
G01*
G75*
%TA.AperFunction,SMDPad,CuDef*%
%ADD11R,1.00000X0.66000*%
%ADD12R,1.70000X0.60000*%
%ADD13R,1.45000X1.25000*%
%ADD14R,2.70000X1.00000*%
%TA.AperFunction,ViaPad*%
%ADD15C,0.38100*%
%ADD16C,0.25400*%
D11*
X1059716Y266470D02*
D03*
Y456471D02*
D03*
X1319716D02*
D03*
Y361470D02*
D03*
Y266470D02*
D03*
D12*
X1835453Y449370D02*
D03*
X537853Y324370D02*
D03*
Y449370D02*
D03*
X1835453Y324370D02*
D03*
D13*
X1554953Y443970D02*
D03*
X818353D02*
D03*
Y278970D02*
D03*
X1554953D02*
D03*
D14*
X2155453Y634370D02*
D03*
Y139371D02*
D03*
X217853D02*
D03*
Y634370D02*
D03*
D15*
X1554953Y531470D02*
D03*
X1860453Y398820D02*
D03*
D16*
X918353Y531470D02*
D03*
X1224716Y361470D02*
D03*
X512853Y256870D02*
D03*
%TF.MD5,1cd4601c61647a615e6553264067e247*%
M02*
