%TF.GenerationSoftware,Altium Limited,Altium Designer,26.4.1 (12)*%
G04 Layer_Color=65535*
%FSLAX45Y45*%
%MOMM*%
%TF.SameCoordinates,75F45EBC-610C-434E-9A20-4094D29078DF*%
%TF.FilePolarity,Positive*%
%TF.FileFunction,Legend,Top*%
%TF.Part,Single*%
G01*
G75*
%TA.AperFunction,NonConductor*%
%ADD17C,0.25000*%
%ADD18C,0.20000*%
%ADD19C,0.25400*%
D17*
X1437217Y266470D02*
G03*
X1437217Y266470I-12500J0D01*
G01*
X1705453Y324370D02*
G03*
X1705453Y324370I-12500J0D01*
G01*
X692853Y449370D02*
G03*
X692853Y449370I-12500J0D01*
G01*
D18*
X1224716Y211470D02*
Y511470D01*
X1154717D02*
X1224716D01*
X1154717Y211470D02*
Y511470D01*
Y211470D02*
X1224716D01*
X1860453Y99370D02*
X1982953D01*
X2265453Y226871D02*
Y546870D01*
X1860453Y674371D02*
X1982953D01*
X1860453Y516870D02*
Y674371D01*
Y99370D02*
Y256870D01*
X390353Y674371D02*
X512853D01*
X107853Y226871D02*
Y546870D01*
X390353Y99370D02*
X512853D01*
Y256870D01*
Y516870D02*
Y674371D01*
D19*
X1088149Y742446D02*
Y615487D01*
X1113541Y590095D01*
X1164325D01*
X1189717Y615487D01*
Y742446D01*
X1240500Y590095D02*
X1291284D01*
X1265892D01*
Y742446D01*
X1240500Y717054D01*
X1542262Y145546D02*
X1491478D01*
X1516870D01*
Y18587D01*
X1491478Y-6805D01*
X1466086D01*
X1440694Y18587D01*
X1694612Y-6805D02*
X1593045D01*
X1694612Y94762D01*
Y120154D01*
X1669220Y145546D01*
X1618437D01*
X1593045Y120154D01*
X716753Y132846D02*
X665970D01*
X691362D01*
Y5887D01*
X665970Y-19505D01*
X640578D01*
X615186Y5887D01*
X767537Y-19505D02*
X818320D01*
X792929D01*
Y132846D01*
X767537Y107454D01*
X1542262Y691654D02*
X1516870Y717046D01*
X1466086D01*
X1440694Y691654D01*
Y590087D01*
X1466086Y564695D01*
X1516870D01*
X1542262Y590087D01*
X1694612Y564695D02*
X1593045D01*
X1694612Y666262D01*
Y691654D01*
X1669220Y717046D01*
X1618437D01*
X1593045Y691654D01*
X818353Y717054D02*
X792962Y742446D01*
X742178D01*
X716786Y717054D01*
Y615487D01*
X742178Y590095D01*
X792962D01*
X818353Y615487D01*
X869137Y590095D02*
X919920D01*
X894529D01*
Y742446D01*
X869137Y717054D01*
%TF.MD5,47bf802d0409cda0d3658b2c01167deb*%
M02*
