%TF.GenerationSoftware,KiCad,Pcbnew,10.0.5*%
%TF.CreationDate,2026-07-26T18:02:27-04:00*%
%TF.ProjectId,Li-Po_Battery_Charger(MCP73831),4c692d50-6f5f-4426-9174-746572795f43,rev?*%
%TF.SameCoordinates,Original*%
%TF.FileFunction,Copper,L1,Top*%
%TF.FilePolarity,Positive*%
%FSLAX46Y46*%
G04 Gerber Fmt 4.6, Leading zero omitted, Abs format (unit mm)*
G04 Created by KiCad (PCBNEW 10.0.5) date 2026-07-26 18:02:27*
%MOMM*%
%LPD*%
G01*
G04 APERTURE LIST*
G04 Aperture macros list*
%AMRoundRect*
0 Rectangle with rounded corners*
0 $1 Rounding radius*
0 $2 $3 $4 $5 $6 $7 $8 $9 X,Y pos of 4 corners*
0 Add a 4 corners polygon primitive as box body*
4,1,4,$2,$3,$4,$5,$6,$7,$8,$9,$2,$3,0*
0 Add four circle primitives for the rounded corners*
1,1,$1+$1,$2,$3*
1,1,$1+$1,$4,$5*
1,1,$1+$1,$6,$7*
1,1,$1+$1,$8,$9*
0 Add four rect primitives between the rounded corners*
20,1,$1+$1,$2,$3,$4,$5,0*
20,1,$1+$1,$4,$5,$6,$7,0*
20,1,$1+$1,$6,$7,$8,$9,0*
20,1,$1+$1,$8,$9,$2,$3,0*%
G04 Aperture macros list end*
%TA.AperFunction,SMDPad,CuDef*%
%ADD10RoundRect,0.250001X0.624999X-0.462499X0.624999X0.462499X-0.624999X0.462499X-0.624999X-0.462499X0*%
%TD*%
%TA.AperFunction,ComponentPad*%
%ADD11RoundRect,0.250000X-0.350000X-0.650000X0.350000X-0.650000X0.350000X0.650000X-0.350000X0.650000X0*%
%TD*%
%TA.AperFunction,ComponentPad*%
%ADD12O,1.200000X1.800000*%
%TD*%
%TA.AperFunction,SMDPad,CuDef*%
%ADD13R,1.270000X0.558800*%
%TD*%
%TA.AperFunction,SMDPad,CuDef*%
%ADD14RoundRect,0.250000X0.475000X-0.337500X0.475000X0.337500X-0.475000X0.337500X-0.475000X-0.337500X0*%
%TD*%
%TA.AperFunction,SMDPad,CuDef*%
%ADD15RoundRect,0.125000X0.125000X0.875000X-0.125000X0.875000X-0.125000X-0.875000X0.125000X-0.875000X0*%
%TD*%
%TA.AperFunction,SMDPad,CuDef*%
%ADD16RoundRect,0.250000X0.750000X0.600000X-0.750000X0.600000X-0.750000X-0.600000X0.750000X-0.600000X0*%
%TD*%
%TA.AperFunction,SMDPad,CuDef*%
%ADD17RoundRect,0.250000X-0.337500X-0.475000X0.337500X-0.475000X0.337500X0.475000X-0.337500X0.475000X0*%
%TD*%
%TA.AperFunction,SMDPad,CuDef*%
%ADD18C,0.500000*%
%TD*%
%TA.AperFunction,SMDPad,CuDef*%
%ADD19RoundRect,0.250000X1.075000X-0.362500X1.075000X0.362500X-1.075000X0.362500X-1.075000X-0.362500X0*%
%TD*%
%TA.AperFunction,Conductor*%
%ADD20C,0.200000*%
%TD*%
G04 APERTURE END LIST*
D10*
%TO.P,D1,1,K_1*%
%TO.N,Net-(D1-K)*%
X68000000Y-50987500D03*
%TO.P,D1,2,A_2*%
%TO.N,Net-(D1-A)*%
X68000000Y-48012500D03*
%TD*%
D11*
%TO.P,J2,1,Pin_1_1*%
%TO.N,Net-(J2-Pin_1)*%
X60000000Y-55500000D03*
D12*
%TO.P,J2,2,Pin_2_2*%
%TO.N,Net-(J2-Pin_2)*%
X62000000Y-55500000D03*
%TD*%
D13*
%TO.P,U1,1,STAT_1*%
%TO.N,Net-(U1-STAT)*%
X58135000Y-44185800D03*
%TO.P,U1,2,VSS_2*%
%TO.N,GND*%
X58135000Y-45125600D03*
%TO.P,U1,3,VBAT_3*%
%TO.N,Net-(J2-Pin_2)*%
X58135000Y-46065400D03*
%TO.P,U1,4,VDD_4*%
%TO.N,Net-(D1-K)*%
X60725800Y-46065400D03*
%TO.P,U1,5,PROG_5*%
%TO.N,Net-(U1-PROG)*%
X60725800Y-44185800D03*
%TD*%
D14*
%TO.P,C1,1*%
%TO.N,Net-(D1-K)*%
X64000000Y-46075000D03*
%TO.P,C1,2*%
%TO.N,GND*%
X64000000Y-44000000D03*
%TD*%
D15*
%TO.P,J1,1,VBUS_1*%
%TO.N,Net-(D1-K)*%
X62100000Y-35200000D03*
%TO.P,J1,2,D-_2*%
%TO.N,unconnected-(J1-D--Pad2)*%
X61300000Y-35200000D03*
%TO.P,J1,3,D+_3*%
%TO.N,unconnected-(J1-D+-Pad3)*%
X60500000Y-35200000D03*
%TO.P,J1,4,ID_4*%
%TO.N,unconnected-(J1-ID-Pad4)*%
X59700000Y-35200000D03*
%TO.P,J1,5,GND_5*%
%TO.N,GND*%
X58900000Y-35200000D03*
D16*
%TO.P,J1,SH,Shield_SH*%
%TO.N,unconnected-(J1-Shield-PadSH)*%
X64950000Y-35100000D03*
X64950000Y-29650000D03*
X56050000Y-35100000D03*
X56050000Y-29650000D03*
%TD*%
D17*
%TO.P,C2,1*%
%TO.N,Net-(J2-Pin_2)*%
X58425000Y-49500000D03*
%TO.P,C2,2*%
%TO.N,Net-(J2-Pin_1)*%
X60500000Y-49500000D03*
%TD*%
D18*
%TO.P,fd1,*%
%TO.N,*%
X68500000Y-56000000D03*
%TD*%
D19*
%TO.P,R2,1*%
%TO.N,Net-(D1-A)*%
X68000000Y-45125000D03*
%TO.P,R2,2*%
%TO.N,Net-(U1-STAT)*%
X68000000Y-40500000D03*
%TD*%
D18*
%TO.P,fd2,*%
%TO.N,*%
X52500000Y-28500000D03*
%TD*%
D19*
%TO.P,R1,1*%
%TO.N,GND*%
X54500000Y-48125000D03*
%TO.P,R1,2*%
%TO.N,Net-(U1-PROG)*%
X54500000Y-43500000D03*
%TD*%
%TO.N,Net-(D1-K)*%
D20*
X65487500Y-50987500D02*
X64000000Y-49500000D01*
X70000000Y-48987500D02*
X70000000Y-39500000D01*
X68000000Y-50987500D02*
X70000000Y-48987500D01*
X63990400Y-46065400D02*
X64000000Y-46075000D01*
X64000000Y-49500000D02*
X64000000Y-46075000D01*
X69500000Y-39000000D02*
X63000000Y-39000000D01*
X70000000Y-39500000D02*
X69500000Y-39000000D01*
X64425000Y-46075000D02*
X64000000Y-46075000D01*
X68000000Y-50987500D02*
X65487500Y-50987500D01*
X63000000Y-39000000D02*
X62100000Y-38100000D01*
X60725800Y-46065400D02*
X63990400Y-46065400D01*
X63695400Y-46379600D02*
X64000000Y-46075000D01*
X62100000Y-38100000D02*
X62100000Y-35200000D01*
%TO.N,Net-(D1-A)*%
X68000000Y-48012500D02*
X68000000Y-45125000D01*
%TO.N,Net-(J2-Pin_1)*%
X60500000Y-49500000D02*
X60500000Y-54000000D01*
X60500000Y-54000000D02*
X62000000Y-55500000D01*
%TO.N,Net-(J2-Pin_2)*%
X58135000Y-46065400D02*
X58135000Y-49210000D01*
X58425000Y-49925000D02*
X58500000Y-50000000D01*
X58500000Y-50000000D02*
X58500000Y-54500000D01*
X58425000Y-49500000D02*
X58425000Y-49925000D01*
X58500000Y-54500000D02*
X59500000Y-55500000D01*
X59500000Y-55500000D02*
X60000000Y-55500000D01*
X58135000Y-49210000D02*
X58425000Y-49500000D01*
%TO.N,Net-(U1-STAT)*%
X58135000Y-44185800D02*
X58685800Y-44185800D01*
X58685800Y-44185800D02*
X59500000Y-45000000D01*
X64934314Y-45000000D02*
X67934314Y-42000000D01*
X67934314Y-42000000D02*
X68000000Y-42000000D01*
X59500000Y-45000000D02*
X64934314Y-45000000D01*
X68000000Y-42000000D02*
X68000000Y-40500000D01*
%TO.N,GND*%
X57500000Y-41240000D02*
X57500000Y-40500000D01*
X58900000Y-39100000D02*
X58900000Y-35200000D01*
X57500000Y-41240000D02*
X62740000Y-41240000D01*
X55374400Y-45125600D02*
X58135000Y-45125600D01*
X57500000Y-40500000D02*
X58900000Y-39100000D01*
X52500000Y-42500000D02*
X53760000Y-41240000D01*
X64000000Y-42500000D02*
X64000000Y-44000000D01*
X62740000Y-41240000D02*
X64000000Y-42500000D01*
X53760000Y-41240000D02*
X57500000Y-41240000D01*
X53939800Y-45439800D02*
X52500000Y-44000000D01*
X54500000Y-48125000D02*
X54500000Y-46000000D01*
X54500000Y-46000000D02*
X53939800Y-45439800D01*
X52500000Y-44000000D02*
X52500000Y-42500000D01*
X54500000Y-46000000D02*
X55374400Y-45125600D01*
%TO.N,Net-(U1-PROG)*%
X60725800Y-42725800D02*
X60725800Y-44185800D01*
X54500000Y-43500000D02*
X56000000Y-42000000D01*
X56000000Y-42000000D02*
X60000000Y-42000000D01*
X60000000Y-42000000D02*
X60725800Y-42725800D01*
%TO.N,unconnected-(J1-Shield-PadSH)*%
X56050000Y-29650000D02*
X64950000Y-29650000D01*
X56050000Y-35100000D02*
X56050000Y-29650000D01*
X64950000Y-29650000D02*
X64950000Y-35100000D01*
%TD*%
M02*
