%TF.GenerationSoftware,KiCad,Pcbnew,10.0.5*%
%TF.CreationDate,2026-07-26T18:02:27-04:00*%
%TF.ProjectId,Li-Po_Battery_Charger(MCP73831),4c692d50-6f5f-4426-9174-746572795f43,rev?*%
%TF.SameCoordinates,Original*%
%TF.FileFunction,Legend,Top*%
%TF.FilePolarity,Positive*%
%FSLAX46Y46*%
G04 Gerber Fmt 4.6, Leading zero omitted, Abs format (unit mm)*
G04 Created by KiCad (PCBNEW 10.0.5) date 2026-07-26 18:02:27*
%MOMM*%
%LPD*%
G01*
G04 APERTURE LIST*
%ADD10C,0.100000*%
%ADD11C,0.150000*%
%ADD12C,0.120000*%
%ADD13C,0.152400*%
G04 APERTURE END LIST*
D10*
X65981228Y-55672307D02*
X65981228Y-55291354D01*
X65433609Y-55243735D02*
X65933609Y-55077069D01*
X65933609Y-55077069D02*
X65433609Y-54910402D01*
X65433609Y-54648498D02*
X65433609Y-54553260D01*
X65433609Y-54553260D02*
X65457419Y-54505641D01*
X65457419Y-54505641D02*
X65505038Y-54458022D01*
X65505038Y-54458022D02*
X65600276Y-54434212D01*
X65600276Y-54434212D02*
X65766942Y-54434212D01*
X65766942Y-54434212D02*
X65862180Y-54458022D01*
X65862180Y-54458022D02*
X65909800Y-54505641D01*
X65909800Y-54505641D02*
X65933609Y-54553260D01*
X65933609Y-54553260D02*
X65933609Y-54648498D01*
X65933609Y-54648498D02*
X65909800Y-54696117D01*
X65909800Y-54696117D02*
X65862180Y-54743736D01*
X65862180Y-54743736D02*
X65766942Y-54767545D01*
X65766942Y-54767545D02*
X65600276Y-54767545D01*
X65600276Y-54767545D02*
X65505038Y-54743736D01*
X65505038Y-54743736D02*
X65457419Y-54696117D01*
X65457419Y-54696117D02*
X65433609Y-54648498D01*
X65933609Y-53981831D02*
X65933609Y-54219926D01*
X65933609Y-54219926D02*
X65433609Y-54219926D01*
X65433609Y-53886592D02*
X65433609Y-53600878D01*
X65933609Y-53743735D02*
X65433609Y-53743735D01*
X65981228Y-53553260D02*
X65981228Y-53172307D01*
X68128637Y-32672308D02*
X68128637Y-32910403D01*
X68128637Y-32910403D02*
X67628637Y-32910403D01*
X68128637Y-32505641D02*
X67795304Y-32505641D01*
X67628637Y-32505641D02*
X67652447Y-32529450D01*
X67652447Y-32529450D02*
X67676256Y-32505641D01*
X67676256Y-32505641D02*
X67652447Y-32481831D01*
X67652447Y-32481831D02*
X67628637Y-32505641D01*
X67628637Y-32505641D02*
X67676256Y-32505641D01*
X67938161Y-32267546D02*
X67938161Y-31886594D01*
X68128637Y-31648498D02*
X67628637Y-31648498D01*
X67628637Y-31648498D02*
X67628637Y-31458022D01*
X67628637Y-31458022D02*
X67652447Y-31410403D01*
X67652447Y-31410403D02*
X67676256Y-31386593D01*
X67676256Y-31386593D02*
X67723875Y-31362784D01*
X67723875Y-31362784D02*
X67795304Y-31362784D01*
X67795304Y-31362784D02*
X67842923Y-31386593D01*
X67842923Y-31386593D02*
X67866732Y-31410403D01*
X67866732Y-31410403D02*
X67890542Y-31458022D01*
X67890542Y-31458022D02*
X67890542Y-31648498D01*
X68128637Y-31077069D02*
X68104828Y-31124688D01*
X68104828Y-31124688D02*
X68081018Y-31148498D01*
X68081018Y-31148498D02*
X68033399Y-31172307D01*
X68033399Y-31172307D02*
X67890542Y-31172307D01*
X67890542Y-31172307D02*
X67842923Y-31148498D01*
X67842923Y-31148498D02*
X67819113Y-31124688D01*
X67819113Y-31124688D02*
X67795304Y-31077069D01*
X67795304Y-31077069D02*
X67795304Y-31005641D01*
X67795304Y-31005641D02*
X67819113Y-30958022D01*
X67819113Y-30958022D02*
X67842923Y-30934212D01*
X67842923Y-30934212D02*
X67890542Y-30910403D01*
X67890542Y-30910403D02*
X68033399Y-30910403D01*
X68033399Y-30910403D02*
X68081018Y-30934212D01*
X68081018Y-30934212D02*
X68104828Y-30958022D01*
X68104828Y-30958022D02*
X68128637Y-31005641D01*
X68128637Y-31005641D02*
X68128637Y-31077069D01*
X68671704Y-34648496D02*
X68695514Y-34577068D01*
X68695514Y-34577068D02*
X68719323Y-34553258D01*
X68719323Y-34553258D02*
X68766942Y-34529449D01*
X68766942Y-34529449D02*
X68838371Y-34529449D01*
X68838371Y-34529449D02*
X68885990Y-34553258D01*
X68885990Y-34553258D02*
X68909800Y-34577068D01*
X68909800Y-34577068D02*
X68933609Y-34624687D01*
X68933609Y-34624687D02*
X68933609Y-34815163D01*
X68933609Y-34815163D02*
X68433609Y-34815163D01*
X68433609Y-34815163D02*
X68433609Y-34648496D01*
X68433609Y-34648496D02*
X68457419Y-34600877D01*
X68457419Y-34600877D02*
X68481228Y-34577068D01*
X68481228Y-34577068D02*
X68528847Y-34553258D01*
X68528847Y-34553258D02*
X68576466Y-34553258D01*
X68576466Y-34553258D02*
X68624085Y-34577068D01*
X68624085Y-34577068D02*
X68647895Y-34600877D01*
X68647895Y-34600877D02*
X68671704Y-34648496D01*
X68671704Y-34648496D02*
X68671704Y-34815163D01*
X68933609Y-34100877D02*
X68671704Y-34100877D01*
X68671704Y-34100877D02*
X68624085Y-34124687D01*
X68624085Y-34124687D02*
X68600276Y-34172306D01*
X68600276Y-34172306D02*
X68600276Y-34267544D01*
X68600276Y-34267544D02*
X68624085Y-34315163D01*
X68909800Y-34100877D02*
X68933609Y-34148496D01*
X68933609Y-34148496D02*
X68933609Y-34267544D01*
X68933609Y-34267544D02*
X68909800Y-34315163D01*
X68909800Y-34315163D02*
X68862180Y-34338972D01*
X68862180Y-34338972D02*
X68814561Y-34338972D01*
X68814561Y-34338972D02*
X68766942Y-34315163D01*
X68766942Y-34315163D02*
X68743133Y-34267544D01*
X68743133Y-34267544D02*
X68743133Y-34148496D01*
X68743133Y-34148496D02*
X68719323Y-34100877D01*
X68600276Y-33934210D02*
X68600276Y-33743734D01*
X68433609Y-33862782D02*
X68862180Y-33862782D01*
X68862180Y-33862782D02*
X68909800Y-33838972D01*
X68909800Y-33838972D02*
X68933609Y-33791353D01*
X68933609Y-33791353D02*
X68933609Y-33743734D01*
X68600276Y-33648496D02*
X68600276Y-33458020D01*
X68433609Y-33577068D02*
X68862180Y-33577068D01*
X68862180Y-33577068D02*
X68909800Y-33553258D01*
X68909800Y-33553258D02*
X68933609Y-33505639D01*
X68933609Y-33505639D02*
X68933609Y-33458020D01*
X68909800Y-33100878D02*
X68933609Y-33148497D01*
X68933609Y-33148497D02*
X68933609Y-33243735D01*
X68933609Y-33243735D02*
X68909800Y-33291354D01*
X68909800Y-33291354D02*
X68862180Y-33315163D01*
X68862180Y-33315163D02*
X68671704Y-33315163D01*
X68671704Y-33315163D02*
X68624085Y-33291354D01*
X68624085Y-33291354D02*
X68600276Y-33243735D01*
X68600276Y-33243735D02*
X68600276Y-33148497D01*
X68600276Y-33148497D02*
X68624085Y-33100878D01*
X68624085Y-33100878D02*
X68671704Y-33077068D01*
X68671704Y-33077068D02*
X68719323Y-33077068D01*
X68719323Y-33077068D02*
X68766942Y-33315163D01*
X68933609Y-32862783D02*
X68600276Y-32862783D01*
X68695514Y-32862783D02*
X68647895Y-32838973D01*
X68647895Y-32838973D02*
X68624085Y-32815164D01*
X68624085Y-32815164D02*
X68600276Y-32767545D01*
X68600276Y-32767545D02*
X68600276Y-32719926D01*
X68600276Y-32600878D02*
X68933609Y-32481830D01*
X68600276Y-32362783D02*
X68933609Y-32481830D01*
X68933609Y-32481830D02*
X69052657Y-32529449D01*
X69052657Y-32529449D02*
X69076466Y-32553259D01*
X69076466Y-32553259D02*
X69100276Y-32600878D01*
X68885990Y-31505641D02*
X68909800Y-31529450D01*
X68909800Y-31529450D02*
X68933609Y-31600879D01*
X68933609Y-31600879D02*
X68933609Y-31648498D01*
X68933609Y-31648498D02*
X68909800Y-31719926D01*
X68909800Y-31719926D02*
X68862180Y-31767545D01*
X68862180Y-31767545D02*
X68814561Y-31791355D01*
X68814561Y-31791355D02*
X68719323Y-31815164D01*
X68719323Y-31815164D02*
X68647895Y-31815164D01*
X68647895Y-31815164D02*
X68552657Y-31791355D01*
X68552657Y-31791355D02*
X68505038Y-31767545D01*
X68505038Y-31767545D02*
X68457419Y-31719926D01*
X68457419Y-31719926D02*
X68433609Y-31648498D01*
X68433609Y-31648498D02*
X68433609Y-31600879D01*
X68433609Y-31600879D02*
X68457419Y-31529450D01*
X68457419Y-31529450D02*
X68481228Y-31505641D01*
X68933609Y-31291355D02*
X68433609Y-31291355D01*
X68933609Y-31077069D02*
X68671704Y-31077069D01*
X68671704Y-31077069D02*
X68624085Y-31100879D01*
X68624085Y-31100879D02*
X68600276Y-31148498D01*
X68600276Y-31148498D02*
X68600276Y-31219926D01*
X68600276Y-31219926D02*
X68624085Y-31267545D01*
X68624085Y-31267545D02*
X68647895Y-31291355D01*
X68933609Y-30624688D02*
X68671704Y-30624688D01*
X68671704Y-30624688D02*
X68624085Y-30648498D01*
X68624085Y-30648498D02*
X68600276Y-30696117D01*
X68600276Y-30696117D02*
X68600276Y-30791355D01*
X68600276Y-30791355D02*
X68624085Y-30838974D01*
X68909800Y-30624688D02*
X68933609Y-30672307D01*
X68933609Y-30672307D02*
X68933609Y-30791355D01*
X68933609Y-30791355D02*
X68909800Y-30838974D01*
X68909800Y-30838974D02*
X68862180Y-30862783D01*
X68862180Y-30862783D02*
X68814561Y-30862783D01*
X68814561Y-30862783D02*
X68766942Y-30838974D01*
X68766942Y-30838974D02*
X68743133Y-30791355D01*
X68743133Y-30791355D02*
X68743133Y-30672307D01*
X68743133Y-30672307D02*
X68719323Y-30624688D01*
X68933609Y-30386593D02*
X68600276Y-30386593D01*
X68695514Y-30386593D02*
X68647895Y-30362783D01*
X68647895Y-30362783D02*
X68624085Y-30338974D01*
X68624085Y-30338974D02*
X68600276Y-30291355D01*
X68600276Y-30291355D02*
X68600276Y-30243736D01*
X68600276Y-29862783D02*
X69005038Y-29862783D01*
X69005038Y-29862783D02*
X69052657Y-29886593D01*
X69052657Y-29886593D02*
X69076466Y-29910402D01*
X69076466Y-29910402D02*
X69100276Y-29958021D01*
X69100276Y-29958021D02*
X69100276Y-30029450D01*
X69100276Y-30029450D02*
X69076466Y-30077069D01*
X68909800Y-29862783D02*
X68933609Y-29910402D01*
X68933609Y-29910402D02*
X68933609Y-30005640D01*
X68933609Y-30005640D02*
X68909800Y-30053259D01*
X68909800Y-30053259D02*
X68885990Y-30077069D01*
X68885990Y-30077069D02*
X68838371Y-30100878D01*
X68838371Y-30100878D02*
X68695514Y-30100878D01*
X68695514Y-30100878D02*
X68647895Y-30077069D01*
X68647895Y-30077069D02*
X68624085Y-30053259D01*
X68624085Y-30053259D02*
X68600276Y-30005640D01*
X68600276Y-30005640D02*
X68600276Y-29910402D01*
X68600276Y-29910402D02*
X68624085Y-29862783D01*
X68909800Y-29434212D02*
X68933609Y-29481831D01*
X68933609Y-29481831D02*
X68933609Y-29577069D01*
X68933609Y-29577069D02*
X68909800Y-29624688D01*
X68909800Y-29624688D02*
X68862180Y-29648497D01*
X68862180Y-29648497D02*
X68671704Y-29648497D01*
X68671704Y-29648497D02*
X68624085Y-29624688D01*
X68624085Y-29624688D02*
X68600276Y-29577069D01*
X68600276Y-29577069D02*
X68600276Y-29481831D01*
X68600276Y-29481831D02*
X68624085Y-29434212D01*
X68624085Y-29434212D02*
X68671704Y-29410402D01*
X68671704Y-29410402D02*
X68719323Y-29410402D01*
X68719323Y-29410402D02*
X68766942Y-29648497D01*
X68933609Y-29196117D02*
X68600276Y-29196117D01*
X68695514Y-29196117D02*
X68647895Y-29172307D01*
X68647895Y-29172307D02*
X68624085Y-29148498D01*
X68624085Y-29148498D02*
X68600276Y-29100879D01*
X68600276Y-29100879D02*
X68600276Y-29053260D01*
D11*
X66624819Y-50238094D02*
X65624819Y-50238094D01*
X65624819Y-50238094D02*
X65624819Y-49999999D01*
X65624819Y-49999999D02*
X65672438Y-49857142D01*
X65672438Y-49857142D02*
X65767676Y-49761904D01*
X65767676Y-49761904D02*
X65862914Y-49714285D01*
X65862914Y-49714285D02*
X66053390Y-49666666D01*
X66053390Y-49666666D02*
X66196247Y-49666666D01*
X66196247Y-49666666D02*
X66386723Y-49714285D01*
X66386723Y-49714285D02*
X66481961Y-49761904D01*
X66481961Y-49761904D02*
X66577200Y-49857142D01*
X66577200Y-49857142D02*
X66624819Y-49999999D01*
X66624819Y-49999999D02*
X66624819Y-50238094D01*
X66624819Y-48714285D02*
X66624819Y-49285713D01*
X66624819Y-48999999D02*
X65624819Y-48999999D01*
X65624819Y-48999999D02*
X65767676Y-49095237D01*
X65767676Y-49095237D02*
X65862914Y-49190475D01*
X65862914Y-49190475D02*
X65910533Y-49285713D01*
X60666666Y-52254819D02*
X60666666Y-52969104D01*
X60666666Y-52969104D02*
X60619047Y-53111961D01*
X60619047Y-53111961D02*
X60523809Y-53207200D01*
X60523809Y-53207200D02*
X60380952Y-53254819D01*
X60380952Y-53254819D02*
X60285714Y-53254819D01*
X61095238Y-52350057D02*
X61142857Y-52302438D01*
X61142857Y-52302438D02*
X61238095Y-52254819D01*
X61238095Y-52254819D02*
X61476190Y-52254819D01*
X61476190Y-52254819D02*
X61571428Y-52302438D01*
X61571428Y-52302438D02*
X61619047Y-52350057D01*
X61619047Y-52350057D02*
X61666666Y-52445295D01*
X61666666Y-52445295D02*
X61666666Y-52540533D01*
X61666666Y-52540533D02*
X61619047Y-52683390D01*
X61619047Y-52683390D02*
X61047619Y-53254819D01*
X61047619Y-53254819D02*
X61666666Y-53254819D01*
X54380952Y-55431009D02*
X54523809Y-55478628D01*
X54523809Y-55478628D02*
X54571428Y-55526247D01*
X54571428Y-55526247D02*
X54619047Y-55621485D01*
X54619047Y-55621485D02*
X54619047Y-55764342D01*
X54619047Y-55764342D02*
X54571428Y-55859580D01*
X54571428Y-55859580D02*
X54523809Y-55907200D01*
X54523809Y-55907200D02*
X54428571Y-55954819D01*
X54428571Y-55954819D02*
X54047619Y-55954819D01*
X54047619Y-55954819D02*
X54047619Y-54954819D01*
X54047619Y-54954819D02*
X54380952Y-54954819D01*
X54380952Y-54954819D02*
X54476190Y-55002438D01*
X54476190Y-55002438D02*
X54523809Y-55050057D01*
X54523809Y-55050057D02*
X54571428Y-55145295D01*
X54571428Y-55145295D02*
X54571428Y-55240533D01*
X54571428Y-55240533D02*
X54523809Y-55335771D01*
X54523809Y-55335771D02*
X54476190Y-55383390D01*
X54476190Y-55383390D02*
X54380952Y-55431009D01*
X54380952Y-55431009D02*
X54047619Y-55431009D01*
X55000000Y-55669104D02*
X55476190Y-55669104D01*
X54904762Y-55954819D02*
X55238095Y-54954819D01*
X55238095Y-54954819D02*
X55571428Y-55954819D01*
X55761905Y-54954819D02*
X56333333Y-54954819D01*
X56047619Y-55954819D02*
X56047619Y-54954819D01*
X56523810Y-54954819D02*
X57095238Y-54954819D01*
X56809524Y-55954819D02*
X56809524Y-54954819D01*
X58637666Y-41313490D02*
X58637666Y-42641810D01*
X58637666Y-42641810D02*
X58715802Y-42798083D01*
X58715802Y-42798083D02*
X58793939Y-42876220D01*
X58793939Y-42876220D02*
X58950212Y-42954356D01*
X58950212Y-42954356D02*
X59262758Y-42954356D01*
X59262758Y-42954356D02*
X59419031Y-42876220D01*
X59419031Y-42876220D02*
X59497167Y-42798083D01*
X59497167Y-42798083D02*
X59575304Y-42641810D01*
X59575304Y-42641810D02*
X59575304Y-41313490D01*
X61216169Y-42954356D02*
X60278531Y-42954356D01*
X60747350Y-42954356D02*
X60747350Y-41313490D01*
X60747350Y-41313490D02*
X60591077Y-41547899D01*
X60591077Y-41547899D02*
X60434804Y-41704172D01*
X60434804Y-41704172D02*
X60278531Y-41782309D01*
X62679580Y-45204166D02*
X62727200Y-45251785D01*
X62727200Y-45251785D02*
X62774819Y-45394642D01*
X62774819Y-45394642D02*
X62774819Y-45489880D01*
X62774819Y-45489880D02*
X62727200Y-45632737D01*
X62727200Y-45632737D02*
X62631961Y-45727975D01*
X62631961Y-45727975D02*
X62536723Y-45775594D01*
X62536723Y-45775594D02*
X62346247Y-45823213D01*
X62346247Y-45823213D02*
X62203390Y-45823213D01*
X62203390Y-45823213D02*
X62012914Y-45775594D01*
X62012914Y-45775594D02*
X61917676Y-45727975D01*
X61917676Y-45727975D02*
X61822438Y-45632737D01*
X61822438Y-45632737D02*
X61774819Y-45489880D01*
X61774819Y-45489880D02*
X61774819Y-45394642D01*
X61774819Y-45394642D02*
X61822438Y-45251785D01*
X61822438Y-45251785D02*
X61870057Y-45204166D01*
X62774819Y-44251785D02*
X62774819Y-44823213D01*
X62774819Y-44537499D02*
X61774819Y-44537499D01*
X61774819Y-44537499D02*
X61917676Y-44632737D01*
X61917676Y-44632737D02*
X62012914Y-44727975D01*
X62012914Y-44727975D02*
X62060533Y-44823213D01*
X60166666Y-36954819D02*
X60166666Y-37669104D01*
X60166666Y-37669104D02*
X60119047Y-37811961D01*
X60119047Y-37811961D02*
X60023809Y-37907200D01*
X60023809Y-37907200D02*
X59880952Y-37954819D01*
X59880952Y-37954819D02*
X59785714Y-37954819D01*
X61166666Y-37954819D02*
X60595238Y-37954819D01*
X60880952Y-37954819D02*
X60880952Y-36954819D01*
X60880952Y-36954819D02*
X60785714Y-37097676D01*
X60785714Y-37097676D02*
X60690476Y-37192914D01*
X60690476Y-37192914D02*
X60595238Y-37240533D01*
X54738095Y-36954819D02*
X54738095Y-37764342D01*
X54738095Y-37764342D02*
X54785714Y-37859580D01*
X54785714Y-37859580D02*
X54833333Y-37907200D01*
X54833333Y-37907200D02*
X54928571Y-37954819D01*
X54928571Y-37954819D02*
X55119047Y-37954819D01*
X55119047Y-37954819D02*
X55214285Y-37907200D01*
X55214285Y-37907200D02*
X55261904Y-37859580D01*
X55261904Y-37859580D02*
X55309523Y-37764342D01*
X55309523Y-37764342D02*
X55309523Y-36954819D01*
X55738095Y-37907200D02*
X55880952Y-37954819D01*
X55880952Y-37954819D02*
X56119047Y-37954819D01*
X56119047Y-37954819D02*
X56214285Y-37907200D01*
X56214285Y-37907200D02*
X56261904Y-37859580D01*
X56261904Y-37859580D02*
X56309523Y-37764342D01*
X56309523Y-37764342D02*
X56309523Y-37669104D01*
X56309523Y-37669104D02*
X56261904Y-37573866D01*
X56261904Y-37573866D02*
X56214285Y-37526247D01*
X56214285Y-37526247D02*
X56119047Y-37478628D01*
X56119047Y-37478628D02*
X55928571Y-37431009D01*
X55928571Y-37431009D02*
X55833333Y-37383390D01*
X55833333Y-37383390D02*
X55785714Y-37335771D01*
X55785714Y-37335771D02*
X55738095Y-37240533D01*
X55738095Y-37240533D02*
X55738095Y-37145295D01*
X55738095Y-37145295D02*
X55785714Y-37050057D01*
X55785714Y-37050057D02*
X55833333Y-37002438D01*
X55833333Y-37002438D02*
X55928571Y-36954819D01*
X55928571Y-36954819D02*
X56166666Y-36954819D01*
X56166666Y-36954819D02*
X56309523Y-37002438D01*
X57071428Y-37431009D02*
X57214285Y-37478628D01*
X57214285Y-37478628D02*
X57261904Y-37526247D01*
X57261904Y-37526247D02*
X57309523Y-37621485D01*
X57309523Y-37621485D02*
X57309523Y-37764342D01*
X57309523Y-37764342D02*
X57261904Y-37859580D01*
X57261904Y-37859580D02*
X57214285Y-37907200D01*
X57214285Y-37907200D02*
X57119047Y-37954819D01*
X57119047Y-37954819D02*
X56738095Y-37954819D01*
X56738095Y-37954819D02*
X56738095Y-36954819D01*
X56738095Y-36954819D02*
X57071428Y-36954819D01*
X57071428Y-36954819D02*
X57166666Y-37002438D01*
X57166666Y-37002438D02*
X57214285Y-37050057D01*
X57214285Y-37050057D02*
X57261904Y-37145295D01*
X57261904Y-37145295D02*
X57261904Y-37240533D01*
X57261904Y-37240533D02*
X57214285Y-37335771D01*
X57214285Y-37335771D02*
X57166666Y-37383390D01*
X57166666Y-37383390D02*
X57071428Y-37431009D01*
X57071428Y-37431009D02*
X56738095Y-37431009D01*
X59295833Y-48179580D02*
X59248214Y-48227200D01*
X59248214Y-48227200D02*
X59105357Y-48274819D01*
X59105357Y-48274819D02*
X59010119Y-48274819D01*
X59010119Y-48274819D02*
X58867262Y-48227200D01*
X58867262Y-48227200D02*
X58772024Y-48131961D01*
X58772024Y-48131961D02*
X58724405Y-48036723D01*
X58724405Y-48036723D02*
X58676786Y-47846247D01*
X58676786Y-47846247D02*
X58676786Y-47703390D01*
X58676786Y-47703390D02*
X58724405Y-47512914D01*
X58724405Y-47512914D02*
X58772024Y-47417676D01*
X58772024Y-47417676D02*
X58867262Y-47322438D01*
X58867262Y-47322438D02*
X59010119Y-47274819D01*
X59010119Y-47274819D02*
X59105357Y-47274819D01*
X59105357Y-47274819D02*
X59248214Y-47322438D01*
X59248214Y-47322438D02*
X59295833Y-47370057D01*
X59676786Y-47370057D02*
X59724405Y-47322438D01*
X59724405Y-47322438D02*
X59819643Y-47274819D01*
X59819643Y-47274819D02*
X60057738Y-47274819D01*
X60057738Y-47274819D02*
X60152976Y-47322438D01*
X60152976Y-47322438D02*
X60200595Y-47370057D01*
X60200595Y-47370057D02*
X60248214Y-47465295D01*
X60248214Y-47465295D02*
X60248214Y-47560533D01*
X60248214Y-47560533D02*
X60200595Y-47703390D01*
X60200595Y-47703390D02*
X59629167Y-48274819D01*
X59629167Y-48274819D02*
X60248214Y-48274819D01*
X67380952Y-53288152D02*
X67761904Y-53288152D01*
X67523809Y-53954819D02*
X67523809Y-53097676D01*
X67523809Y-53097676D02*
X67571428Y-53002438D01*
X67571428Y-53002438D02*
X67666666Y-52954819D01*
X67666666Y-52954819D02*
X67761904Y-52954819D01*
X68523809Y-53954819D02*
X68523809Y-52954819D01*
X68523809Y-53907200D02*
X68428571Y-53954819D01*
X68428571Y-53954819D02*
X68238095Y-53954819D01*
X68238095Y-53954819D02*
X68142857Y-53907200D01*
X68142857Y-53907200D02*
X68095238Y-53859580D01*
X68095238Y-53859580D02*
X68047619Y-53764342D01*
X68047619Y-53764342D02*
X68047619Y-53478628D01*
X68047619Y-53478628D02*
X68095238Y-53383390D01*
X68095238Y-53383390D02*
X68142857Y-53335771D01*
X68142857Y-53335771D02*
X68238095Y-53288152D01*
X68238095Y-53288152D02*
X68428571Y-53288152D01*
X68428571Y-53288152D02*
X68523809Y-53335771D01*
X69523809Y-53954819D02*
X68952381Y-53954819D01*
X69238095Y-53954819D02*
X69238095Y-52954819D01*
X69238095Y-52954819D02*
X69142857Y-53097676D01*
X69142857Y-53097676D02*
X69047619Y-53192914D01*
X69047619Y-53192914D02*
X68952381Y-53240533D01*
X65954819Y-41666666D02*
X65478628Y-41999999D01*
X65954819Y-42238094D02*
X64954819Y-42238094D01*
X64954819Y-42238094D02*
X64954819Y-41857142D01*
X64954819Y-41857142D02*
X65002438Y-41761904D01*
X65002438Y-41761904D02*
X65050057Y-41714285D01*
X65050057Y-41714285D02*
X65145295Y-41666666D01*
X65145295Y-41666666D02*
X65288152Y-41666666D01*
X65288152Y-41666666D02*
X65383390Y-41714285D01*
X65383390Y-41714285D02*
X65431009Y-41761904D01*
X65431009Y-41761904D02*
X65478628Y-41857142D01*
X65478628Y-41857142D02*
X65478628Y-42238094D01*
X65050057Y-41285713D02*
X65002438Y-41238094D01*
X65002438Y-41238094D02*
X64954819Y-41142856D01*
X64954819Y-41142856D02*
X64954819Y-40904761D01*
X64954819Y-40904761D02*
X65002438Y-40809523D01*
X65002438Y-40809523D02*
X65050057Y-40761904D01*
X65050057Y-40761904D02*
X65145295Y-40714285D01*
X65145295Y-40714285D02*
X65240533Y-40714285D01*
X65240533Y-40714285D02*
X65383390Y-40761904D01*
X65383390Y-40761904D02*
X65954819Y-41333332D01*
X65954819Y-41333332D02*
X65954819Y-40714285D01*
X51380952Y-30288152D02*
X51761904Y-30288152D01*
X51523809Y-30954819D02*
X51523809Y-30097676D01*
X51523809Y-30097676D02*
X51571428Y-30002438D01*
X51571428Y-30002438D02*
X51666666Y-29954819D01*
X51666666Y-29954819D02*
X51761904Y-29954819D01*
X52523809Y-30954819D02*
X52523809Y-29954819D01*
X52523809Y-30907200D02*
X52428571Y-30954819D01*
X52428571Y-30954819D02*
X52238095Y-30954819D01*
X52238095Y-30954819D02*
X52142857Y-30907200D01*
X52142857Y-30907200D02*
X52095238Y-30859580D01*
X52095238Y-30859580D02*
X52047619Y-30764342D01*
X52047619Y-30764342D02*
X52047619Y-30478628D01*
X52047619Y-30478628D02*
X52095238Y-30383390D01*
X52095238Y-30383390D02*
X52142857Y-30335771D01*
X52142857Y-30335771D02*
X52238095Y-30288152D01*
X52238095Y-30288152D02*
X52428571Y-30288152D01*
X52428571Y-30288152D02*
X52523809Y-30335771D01*
X52952381Y-30050057D02*
X53000000Y-30002438D01*
X53000000Y-30002438D02*
X53095238Y-29954819D01*
X53095238Y-29954819D02*
X53333333Y-29954819D01*
X53333333Y-29954819D02*
X53428571Y-30002438D01*
X53428571Y-30002438D02*
X53476190Y-30050057D01*
X53476190Y-30050057D02*
X53523809Y-30145295D01*
X53523809Y-30145295D02*
X53523809Y-30240533D01*
X53523809Y-30240533D02*
X53476190Y-30383390D01*
X53476190Y-30383390D02*
X52904762Y-30954819D01*
X52904762Y-30954819D02*
X53523809Y-30954819D01*
X52454819Y-45979166D02*
X51978628Y-46312499D01*
X52454819Y-46550594D02*
X51454819Y-46550594D01*
X51454819Y-46550594D02*
X51454819Y-46169642D01*
X51454819Y-46169642D02*
X51502438Y-46074404D01*
X51502438Y-46074404D02*
X51550057Y-46026785D01*
X51550057Y-46026785D02*
X51645295Y-45979166D01*
X51645295Y-45979166D02*
X51788152Y-45979166D01*
X51788152Y-45979166D02*
X51883390Y-46026785D01*
X51883390Y-46026785D02*
X51931009Y-46074404D01*
X51931009Y-46074404D02*
X51978628Y-46169642D01*
X51978628Y-46169642D02*
X51978628Y-46550594D01*
X52454819Y-45026785D02*
X52454819Y-45598213D01*
X52454819Y-45312499D02*
X51454819Y-45312499D01*
X51454819Y-45312499D02*
X51597676Y-45407737D01*
X51597676Y-45407737D02*
X51692914Y-45502975D01*
X51692914Y-45502975D02*
X51740533Y-45598213D01*
%TO.C,D1*%
D12*
X66865000Y-47900000D02*
X66865000Y-51960000D01*
X66865000Y-51960000D02*
X69135000Y-51960000D01*
X69135000Y-51960000D02*
X69135000Y-47900000D01*
%TO.C,J2*%
X57590000Y-53590000D02*
X57590000Y-55890000D01*
X57890000Y-56300000D02*
X58290000Y-56300000D01*
X58290000Y-54290000D02*
X58290000Y-55500000D01*
X58290000Y-55500000D02*
X58690000Y-55500000D01*
X58290000Y-55900000D02*
X58290000Y-57760000D01*
X58690000Y-55500000D02*
X58690000Y-55900000D01*
X58690000Y-55900000D02*
X58290000Y-55900000D01*
X59890000Y-53590000D02*
X57590000Y-53590000D01*
X61000000Y-54290000D02*
X58290000Y-54290000D01*
X61000000Y-54290000D02*
X63710000Y-54290000D01*
X63310000Y-55500000D02*
X63310000Y-55900000D01*
X63310000Y-55900000D02*
X63710000Y-55900000D01*
X63710000Y-54290000D02*
X63710000Y-55500000D01*
X63710000Y-55500000D02*
X63310000Y-55500000D01*
X63710000Y-55900000D02*
X63710000Y-57760000D01*
X64110000Y-56300000D02*
X63710000Y-56300000D01*
X57890000Y-53890000D02*
X64110000Y-53890000D01*
X64110000Y-57760000D01*
X57890000Y-57760000D01*
X57890000Y-53890000D01*
%TO.C,U1*%
D13*
X59125600Y-43576200D02*
X58820800Y-43576200D01*
X59735200Y-43576200D02*
X59125600Y-43576200D01*
X60040000Y-43576200D02*
X59735200Y-43576200D01*
D10*
X59735200Y-43576200D02*
G75*
G02*
X59125600Y-43576200I-304800J0D01*
G01*
%TO.C,C1*%
D12*
X63265000Y-45298752D02*
X63265000Y-44776248D01*
X64735000Y-45298752D02*
X64735000Y-44776248D01*
%TO.C,J1*%
X56590000Y-26590000D02*
X56590000Y-28540000D01*
X56590000Y-26590000D02*
X64410000Y-26590000D01*
X56590000Y-30760000D02*
X56590000Y-33990000D01*
X58390000Y-35910000D02*
X57310000Y-35910000D01*
X62610000Y-35910000D02*
X62610000Y-36340000D01*
X63690000Y-35910000D02*
X62610000Y-35910000D01*
X64410000Y-26590000D02*
X64410000Y-28540000D01*
X64410000Y-30760000D02*
X64410000Y-33990000D01*
%TO.C,C2*%
X59201248Y-48765000D02*
X59723752Y-48765000D01*
X59201248Y-50235000D02*
X59723752Y-50235000D01*
%TO.C,R2*%
X66640000Y-44339564D02*
X66640000Y-41285436D01*
X69360000Y-44339564D02*
X69360000Y-41285436D01*
%TO.C,R1*%
X53140000Y-47339564D02*
X53140000Y-44285436D01*
X55860000Y-47339564D02*
X55860000Y-44285436D01*
%TD*%
M02*
