%TF.GenerationSoftware,KiCad,Pcbnew,10.0.5*%
%TF.CreationDate,2026-08-04T00:28:34-04:00*%
%TF.ProjectId,STM32 and GPS Technology PCB,53544d33-3220-4616-9e64-204750532054,rev?*%
%TF.SameCoordinates,Original*%
%TF.FileFunction,Soldermask,Bot*%
%TF.FilePolarity,Negative*%
%FSLAX46Y46*%
G04 Gerber Fmt 4.6, Leading zero omitted, Abs format (unit mm)*
G04 Created by KiCad (PCBNEW 10.0.5) date 2026-08-04 00:28:34*
%MOMM*%
%LPD*%
G01*
G04 APERTURE LIST*
G04 Aperture macros list*
%AMRoundRect*
0 Rectangle with rounded corners*
0 $1 Rounding radius*
0 $2 $3 $4 $5 $6 $7 $8 $9 X,Y pos of 4 corners*
0 Add a 4 corners polygon primitive as box body*
4,1,4,$2,$3,$4,$5,$6,$7,$8,$9,$2,$3,0*
0 Add four circle primitives for the rounded corners*
1,1,$1+$1,$2,$3*
1,1,$1+$1,$4,$5*
1,1,$1+$1,$6,$7*
1,1,$1+$1,$8,$9*
0 Add four rect primitives between the rounded corners*
20,1,$1+$1,$2,$3,$4,$5,0*
20,1,$1+$1,$4,$5,$6,$7,0*
20,1,$1+$1,$6,$7,$8,$9,0*
20,1,$1+$1,$8,$9,$2,$3,0*%
G04 Aperture macros list end*
%ADD10RoundRect,0.075000X-0.415425X0.521491X-0.521491X0.415425X0.415425X-0.521491X0.521491X-0.415425X0*%
%ADD11RoundRect,0.075000X0.415425X0.521491X-0.521491X-0.415425X-0.415425X-0.521491X0.521491X0.415425X0*%
%ADD12O,0.804000X1.804000*%
%ADD13O,1.804000X0.804000*%
%ADD14C,0.650000*%
%ADD15C,3.600000*%
%ADD16C,5.600000*%
%ADD17R,2.000000X4.600000*%
%ADD18O,2.000000X4.200000*%
%ADD19O,4.200000X2.000000*%
%ADD20RoundRect,0.140000X0.140000X0.170000X-0.140000X0.170000X-0.140000X-0.170000X0.140000X-0.170000X0*%
%ADD21R,1.900000X0.400000*%
%ADD22RoundRect,0.135000X-0.185000X0.135000X-0.185000X-0.135000X0.185000X-0.135000X0.185000X0.135000X0*%
%ADD23RoundRect,0.250000X-0.475000X-0.250000X0.475000X-0.250000X0.475000X0.250000X-0.475000X0.250000X0*%
%ADD24RoundRect,0.140000X0.170000X-0.140000X0.170000X0.140000X-0.170000X0.140000X-0.170000X-0.140000X0*%
%ADD25RoundRect,0.250000X0.250000X-0.475000X0.250000X0.475000X-0.250000X0.475000X-0.250000X-0.475000X0*%
%ADD26RoundRect,0.102000X-0.750000X0.500000X-0.750000X-0.500000X0.750000X-0.500000X0.750000X0.500000X0*%
%ADD27RoundRect,0.102000X-0.800000X0.750000X-0.800000X-0.750000X0.800000X-0.750000X0.800000X0.750000X0*%
%ADD28RoundRect,0.135000X0.185000X-0.135000X0.185000X0.135000X-0.185000X0.135000X-0.185000X-0.135000X0*%
%ADD29RoundRect,0.250000X-0.550000X1.250000X-0.550000X-1.250000X0.550000X-1.250000X0.550000X1.250000X0*%
%ADD30RoundRect,0.140000X-0.170000X0.140000X-0.170000X-0.140000X0.170000X-0.140000X0.170000X0.140000X0*%
%ADD31RoundRect,0.135000X0.135000X0.185000X-0.135000X0.185000X-0.135000X-0.185000X0.135000X-0.185000X0*%
%ADD32R,1.350000X1.350000*%
%ADD33C,1.350000*%
%ADD34RoundRect,0.250000X-0.600000X0.400000X-0.600000X-0.400000X0.600000X-0.400000X0.600000X0.400000X0*%
G04 APERTURE END LIST*
D10*
%TO.C,STM32*%
X135809088Y-54753336D03*
X135455534Y-55106890D03*
X135101981Y-55460443D03*
X134748427Y-55813997D03*
X134394874Y-56167550D03*
X134041321Y-56521103D03*
X133687767Y-56874657D03*
X133334214Y-57228210D03*
X132980661Y-57581763D03*
X132627107Y-57935317D03*
X132273554Y-58288870D03*
X131920000Y-58642424D03*
D11*
X131920000Y-60640000D03*
X132273554Y-60993554D03*
X132627107Y-61347107D03*
X132980661Y-61700661D03*
X133334214Y-62054214D03*
X133687767Y-62407767D03*
X134041321Y-62761321D03*
X134394874Y-63114874D03*
X134748427Y-63468427D03*
X135101981Y-63821981D03*
X135455534Y-64175534D03*
X135809088Y-64529088D03*
D10*
X137806664Y-64529088D03*
X138160218Y-64175534D03*
X138513771Y-63821981D03*
X138867325Y-63468427D03*
X139220878Y-63114874D03*
X139574431Y-62761321D03*
X139927985Y-62407767D03*
X140281538Y-62054214D03*
X140635091Y-61700661D03*
X140988645Y-61347107D03*
X141342198Y-60993554D03*
X141695752Y-60640000D03*
D11*
X141695752Y-58642424D03*
X141342198Y-58288870D03*
X140988645Y-57935317D03*
X140635091Y-57581763D03*
X140281538Y-57228210D03*
X139927985Y-56874657D03*
X139574431Y-56521103D03*
X139220878Y-56167550D03*
X138867325Y-55813997D03*
X138513771Y-55460443D03*
X138160218Y-55106890D03*
X137806664Y-54753336D03*
%TD*%
D12*
%TO.C,SIM808*%
X169000000Y-52500000D03*
X168000000Y-52500000D03*
X167000000Y-52500000D03*
X166000000Y-52500000D03*
X165000000Y-52500000D03*
X164000000Y-52500000D03*
X163000000Y-52500000D03*
X162000000Y-52500000D03*
X161000000Y-52500000D03*
X160000000Y-52500000D03*
X159000000Y-52500000D03*
X158000000Y-52500000D03*
X157000000Y-52500000D03*
X156000000Y-52500000D03*
X155000000Y-52500000D03*
X154000000Y-52500000D03*
X153000000Y-52500000D03*
D13*
X149000000Y-56500000D03*
X149000000Y-57500000D03*
X149000000Y-58500000D03*
X149000000Y-59500000D03*
X149000000Y-60500000D03*
X149000000Y-61500000D03*
X149000000Y-62500000D03*
X149000000Y-63500000D03*
X149000000Y-64500000D03*
X149000000Y-65500000D03*
X149000000Y-66500000D03*
X149000000Y-67500000D03*
X149000000Y-68500000D03*
X149000000Y-69500000D03*
X149000000Y-70500000D03*
X149000000Y-71500000D03*
X149000000Y-72500000D03*
D12*
X153000000Y-76500000D03*
X154000000Y-76500000D03*
X155000000Y-76500000D03*
X156000000Y-76500000D03*
X157000000Y-76500000D03*
X158000000Y-76500000D03*
X159000000Y-76500000D03*
X160000000Y-76500000D03*
X161000000Y-76500000D03*
X162000000Y-76500000D03*
X163000000Y-76500000D03*
X164000000Y-76500000D03*
X165000000Y-76500000D03*
X166000000Y-76500000D03*
X167000000Y-76500000D03*
X168000000Y-76500000D03*
X169000000Y-76500000D03*
D13*
X173000000Y-72500000D03*
X173000000Y-71500000D03*
X173000000Y-70500000D03*
X173000000Y-69500000D03*
X173000000Y-68500000D03*
X173000000Y-67500000D03*
X173000000Y-66500000D03*
X173000000Y-65500000D03*
X173000000Y-64500000D03*
X173000000Y-63500000D03*
X173000000Y-62500000D03*
X173000000Y-61500000D03*
X173000000Y-60500000D03*
X173000000Y-59500000D03*
X173000000Y-58500000D03*
X173000000Y-57500000D03*
X173000000Y-56500000D03*
%TD*%
D14*
%TO.C,J2*%
X168395000Y-41110000D03*
X168395000Y-46890000D03*
%TD*%
D15*
%TO.C,H2*%
X111420000Y-37200000D03*
D16*
X111420000Y-37200000D03*
%TD*%
D17*
%TO.C,J1*%
X121500000Y-46000000D03*
D18*
X115200000Y-46000000D03*
D19*
X118600000Y-50800000D03*
%TD*%
D15*
%TO.C,H1*%
X162420000Y-82200000D03*
D16*
X162420000Y-82200000D03*
%TD*%
D15*
%TO.C,H4*%
X162420000Y-37200000D03*
D16*
X162420000Y-37200000D03*
%TD*%
D15*
%TO.C,H3*%
X111420000Y-82200000D03*
D16*
X111420000Y-82200000D03*
%TD*%
D20*
%TO.C,C22*%
X159000000Y-44745000D03*
X158040000Y-44745000D03*
%TD*%
%TO.C,C21*%
X159000000Y-42455000D03*
X158040000Y-42455000D03*
%TD*%
D21*
%TO.C,Y1*%
X143970000Y-53900000D03*
X143970000Y-55100000D03*
X143970000Y-56300000D03*
%TD*%
D22*
%TO.C,R11*%
X127500000Y-58000000D03*
X127500000Y-59020000D03*
%TD*%
D23*
%TO.C,SW3*%
X127850000Y-84200000D03*
X133000000Y-84200000D03*
X127850000Y-82500000D03*
X133000000Y-82500000D03*
%TD*%
D24*
%TO.C,C19*%
X147300000Y-49660000D03*
X147300000Y-48700000D03*
%TD*%
D25*
%TO.C,SW2*%
X120700000Y-84400000D03*
X120700000Y-79250000D03*
X119000000Y-84400000D03*
X119000000Y-79250000D03*
%TD*%
D26*
%TO.C,SIM HOLDER*%
X111550000Y-64050000D03*
X111550000Y-66590000D03*
X111550000Y-69130000D03*
X124150000Y-64050000D03*
X124150000Y-66590000D03*
X124150000Y-69130000D03*
D27*
X118600000Y-75400000D03*
X115900000Y-75400000D03*
X118600000Y-60500000D03*
X115900000Y-60500000D03*
%TD*%
D28*
%TO.C,R10*%
X138500000Y-78500000D03*
X138500000Y-77480000D03*
%TD*%
D29*
%TO.C,C3*%
X138500000Y-69300000D03*
X138500000Y-73700000D03*
%TD*%
D30*
%TO.C,C18*%
X127550000Y-55660000D03*
X127550000Y-56620000D03*
%TD*%
D31*
%TO.C,R9*%
X129150000Y-62500000D03*
X128130000Y-62500000D03*
%TD*%
D32*
%TO.C,J3*%
X141960000Y-82910000D03*
D33*
X143960000Y-82910000D03*
X145960000Y-82910000D03*
X147960000Y-82910000D03*
X149960000Y-82910000D03*
X151960000Y-82910000D03*
X153960000Y-82910000D03*
X155960000Y-82910000D03*
%TD*%
D28*
%TO.C,R5*%
X129500000Y-60020000D03*
X129500000Y-59000000D03*
%TD*%
D20*
%TO.C,C1*%
X119000000Y-47260000D03*
X118040000Y-47260000D03*
%TD*%
D34*
%TO.C,D5*%
X144300000Y-69420000D03*
X144300000Y-72920000D03*
%TD*%
D32*
%TO.C,J4*%
X141960000Y-37910000D03*
D33*
X143960000Y-37910000D03*
X145960000Y-37910000D03*
X147960000Y-37910000D03*
X149960000Y-37910000D03*
X151960000Y-37910000D03*
X153960000Y-37910000D03*
X155960000Y-37910000D03*
%TD*%
M02*
