%TF.GenerationSoftware,KiCad,Pcbnew,10.0.5*%
%TF.CreationDate,2026-08-04T00:28:34-04:00*%
%TF.ProjectId,STM32 and GPS Technology PCB,53544d33-3220-4616-9e64-204750532054,rev?*%
%TF.SameCoordinates,Original*%
%TF.FileFunction,Soldermask,Top*%
%TF.FilePolarity,Negative*%
%FSLAX46Y46*%
G04 Gerber Fmt 4.6, Leading zero omitted, Abs format (unit mm)*
G04 Created by KiCad (PCBNEW 10.0.5) date 2026-08-04 00:28:34*
%MOMM*%
%LPD*%
G01*
G04 APERTURE LIST*
G04 Aperture macros list*
%AMRoundRect*
0 Rectangle with rounded corners*
0 $1 Rounding radius*
0 $2 $3 $4 $5 $6 $7 $8 $9 X,Y pos of 4 corners*
0 Add a 4 corners polygon primitive as box body*
4,1,4,$2,$3,$4,$5,$6,$7,$8,$9,$2,$3,0*
0 Add four circle primitives for the rounded corners*
1,1,$1+$1,$2,$3*
1,1,$1+$1,$4,$5*
1,1,$1+$1,$6,$7*
1,1,$1+$1,$8,$9*
0 Add four rect primitives between the rounded corners*
20,1,$1+$1,$2,$3,$4,$5,0*
20,1,$1+$1,$4,$5,$6,$7,0*
20,1,$1+$1,$6,$7,$8,$9,0*
20,1,$1+$1,$8,$9,$2,$3,0*%
G04 Aperture macros list end*
%ADD10RoundRect,0.250000X0.750000X-0.840000X0.750000X0.840000X-0.750000X0.840000X-0.750000X-0.840000X0*%
%ADD11RoundRect,0.075000X0.300000X-0.075000X0.300000X0.075000X-0.300000X0.075000X-0.300000X-0.075000X0*%
%ADD12RoundRect,0.050000X0.325000X-0.050000X0.325000X0.050000X-0.325000X0.050000X-0.325000X-0.050000X0*%
%ADD13RoundRect,0.050000X0.450000X-0.050000X0.450000X0.050000X-0.450000X0.050000X-0.450000X-0.050000X0*%
%ADD14C,0.650000*%
%ADD15RoundRect,0.250000X-0.275000X0.750000X-0.275000X-0.750000X0.275000X-0.750000X0.275000X0.750000X0*%
%ADD16RoundRect,0.250000X-0.275000X0.850000X-0.275000X-0.850000X0.275000X-0.850000X0.275000X0.850000X0*%
%ADD17RoundRect,0.250000X-0.250000X0.275000X-0.250000X-0.275000X0.250000X-0.275000X0.250000X0.275000X0*%
%ADD18R,1.550000X0.600000*%
%ADD19R,2.600000X3.100000*%
%ADD20RoundRect,0.147500X-0.172500X0.147500X-0.172500X-0.147500X0.172500X-0.147500X0.172500X0.147500X0*%
%ADD21RoundRect,0.140000X-0.140000X-0.170000X0.140000X-0.170000X0.140000X0.170000X-0.140000X0.170000X0*%
%ADD22RoundRect,0.140000X-0.170000X0.140000X-0.170000X-0.140000X0.170000X-0.140000X0.170000X0.140000X0*%
%ADD23RoundRect,0.135000X0.185000X-0.135000X0.185000X0.135000X-0.185000X0.135000X-0.185000X-0.135000X0*%
%ADD24RoundRect,0.250000X-0.275000X-0.250000X0.275000X-0.250000X0.275000X0.250000X-0.275000X0.250000X0*%
%ADD25RoundRect,0.250000X-0.850000X-0.275000X0.850000X-0.275000X0.850000X0.275000X-0.850000X0.275000X0*%
%ADD26C,3.600000*%
%ADD27C,5.600000*%
%ADD28RoundRect,0.087500X-0.425000X-0.087500X0.425000X-0.087500X0.425000X0.087500X-0.425000X0.087500X0*%
%ADD29RoundRect,0.135000X-0.135000X-0.185000X0.135000X-0.185000X0.135000X0.185000X-0.135000X0.185000X0*%
%ADD30RoundRect,0.218750X0.218750X0.256250X-0.218750X0.256250X-0.218750X-0.256250X0.218750X-0.256250X0*%
%ADD31RoundRect,0.140000X0.170000X-0.140000X0.170000X0.140000X-0.170000X0.140000X-0.170000X-0.140000X0*%
%ADD32R,2.000000X4.600000*%
%ADD33O,2.000000X4.200000*%
%ADD34O,4.200000X2.000000*%
%ADD35R,5.400000X2.900000*%
%ADD36RoundRect,0.218750X0.256250X-0.218750X0.256250X0.218750X-0.256250X0.218750X-0.256250X-0.218750X0*%
%ADD37RoundRect,0.218750X-0.218750X-0.256250X0.218750X-0.256250X0.218750X0.256250X-0.218750X0.256250X0*%
%ADD38RoundRect,0.250000X-1.250000X-0.550000X1.250000X-0.550000X1.250000X0.550000X-1.250000X0.550000X0*%
%ADD39RoundRect,0.135000X0.135000X0.185000X-0.135000X0.185000X-0.135000X-0.185000X0.135000X-0.185000X0*%
%ADD40RoundRect,0.147500X-0.147500X-0.172500X0.147500X-0.172500X0.147500X0.172500X-0.147500X0.172500X0*%
%ADD41RoundRect,0.150000X-0.512500X-0.150000X0.512500X-0.150000X0.512500X0.150000X-0.512500X0.150000X0*%
%ADD42R,1.350000X1.350000*%
%ADD43C,1.350000*%
G04 APERTURE END LIST*
%TO.C,GPS*%
G36*
X143585000Y-77510000D02*
G01*
X145465000Y-77510000D01*
X145465000Y-79600000D01*
X143585000Y-79600000D01*
X143585000Y-77510000D01*
G37*
%TO.C,GSM*%
G36*
X151510000Y-46035000D02*
G01*
X153600000Y-46035000D01*
X153600000Y-47915000D01*
X151510000Y-47915000D01*
X151510000Y-46035000D01*
G37*
%TD*%
D10*
%TO.C,J2*%
X171825000Y-38890000D03*
X167895000Y-38890000D03*
X171825000Y-49110000D03*
X167895000Y-49110000D03*
D11*
X167320000Y-47200000D03*
D12*
X167320000Y-46400000D03*
X167320000Y-45750000D03*
X167320000Y-44750000D03*
X167320000Y-43250000D03*
X167320000Y-42250000D03*
X167320000Y-41600000D03*
D13*
X167320000Y-40800000D03*
D12*
X167320000Y-40800000D03*
X167320000Y-41600000D03*
X167320000Y-42750000D03*
X167320000Y-43750000D03*
X167320000Y-44250000D03*
X167320000Y-45250000D03*
X167320000Y-46400000D03*
D11*
X167320000Y-47200000D03*
D14*
X168395000Y-41110000D03*
X168395000Y-46890000D03*
%TD*%
D15*
%TO.C,GPS*%
X143050000Y-78500000D03*
D16*
X146000000Y-78500000D03*
D17*
X144525000Y-76975000D03*
%TD*%
D18*
%TO.C,U3*%
X133420000Y-53705000D03*
X133420000Y-52435000D03*
X133420000Y-51165000D03*
X133420000Y-49895000D03*
X128020000Y-49895000D03*
X128020000Y-51165000D03*
X128020000Y-52435000D03*
X128020000Y-53705000D03*
D19*
X130720000Y-51800000D03*
%TD*%
D20*
%TO.C,FB1*%
X141840000Y-51000000D03*
X141840000Y-51970000D03*
%TD*%
D21*
%TO.C,C9*%
X144375000Y-52250000D03*
X145335000Y-52250000D03*
%TD*%
D22*
%TO.C,C5*%
X131285000Y-65990000D03*
X131285000Y-66950000D03*
%TD*%
D23*
%TO.C,R1*%
X141050000Y-45240000D03*
X141050000Y-44220000D03*
%TD*%
D22*
%TO.C,C6*%
X126835000Y-66010000D03*
X126835000Y-66970000D03*
%TD*%
D24*
%TO.C,GSM*%
X150975000Y-46975000D03*
D25*
X152500000Y-45500000D03*
X152500000Y-48450000D03*
%TD*%
D26*
%TO.C,H2*%
X111420000Y-37200000D03*
D27*
X111420000Y-37200000D03*
%TD*%
D21*
%TO.C,C10*%
X145640000Y-59500000D03*
X146600000Y-59500000D03*
%TD*%
%TO.C,C13*%
X139330000Y-53190000D03*
X140290000Y-53190000D03*
%TD*%
D28*
%TO.C,U6*%
X112825000Y-53000000D03*
X112825000Y-53650000D03*
X112825000Y-54300000D03*
X114500000Y-54300000D03*
X114500000Y-53650000D03*
X114500000Y-53000000D03*
%TD*%
D29*
%TO.C,R3*%
X142130000Y-48720000D03*
X143150000Y-48720000D03*
%TD*%
D30*
%TO.C,D1*%
X119500000Y-54000000D03*
X117925000Y-54000000D03*
%TD*%
D29*
%TO.C,R7*%
X132067500Y-69910000D03*
X133087500Y-69910000D03*
%TD*%
D31*
%TO.C,C17*%
X136410000Y-51700000D03*
X136410000Y-50740000D03*
%TD*%
D21*
%TO.C,C4*%
X136380000Y-53190000D03*
X137340000Y-53190000D03*
%TD*%
%TO.C,C16*%
X126802500Y-74270000D03*
X127762500Y-74270000D03*
%TD*%
%TO.C,C15*%
X126852500Y-72740000D03*
X127812500Y-72740000D03*
%TD*%
D32*
%TO.C,J1*%
X121500000Y-46000000D03*
D33*
X115200000Y-46000000D03*
D34*
X118600000Y-50800000D03*
%TD*%
D29*
%TO.C,R12*%
X145680000Y-64900000D03*
X146700000Y-64900000D03*
%TD*%
D31*
%TO.C,C11*%
X141790000Y-56050000D03*
X141790000Y-55090000D03*
%TD*%
%TO.C,C2*%
X125000000Y-51960000D03*
X125000000Y-51000000D03*
%TD*%
D26*
%TO.C,H1*%
X162420000Y-82200000D03*
D27*
X162420000Y-82200000D03*
%TD*%
D35*
%TO.C,L1*%
X133040000Y-45190000D03*
X133040000Y-35490000D03*
%TD*%
D29*
%TO.C,R2*%
X141000000Y-46870000D03*
X142020000Y-46870000D03*
%TD*%
D26*
%TO.C,H4*%
X162420000Y-37200000D03*
D27*
X162420000Y-37200000D03*
%TD*%
D26*
%TO.C,H3*%
X111420000Y-82200000D03*
D27*
X111420000Y-82200000D03*
%TD*%
D36*
%TO.C,F1*%
X124810000Y-49000000D03*
X124810000Y-47425000D03*
%TD*%
D22*
%TO.C,C7*%
X129725000Y-66000000D03*
X129725000Y-66960000D03*
%TD*%
D29*
%TO.C,R8*%
X132047500Y-76760000D03*
X133067500Y-76760000D03*
%TD*%
D37*
%TO.C,D3*%
X131492500Y-71980000D03*
X133067500Y-71980000D03*
%TD*%
D22*
%TO.C,C8*%
X128255000Y-66020000D03*
X128255000Y-66980000D03*
%TD*%
D31*
%TO.C,C12*%
X138000000Y-59980000D03*
X138000000Y-59020000D03*
%TD*%
D38*
%TO.C,C20*%
X143760000Y-43290000D03*
X148160000Y-43290000D03*
%TD*%
D21*
%TO.C,C14*%
X145740000Y-63400000D03*
X146700000Y-63400000D03*
%TD*%
D39*
%TO.C,R15*%
X129777500Y-77670000D03*
X128757500Y-77670000D03*
%TD*%
%TO.C,R6*%
X128747500Y-75890000D03*
X127727500Y-75890000D03*
%TD*%
D40*
%TO.C,D2*%
X138070000Y-50045000D03*
X139040000Y-50045000D03*
%TD*%
D37*
%TO.C,D4*%
X131472500Y-74500000D03*
X133047500Y-74500000D03*
%TD*%
D41*
%TO.C,Q2*%
X121225000Y-37550000D03*
X121225000Y-39450000D03*
X123500000Y-38500000D03*
%TD*%
D23*
%TO.C,R14*%
X162953000Y-43510000D03*
X162953000Y-42490000D03*
%TD*%
%TO.C,R13*%
X162973000Y-45520000D03*
X162973000Y-44500000D03*
%TD*%
D29*
%TO.C,R4*%
X138090000Y-51560000D03*
X139110000Y-51560000D03*
%TD*%
D42*
%TO.C,J3*%
X141960000Y-82910000D03*
D43*
X143960000Y-82910000D03*
X145960000Y-82910000D03*
X147960000Y-82910000D03*
X149960000Y-82910000D03*
X151960000Y-82910000D03*
X153960000Y-82910000D03*
X155960000Y-82910000D03*
%TD*%
D42*
%TO.C,J4*%
X141960000Y-37910000D03*
D43*
X143960000Y-37910000D03*
X145960000Y-37910000D03*
X147960000Y-37910000D03*
X149960000Y-37910000D03*
X151960000Y-37910000D03*
X153960000Y-37910000D03*
X155960000Y-37910000D03*
%TD*%
M02*
