%TF.GenerationSoftware,KiCad,Pcbnew,10.0.5*%
%TF.CreationDate,2026-08-04T00:28:33-04:00*%
%TF.ProjectId,STM32 and GPS Technology PCB,53544d33-3220-4616-9e64-204750532054,rev?*%
%TF.SameCoordinates,Original*%
%TF.FileFunction,Copper,L3,Inr*%
%TF.FilePolarity,Positive*%
%FSLAX46Y46*%
G04 Gerber Fmt 4.6, Leading zero omitted, Abs format (unit mm)*
G04 Created by KiCad (PCBNEW 10.0.5) date 2026-08-04 00:28:33*
%MOMM*%
%LPD*%
G01*
G04 APERTURE LIST*
%TA.AperFunction,ComponentPad*%
%ADD10C,0.600000*%
%TD*%
%TA.AperFunction,ComponentPad*%
%ADD11C,3.600000*%
%TD*%
%TA.AperFunction,ComponentPad*%
%ADD12R,2.000000X4.600000*%
%TD*%
%TA.AperFunction,ComponentPad*%
%ADD13O,2.000000X4.200000*%
%TD*%
%TA.AperFunction,ComponentPad*%
%ADD14O,4.200000X2.000000*%
%TD*%
%TA.AperFunction,ComponentPad*%
%ADD15R,1.350000X1.350000*%
%TD*%
%TA.AperFunction,ComponentPad*%
%ADD16C,1.350000*%
%TD*%
%TA.AperFunction,ViaPad*%
%ADD17C,0.600000*%
%TD*%
%TA.AperFunction,Conductor*%
%ADD18C,0.300000*%
%TD*%
%TA.AperFunction,Conductor*%
%ADD19C,0.200000*%
%TD*%
G04 APERTURE END LIST*
D10*
%TO.N,GND*%
%TO.C,U3*%
X131320000Y-53600000D03*
X131320000Y-52400000D03*
X131320000Y-51100000D03*
X131320000Y-50000000D03*
X130120000Y-53600000D03*
X130120000Y-52400000D03*
X130120000Y-51100000D03*
X130120000Y-50000000D03*
%TD*%
D11*
%TO.N,unconnected-(H2-Pad1)_2*%
%TO.C,H2*%
X111420000Y-37200000D03*
%TD*%
D12*
%TO.N,+12V*%
%TO.C,J1*%
X121500000Y-46000000D03*
D13*
%TO.N,GND*%
X115200000Y-46000000D03*
D14*
%TO.N,N/C*%
X118600000Y-50800000D03*
%TD*%
D11*
%TO.N,unconnected-(H1-Pad1)*%
%TO.C,H1*%
X162420000Y-82200000D03*
%TD*%
%TO.N,unconnected-(H4-Pad1)_2*%
%TO.C,H4*%
X162420000Y-37200000D03*
%TD*%
%TO.N,unconnected-(H3-Pad1)*%
%TO.C,H3*%
X111420000Y-82200000D03*
%TD*%
D15*
%TO.N,GND*%
%TO.C,J3*%
X141960000Y-82910000D03*
D16*
%TO.N,PA7{slash}SPI1_MOSI*%
X143960000Y-82910000D03*
%TO.N,PA6{slash}SPI1_MISO*%
X145960000Y-82910000D03*
%TO.N,PA5{slash}SPI1_CLK*%
X147960000Y-82910000D03*
%TO.N,PA4*%
X149960000Y-82910000D03*
%TO.N,UART2_RX*%
X151960000Y-82910000D03*
%TO.N,UART2_TX*%
X153960000Y-82910000D03*
%TO.N,+3.3V*%
X155960000Y-82910000D03*
%TD*%
D15*
%TO.N,GND*%
%TO.C,J4*%
X141960000Y-37910000D03*
D16*
%TO.N,SWDIO*%
X143960000Y-37910000D03*
%TO.N,NRST*%
X145960000Y-37910000D03*
%TO.N,SWDCLK*%
X147960000Y-37910000D03*
%TO.N,SIM_RST*%
X149960000Y-37910000D03*
%TO.N,SIM_RX*%
X151960000Y-37910000D03*
%TO.N,SIM_TX*%
X153960000Y-37910000D03*
%TO.N,SIM_PWRKEY*%
X155960000Y-37910000D03*
%TD*%
D17*
%TO.N,SWDCLK*%
X135676482Y-49077242D03*
%TO.N,GND*%
X139740380Y-81259620D03*
X146000000Y-79900000D03*
%TO.N,SIM_RX*%
X168400000Y-68600000D03*
%TO.N,SIM_TX*%
X132624265Y-63100000D03*
%TO.N,SIM_RX*%
X134995381Y-60795381D03*
%TO.N,SIM_RST*%
X171100000Y-71900000D03*
X155000000Y-74700000D03*
%TO.N,SIM_DATA*%
X156200000Y-64900000D03*
%TO.N,SIM_DET*%
X146700000Y-65800000D03*
%TO.N,UART2_TX*%
X142600000Y-59500000D03*
%TO.N,Net-(U2-PF1)*%
X147050000Y-62600000D03*
%TO.N,UART2_RX*%
X143100000Y-60800000D03*
%TO.N,Net-(U2-PB11)*%
X132350000Y-67200000D03*
%TO.N,GND*%
X139100000Y-65100000D03*
%TO.N,Feedback*%
X134350000Y-48000000D03*
X135650000Y-48000000D03*
%TO.N,GND*%
X136500000Y-56000000D03*
X127000000Y-68000000D03*
X157010000Y-43595000D03*
X130500000Y-76500000D03*
X164000000Y-44000000D03*
X172000000Y-36500000D03*
X118000000Y-48500000D03*
X154000000Y-50000000D03*
X126000000Y-84000000D03*
X139500000Y-59000000D03*
X126500000Y-75500000D03*
X159000000Y-75100000D03*
X142000000Y-35900000D03*
X146000000Y-55000000D03*
X171500000Y-56500000D03*
X129500000Y-58000000D03*
X172000000Y-47000000D03*
X138000000Y-49150000D03*
X138500000Y-76000000D03*
X147000000Y-48000000D03*
%TO.N,+3.3V*%
X144500000Y-51000000D03*
X136500000Y-54000000D03*
X137100000Y-70200000D03*
X117000000Y-79000000D03*
X156000000Y-85000000D03*
X160000000Y-42500000D03*
X138000000Y-41500000D03*
%TO.N,+3.3VA*%
X142000000Y-57000000D03*
%TO.N,GSM_ANT*%
X167000000Y-54500000D03*
%TO.N,USB_DP*%
X161000000Y-72500000D03*
%TO.N,USB_DN*%
X160000000Y-71500000D03*
%TO.N,Net-(U2-PF0)*%
X140000000Y-54500000D03*
%TO.N,Net-(J5-CLK)*%
X110000000Y-56500000D03*
%TO.N,Net-(C18-Pad1)*%
X110900000Y-53650000D03*
%TO.N,Net-(J5-I{slash}O)*%
X126000000Y-59500000D03*
%TO.N,Net-(J5-RET)*%
X126650000Y-62500000D03*
X124500000Y-62500000D03*
X114500000Y-58500000D03*
%TO.N,SIM_DET*%
X154000000Y-69100000D03*
X124100000Y-65200000D03*
X133000000Y-64400000D03*
X116000000Y-54000000D03*
%TO.N,SIM_VDD*%
X158000000Y-73200000D03*
X136410000Y-49910000D03*
X112000000Y-52000000D03*
X110000000Y-52000000D03*
%TO.N,LED2*%
X133750000Y-65850000D03*
%TO.N,Net-(C15-Pad2)*%
X125000000Y-79000000D03*
%TO.N,Net-(U1-VDD_EXT)*%
X156900000Y-64200000D03*
%TO.N,Net-(C1-Pad1)*%
X124000000Y-43000000D03*
%TO.N,LED1*%
X134500000Y-66500000D03*
%TO.N,NRST*%
X135000000Y-82500000D03*
X138500000Y-57800000D03*
X141090000Y-52800000D03*
%TO.N,GPS_ANT*%
X144500000Y-75000000D03*
%TO.N,SIM_PWRKEY*%
X164900000Y-50500000D03*
X135900000Y-57000000D03*
%TO.N,SIM_TX*%
X169200000Y-69500000D03*
%TO.N,SIM_RST*%
X135000000Y-57500000D03*
%TO.N,SIM_DATA*%
X130000000Y-61400000D03*
%TO.N,PA4*%
X147000000Y-70700000D03*
%TO.N,PA5{slash}SPI1_CLK*%
X142460000Y-62608520D03*
%TO.N,PA6{slash}SPI1_MISO*%
X145800000Y-70750000D03*
%TO.N,PA7{slash}SPI1_MOSI*%
X137900000Y-60900000D03*
%TO.N,SWDIO*%
X139334358Y-54056239D03*
X133600000Y-60300000D03*
%TO.N,SWDCLK*%
X132500000Y-55900000D03*
%TD*%
%TO.N,SIM_RST*%
D18*
X149960000Y-41040000D02*
X149960000Y-37910000D01*
X146500000Y-41600000D02*
X149400000Y-41600000D01*
X149400000Y-41600000D02*
X149960000Y-41040000D01*
X145800000Y-49300000D02*
X145800000Y-42300000D01*
X141319239Y-50100000D02*
X145000000Y-50100000D01*
X135000000Y-56419239D02*
X141319239Y-50100000D01*
X145000000Y-50100000D02*
X145800000Y-49300000D01*
X135000000Y-57500000D02*
X135000000Y-56419239D01*
X145800000Y-42300000D02*
X146500000Y-41600000D01*
%TO.N,SIM_RX*%
D19*
X136200000Y-62000000D02*
X134995381Y-60795381D01*
X158600000Y-62000000D02*
X136200000Y-62000000D01*
X159800000Y-68300000D02*
X159800000Y-63200000D01*
X159800000Y-63200000D02*
X158600000Y-62000000D01*
X160100000Y-68600000D02*
X159800000Y-68300000D01*
X168400000Y-68600000D02*
X160100000Y-68600000D01*
%TO.N,SIM_PWRKEY*%
D18*
X135900000Y-58500000D02*
X135900000Y-57000000D01*
X136700000Y-59300000D02*
X135900000Y-58500000D01*
X138100000Y-59300000D02*
X136700000Y-59300000D01*
X140250000Y-61450000D02*
X138100000Y-59300000D01*
X153200000Y-55300000D02*
X152600000Y-55900000D01*
X164400000Y-55300000D02*
X153200000Y-55300000D01*
X164900000Y-54800000D02*
X164400000Y-55300000D01*
X152600000Y-55900000D02*
X152600000Y-60900000D01*
X152600000Y-60900000D02*
X152050000Y-61450000D01*
X164900000Y-50500000D02*
X164900000Y-54800000D01*
X152050000Y-61450000D02*
X140250000Y-61450000D01*
%TO.N,SIM_TX*%
D19*
X159500000Y-69500000D02*
X169200000Y-69500000D01*
X158800000Y-68800000D02*
X159500000Y-69500000D01*
X142708529Y-63208520D02*
X142717049Y-63200000D01*
X158400000Y-63200000D02*
X158800000Y-63600000D01*
X158800000Y-63600000D02*
X158800000Y-68800000D01*
X142211471Y-63208520D02*
X142708529Y-63208520D01*
X142202951Y-63200000D02*
X142211471Y-63208520D01*
X142717049Y-63200000D02*
X158400000Y-63200000D01*
X132724265Y-63200000D02*
X142202951Y-63200000D01*
X132624265Y-63100000D02*
X132724265Y-63200000D01*
%TO.N,SIM_DATA*%
X132300000Y-63700000D02*
X130000000Y-61400000D01*
X155000000Y-63700000D02*
X132300000Y-63700000D01*
X156200000Y-64900000D02*
X155000000Y-63700000D01*
%TO.N,SIM_DET*%
D18*
X134900000Y-65800000D02*
X146700000Y-65800000D01*
X133500000Y-64400000D02*
X134900000Y-65800000D01*
X133000000Y-64400000D02*
X133500000Y-64400000D01*
%TO.N,NRST*%
X141100000Y-54400000D02*
X141100000Y-52810000D01*
X141100000Y-52810000D02*
X141090000Y-52800000D01*
X138500000Y-57800000D02*
X138500000Y-57000000D01*
X138500000Y-57000000D02*
X141100000Y-54400000D01*
%TD*%
%TA.AperFunction,Conductor*%
%TO.N,+3.3V*%
G36*
X171453038Y-33360649D02*
G01*
X171817316Y-33378545D01*
X171829423Y-33379738D01*
X172187170Y-33432805D01*
X172199104Y-33435179D01*
X172330349Y-33468053D01*
X172549948Y-33523060D01*
X172561565Y-33526585D01*
X172902094Y-33648427D01*
X172913323Y-33653078D01*
X173240296Y-33807724D01*
X173251004Y-33813448D01*
X173503787Y-33964961D01*
X173561215Y-33999382D01*
X173571330Y-34006140D01*
X173622993Y-34044456D01*
X173861832Y-34221591D01*
X173871238Y-34229311D01*
X174139216Y-34472192D01*
X174147807Y-34480783D01*
X174181413Y-34517861D01*
X174390688Y-34748761D01*
X174398408Y-34758167D01*
X174613857Y-35048666D01*
X174620617Y-35058784D01*
X174752136Y-35278210D01*
X174806544Y-35368983D01*
X174812279Y-35379711D01*
X174879019Y-35520821D01*
X174966918Y-35706669D01*
X174971574Y-35717912D01*
X175008514Y-35821153D01*
X175068825Y-35989711D01*
X175093409Y-36058417D01*
X175096942Y-36070062D01*
X175184820Y-36420895D01*
X175187194Y-36432829D01*
X175240261Y-36790576D01*
X175241454Y-36802686D01*
X175259351Y-37166966D01*
X175259500Y-37173051D01*
X175259500Y-37179377D01*
X175257647Y-39267681D01*
X175219554Y-82187917D01*
X175219500Y-82188479D01*
X175219500Y-82236947D01*
X175219351Y-82243032D01*
X175201502Y-82606335D01*
X175200309Y-82618444D01*
X175147388Y-82975217D01*
X175145014Y-82987153D01*
X175057373Y-83337035D01*
X175053840Y-83348680D01*
X174932335Y-83688262D01*
X174927679Y-83699504D01*
X174773462Y-84025570D01*
X174767725Y-84036302D01*
X174582303Y-84345659D01*
X174575543Y-84355777D01*
X174360678Y-84645488D01*
X174352958Y-84654894D01*
X174110743Y-84922138D01*
X174102138Y-84930743D01*
X173834894Y-85172958D01*
X173825488Y-85180678D01*
X173535777Y-85395543D01*
X173525659Y-85402303D01*
X173216302Y-85587725D01*
X173205570Y-85593462D01*
X172879504Y-85747679D01*
X172868262Y-85752335D01*
X172528680Y-85873840D01*
X172517035Y-85877373D01*
X172167153Y-85965014D01*
X172155217Y-85967388D01*
X171798444Y-86020309D01*
X171786335Y-86021502D01*
X171423068Y-86039349D01*
X171416900Y-86039498D01*
X111472143Y-85999534D01*
X111471797Y-85999500D01*
X111459882Y-85999500D01*
X111423060Y-85999500D01*
X111416977Y-85999351D01*
X111384533Y-85997757D01*
X111053664Y-85981502D01*
X111041555Y-85980309D01*
X110684782Y-85927388D01*
X110672846Y-85925014D01*
X110322964Y-85837373D01*
X110311323Y-85833841D01*
X109971734Y-85712334D01*
X109960495Y-85707679D01*
X109819571Y-85641027D01*
X109634425Y-85553460D01*
X109623702Y-85547727D01*
X109314340Y-85362303D01*
X109304222Y-85355543D01*
X109014511Y-85140678D01*
X109005105Y-85132958D01*
X108962479Y-85094324D01*
X108737853Y-84890735D01*
X108729264Y-84882146D01*
X108487041Y-84614894D01*
X108479321Y-84605488D01*
X108401455Y-84500498D01*
X108264454Y-84315774D01*
X108257696Y-84305659D01*
X108246012Y-84286165D01*
X108072267Y-83996290D01*
X108066543Y-83985582D01*
X107912317Y-83659497D01*
X107907669Y-83648275D01*
X107786154Y-83308663D01*
X107782629Y-83297046D01*
X107694982Y-82947140D01*
X107692613Y-82935230D01*
X107639689Y-82578440D01*
X107638497Y-82566335D01*
X107637069Y-82537259D01*
X107620648Y-82203021D01*
X107620500Y-82196953D01*
X107620533Y-82049223D01*
X109119500Y-82049223D01*
X109119500Y-82350776D01*
X109119501Y-82350793D01*
X109158861Y-82649766D01*
X109236913Y-82941060D01*
X109352314Y-83219661D01*
X109352318Y-83219671D01*
X109503099Y-83480831D01*
X109686679Y-83720078D01*
X109686685Y-83720085D01*
X109899914Y-83933314D01*
X109899921Y-83933320D01*
X110139168Y-84116900D01*
X110400328Y-84267681D01*
X110400329Y-84267681D01*
X110400332Y-84267683D01*
X110586072Y-84344619D01*
X110678939Y-84383086D01*
X110678940Y-84383086D01*
X110678942Y-84383087D01*
X110970232Y-84461138D01*
X111269217Y-84500500D01*
X111269224Y-84500500D01*
X111570776Y-84500500D01*
X111570783Y-84500500D01*
X111869768Y-84461138D01*
X112161058Y-84383087D01*
X112439668Y-84267683D01*
X112700832Y-84116900D01*
X112940080Y-83933319D01*
X112952246Y-83921153D01*
X125199500Y-83921153D01*
X125199500Y-84078846D01*
X125230261Y-84233489D01*
X125230264Y-84233501D01*
X125290602Y-84379172D01*
X125290609Y-84379185D01*
X125378210Y-84510288D01*
X125378213Y-84510292D01*
X125489707Y-84621786D01*
X125489711Y-84621789D01*
X125620814Y-84709390D01*
X125620827Y-84709397D01*
X125766498Y-84769735D01*
X125766503Y-84769737D01*
X125921153Y-84800499D01*
X125921156Y-84800500D01*
X125921158Y-84800500D01*
X126078844Y-84800500D01*
X126078845Y-84800499D01*
X126233497Y-84769737D01*
X126379179Y-84709394D01*
X126510289Y-84621789D01*
X126621789Y-84510289D01*
X126709394Y-84379179D01*
X126769737Y-84233497D01*
X126800500Y-84078842D01*
X126800500Y-83921158D01*
X126800500Y-83921155D01*
X126800499Y-83921153D01*
X126787830Y-83857461D01*
X126769737Y-83766503D01*
X126769735Y-83766498D01*
X126709397Y-83620827D01*
X126709390Y-83620814D01*
X126621789Y-83489711D01*
X126621786Y-83489707D01*
X126510292Y-83378213D01*
X126510288Y-83378210D01*
X126379185Y-83290609D01*
X126379172Y-83290602D01*
X126233501Y-83230264D01*
X126233489Y-83230261D01*
X126078845Y-83199500D01*
X126078842Y-83199500D01*
X125921158Y-83199500D01*
X125921155Y-83199500D01*
X125766510Y-83230261D01*
X125766498Y-83230264D01*
X125620827Y-83290602D01*
X125620814Y-83290609D01*
X125489711Y-83378210D01*
X125489707Y-83378213D01*
X125378213Y-83489707D01*
X125378210Y-83489711D01*
X125290609Y-83620814D01*
X125290602Y-83620827D01*
X125230264Y-83766498D01*
X125230261Y-83766510D01*
X125199500Y-83921153D01*
X112952246Y-83921153D01*
X112974916Y-83898483D01*
X113046015Y-83827385D01*
X113153314Y-83720085D01*
X113153319Y-83720080D01*
X113336900Y-83480832D01*
X113487683Y-83219668D01*
X113603087Y-82941058D01*
X113681138Y-82649768D01*
X113711235Y-82421158D01*
X113711236Y-82421153D01*
X134199500Y-82421153D01*
X134199500Y-82578846D01*
X134230261Y-82733489D01*
X134230264Y-82733501D01*
X134290602Y-82879172D01*
X134290609Y-82879185D01*
X134378210Y-83010288D01*
X134378213Y-83010292D01*
X134489707Y-83121786D01*
X134489711Y-83121789D01*
X134620814Y-83209390D01*
X134620827Y-83209397D01*
X134751573Y-83263553D01*
X134766503Y-83269737D01*
X134921153Y-83300499D01*
X134921156Y-83300500D01*
X134921158Y-83300500D01*
X135078844Y-83300500D01*
X135078845Y-83300499D01*
X135233497Y-83269737D01*
X135379179Y-83209394D01*
X135510289Y-83121789D01*
X135621789Y-83010289D01*
X135709394Y-82879179D01*
X135769737Y-82733497D01*
X135800500Y-82578842D01*
X135800500Y-82421158D01*
X135800500Y-82421155D01*
X135800499Y-82421153D01*
X135769738Y-82266510D01*
X135769737Y-82266503D01*
X135758759Y-82240000D01*
X135736862Y-82187135D01*
X140784500Y-82187135D01*
X140784500Y-83632870D01*
X140784501Y-83632876D01*
X140790908Y-83692483D01*
X140841202Y-83827328D01*
X140841206Y-83827335D01*
X140927452Y-83942544D01*
X140927455Y-83942547D01*
X141042664Y-84028793D01*
X141042671Y-84028797D01*
X141177517Y-84079091D01*
X141177516Y-84079091D01*
X141184444Y-84079835D01*
X141237127Y-84085500D01*
X142682872Y-84085499D01*
X142742483Y-84079091D01*
X142877331Y-84028796D01*
X142992546Y-83942546D01*
X143056241Y-83857459D01*
X143112174Y-83815590D01*
X143181866Y-83810606D01*
X143228392Y-83831453D01*
X143343904Y-83915378D01*
X143397224Y-83942546D01*
X143508764Y-83999379D01*
X143508767Y-83999380D01*
X143589373Y-84025570D01*
X143684736Y-84056555D01*
X143867486Y-84085500D01*
X143867487Y-84085500D01*
X144052513Y-84085500D01*
X144052514Y-84085500D01*
X144235264Y-84056555D01*
X144411235Y-83999379D01*
X144576096Y-83915378D01*
X144725787Y-83806621D01*
X144856621Y-83675787D01*
X144859680Y-83671576D01*
X144915006Y-83628909D01*
X144984619Y-83622926D01*
X145046415Y-83655529D01*
X145060315Y-83671570D01*
X145063379Y-83675787D01*
X145194213Y-83806621D01*
X145343904Y-83915378D01*
X145397224Y-83942546D01*
X145508764Y-83999379D01*
X145508767Y-83999380D01*
X145589373Y-84025570D01*
X145684736Y-84056555D01*
X145867486Y-84085500D01*
X145867487Y-84085500D01*
X146052513Y-84085500D01*
X146052514Y-84085500D01*
X146235264Y-84056555D01*
X146411235Y-83999379D01*
X146576096Y-83915378D01*
X146725787Y-83806621D01*
X146856621Y-83675787D01*
X146859680Y-83671576D01*
X146915006Y-83628909D01*
X146984619Y-83622926D01*
X147046415Y-83655529D01*
X147060315Y-83671570D01*
X147063379Y-83675787D01*
X147194213Y-83806621D01*
X147343904Y-83915378D01*
X147397224Y-83942546D01*
X147508764Y-83999379D01*
X147508767Y-83999380D01*
X147589373Y-84025570D01*
X147684736Y-84056555D01*
X147867486Y-84085500D01*
X147867487Y-84085500D01*
X148052513Y-84085500D01*
X148052514Y-84085500D01*
X148235264Y-84056555D01*
X148411235Y-83999379D01*
X148576096Y-83915378D01*
X148725787Y-83806621D01*
X148856621Y-83675787D01*
X148859680Y-83671576D01*
X148915006Y-83628909D01*
X148984619Y-83622926D01*
X149046415Y-83655529D01*
X149060315Y-83671570D01*
X149063379Y-83675787D01*
X149194213Y-83806621D01*
X149343904Y-83915378D01*
X149397224Y-83942546D01*
X149508764Y-83999379D01*
X149508767Y-83999380D01*
X149589373Y-84025570D01*
X149684736Y-84056555D01*
X149867486Y-84085500D01*
X149867487Y-84085500D01*
X150052513Y-84085500D01*
X150052514Y-84085500D01*
X150235264Y-84056555D01*
X150411235Y-83999379D01*
X150576096Y-83915378D01*
X150725787Y-83806621D01*
X150856621Y-83675787D01*
X150859680Y-83671576D01*
X150915006Y-83628909D01*
X150984619Y-83622926D01*
X151046415Y-83655529D01*
X151060315Y-83671570D01*
X151063379Y-83675787D01*
X151194213Y-83806621D01*
X151343904Y-83915378D01*
X151397224Y-83942546D01*
X151508764Y-83999379D01*
X151508767Y-83999380D01*
X151589373Y-84025570D01*
X151684736Y-84056555D01*
X151867486Y-84085500D01*
X151867487Y-84085500D01*
X152052513Y-84085500D01*
X152052514Y-84085500D01*
X152235264Y-84056555D01*
X152411235Y-83999379D01*
X152576096Y-83915378D01*
X152725787Y-83806621D01*
X152856621Y-83675787D01*
X152859680Y-83671576D01*
X152915006Y-83628909D01*
X152984619Y-83622926D01*
X153046415Y-83655529D01*
X153060315Y-83671570D01*
X153063379Y-83675787D01*
X153194213Y-83806621D01*
X153343904Y-83915378D01*
X153397224Y-83942546D01*
X153508764Y-83999379D01*
X153508767Y-83999380D01*
X153589373Y-84025570D01*
X153684736Y-84056555D01*
X153867486Y-84085500D01*
X153867487Y-84085500D01*
X154052513Y-84085500D01*
X154052514Y-84085500D01*
X154235264Y-84056555D01*
X154411235Y-83999379D01*
X154576096Y-83915378D01*
X154725787Y-83806621D01*
X154856621Y-83675787D01*
X154914112Y-83596656D01*
X154917774Y-83592466D01*
X154934867Y-83581579D01*
X155560000Y-82956446D01*
X155560000Y-82962661D01*
X155587259Y-83064394D01*
X155639920Y-83155606D01*
X155714394Y-83230080D01*
X155805606Y-83282741D01*
X155907339Y-83310000D01*
X155913553Y-83310000D01*
X155323568Y-83899983D01*
X155323568Y-83899984D01*
X155344165Y-83914949D01*
X155508956Y-83998915D01*
X155508959Y-83998916D01*
X155684852Y-84056066D01*
X155867527Y-84085000D01*
X156052473Y-84085000D01*
X156235147Y-84056066D01*
X156411040Y-83998916D01*
X156411043Y-83998915D01*
X156575836Y-83914947D01*
X156575845Y-83914942D01*
X156596430Y-83899984D01*
X156596431Y-83899983D01*
X156006448Y-83310000D01*
X156012661Y-83310000D01*
X156114394Y-83282741D01*
X156205606Y-83230080D01*
X156280080Y-83155606D01*
X156332741Y-83064394D01*
X156360000Y-82962661D01*
X156360000Y-82956447D01*
X156949983Y-83546430D01*
X156949984Y-83546430D01*
X156964942Y-83525845D01*
X156964947Y-83525836D01*
X157048915Y-83361043D01*
X157048916Y-83361040D01*
X157106066Y-83185147D01*
X157135000Y-83002473D01*
X157135000Y-82817526D01*
X157106066Y-82634852D01*
X157048916Y-82458959D01*
X157048915Y-82458956D01*
X156964949Y-82294165D01*
X156949983Y-82273568D01*
X156360000Y-82863551D01*
X156360000Y-82857339D01*
X156332741Y-82755606D01*
X156280080Y-82664394D01*
X156205606Y-82589920D01*
X156114394Y-82537259D01*
X156012661Y-82510000D01*
X156006447Y-82510000D01*
X156467224Y-82049223D01*
X160119500Y-82049223D01*
X160119500Y-82350776D01*
X160119501Y-82350793D01*
X160158861Y-82649766D01*
X160236913Y-82941060D01*
X160352314Y-83219661D01*
X160352318Y-83219671D01*
X160503099Y-83480831D01*
X160686679Y-83720078D01*
X160686685Y-83720085D01*
X160899914Y-83933314D01*
X160899921Y-83933320D01*
X161139168Y-84116900D01*
X161400328Y-84267681D01*
X161400329Y-84267681D01*
X161400332Y-84267683D01*
X161586072Y-84344619D01*
X161678939Y-84383086D01*
X161678940Y-84383086D01*
X161678942Y-84383087D01*
X161970232Y-84461138D01*
X162269217Y-84500500D01*
X162269224Y-84500500D01*
X162570776Y-84500500D01*
X162570783Y-84500500D01*
X162869768Y-84461138D01*
X163161058Y-84383087D01*
X163439668Y-84267683D01*
X163700832Y-84116900D01*
X163940080Y-83933319D01*
X164153319Y-83720080D01*
X164336900Y-83480832D01*
X164487683Y-83219668D01*
X164603087Y-82941058D01*
X164681138Y-82649768D01*
X164720500Y-82350783D01*
X164720500Y-82049217D01*
X164681138Y-81750232D01*
X164603087Y-81458942D01*
X164487683Y-81180332D01*
X164398654Y-81026130D01*
X164336900Y-80919168D01*
X164153320Y-80679921D01*
X164153314Y-80679914D01*
X163940085Y-80466685D01*
X163940078Y-80466679D01*
X163700831Y-80283099D01*
X163439671Y-80132318D01*
X163439661Y-80132314D01*
X163161060Y-80016913D01*
X162869766Y-79938861D01*
X162570793Y-79899501D01*
X162570788Y-79899500D01*
X162570783Y-79899500D01*
X162269217Y-79899500D01*
X162269211Y-79899500D01*
X162269206Y-79899501D01*
X161970233Y-79938861D01*
X161678939Y-80016913D01*
X161400338Y-80132314D01*
X161400328Y-80132318D01*
X161139168Y-80283099D01*
X160899921Y-80466679D01*
X160899914Y-80466685D01*
X160686685Y-80679914D01*
X160686679Y-80679921D01*
X160503099Y-80919168D01*
X160352318Y-81180328D01*
X160352314Y-81180338D01*
X160236913Y-81458939D01*
X160158861Y-81750233D01*
X160119501Y-82049206D01*
X160119500Y-82049223D01*
X156467224Y-82049223D01*
X156596431Y-81920016D01*
X156596430Y-81920015D01*
X156575834Y-81905050D01*
X156411043Y-81821084D01*
X156411040Y-81821083D01*
X156235147Y-81763933D01*
X156052473Y-81735000D01*
X155867527Y-81735000D01*
X155684852Y-81763933D01*
X155508959Y-81821083D01*
X155508956Y-81821084D01*
X155344167Y-81905049D01*
X155323568Y-81920015D01*
X155913554Y-82510000D01*
X155907339Y-82510000D01*
X155805606Y-82537259D01*
X155714394Y-82589920D01*
X155639920Y-82664394D01*
X155587259Y-82755606D01*
X155560000Y-82857339D01*
X155560000Y-82863552D01*
X154948310Y-82251862D01*
X154947844Y-82251491D01*
X154944541Y-82250536D01*
X154932885Y-82239573D01*
X154917773Y-82227532D01*
X154914109Y-82223338D01*
X154856621Y-82144213D01*
X154725787Y-82013379D01*
X154576096Y-81904622D01*
X154411235Y-81820620D01*
X154411232Y-81820619D01*
X154235265Y-81763445D01*
X154092972Y-81740908D01*
X154052514Y-81734500D01*
X153867486Y-81734500D01*
X153827028Y-81740908D01*
X153684734Y-81763445D01*
X153508767Y-81820619D01*
X153508764Y-81820620D01*
X153343903Y-81904622D01*
X153264188Y-81962539D01*
X153194213Y-82013379D01*
X153194211Y-82013381D01*
X153194210Y-82013381D01*
X153063381Y-82144210D01*
X153060314Y-82148432D01*
X153004981Y-82191094D01*
X152935367Y-82197069D01*
X152873574Y-82164459D01*
X152859686Y-82148432D01*
X152856621Y-82144213D01*
X152725787Y-82013379D01*
X152576096Y-81904622D01*
X152411235Y-81820620D01*
X152411232Y-81820619D01*
X152235265Y-81763445D01*
X152092972Y-81740908D01*
X152052514Y-81734500D01*
X151867486Y-81734500D01*
X151827028Y-81740908D01*
X151684734Y-81763445D01*
X151508767Y-81820619D01*
X151508764Y-81820620D01*
X151343903Y-81904622D01*
X151264188Y-81962539D01*
X151194213Y-82013379D01*
X151194211Y-82013381D01*
X151194210Y-82013381D01*
X151063381Y-82144210D01*
X151060314Y-82148432D01*
X151004981Y-82191094D01*
X150935367Y-82197069D01*
X150873574Y-82164459D01*
X150859686Y-82148432D01*
X150856621Y-82144213D01*
X150725787Y-82013379D01*
X150576096Y-81904622D01*
X150411235Y-81820620D01*
X150411232Y-81820619D01*
X150235265Y-81763445D01*
X150092972Y-81740908D01*
X150052514Y-81734500D01*
X149867486Y-81734500D01*
X149827028Y-81740908D01*
X149684734Y-81763445D01*
X149508767Y-81820619D01*
X149508764Y-81820620D01*
X149343903Y-81904622D01*
X149264188Y-81962539D01*
X149194213Y-82013379D01*
X149194211Y-82013381D01*
X149194210Y-82013381D01*
X149063381Y-82144210D01*
X149060314Y-82148432D01*
X149004981Y-82191094D01*
X148935367Y-82197069D01*
X148873574Y-82164459D01*
X148859686Y-82148432D01*
X148856621Y-82144213D01*
X148725787Y-82013379D01*
X148576096Y-81904622D01*
X148411235Y-81820620D01*
X148411232Y-81820619D01*
X148235265Y-81763445D01*
X148092972Y-81740908D01*
X148052514Y-81734500D01*
X147867486Y-81734500D01*
X147827028Y-81740908D01*
X147684734Y-81763445D01*
X147508767Y-81820619D01*
X147508764Y-81820620D01*
X147343903Y-81904622D01*
X147264188Y-81962539D01*
X147194213Y-82013379D01*
X147194211Y-82013381D01*
X147194210Y-82013381D01*
X147063381Y-82144210D01*
X147060314Y-82148432D01*
X147004981Y-82191094D01*
X146935367Y-82197069D01*
X146873574Y-82164459D01*
X146859686Y-82148432D01*
X146856621Y-82144213D01*
X146725787Y-82013379D01*
X146576096Y-81904622D01*
X146411235Y-81820620D01*
X146411232Y-81820619D01*
X146235265Y-81763445D01*
X146092972Y-81740908D01*
X146052514Y-81734500D01*
X145867486Y-81734500D01*
X145827028Y-81740908D01*
X145684734Y-81763445D01*
X145508767Y-81820619D01*
X145508764Y-81820620D01*
X145343903Y-81904622D01*
X145264188Y-81962539D01*
X145194213Y-82013379D01*
X145194211Y-82013381D01*
X145194210Y-82013381D01*
X145063381Y-82144210D01*
X145060314Y-82148432D01*
X145004981Y-82191094D01*
X144935367Y-82197069D01*
X144873574Y-82164459D01*
X144859686Y-82148432D01*
X144856621Y-82144213D01*
X144725787Y-82013379D01*
X144576096Y-81904622D01*
X144411235Y-81820620D01*
X144411232Y-81820619D01*
X144235265Y-81763445D01*
X144092972Y-81740908D01*
X144052514Y-81734500D01*
X143867486Y-81734500D01*
X143827028Y-81740908D01*
X143684734Y-81763445D01*
X143508767Y-81820619D01*
X143508764Y-81820620D01*
X143343900Y-81904624D01*
X143228392Y-81988545D01*
X143162586Y-82012025D01*
X143094532Y-81996199D01*
X143056241Y-81962539D01*
X143013204Y-81905050D01*
X142992546Y-81877454D01*
X142992544Y-81877453D01*
X142992544Y-81877452D01*
X142877335Y-81791206D01*
X142877328Y-81791202D01*
X142742482Y-81740908D01*
X142742483Y-81740908D01*
X142682883Y-81734501D01*
X142682881Y-81734500D01*
X142682873Y-81734500D01*
X142682864Y-81734500D01*
X141237129Y-81734500D01*
X141237123Y-81734501D01*
X141177516Y-81740908D01*
X141042671Y-81791202D01*
X141042664Y-81791206D01*
X140927455Y-81877452D01*
X140927452Y-81877455D01*
X140841206Y-81992664D01*
X140841202Y-81992671D01*
X140790908Y-82127517D01*
X140784501Y-82187116D01*
X140784500Y-82187135D01*
X135736862Y-82187135D01*
X135709397Y-82120827D01*
X135709390Y-82120814D01*
X135621789Y-81989711D01*
X135621786Y-81989707D01*
X135510292Y-81878213D01*
X135510288Y-81878210D01*
X135379185Y-81790609D01*
X135379172Y-81790602D01*
X135233501Y-81730264D01*
X135233489Y-81730261D01*
X135078845Y-81699500D01*
X135078842Y-81699500D01*
X134921158Y-81699500D01*
X134921155Y-81699500D01*
X134766510Y-81730261D01*
X134766498Y-81730264D01*
X134620827Y-81790602D01*
X134620814Y-81790609D01*
X134489711Y-81878210D01*
X134489707Y-81878213D01*
X134378213Y-81989707D01*
X134378210Y-81989711D01*
X134290609Y-82120814D01*
X134290602Y-82120827D01*
X134230264Y-82266498D01*
X134230261Y-82266510D01*
X134199500Y-82421153D01*
X113711236Y-82421153D01*
X113714168Y-82398881D01*
X113715613Y-82387902D01*
X113720500Y-82350783D01*
X113720500Y-82049217D01*
X113681138Y-81750232D01*
X113603087Y-81458942D01*
X113553183Y-81338464D01*
X113505000Y-81222139D01*
X113504999Y-81222137D01*
X113487866Y-81180773D01*
X138939880Y-81180773D01*
X138939880Y-81338466D01*
X138970641Y-81493109D01*
X138970644Y-81493121D01*
X139030982Y-81638792D01*
X139030989Y-81638805D01*
X139118590Y-81769908D01*
X139118593Y-81769912D01*
X139230087Y-81881406D01*
X139230091Y-81881409D01*
X139361194Y-81969010D01*
X139361207Y-81969017D01*
X139468308Y-82013379D01*
X139506883Y-82029357D01*
X139661533Y-82060119D01*
X139661536Y-82060120D01*
X139661538Y-82060120D01*
X139819225Y-82060120D01*
X139819225Y-82060119D01*
X139973877Y-82029357D01*
X140119559Y-81969014D01*
X140250669Y-81881409D01*
X140362169Y-81769909D01*
X140449774Y-81638799D01*
X140510117Y-81493117D01*
X140540880Y-81338462D01*
X140540880Y-81180778D01*
X140540880Y-81180775D01*
X140540879Y-81180773D01*
X140510118Y-81026130D01*
X140510117Y-81026123D01*
X140510115Y-81026118D01*
X140449777Y-80880447D01*
X140449770Y-80880434D01*
X140362169Y-80749331D01*
X140362166Y-80749327D01*
X140250672Y-80637833D01*
X140250668Y-80637830D01*
X140119565Y-80550229D01*
X140119552Y-80550222D01*
X139973881Y-80489884D01*
X139973869Y-80489881D01*
X139819225Y-80459120D01*
X139819222Y-80459120D01*
X139661538Y-80459120D01*
X139661535Y-80459120D01*
X139506890Y-80489881D01*
X139506878Y-80489884D01*
X139361207Y-80550222D01*
X139361194Y-80550229D01*
X139230091Y-80637830D01*
X139230087Y-80637833D01*
X139118593Y-80749327D01*
X139118590Y-80749331D01*
X139030989Y-80880434D01*
X139030982Y-80880447D01*
X138970644Y-81026118D01*
X138970641Y-81026130D01*
X138939880Y-81180773D01*
X113487866Y-81180773D01*
X113487688Y-81180343D01*
X113487681Y-81180328D01*
X113336900Y-80919168D01*
X113153320Y-80679921D01*
X113153314Y-80679914D01*
X112940085Y-80466685D01*
X112940078Y-80466679D01*
X112700831Y-80283099D01*
X112439671Y-80132318D01*
X112439661Y-80132314D01*
X112161060Y-80016913D01*
X111869766Y-79938861D01*
X111570793Y-79899501D01*
X111570788Y-79899500D01*
X111570783Y-79899500D01*
X111269217Y-79899500D01*
X111269211Y-79899500D01*
X111269206Y-79899501D01*
X110970233Y-79938861D01*
X110678939Y-80016913D01*
X110400338Y-80132314D01*
X110400328Y-80132318D01*
X110139168Y-80283099D01*
X109899921Y-80466679D01*
X109899914Y-80466685D01*
X109686685Y-80679914D01*
X109686679Y-80679921D01*
X109503099Y-80919168D01*
X109352318Y-81180328D01*
X109352314Y-81180338D01*
X109236913Y-81458939D01*
X109158861Y-81750233D01*
X109119501Y-82049206D01*
X109119500Y-82049223D01*
X107620533Y-82049223D01*
X107621029Y-79821153D01*
X145199500Y-79821153D01*
X145199500Y-79978846D01*
X145230261Y-80133489D01*
X145230264Y-80133501D01*
X145290602Y-80279172D01*
X145290609Y-80279185D01*
X145378210Y-80410288D01*
X145378213Y-80410292D01*
X145489707Y-80521786D01*
X145489711Y-80521789D01*
X145620814Y-80609390D01*
X145620827Y-80609397D01*
X145689479Y-80637833D01*
X145766503Y-80669737D01*
X145921153Y-80700499D01*
X145921156Y-80700500D01*
X145921158Y-80700500D01*
X146078844Y-80700500D01*
X146078845Y-80700499D01*
X146233497Y-80669737D01*
X146379179Y-80609394D01*
X146510289Y-80521789D01*
X146621789Y-80410289D01*
X146709394Y-80279179D01*
X146769737Y-80133497D01*
X146800500Y-79978842D01*
X146800500Y-79821158D01*
X146800500Y-79821155D01*
X146800499Y-79821153D01*
X146778269Y-79709397D01*
X146769737Y-79666503D01*
X146751215Y-79621786D01*
X146709397Y-79520827D01*
X146709390Y-79520814D01*
X146621789Y-79389711D01*
X146621786Y-79389707D01*
X146510292Y-79278213D01*
X146510288Y-79278210D01*
X146379185Y-79190609D01*
X146379172Y-79190602D01*
X146233501Y-79130264D01*
X146233489Y-79130261D01*
X146078845Y-79099500D01*
X146078842Y-79099500D01*
X145921158Y-79099500D01*
X145921155Y-79099500D01*
X145766510Y-79130261D01*
X145766498Y-79130264D01*
X145620827Y-79190602D01*
X145620814Y-79190609D01*
X145489711Y-79278210D01*
X145489707Y-79278213D01*
X145378213Y-79389707D01*
X145378210Y-79389711D01*
X145290609Y-79520814D01*
X145290602Y-79520827D01*
X145230264Y-79666498D01*
X145230261Y-79666510D01*
X145199500Y-79821153D01*
X107621029Y-79821153D01*
X107621189Y-79099500D01*
X107621229Y-78921153D01*
X124199500Y-78921153D01*
X124199500Y-79078846D01*
X124230261Y-79233489D01*
X124230264Y-79233501D01*
X124290602Y-79379172D01*
X124290609Y-79379185D01*
X124378210Y-79510288D01*
X124378213Y-79510292D01*
X124489707Y-79621786D01*
X124489711Y-79621789D01*
X124620814Y-79709390D01*
X124620827Y-79709397D01*
X124766498Y-79769735D01*
X124766503Y-79769737D01*
X124921153Y-79800499D01*
X124921156Y-79800500D01*
X124921158Y-79800500D01*
X125078844Y-79800500D01*
X125078845Y-79800499D01*
X125233497Y-79769737D01*
X125379179Y-79709394D01*
X125510289Y-79621789D01*
X125621789Y-79510289D01*
X125709394Y-79379179D01*
X125769737Y-79233497D01*
X125800500Y-79078842D01*
X125800500Y-78921158D01*
X125800500Y-78921155D01*
X125800499Y-78921153D01*
X125769738Y-78766510D01*
X125769737Y-78766503D01*
X125769735Y-78766498D01*
X125709397Y-78620827D01*
X125709390Y-78620814D01*
X125621789Y-78489711D01*
X125621786Y-78489707D01*
X125510292Y-78378213D01*
X125510288Y-78378210D01*
X125379185Y-78290609D01*
X125379172Y-78290602D01*
X125233501Y-78230264D01*
X125233489Y-78230261D01*
X125078845Y-78199500D01*
X125078842Y-78199500D01*
X124921158Y-78199500D01*
X124921155Y-78199500D01*
X124766510Y-78230261D01*
X124766498Y-78230264D01*
X124620827Y-78290602D01*
X124620814Y-78290609D01*
X124489711Y-78378210D01*
X124489707Y-78378213D01*
X124378213Y-78489707D01*
X124378210Y-78489711D01*
X124290609Y-78620814D01*
X124290602Y-78620827D01*
X124230264Y-78766498D01*
X124230261Y-78766510D01*
X124199500Y-78921153D01*
X107621229Y-78921153D01*
X107621230Y-78915038D01*
X107621785Y-76421153D01*
X129699500Y-76421153D01*
X129699500Y-76578846D01*
X129730261Y-76733489D01*
X129730264Y-76733501D01*
X129790602Y-76879172D01*
X129790609Y-76879185D01*
X129878210Y-77010288D01*
X129878213Y-77010292D01*
X129989707Y-77121786D01*
X129989711Y-77121789D01*
X130120814Y-77209390D01*
X130120827Y-77209397D01*
X130266498Y-77269735D01*
X130266503Y-77269737D01*
X130421153Y-77300499D01*
X130421156Y-77300500D01*
X130421158Y-77300500D01*
X130578844Y-77300500D01*
X130578845Y-77300499D01*
X130733497Y-77269737D01*
X130879179Y-77209394D01*
X131010289Y-77121789D01*
X131121789Y-77010289D01*
X131209394Y-76879179D01*
X131269737Y-76733497D01*
X131300500Y-76578842D01*
X131300500Y-76421158D01*
X131300500Y-76421155D01*
X131300499Y-76421153D01*
X131269738Y-76266510D01*
X131269737Y-76266503D01*
X131209794Y-76121786D01*
X131209397Y-76120827D01*
X131209390Y-76120814D01*
X131121790Y-75989712D01*
X131121784Y-75989705D01*
X131053232Y-75921153D01*
X137699500Y-75921153D01*
X137699500Y-76078846D01*
X137730261Y-76233489D01*
X137730264Y-76233501D01*
X137790602Y-76379172D01*
X137790609Y-76379185D01*
X137878210Y-76510288D01*
X137878213Y-76510292D01*
X137989707Y-76621786D01*
X137989711Y-76621789D01*
X138120814Y-76709390D01*
X138120827Y-76709397D01*
X138266498Y-76769735D01*
X138266503Y-76769737D01*
X138421153Y-76800499D01*
X138421156Y-76800500D01*
X138421158Y-76800500D01*
X138578844Y-76800500D01*
X138578845Y-76800499D01*
X138733497Y-76769737D01*
X138879179Y-76709394D01*
X139010289Y-76621789D01*
X139121789Y-76510289D01*
X139209394Y-76379179D01*
X139269737Y-76233497D01*
X139300500Y-76078842D01*
X139300500Y-75921158D01*
X139300500Y-75921155D01*
X139300499Y-75921153D01*
X139278269Y-75809397D01*
X139269737Y-75766503D01*
X139256062Y-75733489D01*
X139209397Y-75620827D01*
X139209390Y-75620814D01*
X139121789Y-75489711D01*
X139121786Y-75489707D01*
X139010292Y-75378213D01*
X139010288Y-75378210D01*
X138879185Y-75290609D01*
X138879172Y-75290602D01*
X138733501Y-75230264D01*
X138733489Y-75230261D01*
X138578845Y-75199500D01*
X138578842Y-75199500D01*
X138421158Y-75199500D01*
X138421155Y-75199500D01*
X138266510Y-75230261D01*
X138266498Y-75230264D01*
X138120827Y-75290602D01*
X138120814Y-75290609D01*
X137989711Y-75378210D01*
X137989707Y-75378213D01*
X137878213Y-75489707D01*
X137878210Y-75489711D01*
X137790609Y-75620814D01*
X137790602Y-75620827D01*
X137730264Y-75766498D01*
X137730261Y-75766510D01*
X137699500Y-75921153D01*
X131053232Y-75921153D01*
X131010292Y-75878213D01*
X131010288Y-75878210D01*
X130879185Y-75790609D01*
X130879172Y-75790602D01*
X130733501Y-75730264D01*
X130733489Y-75730261D01*
X130578845Y-75699500D01*
X130578842Y-75699500D01*
X130421158Y-75699500D01*
X130421155Y-75699500D01*
X130266510Y-75730261D01*
X130266498Y-75730264D01*
X130120827Y-75790602D01*
X130120814Y-75790609D01*
X129989711Y-75878210D01*
X129989707Y-75878213D01*
X129878213Y-75989707D01*
X129878210Y-75989711D01*
X129790609Y-76120814D01*
X129790602Y-76120827D01*
X129730264Y-76266498D01*
X129730261Y-76266510D01*
X129699500Y-76421153D01*
X107621785Y-76421153D01*
X107622007Y-75421153D01*
X125699500Y-75421153D01*
X125699500Y-75578846D01*
X125730261Y-75733489D01*
X125730264Y-75733501D01*
X125790602Y-75879172D01*
X125790609Y-75879185D01*
X125878210Y-76010288D01*
X125878213Y-76010292D01*
X125989707Y-76121786D01*
X125989711Y-76121789D01*
X126120814Y-76209390D01*
X126120827Y-76209397D01*
X126258683Y-76266498D01*
X126266503Y-76269737D01*
X126421153Y-76300499D01*
X126421156Y-76300500D01*
X126421158Y-76300500D01*
X126578844Y-76300500D01*
X126578845Y-76300499D01*
X126589179Y-76298443D01*
X126614287Y-76293450D01*
X126614292Y-76293449D01*
X126699800Y-76276439D01*
X126733497Y-76269737D01*
X126879179Y-76209394D01*
X127010289Y-76121789D01*
X127121789Y-76010289D01*
X127209394Y-75879179D01*
X127269737Y-75733497D01*
X127300500Y-75578842D01*
X127300500Y-75421158D01*
X127300500Y-75421155D01*
X127300499Y-75421153D01*
X127280734Y-75321789D01*
X127269737Y-75266503D01*
X127256062Y-75233489D01*
X127209397Y-75120827D01*
X127209390Y-75120814D01*
X127121790Y-74989712D01*
X127121784Y-74989705D01*
X127053232Y-74921153D01*
X143699500Y-74921153D01*
X143699500Y-75078846D01*
X143730261Y-75233489D01*
X143730264Y-75233501D01*
X143790602Y-75379172D01*
X143790609Y-75379185D01*
X143878210Y-75510288D01*
X143878213Y-75510292D01*
X143989707Y-75621786D01*
X143989711Y-75621789D01*
X144120814Y-75709390D01*
X144120827Y-75709397D01*
X144258683Y-75766498D01*
X144266503Y-75769737D01*
X144421153Y-75800499D01*
X144421156Y-75800500D01*
X144421158Y-75800500D01*
X144578844Y-75800500D01*
X144578845Y-75800499D01*
X144733497Y-75769737D01*
X144879179Y-75709394D01*
X145010289Y-75621789D01*
X145121789Y-75510289D01*
X145209394Y-75379179D01*
X145269737Y-75233497D01*
X145300500Y-75078842D01*
X145300500Y-74921158D01*
X145300500Y-74921155D01*
X145300499Y-74921153D01*
X145274531Y-74790606D01*
X145269737Y-74766503D01*
X145269735Y-74766498D01*
X145226666Y-74662518D01*
X145209532Y-74621153D01*
X154199500Y-74621153D01*
X154199500Y-74778846D01*
X154230261Y-74933489D01*
X154230264Y-74933501D01*
X154290602Y-75079172D01*
X154290609Y-75079185D01*
X154378210Y-75210288D01*
X154378213Y-75210292D01*
X154489707Y-75321786D01*
X154489711Y-75321789D01*
X154620814Y-75409390D01*
X154620827Y-75409397D01*
X154766498Y-75469735D01*
X154766503Y-75469737D01*
X154921153Y-75500499D01*
X154921156Y-75500500D01*
X154921158Y-75500500D01*
X155078844Y-75500500D01*
X155078845Y-75500499D01*
X155233497Y-75469737D01*
X155379179Y-75409394D01*
X155510289Y-75321789D01*
X155621789Y-75210289D01*
X155709394Y-75079179D01*
X155733429Y-75021153D01*
X158199500Y-75021153D01*
X158199500Y-75178846D01*
X158230261Y-75333489D01*
X158230264Y-75333501D01*
X158290602Y-75479172D01*
X158290609Y-75479185D01*
X158378210Y-75610288D01*
X158378213Y-75610292D01*
X158489707Y-75721786D01*
X158489711Y-75721789D01*
X158620814Y-75809390D01*
X158620827Y-75809397D01*
X158766498Y-75869735D01*
X158766503Y-75869737D01*
X158921153Y-75900499D01*
X158921156Y-75900500D01*
X158921158Y-75900500D01*
X159078844Y-75900500D01*
X159078845Y-75900499D01*
X159233497Y-75869737D01*
X159379179Y-75809394D01*
X159510289Y-75721789D01*
X159621789Y-75610289D01*
X159709394Y-75479179D01*
X159769737Y-75333497D01*
X159800500Y-75178842D01*
X159800500Y-75021158D01*
X159800500Y-75021155D01*
X159800499Y-75021153D01*
X159794244Y-74989707D01*
X159769737Y-74866503D01*
X159728314Y-74766498D01*
X159709397Y-74720827D01*
X159709390Y-74720814D01*
X159621789Y-74589711D01*
X159621786Y-74589707D01*
X159510292Y-74478213D01*
X159510288Y-74478210D01*
X159379185Y-74390609D01*
X159379172Y-74390602D01*
X159233501Y-74330264D01*
X159233489Y-74330261D01*
X159078845Y-74299500D01*
X159078842Y-74299500D01*
X158921158Y-74299500D01*
X158921155Y-74299500D01*
X158766510Y-74330261D01*
X158766498Y-74330264D01*
X158620827Y-74390602D01*
X158620814Y-74390609D01*
X158489711Y-74478210D01*
X158489707Y-74478213D01*
X158378213Y-74589707D01*
X158378210Y-74589711D01*
X158290609Y-74720814D01*
X158290602Y-74720827D01*
X158230264Y-74866498D01*
X158230261Y-74866510D01*
X158199500Y-75021153D01*
X155733429Y-75021153D01*
X155755603Y-74967621D01*
X155755605Y-74967614D01*
X155769737Y-74933497D01*
X155800500Y-74778842D01*
X155800500Y-74621158D01*
X155800500Y-74621155D01*
X155800499Y-74621153D01*
X155774353Y-74489711D01*
X155769737Y-74466503D01*
X155738298Y-74390602D01*
X155709397Y-74320827D01*
X155709390Y-74320814D01*
X155621789Y-74189711D01*
X155621786Y-74189707D01*
X155510292Y-74078213D01*
X155510288Y-74078210D01*
X155379185Y-73990609D01*
X155379172Y-73990602D01*
X155233501Y-73930264D01*
X155233489Y-73930261D01*
X155078845Y-73899500D01*
X155078842Y-73899500D01*
X154921158Y-73899500D01*
X154921155Y-73899500D01*
X154766510Y-73930261D01*
X154766498Y-73930264D01*
X154620827Y-73990602D01*
X154620814Y-73990609D01*
X154489711Y-74078210D01*
X154489707Y-74078213D01*
X154378213Y-74189707D01*
X154378210Y-74189711D01*
X154290609Y-74320814D01*
X154290602Y-74320827D01*
X154230264Y-74466498D01*
X154230261Y-74466510D01*
X154199500Y-74621153D01*
X145209532Y-74621153D01*
X145209395Y-74620823D01*
X145209390Y-74620814D01*
X145121789Y-74489711D01*
X145121786Y-74489707D01*
X145010292Y-74378213D01*
X145010288Y-74378210D01*
X144879185Y-74290609D01*
X144879172Y-74290602D01*
X144733501Y-74230264D01*
X144733489Y-74230261D01*
X144578845Y-74199500D01*
X144578842Y-74199500D01*
X144421158Y-74199500D01*
X144421155Y-74199500D01*
X144266510Y-74230261D01*
X144266498Y-74230264D01*
X144120827Y-74290602D01*
X144120814Y-74290609D01*
X143989711Y-74378210D01*
X143989707Y-74378213D01*
X143878213Y-74489707D01*
X143878210Y-74489711D01*
X143790609Y-74620814D01*
X143790602Y-74620827D01*
X143730264Y-74766498D01*
X143730261Y-74766510D01*
X143699500Y-74921153D01*
X127053232Y-74921153D01*
X127010292Y-74878213D01*
X127010288Y-74878210D01*
X126879185Y-74790609D01*
X126879172Y-74790602D01*
X126733501Y-74730264D01*
X126733489Y-74730261D01*
X126578845Y-74699500D01*
X126578842Y-74699500D01*
X126421158Y-74699500D01*
X126421155Y-74699500D01*
X126266510Y-74730261D01*
X126266498Y-74730264D01*
X126120827Y-74790602D01*
X126120814Y-74790609D01*
X125989711Y-74878210D01*
X125989707Y-74878213D01*
X125878213Y-74989707D01*
X125878210Y-74989711D01*
X125790609Y-75120814D01*
X125790602Y-75120827D01*
X125730264Y-75266498D01*
X125730261Y-75266510D01*
X125699500Y-75421153D01*
X107622007Y-75421153D01*
X107622008Y-75415038D01*
X107622518Y-73121153D01*
X157199500Y-73121153D01*
X157199500Y-73278846D01*
X157230261Y-73433489D01*
X157230264Y-73433501D01*
X157290602Y-73579172D01*
X157290609Y-73579185D01*
X157378210Y-73710288D01*
X157378213Y-73710292D01*
X157489707Y-73821786D01*
X157489711Y-73821789D01*
X157620814Y-73909390D01*
X157620827Y-73909397D01*
X157766498Y-73969735D01*
X157766503Y-73969737D01*
X157921153Y-74000499D01*
X157921156Y-74000500D01*
X157921158Y-74000500D01*
X158078844Y-74000500D01*
X158078845Y-74000499D01*
X158233497Y-73969737D01*
X158379179Y-73909394D01*
X158510289Y-73821789D01*
X158621789Y-73710289D01*
X158709394Y-73579179D01*
X158769737Y-73433497D01*
X158800500Y-73278842D01*
X158800500Y-73121158D01*
X158800500Y-73121155D01*
X158800499Y-73121153D01*
X158778447Y-73010292D01*
X158769737Y-72966503D01*
X158733569Y-72879185D01*
X158709397Y-72820827D01*
X158709390Y-72820814D01*
X158621789Y-72689711D01*
X158621786Y-72689707D01*
X158510292Y-72578213D01*
X158510288Y-72578210D01*
X158379185Y-72490609D01*
X158379172Y-72490602D01*
X158233501Y-72430264D01*
X158233489Y-72430261D01*
X158078845Y-72399500D01*
X158078842Y-72399500D01*
X157921158Y-72399500D01*
X157921155Y-72399500D01*
X157766510Y-72430261D01*
X157766498Y-72430264D01*
X157620827Y-72490602D01*
X157620814Y-72490609D01*
X157489711Y-72578210D01*
X157489707Y-72578213D01*
X157378213Y-72689707D01*
X157378210Y-72689711D01*
X157290609Y-72820814D01*
X157290602Y-72820827D01*
X157230264Y-72966498D01*
X157230261Y-72966510D01*
X157199500Y-73121153D01*
X107622518Y-73121153D01*
X107622519Y-73115038D01*
X107623063Y-70671153D01*
X144999500Y-70671153D01*
X144999500Y-70828846D01*
X145030261Y-70983489D01*
X145030264Y-70983501D01*
X145090602Y-71129172D01*
X145090609Y-71129185D01*
X145178210Y-71260288D01*
X145178213Y-71260292D01*
X145289707Y-71371786D01*
X145289711Y-71371789D01*
X145420814Y-71459390D01*
X145420827Y-71459397D01*
X145520060Y-71500500D01*
X145566503Y-71519737D01*
X145721153Y-71550499D01*
X145721156Y-71550500D01*
X145721158Y-71550500D01*
X145878844Y-71550500D01*
X145878845Y-71550499D01*
X146033497Y-71519737D01*
X146179179Y-71459394D01*
X146310289Y-71371789D01*
X146340170Y-71341907D01*
X146401491Y-71308423D01*
X146471183Y-71313407D01*
X146496742Y-71326487D01*
X146620814Y-71409390D01*
X146620827Y-71409397D01*
X146766498Y-71469735D01*
X146766503Y-71469737D01*
X146921153Y-71500499D01*
X146921156Y-71500500D01*
X146921158Y-71500500D01*
X147078844Y-71500500D01*
X147078845Y-71500499D01*
X147233497Y-71469737D01*
X147350790Y-71421153D01*
X159199500Y-71421153D01*
X159199500Y-71578846D01*
X159230261Y-71733489D01*
X159230264Y-71733501D01*
X159290602Y-71879172D01*
X159290609Y-71879185D01*
X159378210Y-72010288D01*
X159378213Y-72010292D01*
X159489707Y-72121786D01*
X159489711Y-72121789D01*
X159620814Y-72209390D01*
X159620827Y-72209397D01*
X159758683Y-72266498D01*
X159766503Y-72269737D01*
X159921153Y-72300499D01*
X159921156Y-72300500D01*
X160075500Y-72300500D01*
X160142539Y-72320185D01*
X160188294Y-72372989D01*
X160199500Y-72424500D01*
X160199500Y-72578846D01*
X160230261Y-72733489D01*
X160230264Y-72733501D01*
X160290602Y-72879172D01*
X160290609Y-72879185D01*
X160378210Y-73010288D01*
X160378213Y-73010292D01*
X160489707Y-73121786D01*
X160489711Y-73121789D01*
X160620814Y-73209390D01*
X160620827Y-73209397D01*
X160766498Y-73269735D01*
X160766503Y-73269737D01*
X160921153Y-73300499D01*
X160921156Y-73300500D01*
X160921158Y-73300500D01*
X161078844Y-73300500D01*
X161078845Y-73300499D01*
X161233497Y-73269737D01*
X161379179Y-73209394D01*
X161510289Y-73121789D01*
X161621789Y-73010289D01*
X161709394Y-72879179D01*
X161769737Y-72733497D01*
X161800500Y-72578842D01*
X161800500Y-72421158D01*
X161800500Y-72421155D01*
X161800499Y-72421153D01*
X161796192Y-72399500D01*
X161769737Y-72266503D01*
X161746080Y-72209390D01*
X161709397Y-72120827D01*
X161709390Y-72120814D01*
X161621789Y-71989711D01*
X161621786Y-71989707D01*
X161510292Y-71878213D01*
X161510288Y-71878210D01*
X161424897Y-71821153D01*
X170299500Y-71821153D01*
X170299500Y-71978846D01*
X170330261Y-72133489D01*
X170330264Y-72133501D01*
X170390602Y-72279172D01*
X170390609Y-72279185D01*
X170478210Y-72410288D01*
X170478213Y-72410292D01*
X170589707Y-72521786D01*
X170589711Y-72521789D01*
X170720814Y-72609390D01*
X170720827Y-72609397D01*
X170866498Y-72669735D01*
X170866503Y-72669737D01*
X171021153Y-72700499D01*
X171021156Y-72700500D01*
X171021158Y-72700500D01*
X171178844Y-72700500D01*
X171178845Y-72700499D01*
X171333497Y-72669737D01*
X171479179Y-72609394D01*
X171610289Y-72521789D01*
X171721789Y-72410289D01*
X171809394Y-72279179D01*
X171869737Y-72133497D01*
X171900500Y-71978842D01*
X171900500Y-71821158D01*
X171900500Y-71821155D01*
X171900499Y-71821153D01*
X171882260Y-71729459D01*
X171869737Y-71666503D01*
X171832043Y-71575500D01*
X171809397Y-71520827D01*
X171809390Y-71520814D01*
X171721789Y-71389711D01*
X171721786Y-71389707D01*
X171610292Y-71278213D01*
X171610288Y-71278210D01*
X171479185Y-71190609D01*
X171479172Y-71190602D01*
X171333501Y-71130264D01*
X171333489Y-71130261D01*
X171178845Y-71099500D01*
X171178842Y-71099500D01*
X171021158Y-71099500D01*
X171021155Y-71099500D01*
X170866510Y-71130261D01*
X170866498Y-71130264D01*
X170720827Y-71190602D01*
X170720814Y-71190609D01*
X170589711Y-71278210D01*
X170589707Y-71278213D01*
X170478213Y-71389707D01*
X170478210Y-71389711D01*
X170390609Y-71520814D01*
X170390602Y-71520827D01*
X170330264Y-71666498D01*
X170330261Y-71666510D01*
X170299500Y-71821153D01*
X161424897Y-71821153D01*
X161379185Y-71790609D01*
X161379172Y-71790602D01*
X161233501Y-71730264D01*
X161233489Y-71730261D01*
X161078845Y-71699500D01*
X161078842Y-71699500D01*
X160924500Y-71699500D01*
X160857461Y-71679815D01*
X160811706Y-71627011D01*
X160800500Y-71575500D01*
X160800500Y-71421155D01*
X160800499Y-71421153D01*
X160784736Y-71341909D01*
X160769737Y-71266503D01*
X160738298Y-71190602D01*
X160709397Y-71120827D01*
X160709390Y-71120814D01*
X160621789Y-70989711D01*
X160621786Y-70989707D01*
X160510292Y-70878213D01*
X160510288Y-70878210D01*
X160379185Y-70790609D01*
X160379172Y-70790602D01*
X160233501Y-70730264D01*
X160233489Y-70730261D01*
X160078845Y-70699500D01*
X160078842Y-70699500D01*
X159921158Y-70699500D01*
X159921155Y-70699500D01*
X159766510Y-70730261D01*
X159766498Y-70730264D01*
X159620827Y-70790602D01*
X159620814Y-70790609D01*
X159489711Y-70878210D01*
X159489707Y-70878213D01*
X159378213Y-70989707D01*
X159378210Y-70989711D01*
X159290609Y-71120814D01*
X159290602Y-71120827D01*
X159230264Y-71266498D01*
X159230261Y-71266510D01*
X159199500Y-71421153D01*
X147350790Y-71421153D01*
X147379179Y-71409394D01*
X147510289Y-71321789D01*
X147621789Y-71210289D01*
X147709394Y-71079179D01*
X147769737Y-70933497D01*
X147800500Y-70778842D01*
X147800500Y-70621158D01*
X147800500Y-70621155D01*
X147800499Y-70621153D01*
X147779684Y-70516510D01*
X147769737Y-70466503D01*
X147730102Y-70370814D01*
X147709397Y-70320827D01*
X147709390Y-70320814D01*
X147621789Y-70189711D01*
X147621786Y-70189707D01*
X147510292Y-70078213D01*
X147510288Y-70078210D01*
X147379185Y-69990609D01*
X147379172Y-69990602D01*
X147233501Y-69930264D01*
X147233489Y-69930261D01*
X147078845Y-69899500D01*
X147078842Y-69899500D01*
X146921158Y-69899500D01*
X146921155Y-69899500D01*
X146766510Y-69930261D01*
X146766498Y-69930264D01*
X146620827Y-69990602D01*
X146620814Y-69990609D01*
X146489711Y-70078210D01*
X146459828Y-70108093D01*
X146398504Y-70141577D01*
X146328813Y-70136591D01*
X146303257Y-70123512D01*
X146179185Y-70040609D01*
X146179172Y-70040602D01*
X146033501Y-69980264D01*
X146033489Y-69980261D01*
X145878845Y-69949500D01*
X145878842Y-69949500D01*
X145721158Y-69949500D01*
X145721155Y-69949500D01*
X145566510Y-69980261D01*
X145566498Y-69980264D01*
X145420827Y-70040602D01*
X145420814Y-70040609D01*
X145289711Y-70128210D01*
X145289707Y-70128213D01*
X145178213Y-70239707D01*
X145178210Y-70239711D01*
X145090609Y-70370814D01*
X145090602Y-70370827D01*
X145030264Y-70516498D01*
X145030261Y-70516510D01*
X144999500Y-70671153D01*
X107623063Y-70671153D01*
X107623064Y-70665038D01*
X107623430Y-69021153D01*
X153199500Y-69021153D01*
X153199500Y-69178846D01*
X153230261Y-69333489D01*
X153230264Y-69333501D01*
X153290602Y-69479172D01*
X153290609Y-69479185D01*
X153378210Y-69610288D01*
X153378213Y-69610292D01*
X153489707Y-69721786D01*
X153489711Y-69721789D01*
X153620814Y-69809390D01*
X153620827Y-69809397D01*
X153753555Y-69864374D01*
X153766503Y-69869737D01*
X153916131Y-69899500D01*
X153921153Y-69900499D01*
X153921156Y-69900500D01*
X153921158Y-69900500D01*
X154078844Y-69900500D01*
X154078845Y-69900499D01*
X154233497Y-69869737D01*
X154379179Y-69809394D01*
X154510289Y-69721789D01*
X154621789Y-69610289D01*
X154709394Y-69479179D01*
X154769737Y-69333497D01*
X154800500Y-69178842D01*
X154800500Y-69021158D01*
X154800500Y-69021155D01*
X154800499Y-69021153D01*
X154772234Y-68879057D01*
X154769737Y-68866503D01*
X154742398Y-68800500D01*
X154709397Y-68720827D01*
X154709390Y-68720814D01*
X154621789Y-68589711D01*
X154621786Y-68589707D01*
X154510292Y-68478213D01*
X154510288Y-68478210D01*
X154379185Y-68390609D01*
X154379172Y-68390602D01*
X154233501Y-68330264D01*
X154233489Y-68330261D01*
X154078845Y-68299500D01*
X154078842Y-68299500D01*
X153921158Y-68299500D01*
X153921155Y-68299500D01*
X153766510Y-68330261D01*
X153766498Y-68330264D01*
X153620827Y-68390602D01*
X153620814Y-68390609D01*
X153489711Y-68478210D01*
X153489707Y-68478213D01*
X153378213Y-68589707D01*
X153378210Y-68589711D01*
X153290609Y-68720814D01*
X153290602Y-68720827D01*
X153230264Y-68866498D01*
X153230261Y-68866510D01*
X153199500Y-69021153D01*
X107623430Y-69021153D01*
X107623431Y-69015038D01*
X107623674Y-67921153D01*
X126199500Y-67921153D01*
X126199500Y-68078846D01*
X126230261Y-68233489D01*
X126230264Y-68233501D01*
X126290602Y-68379172D01*
X126290609Y-68379185D01*
X126378210Y-68510288D01*
X126378213Y-68510292D01*
X126489707Y-68621786D01*
X126489711Y-68621789D01*
X126620814Y-68709390D01*
X126620827Y-68709397D01*
X126766498Y-68769735D01*
X126766503Y-68769737D01*
X126921153Y-68800499D01*
X126921156Y-68800500D01*
X126921158Y-68800500D01*
X127078844Y-68800500D01*
X127078845Y-68800499D01*
X127233497Y-68769737D01*
X127351592Y-68720821D01*
X127379172Y-68709397D01*
X127379172Y-68709396D01*
X127379179Y-68709394D01*
X127510289Y-68621789D01*
X127621789Y-68510289D01*
X127709394Y-68379179D01*
X127769737Y-68233497D01*
X127800500Y-68078842D01*
X127800500Y-67921158D01*
X127800500Y-67921155D01*
X127800499Y-67921153D01*
X127780734Y-67821789D01*
X127769737Y-67766503D01*
X127746452Y-67710288D01*
X127709397Y-67620827D01*
X127709390Y-67620814D01*
X127621789Y-67489711D01*
X127621786Y-67489707D01*
X127510292Y-67378213D01*
X127510288Y-67378210D01*
X127379185Y-67290609D01*
X127379172Y-67290602D01*
X127233501Y-67230264D01*
X127233489Y-67230261D01*
X127078845Y-67199500D01*
X127078842Y-67199500D01*
X126921158Y-67199500D01*
X126921155Y-67199500D01*
X126766510Y-67230261D01*
X126766498Y-67230264D01*
X126620827Y-67290602D01*
X126620814Y-67290609D01*
X126489711Y-67378210D01*
X126489707Y-67378213D01*
X126378213Y-67489707D01*
X126378210Y-67489711D01*
X126290609Y-67620814D01*
X126290602Y-67620827D01*
X126230264Y-67766498D01*
X126230261Y-67766510D01*
X126199500Y-67921153D01*
X107623674Y-67921153D01*
X107623675Y-67915038D01*
X107623851Y-67121153D01*
X131549500Y-67121153D01*
X131549500Y-67278846D01*
X131580261Y-67433489D01*
X131580264Y-67433501D01*
X131640602Y-67579172D01*
X131640609Y-67579185D01*
X131728210Y-67710288D01*
X131728213Y-67710292D01*
X131839707Y-67821786D01*
X131839711Y-67821789D01*
X131970814Y-67909390D01*
X131970827Y-67909397D01*
X132116498Y-67969735D01*
X132116503Y-67969737D01*
X132266030Y-67999480D01*
X132271153Y-68000499D01*
X132271156Y-68000500D01*
X132271158Y-68000500D01*
X132428844Y-68000500D01*
X132428845Y-68000499D01*
X132583497Y-67969737D01*
X132729179Y-67909394D01*
X132860289Y-67821789D01*
X132971789Y-67710289D01*
X133059394Y-67579179D01*
X133119737Y-67433497D01*
X133150500Y-67278842D01*
X133150500Y-67121158D01*
X133150500Y-67121155D01*
X133150499Y-67121153D01*
X133128447Y-67010292D01*
X133119737Y-66966503D01*
X133083569Y-66879185D01*
X133059397Y-66820827D01*
X133059390Y-66820814D01*
X132971789Y-66689711D01*
X132971786Y-66689707D01*
X132860292Y-66578213D01*
X132860288Y-66578210D01*
X132729185Y-66490609D01*
X132729172Y-66490602D01*
X132583501Y-66430264D01*
X132583489Y-66430261D01*
X132428845Y-66399500D01*
X132428842Y-66399500D01*
X132271158Y-66399500D01*
X132271155Y-66399500D01*
X132116510Y-66430261D01*
X132116498Y-66430264D01*
X131970827Y-66490602D01*
X131970814Y-66490609D01*
X131839711Y-66578210D01*
X131839707Y-66578213D01*
X131728213Y-66689707D01*
X131728210Y-66689711D01*
X131640609Y-66820814D01*
X131640602Y-66820827D01*
X131580264Y-66966498D01*
X131580261Y-66966510D01*
X131549500Y-67121153D01*
X107623851Y-67121153D01*
X107624296Y-65121153D01*
X123299500Y-65121153D01*
X123299500Y-65278846D01*
X123330261Y-65433489D01*
X123330264Y-65433501D01*
X123390602Y-65579172D01*
X123390609Y-65579185D01*
X123478210Y-65710288D01*
X123478213Y-65710292D01*
X123589707Y-65821786D01*
X123589711Y-65821789D01*
X123720814Y-65909390D01*
X123720827Y-65909397D01*
X123866498Y-65969735D01*
X123866503Y-65969737D01*
X124021153Y-66000499D01*
X124021156Y-66000500D01*
X124021158Y-66000500D01*
X124178844Y-66000500D01*
X124178845Y-66000499D01*
X124333497Y-65969737D01*
X124479179Y-65909394D01*
X124610289Y-65821789D01*
X124721789Y-65710289D01*
X124809394Y-65579179D01*
X124869737Y-65433497D01*
X124900500Y-65278842D01*
X124900500Y-65121158D01*
X124900500Y-65121155D01*
X124900499Y-65121153D01*
X124891949Y-65078170D01*
X124869737Y-64966503D01*
X124809794Y-64821786D01*
X124809397Y-64820827D01*
X124809390Y-64820814D01*
X124721789Y-64689711D01*
X124721786Y-64689707D01*
X124610292Y-64578213D01*
X124610288Y-64578210D01*
X124479185Y-64490609D01*
X124479172Y-64490602D01*
X124333501Y-64430264D01*
X124333489Y-64430261D01*
X124178845Y-64399500D01*
X124178842Y-64399500D01*
X124021158Y-64399500D01*
X124021155Y-64399500D01*
X123866510Y-64430261D01*
X123866498Y-64430264D01*
X123720827Y-64490602D01*
X123720814Y-64490609D01*
X123589711Y-64578210D01*
X123589707Y-64578213D01*
X123478213Y-64689707D01*
X123478210Y-64689711D01*
X123390609Y-64820814D01*
X123390602Y-64820827D01*
X123330264Y-64966498D01*
X123330261Y-64966510D01*
X123299500Y-65121153D01*
X107624296Y-65121153D01*
X107624297Y-65115038D01*
X107624896Y-62421153D01*
X123699500Y-62421153D01*
X123699500Y-62578846D01*
X123730261Y-62733489D01*
X123730264Y-62733501D01*
X123790602Y-62879172D01*
X123790609Y-62879185D01*
X123878210Y-63010288D01*
X123878213Y-63010292D01*
X123989707Y-63121786D01*
X123989711Y-63121789D01*
X124120814Y-63209390D01*
X124120827Y-63209397D01*
X124266498Y-63269735D01*
X124266503Y-63269737D01*
X124421153Y-63300499D01*
X124421156Y-63300500D01*
X124421158Y-63300500D01*
X124578844Y-63300500D01*
X124578845Y-63300499D01*
X124733497Y-63269737D01*
X124879179Y-63209394D01*
X125010289Y-63121789D01*
X125121789Y-63010289D01*
X125209394Y-62879179D01*
X125269737Y-62733497D01*
X125300500Y-62578842D01*
X125300500Y-62421158D01*
X125300500Y-62421155D01*
X125300499Y-62421153D01*
X125849500Y-62421153D01*
X125849500Y-62578846D01*
X125880261Y-62733489D01*
X125880264Y-62733501D01*
X125940602Y-62879172D01*
X125940609Y-62879185D01*
X126028210Y-63010288D01*
X126028213Y-63010292D01*
X126139707Y-63121786D01*
X126139711Y-63121789D01*
X126270814Y-63209390D01*
X126270827Y-63209397D01*
X126416498Y-63269735D01*
X126416503Y-63269737D01*
X126571153Y-63300499D01*
X126571156Y-63300500D01*
X126571158Y-63300500D01*
X126728844Y-63300500D01*
X126728845Y-63300499D01*
X126883497Y-63269737D01*
X127029179Y-63209394D01*
X127160289Y-63121789D01*
X127271789Y-63010289D01*
X127359394Y-62879179D01*
X127419737Y-62733497D01*
X127450500Y-62578842D01*
X127450500Y-62421158D01*
X127450500Y-62421155D01*
X127450499Y-62421153D01*
X127432419Y-62330261D01*
X127419737Y-62266503D01*
X127379655Y-62169735D01*
X127359397Y-62120827D01*
X127359390Y-62120814D01*
X127271789Y-61989711D01*
X127271786Y-61989707D01*
X127160292Y-61878213D01*
X127160288Y-61878210D01*
X127029185Y-61790609D01*
X127029172Y-61790602D01*
X126883501Y-61730264D01*
X126883489Y-61730261D01*
X126728845Y-61699500D01*
X126728842Y-61699500D01*
X126571158Y-61699500D01*
X126571155Y-61699500D01*
X126416510Y-61730261D01*
X126416498Y-61730264D01*
X126270827Y-61790602D01*
X126270814Y-61790609D01*
X126139711Y-61878210D01*
X126139707Y-61878213D01*
X126028213Y-61989707D01*
X126028210Y-61989711D01*
X125940609Y-62120814D01*
X125940602Y-62120827D01*
X125880264Y-62266498D01*
X125880261Y-62266510D01*
X125849500Y-62421153D01*
X125300499Y-62421153D01*
X125282419Y-62330261D01*
X125269737Y-62266503D01*
X125229655Y-62169735D01*
X125209397Y-62120827D01*
X125209390Y-62120814D01*
X125121789Y-61989711D01*
X125121786Y-61989707D01*
X125010292Y-61878213D01*
X125010288Y-61878210D01*
X124879185Y-61790609D01*
X124879172Y-61790602D01*
X124733501Y-61730264D01*
X124733489Y-61730261D01*
X124578845Y-61699500D01*
X124578842Y-61699500D01*
X124421158Y-61699500D01*
X124421155Y-61699500D01*
X124266510Y-61730261D01*
X124266498Y-61730264D01*
X124120827Y-61790602D01*
X124120814Y-61790609D01*
X123989711Y-61878210D01*
X123989707Y-61878213D01*
X123878213Y-61989707D01*
X123878210Y-61989711D01*
X123790609Y-62120814D01*
X123790602Y-62120827D01*
X123730264Y-62266498D01*
X123730261Y-62266510D01*
X123699500Y-62421153D01*
X107624896Y-62421153D01*
X107624897Y-62415038D01*
X107625140Y-61321153D01*
X129199500Y-61321153D01*
X129199500Y-61478846D01*
X129230261Y-61633489D01*
X129230264Y-61633501D01*
X129290602Y-61779172D01*
X129290609Y-61779185D01*
X129378210Y-61910288D01*
X129378213Y-61910292D01*
X129489707Y-62021786D01*
X129489711Y-62021789D01*
X129620814Y-62109390D01*
X129620827Y-62109397D01*
X129766498Y-62169735D01*
X129766503Y-62169737D01*
X129831147Y-62182595D01*
X129921849Y-62200638D01*
X129983760Y-62233023D01*
X129985339Y-62234574D01*
X131815139Y-64064374D01*
X131815149Y-64064385D01*
X131819479Y-64068715D01*
X131819480Y-64068716D01*
X131931284Y-64180520D01*
X131931286Y-64180521D01*
X131931290Y-64180524D01*
X131982786Y-64210255D01*
X131982791Y-64210257D01*
X132068209Y-64259574D01*
X132068211Y-64259575D01*
X132068215Y-64259577D01*
X132107592Y-64270128D01*
X132167252Y-64306490D01*
X132197783Y-64369337D01*
X132199500Y-64389902D01*
X132199500Y-64478846D01*
X132230261Y-64633489D01*
X132230264Y-64633501D01*
X132290602Y-64779172D01*
X132290609Y-64779185D01*
X132378210Y-64910288D01*
X132378213Y-64910292D01*
X132489707Y-65021786D01*
X132489711Y-65021789D01*
X132620814Y-65109390D01*
X132620827Y-65109397D01*
X132717646Y-65149500D01*
X132766503Y-65169737D01*
X132921153Y-65200499D01*
X132921156Y-65200500D01*
X132989241Y-65200500D01*
X133056280Y-65220185D01*
X133102035Y-65272989D01*
X133111979Y-65342147D01*
X133092343Y-65393391D01*
X133040609Y-65470815D01*
X133040602Y-65470827D01*
X132980264Y-65616498D01*
X132980261Y-65616510D01*
X132949500Y-65771153D01*
X132949500Y-65928846D01*
X132980261Y-66083489D01*
X132980264Y-66083501D01*
X133040602Y-66229172D01*
X133040609Y-66229185D01*
X133128210Y-66360288D01*
X133128213Y-66360292D01*
X133239707Y-66471786D01*
X133239711Y-66471789D01*
X133370814Y-66559390D01*
X133370827Y-66559397D01*
X133470060Y-66600500D01*
X133516503Y-66619737D01*
X133634369Y-66643182D01*
X133696280Y-66675566D01*
X133728835Y-66728791D01*
X133730262Y-66733496D01*
X133790602Y-66879172D01*
X133790609Y-66879185D01*
X133878210Y-67010288D01*
X133878213Y-67010292D01*
X133989707Y-67121786D01*
X133989711Y-67121789D01*
X134120814Y-67209390D01*
X134120827Y-67209397D01*
X134266498Y-67269735D01*
X134266503Y-67269737D01*
X134421153Y-67300499D01*
X134421156Y-67300500D01*
X134421158Y-67300500D01*
X134578844Y-67300500D01*
X134578845Y-67300499D01*
X134733497Y-67269737D01*
X134879179Y-67209394D01*
X135010289Y-67121789D01*
X135121789Y-67010289D01*
X135209394Y-66879179D01*
X135269737Y-66733497D01*
X135300500Y-66578842D01*
X135300500Y-66574500D01*
X135320185Y-66507461D01*
X135372989Y-66461706D01*
X135424500Y-66450500D01*
X146195065Y-66450500D01*
X146262104Y-66470185D01*
X146263909Y-66471366D01*
X146320821Y-66509394D01*
X146320823Y-66509395D01*
X146320827Y-66509397D01*
X146466498Y-66569735D01*
X146466503Y-66569737D01*
X146621153Y-66600499D01*
X146621156Y-66600500D01*
X146621158Y-66600500D01*
X146778844Y-66600500D01*
X146778845Y-66600499D01*
X146933497Y-66569737D01*
X147079179Y-66509394D01*
X147210289Y-66421789D01*
X147321789Y-66310289D01*
X147409394Y-66179179D01*
X147469737Y-66033497D01*
X147500500Y-65878842D01*
X147500500Y-65721158D01*
X147500500Y-65721155D01*
X147500499Y-65721153D01*
X147479684Y-65616510D01*
X147469737Y-65566503D01*
X147430102Y-65470815D01*
X147409397Y-65420827D01*
X147409390Y-65420814D01*
X147321789Y-65289711D01*
X147321786Y-65289707D01*
X147210292Y-65178213D01*
X147210288Y-65178210D01*
X147079185Y-65090609D01*
X147079172Y-65090602D01*
X146933501Y-65030264D01*
X146933489Y-65030261D01*
X146778845Y-64999500D01*
X146778842Y-64999500D01*
X146621158Y-64999500D01*
X146621155Y-64999500D01*
X146466510Y-65030261D01*
X146466498Y-65030264D01*
X146320827Y-65090602D01*
X146320820Y-65090606D01*
X146292709Y-65109390D01*
X146263955Y-65128602D01*
X146197279Y-65149480D01*
X146195065Y-65149500D01*
X140024500Y-65149500D01*
X139957461Y-65129815D01*
X139911706Y-65077011D01*
X139900500Y-65025500D01*
X139900500Y-65021155D01*
X139900499Y-65021153D01*
X139892648Y-64981683D01*
X139869737Y-64866503D01*
X139833569Y-64779185D01*
X139809397Y-64720827D01*
X139809390Y-64720814D01*
X139721789Y-64589711D01*
X139721786Y-64589707D01*
X139644260Y-64512181D01*
X139610775Y-64450858D01*
X139615759Y-64381166D01*
X139657631Y-64325233D01*
X139723095Y-64300816D01*
X139731941Y-64300500D01*
X154699903Y-64300500D01*
X154766942Y-64320185D01*
X154787584Y-64336819D01*
X155365425Y-64914660D01*
X155398910Y-64975983D01*
X155399361Y-64978149D01*
X155430261Y-65133491D01*
X155430264Y-65133501D01*
X155490602Y-65279172D01*
X155490609Y-65279185D01*
X155578210Y-65410288D01*
X155578213Y-65410292D01*
X155689707Y-65521786D01*
X155689711Y-65521789D01*
X155820814Y-65609390D01*
X155820827Y-65609397D01*
X155966498Y-65669735D01*
X155966503Y-65669737D01*
X156121153Y-65700499D01*
X156121156Y-65700500D01*
X156121158Y-65700500D01*
X156278844Y-65700500D01*
X156278845Y-65700499D01*
X156433497Y-65669737D01*
X156579179Y-65609394D01*
X156710289Y-65521789D01*
X156821789Y-65410289D01*
X156909394Y-65279179D01*
X156969737Y-65133497D01*
X156980742Y-65078167D01*
X157013125Y-65016258D01*
X157073841Y-64981683D01*
X157078118Y-64980752D01*
X157133497Y-64969737D01*
X157279179Y-64909394D01*
X157410289Y-64821789D01*
X157521789Y-64710289D01*
X157609394Y-64579179D01*
X157669737Y-64433497D01*
X157700500Y-64278842D01*
X157700500Y-64121158D01*
X157700500Y-64121155D01*
X157700499Y-64121153D01*
X157669737Y-63966503D01*
X157669732Y-63966492D01*
X157667969Y-63960676D01*
X157670720Y-63959841D01*
X157664497Y-63902641D01*
X157695691Y-63840122D01*
X157755734Y-63804392D01*
X157786555Y-63800500D01*
X158075500Y-63800500D01*
X158142539Y-63820185D01*
X158188294Y-63872989D01*
X158199500Y-63924500D01*
X158199500Y-68713330D01*
X158199499Y-68713348D01*
X158199499Y-68879054D01*
X158199498Y-68879054D01*
X158240423Y-69031785D01*
X158240424Y-69031788D01*
X158242817Y-69035932D01*
X158242820Y-69035937D01*
X158319477Y-69168712D01*
X158319481Y-69168717D01*
X158438349Y-69287585D01*
X158438355Y-69287590D01*
X159015139Y-69864374D01*
X159015149Y-69864385D01*
X159019479Y-69868715D01*
X159019480Y-69868716D01*
X159131284Y-69980520D01*
X159131286Y-69980521D01*
X159131290Y-69980524D01*
X159235350Y-70040602D01*
X159268216Y-70059577D01*
X159380019Y-70089534D01*
X159420942Y-70100500D01*
X159420943Y-70100500D01*
X168620234Y-70100500D01*
X168687273Y-70120185D01*
X168689125Y-70121398D01*
X168820814Y-70209390D01*
X168820827Y-70209397D01*
X168894013Y-70239711D01*
X168966503Y-70269737D01*
X169121153Y-70300499D01*
X169121156Y-70300500D01*
X169121158Y-70300500D01*
X169278844Y-70300500D01*
X169278845Y-70300499D01*
X169433497Y-70269737D01*
X169579179Y-70209394D01*
X169710289Y-70121789D01*
X169821789Y-70010289D01*
X169909394Y-69879179D01*
X169969737Y-69733497D01*
X170000500Y-69578842D01*
X170000500Y-69421158D01*
X170000500Y-69421155D01*
X170000499Y-69421153D01*
X169969738Y-69266510D01*
X169969737Y-69266503D01*
X169929231Y-69168712D01*
X169909397Y-69120827D01*
X169909390Y-69120814D01*
X169821789Y-68989711D01*
X169821786Y-68989707D01*
X169710292Y-68878213D01*
X169710288Y-68878210D01*
X169579185Y-68790609D01*
X169579172Y-68790602D01*
X169433501Y-68730264D01*
X169433491Y-68730261D01*
X169300308Y-68703769D01*
X169238397Y-68671384D01*
X169203823Y-68610668D01*
X169200500Y-68582152D01*
X169200500Y-68521155D01*
X169200499Y-68521153D01*
X169174531Y-68390606D01*
X169169737Y-68366503D01*
X169169735Y-68366498D01*
X169109397Y-68220827D01*
X169109390Y-68220814D01*
X169021789Y-68089711D01*
X169021786Y-68089707D01*
X168910292Y-67978213D01*
X168910288Y-67978210D01*
X168779185Y-67890609D01*
X168779172Y-67890602D01*
X168633501Y-67830264D01*
X168633489Y-67830261D01*
X168478845Y-67799500D01*
X168478842Y-67799500D01*
X168321158Y-67799500D01*
X168321155Y-67799500D01*
X168166510Y-67830261D01*
X168166498Y-67830264D01*
X168020827Y-67890602D01*
X168020814Y-67890609D01*
X167889125Y-67978602D01*
X167822447Y-67999480D01*
X167820234Y-67999500D01*
X160524500Y-67999500D01*
X160457461Y-67979815D01*
X160411706Y-67927011D01*
X160400500Y-67875500D01*
X160400500Y-63120943D01*
X160397647Y-63110293D01*
X160397646Y-63110289D01*
X160359577Y-62968215D01*
X160324885Y-62908127D01*
X160280520Y-62831284D01*
X160168716Y-62719480D01*
X160168715Y-62719479D01*
X160164385Y-62715149D01*
X160164374Y-62715139D01*
X159087590Y-61638355D01*
X159087588Y-61638352D01*
X158968717Y-61519481D01*
X158968716Y-61519480D01*
X158881904Y-61469360D01*
X158881904Y-61469359D01*
X158881900Y-61469358D01*
X158831785Y-61440423D01*
X158679057Y-61399499D01*
X158520943Y-61399499D01*
X158513347Y-61399499D01*
X158513331Y-61399500D01*
X153280581Y-61399500D01*
X153213542Y-61379815D01*
X153167787Y-61327011D01*
X153157843Y-61257853D01*
X153174629Y-61214049D01*
X153173595Y-61213497D01*
X153176464Y-61208129D01*
X153190369Y-61174560D01*
X153225501Y-61089744D01*
X153229481Y-61069737D01*
X153229481Y-61069735D01*
X153250500Y-60964071D01*
X153250500Y-56421153D01*
X170699500Y-56421153D01*
X170699500Y-56578846D01*
X170730261Y-56733489D01*
X170730264Y-56733501D01*
X170790602Y-56879172D01*
X170790609Y-56879185D01*
X170878210Y-57010288D01*
X170878213Y-57010292D01*
X170989707Y-57121786D01*
X170989711Y-57121789D01*
X171120814Y-57209390D01*
X171120827Y-57209397D01*
X171207576Y-57245329D01*
X171266503Y-57269737D01*
X171393830Y-57295064D01*
X171421153Y-57300499D01*
X171421156Y-57300500D01*
X171421158Y-57300500D01*
X171578844Y-57300500D01*
X171578845Y-57300499D01*
X171733497Y-57269737D01*
X171879179Y-57209394D01*
X172010289Y-57121789D01*
X172121789Y-57010289D01*
X172209394Y-56879179D01*
X172269737Y-56733497D01*
X172300500Y-56578842D01*
X172300500Y-56421158D01*
X172300500Y-56421155D01*
X172300499Y-56421153D01*
X172274531Y-56290606D01*
X172269737Y-56266503D01*
X172256062Y-56233489D01*
X172209397Y-56120827D01*
X172209390Y-56120814D01*
X172121789Y-55989711D01*
X172121786Y-55989707D01*
X172010292Y-55878213D01*
X172010288Y-55878210D01*
X171879185Y-55790609D01*
X171879172Y-55790602D01*
X171733501Y-55730264D01*
X171733489Y-55730261D01*
X171578845Y-55699500D01*
X171578842Y-55699500D01*
X171421158Y-55699500D01*
X171421155Y-55699500D01*
X171266510Y-55730261D01*
X171266498Y-55730264D01*
X171120827Y-55790602D01*
X171120814Y-55790609D01*
X170989711Y-55878210D01*
X170989707Y-55878213D01*
X170878213Y-55989707D01*
X170878210Y-55989711D01*
X170790609Y-56120814D01*
X170790602Y-56120827D01*
X170730264Y-56266498D01*
X170730261Y-56266510D01*
X170699500Y-56421153D01*
X153250500Y-56421153D01*
X153250500Y-56220807D01*
X153270185Y-56153768D01*
X153286819Y-56133126D01*
X153433126Y-55986819D01*
X153494449Y-55953334D01*
X153520807Y-55950500D01*
X164464071Y-55950500D01*
X164548615Y-55933682D01*
X164589744Y-55925501D01*
X164708127Y-55876465D01*
X164711069Y-55874499D01*
X164814669Y-55805277D01*
X165405277Y-55214669D01*
X165476465Y-55108127D01*
X165525501Y-54989743D01*
X165539144Y-54921158D01*
X165550500Y-54864071D01*
X165550500Y-54421153D01*
X166199500Y-54421153D01*
X166199500Y-54578846D01*
X166230261Y-54733489D01*
X166230264Y-54733501D01*
X166290602Y-54879172D01*
X166290609Y-54879185D01*
X166378210Y-55010288D01*
X166378213Y-55010292D01*
X166489707Y-55121786D01*
X166489711Y-55121789D01*
X166620814Y-55209390D01*
X166620827Y-55209397D01*
X166766498Y-55269735D01*
X166766503Y-55269737D01*
X166921153Y-55300499D01*
X166921156Y-55300500D01*
X166921158Y-55300500D01*
X167078844Y-55300500D01*
X167078845Y-55300499D01*
X167233497Y-55269737D01*
X167379179Y-55209394D01*
X167510289Y-55121789D01*
X167621789Y-55010289D01*
X167709394Y-54879179D01*
X167769737Y-54733497D01*
X167800500Y-54578842D01*
X167800500Y-54421158D01*
X167800500Y-54421155D01*
X167800499Y-54421153D01*
X167778269Y-54309397D01*
X167769737Y-54266503D01*
X167756062Y-54233489D01*
X167709397Y-54120827D01*
X167709390Y-54120814D01*
X167621789Y-53989711D01*
X167621786Y-53989707D01*
X167510292Y-53878213D01*
X167510288Y-53878210D01*
X167379185Y-53790609D01*
X167379172Y-53790602D01*
X167233501Y-53730264D01*
X167233489Y-53730261D01*
X167078845Y-53699500D01*
X167078842Y-53699500D01*
X166921158Y-53699500D01*
X166921155Y-53699500D01*
X166766510Y-53730261D01*
X166766498Y-53730264D01*
X166620827Y-53790602D01*
X166620814Y-53790609D01*
X166489711Y-53878210D01*
X166489707Y-53878213D01*
X166378213Y-53989707D01*
X166378210Y-53989711D01*
X166290609Y-54120814D01*
X166290602Y-54120827D01*
X166230264Y-54266498D01*
X166230261Y-54266510D01*
X166199500Y-54421153D01*
X165550500Y-54421153D01*
X165550500Y-51004935D01*
X165570185Y-50937896D01*
X165571366Y-50936090D01*
X165609394Y-50879179D01*
X165669737Y-50733497D01*
X165700500Y-50578842D01*
X165700500Y-50421158D01*
X165700500Y-50421155D01*
X165700499Y-50421153D01*
X165692148Y-50379172D01*
X165669737Y-50266503D01*
X165652133Y-50224003D01*
X165609397Y-50120827D01*
X165609390Y-50120814D01*
X165521789Y-49989711D01*
X165521786Y-49989707D01*
X165410292Y-49878213D01*
X165410288Y-49878210D01*
X165279185Y-49790609D01*
X165279172Y-49790602D01*
X165133501Y-49730264D01*
X165133489Y-49730261D01*
X164978845Y-49699500D01*
X164978842Y-49699500D01*
X164821158Y-49699500D01*
X164821155Y-49699500D01*
X164666510Y-49730261D01*
X164666498Y-49730264D01*
X164520827Y-49790602D01*
X164520814Y-49790609D01*
X164389711Y-49878210D01*
X164389707Y-49878213D01*
X164278213Y-49989707D01*
X164278210Y-49989711D01*
X164190609Y-50120814D01*
X164190602Y-50120827D01*
X164130264Y-50266498D01*
X164130261Y-50266510D01*
X164099500Y-50421153D01*
X164099500Y-50578846D01*
X164130261Y-50733489D01*
X164130264Y-50733501D01*
X164190602Y-50879172D01*
X164190606Y-50879179D01*
X164228602Y-50936044D01*
X164249480Y-51002721D01*
X164249500Y-51004935D01*
X164249500Y-54479192D01*
X164229815Y-54546231D01*
X164213181Y-54566873D01*
X164166873Y-54613181D01*
X164105550Y-54646666D01*
X164079192Y-54649500D01*
X153135929Y-54649500D01*
X153010261Y-54674497D01*
X153010255Y-54674499D01*
X152891875Y-54723533D01*
X152891866Y-54723538D01*
X152785331Y-54794723D01*
X152785327Y-54794726D01*
X152094724Y-55485328D01*
X152094720Y-55485332D01*
X152071010Y-55520820D01*
X152071010Y-55520821D01*
X152023534Y-55591874D01*
X151974499Y-55710255D01*
X151974497Y-55710261D01*
X151949500Y-55835928D01*
X151949500Y-60579192D01*
X151929815Y-60646231D01*
X151913181Y-60666873D01*
X151816873Y-60763181D01*
X151755550Y-60796666D01*
X151729192Y-60799500D01*
X144017848Y-60799500D01*
X143950809Y-60779815D01*
X143905054Y-60727011D01*
X143896231Y-60699692D01*
X143869738Y-60566508D01*
X143869737Y-60566507D01*
X143869737Y-60566503D01*
X143850812Y-60520814D01*
X143809397Y-60420827D01*
X143809390Y-60420814D01*
X143721789Y-60289711D01*
X143721786Y-60289707D01*
X143610292Y-60178213D01*
X143610288Y-60178210D01*
X143479185Y-60090609D01*
X143479172Y-60090602D01*
X143374045Y-60047058D01*
X143319641Y-60003217D01*
X143297576Y-59936923D01*
X143309445Y-59885794D01*
X143307063Y-59884808D01*
X143369735Y-59733501D01*
X143369737Y-59733497D01*
X143400500Y-59578842D01*
X143400500Y-59421158D01*
X143400500Y-59421155D01*
X143400499Y-59421153D01*
X143369738Y-59266510D01*
X143369737Y-59266503D01*
X143309794Y-59121786D01*
X143309397Y-59120827D01*
X143309390Y-59120814D01*
X143221789Y-58989711D01*
X143221786Y-58989707D01*
X143110292Y-58878213D01*
X143110288Y-58878210D01*
X142979185Y-58790609D01*
X142979172Y-58790602D01*
X142833501Y-58730264D01*
X142833489Y-58730261D01*
X142678845Y-58699500D01*
X142678842Y-58699500D01*
X142521158Y-58699500D01*
X142521155Y-58699500D01*
X142366510Y-58730261D01*
X142366498Y-58730264D01*
X142220827Y-58790602D01*
X142220814Y-58790609D01*
X142089711Y-58878210D01*
X142089707Y-58878213D01*
X141978213Y-58989707D01*
X141978210Y-58989711D01*
X141890609Y-59120814D01*
X141890602Y-59120827D01*
X141830264Y-59266498D01*
X141830261Y-59266510D01*
X141799500Y-59421153D01*
X141799500Y-59578846D01*
X141830261Y-59733489D01*
X141830264Y-59733501D01*
X141890602Y-59879172D01*
X141890609Y-59879185D01*
X141978210Y-60010288D01*
X141978213Y-60010292D01*
X142089707Y-60121786D01*
X142089711Y-60121789D01*
X142220814Y-60209390D01*
X142220821Y-60209394D01*
X142325957Y-60252942D01*
X142380358Y-60296781D01*
X142402424Y-60363075D01*
X142390639Y-60414241D01*
X142392937Y-60415193D01*
X142330264Y-60566498D01*
X142330261Y-60566508D01*
X142303769Y-60699692D01*
X142271384Y-60761603D01*
X142210668Y-60796177D01*
X142182152Y-60799500D01*
X140570807Y-60799500D01*
X140503768Y-60779815D01*
X140483126Y-60763181D01*
X139692318Y-59972372D01*
X139658833Y-59911049D01*
X139663817Y-59841357D01*
X139705689Y-59785424D01*
X139732547Y-59770130D01*
X139733494Y-59769737D01*
X139733497Y-59769737D01*
X139821008Y-59733489D01*
X139879173Y-59709397D01*
X139879176Y-59709395D01*
X139879179Y-59709394D01*
X140010289Y-59621789D01*
X140121789Y-59510289D01*
X140209394Y-59379179D01*
X140269737Y-59233497D01*
X140300500Y-59078842D01*
X140300500Y-58921158D01*
X140300500Y-58921155D01*
X140300499Y-58921153D01*
X140291957Y-58878210D01*
X140269737Y-58766503D01*
X140256062Y-58733489D01*
X140209397Y-58620827D01*
X140209390Y-58620814D01*
X140121789Y-58489711D01*
X140121786Y-58489707D01*
X140010292Y-58378213D01*
X140010288Y-58378210D01*
X139879185Y-58290609D01*
X139879172Y-58290602D01*
X139733501Y-58230264D01*
X139733489Y-58230261D01*
X139578845Y-58199500D01*
X139578842Y-58199500D01*
X139421158Y-58199500D01*
X139408735Y-58201971D01*
X139339143Y-58195742D01*
X139283967Y-58152879D01*
X139260723Y-58086989D01*
X139268839Y-58039588D01*
X139267969Y-58039324D01*
X139269731Y-58033509D01*
X139269737Y-58033497D01*
X139300500Y-57878842D01*
X139300500Y-57721158D01*
X139300500Y-57721155D01*
X139300499Y-57721153D01*
X139280734Y-57621789D01*
X139269737Y-57566503D01*
X139209394Y-57420821D01*
X139181707Y-57379385D01*
X139160831Y-57312709D01*
X139179316Y-57245329D01*
X139197126Y-57222819D01*
X139498792Y-56921153D01*
X141199500Y-56921153D01*
X141199500Y-57078846D01*
X141230261Y-57233489D01*
X141230264Y-57233501D01*
X141290602Y-57379172D01*
X141290609Y-57379185D01*
X141378210Y-57510288D01*
X141378213Y-57510292D01*
X141489707Y-57621786D01*
X141489711Y-57621789D01*
X141620814Y-57709390D01*
X141620827Y-57709397D01*
X141758683Y-57766498D01*
X141766503Y-57769737D01*
X141921153Y-57800499D01*
X141921156Y-57800500D01*
X141921158Y-57800500D01*
X142078844Y-57800500D01*
X142078845Y-57800499D01*
X142233497Y-57769737D01*
X142379179Y-57709394D01*
X142510289Y-57621789D01*
X142621789Y-57510289D01*
X142709394Y-57379179D01*
X142769737Y-57233497D01*
X142800500Y-57078842D01*
X142800500Y-56921158D01*
X142800500Y-56921155D01*
X142800499Y-56921153D01*
X142769738Y-56766510D01*
X142769737Y-56766503D01*
X142742398Y-56700500D01*
X142709397Y-56620827D01*
X142709390Y-56620814D01*
X142621789Y-56489711D01*
X142621786Y-56489707D01*
X142510292Y-56378213D01*
X142510288Y-56378210D01*
X142379185Y-56290609D01*
X142379172Y-56290602D01*
X142233501Y-56230264D01*
X142233489Y-56230261D01*
X142078845Y-56199500D01*
X142078842Y-56199500D01*
X141921158Y-56199500D01*
X141921155Y-56199500D01*
X141766510Y-56230261D01*
X141766498Y-56230264D01*
X141620827Y-56290602D01*
X141620814Y-56290609D01*
X141489711Y-56378210D01*
X141489707Y-56378213D01*
X141378213Y-56489707D01*
X141378210Y-56489711D01*
X141290609Y-56620814D01*
X141290602Y-56620827D01*
X141230264Y-56766498D01*
X141230261Y-56766510D01*
X141199500Y-56921153D01*
X139498792Y-56921153D01*
X141061488Y-55358458D01*
X141498794Y-54921153D01*
X145199500Y-54921153D01*
X145199500Y-55078846D01*
X145230261Y-55233489D01*
X145230264Y-55233501D01*
X145290602Y-55379172D01*
X145290609Y-55379185D01*
X145378210Y-55510288D01*
X145378213Y-55510292D01*
X145489707Y-55621786D01*
X145489711Y-55621789D01*
X145620814Y-55709390D01*
X145620827Y-55709397D01*
X145758683Y-55766498D01*
X145766503Y-55769737D01*
X145921153Y-55800499D01*
X145921156Y-55800500D01*
X145921158Y-55800500D01*
X146078844Y-55800500D01*
X146078845Y-55800499D01*
X146233497Y-55769737D01*
X146377098Y-55710256D01*
X146379172Y-55709397D01*
X146379172Y-55709396D01*
X146379179Y-55709394D01*
X146510289Y-55621789D01*
X146621789Y-55510289D01*
X146709394Y-55379179D01*
X146769737Y-55233497D01*
X146800500Y-55078842D01*
X146800500Y-54921158D01*
X146800500Y-54921155D01*
X146800499Y-54921153D01*
X146792148Y-54879172D01*
X146769737Y-54766503D01*
X146756062Y-54733489D01*
X146709397Y-54620827D01*
X146709390Y-54620814D01*
X146621789Y-54489711D01*
X146621786Y-54489707D01*
X146510292Y-54378213D01*
X146510288Y-54378210D01*
X146379185Y-54290609D01*
X146379172Y-54290602D01*
X146233501Y-54230264D01*
X146233489Y-54230261D01*
X146078845Y-54199500D01*
X146078842Y-54199500D01*
X145921158Y-54199500D01*
X145921155Y-54199500D01*
X145766510Y-54230261D01*
X145766498Y-54230264D01*
X145620827Y-54290602D01*
X145620814Y-54290609D01*
X145489711Y-54378210D01*
X145489707Y-54378213D01*
X145378213Y-54489707D01*
X145378210Y-54489711D01*
X145290609Y-54620814D01*
X145290602Y-54620827D01*
X145230264Y-54766498D01*
X145230261Y-54766510D01*
X145199500Y-54921153D01*
X141498794Y-54921153D01*
X141592562Y-54827385D01*
X141605271Y-54814675D01*
X141605276Y-54814670D01*
X141659511Y-54733501D01*
X141676464Y-54708129D01*
X141688932Y-54678028D01*
X141725501Y-54589744D01*
X141731116Y-54561515D01*
X141750500Y-54464069D01*
X141750500Y-53289968D01*
X141770185Y-53222929D01*
X141771398Y-53221077D01*
X141771574Y-53220814D01*
X141799394Y-53179179D01*
X141859737Y-53033497D01*
X141890500Y-52878842D01*
X141890500Y-52721158D01*
X141890500Y-52721155D01*
X141890499Y-52721153D01*
X141870734Y-52621789D01*
X141859737Y-52566503D01*
X141823427Y-52478842D01*
X141799397Y-52420827D01*
X141799390Y-52420814D01*
X141711789Y-52289711D01*
X141711786Y-52289707D01*
X141600292Y-52178213D01*
X141600288Y-52178210D01*
X141469185Y-52090609D01*
X141469172Y-52090602D01*
X141323501Y-52030264D01*
X141323489Y-52030261D01*
X141168845Y-51999500D01*
X141168842Y-51999500D01*
X141011158Y-51999500D01*
X141011155Y-51999500D01*
X140856510Y-52030261D01*
X140856498Y-52030264D01*
X140710827Y-52090602D01*
X140710814Y-52090609D01*
X140579711Y-52178210D01*
X140579707Y-52178213D01*
X140468213Y-52289707D01*
X140468210Y-52289711D01*
X140380609Y-52420814D01*
X140380602Y-52420827D01*
X140320264Y-52566498D01*
X140320261Y-52566510D01*
X140289500Y-52721153D01*
X140289500Y-52878846D01*
X140320261Y-53033489D01*
X140320264Y-53033501D01*
X140380602Y-53179172D01*
X140380609Y-53179184D01*
X140428602Y-53251010D01*
X140449480Y-53317687D01*
X140449500Y-53319901D01*
X140449500Y-53634155D01*
X140429815Y-53701194D01*
X140377011Y-53746949D01*
X140307853Y-53756893D01*
X140278048Y-53748716D01*
X140233501Y-53730264D01*
X140233491Y-53730261D01*
X140106040Y-53704909D01*
X140044129Y-53672524D01*
X140027130Y-53652183D01*
X139956147Y-53545950D01*
X139956144Y-53545946D01*
X139844650Y-53434452D01*
X139844646Y-53434449D01*
X139713543Y-53346848D01*
X139713530Y-53346841D01*
X139567859Y-53286503D01*
X139567847Y-53286500D01*
X139413203Y-53255739D01*
X139413200Y-53255739D01*
X139382807Y-53255739D01*
X139315768Y-53236054D01*
X139270013Y-53183250D01*
X139260069Y-53114092D01*
X139289094Y-53050536D01*
X139295126Y-53044058D01*
X140308921Y-52030264D01*
X141552366Y-50786819D01*
X141613689Y-50753334D01*
X141640047Y-50750500D01*
X145064071Y-50750500D01*
X145149526Y-50733501D01*
X145189744Y-50725501D01*
X145308127Y-50676465D01*
X145414669Y-50605277D01*
X145795943Y-50224003D01*
X146098794Y-49921153D01*
X153199500Y-49921153D01*
X153199500Y-50078846D01*
X153230261Y-50233489D01*
X153230264Y-50233501D01*
X153290602Y-50379172D01*
X153290609Y-50379185D01*
X153378210Y-50510288D01*
X153378213Y-50510292D01*
X153489707Y-50621786D01*
X153489711Y-50621789D01*
X153620814Y-50709390D01*
X153620827Y-50709397D01*
X153720060Y-50750500D01*
X153766503Y-50769737D01*
X153921153Y-50800499D01*
X153921156Y-50800500D01*
X153921158Y-50800500D01*
X154078844Y-50800500D01*
X154078845Y-50800499D01*
X154233497Y-50769737D01*
X154351594Y-50720820D01*
X154379172Y-50709397D01*
X154379172Y-50709396D01*
X154379179Y-50709394D01*
X154510289Y-50621789D01*
X154621789Y-50510289D01*
X154709394Y-50379179D01*
X154769737Y-50233497D01*
X154800500Y-50078842D01*
X154800500Y-49921158D01*
X154800500Y-49921155D01*
X154800499Y-49921153D01*
X154781847Y-49827385D01*
X154769737Y-49766503D01*
X154758691Y-49739836D01*
X154709397Y-49620827D01*
X154709390Y-49620814D01*
X154621789Y-49489711D01*
X154621786Y-49489707D01*
X154510292Y-49378213D01*
X154510288Y-49378210D01*
X154379185Y-49290609D01*
X154379172Y-49290602D01*
X154233501Y-49230264D01*
X154233489Y-49230261D01*
X154078845Y-49199500D01*
X154078842Y-49199500D01*
X153921158Y-49199500D01*
X153921155Y-49199500D01*
X153766510Y-49230261D01*
X153766498Y-49230264D01*
X153620827Y-49290602D01*
X153620814Y-49290609D01*
X153489711Y-49378210D01*
X153489707Y-49378213D01*
X153378213Y-49489707D01*
X153378210Y-49489711D01*
X153290609Y-49620814D01*
X153290602Y-49620827D01*
X153230264Y-49766498D01*
X153230261Y-49766510D01*
X153199500Y-49921153D01*
X146098794Y-49921153D01*
X146192562Y-49827385D01*
X146305272Y-49714674D01*
X146305273Y-49714673D01*
X146305277Y-49714669D01*
X146376465Y-49608127D01*
X146409164Y-49529185D01*
X146425500Y-49489747D01*
X146425513Y-49489686D01*
X146450500Y-49364071D01*
X146450500Y-48824424D01*
X146470185Y-48757385D01*
X146522989Y-48711630D01*
X146592147Y-48701686D01*
X146621952Y-48709863D01*
X146736682Y-48757385D01*
X146766503Y-48769737D01*
X146888938Y-48794091D01*
X146921153Y-48800499D01*
X146921156Y-48800500D01*
X146921158Y-48800500D01*
X147078844Y-48800500D01*
X147078845Y-48800499D01*
X147233497Y-48769737D01*
X147379179Y-48709394D01*
X147510289Y-48621789D01*
X147621789Y-48510289D01*
X147709394Y-48379179D01*
X147769737Y-48233497D01*
X147800500Y-48078842D01*
X147800500Y-47921158D01*
X147800500Y-47921155D01*
X147800499Y-47921153D01*
X147774531Y-47790606D01*
X147769737Y-47766503D01*
X147769735Y-47766498D01*
X147709397Y-47620827D01*
X147709390Y-47620814D01*
X147621789Y-47489711D01*
X147621786Y-47489707D01*
X147510292Y-47378213D01*
X147510288Y-47378210D01*
X147379185Y-47290609D01*
X147379172Y-47290602D01*
X147233501Y-47230264D01*
X147233489Y-47230261D01*
X147078845Y-47199500D01*
X147078842Y-47199500D01*
X146921158Y-47199500D01*
X146921155Y-47199500D01*
X146766510Y-47230261D01*
X146766507Y-47230262D01*
X146766506Y-47230262D01*
X146766503Y-47230263D01*
X146686372Y-47263454D01*
X146621952Y-47290137D01*
X146552482Y-47297605D01*
X146490003Y-47266329D01*
X146454351Y-47206240D01*
X146450500Y-47175575D01*
X146450500Y-46820817D01*
X167869500Y-46820817D01*
X167869500Y-46959183D01*
X167901564Y-47078846D01*
X167905312Y-47092835D01*
X167905313Y-47092838D01*
X167974492Y-47212661D01*
X167974494Y-47212664D01*
X167974495Y-47212665D01*
X168072335Y-47310505D01*
X168192164Y-47379688D01*
X168325817Y-47415500D01*
X168325819Y-47415500D01*
X168464181Y-47415500D01*
X168464183Y-47415500D01*
X168597836Y-47379688D01*
X168717665Y-47310505D01*
X168815505Y-47212665D01*
X168884688Y-47092836D01*
X168920500Y-46959183D01*
X168920500Y-46921153D01*
X171199500Y-46921153D01*
X171199500Y-47078846D01*
X171230261Y-47233489D01*
X171230264Y-47233501D01*
X171290602Y-47379172D01*
X171290609Y-47379185D01*
X171378210Y-47510288D01*
X171378213Y-47510292D01*
X171489707Y-47621786D01*
X171489711Y-47621789D01*
X171620814Y-47709390D01*
X171620827Y-47709397D01*
X171758683Y-47766498D01*
X171766503Y-47769737D01*
X171921153Y-47800499D01*
X171921156Y-47800500D01*
X171921158Y-47800500D01*
X172078844Y-47800500D01*
X172078845Y-47800499D01*
X172233497Y-47769737D01*
X172379179Y-47709394D01*
X172510289Y-47621789D01*
X172621789Y-47510289D01*
X172709394Y-47379179D01*
X172769737Y-47233497D01*
X172800500Y-47078842D01*
X172800500Y-46921158D01*
X172800500Y-46921155D01*
X172800499Y-46921153D01*
X172769738Y-46766510D01*
X172769737Y-46766503D01*
X172736873Y-46687161D01*
X172709397Y-46620827D01*
X172709390Y-46620814D01*
X172621789Y-46489711D01*
X172621786Y-46489707D01*
X172510292Y-46378213D01*
X172510288Y-46378210D01*
X172379185Y-46290609D01*
X172379172Y-46290602D01*
X172233501Y-46230264D01*
X172233489Y-46230261D01*
X172078845Y-46199500D01*
X172078842Y-46199500D01*
X171921158Y-46199500D01*
X171921155Y-46199500D01*
X171766510Y-46230261D01*
X171766498Y-46230264D01*
X171620827Y-46290602D01*
X171620814Y-46290609D01*
X171489711Y-46378210D01*
X171489707Y-46378213D01*
X171378213Y-46489707D01*
X171378210Y-46489711D01*
X171290609Y-46620814D01*
X171290602Y-46620827D01*
X171230264Y-46766498D01*
X171230261Y-46766510D01*
X171199500Y-46921153D01*
X168920500Y-46921153D01*
X168920500Y-46820817D01*
X168884688Y-46687164D01*
X168850096Y-46627249D01*
X168815507Y-46567338D01*
X168815503Y-46567333D01*
X168717666Y-46469496D01*
X168717661Y-46469492D01*
X168597838Y-46400313D01*
X168597837Y-46400312D01*
X168597836Y-46400312D01*
X168464183Y-46364500D01*
X168325817Y-46364500D01*
X168192164Y-46400312D01*
X168192161Y-46400313D01*
X168072338Y-46469492D01*
X168072333Y-46469496D01*
X167974496Y-46567333D01*
X167974492Y-46567338D01*
X167905313Y-46687161D01*
X167905312Y-46687164D01*
X167869500Y-46820817D01*
X146450500Y-46820817D01*
X146450500Y-43516153D01*
X156209500Y-43516153D01*
X156209500Y-43673846D01*
X156240261Y-43828489D01*
X156240264Y-43828501D01*
X156300602Y-43974172D01*
X156300609Y-43974185D01*
X156388210Y-44105288D01*
X156388213Y-44105292D01*
X156499707Y-44216786D01*
X156499711Y-44216789D01*
X156630814Y-44304390D01*
X156630827Y-44304397D01*
X156776498Y-44364735D01*
X156776503Y-44364737D01*
X156931153Y-44395499D01*
X156931156Y-44395500D01*
X156931158Y-44395500D01*
X157088844Y-44395500D01*
X157088845Y-44395499D01*
X157243497Y-44364737D01*
X157389179Y-44304394D01*
X157520289Y-44216789D01*
X157631789Y-44105289D01*
X157719394Y-43974179D01*
X157741358Y-43921153D01*
X163199500Y-43921153D01*
X163199500Y-44078846D01*
X163230261Y-44233489D01*
X163230264Y-44233501D01*
X163290602Y-44379172D01*
X163290609Y-44379185D01*
X163378210Y-44510288D01*
X163378213Y-44510292D01*
X163489707Y-44621786D01*
X163489711Y-44621789D01*
X163620814Y-44709390D01*
X163620827Y-44709397D01*
X163766498Y-44769735D01*
X163766503Y-44769737D01*
X163921153Y-44800499D01*
X163921156Y-44800500D01*
X163921158Y-44800500D01*
X164078844Y-44800500D01*
X164078845Y-44800499D01*
X164233497Y-44769737D01*
X164379179Y-44709394D01*
X164510289Y-44621789D01*
X164621789Y-44510289D01*
X164709394Y-44379179D01*
X164769737Y-44233497D01*
X164800500Y-44078842D01*
X164800500Y-43921158D01*
X164800500Y-43921155D01*
X164800499Y-43921153D01*
X164769738Y-43766510D01*
X164769737Y-43766503D01*
X164765173Y-43755485D01*
X164709397Y-43620827D01*
X164709390Y-43620814D01*
X164621789Y-43489711D01*
X164621786Y-43489707D01*
X164510292Y-43378213D01*
X164510288Y-43378210D01*
X164379185Y-43290609D01*
X164379172Y-43290602D01*
X164233501Y-43230264D01*
X164233489Y-43230261D01*
X164078845Y-43199500D01*
X164078842Y-43199500D01*
X163921158Y-43199500D01*
X163921155Y-43199500D01*
X163766510Y-43230261D01*
X163766498Y-43230264D01*
X163620827Y-43290602D01*
X163620814Y-43290609D01*
X163489711Y-43378210D01*
X163489707Y-43378213D01*
X163378213Y-43489707D01*
X163378210Y-43489711D01*
X163290609Y-43620814D01*
X163290602Y-43620827D01*
X163230264Y-43766498D01*
X163230261Y-43766510D01*
X163199500Y-43921153D01*
X157741358Y-43921153D01*
X157779737Y-43828497D01*
X157810500Y-43673842D01*
X157810500Y-43516158D01*
X157810500Y-43516155D01*
X157810499Y-43516153D01*
X157805239Y-43489711D01*
X157779737Y-43361503D01*
X157736121Y-43256204D01*
X157719397Y-43215827D01*
X157719390Y-43215814D01*
X157631789Y-43084711D01*
X157631786Y-43084707D01*
X157520292Y-42973213D01*
X157520288Y-42973210D01*
X157389185Y-42885609D01*
X157389172Y-42885602D01*
X157243501Y-42825264D01*
X157243489Y-42825261D01*
X157088845Y-42794500D01*
X157088842Y-42794500D01*
X156931158Y-42794500D01*
X156931155Y-42794500D01*
X156776510Y-42825261D01*
X156776498Y-42825264D01*
X156630827Y-42885602D01*
X156630814Y-42885609D01*
X156499711Y-42973210D01*
X156499707Y-42973213D01*
X156388213Y-43084707D01*
X156388210Y-43084711D01*
X156300609Y-43215814D01*
X156300602Y-43215827D01*
X156240264Y-43361498D01*
X156240261Y-43361510D01*
X156209500Y-43516153D01*
X146450500Y-43516153D01*
X146450500Y-42620808D01*
X146470185Y-42553769D01*
X146486819Y-42533127D01*
X146733127Y-42286819D01*
X146794450Y-42253334D01*
X146820808Y-42250500D01*
X149464071Y-42250500D01*
X149565804Y-42230263D01*
X149589744Y-42225501D01*
X149708127Y-42176465D01*
X149814669Y-42105277D01*
X150465277Y-41454669D01*
X150536466Y-41348126D01*
X150585501Y-41229743D01*
X150594336Y-41185331D01*
X150610500Y-41104069D01*
X150610500Y-41040817D01*
X167869500Y-41040817D01*
X167869500Y-41179183D01*
X167883048Y-41229743D01*
X167905312Y-41312835D01*
X167905313Y-41312838D01*
X167974492Y-41432661D01*
X167974494Y-41432664D01*
X167974495Y-41432665D01*
X168072335Y-41530505D01*
X168192164Y-41599688D01*
X168325817Y-41635500D01*
X168325819Y-41635500D01*
X168464181Y-41635500D01*
X168464183Y-41635500D01*
X168597836Y-41599688D01*
X168717665Y-41530505D01*
X168815505Y-41432665D01*
X168884688Y-41312836D01*
X168920500Y-41179183D01*
X168920500Y-41040817D01*
X168884688Y-40907164D01*
X168815505Y-40787335D01*
X168717665Y-40689495D01*
X168717664Y-40689494D01*
X168717661Y-40689492D01*
X168597838Y-40620313D01*
X168597837Y-40620312D01*
X168597836Y-40620312D01*
X168464183Y-40584500D01*
X168325817Y-40584500D01*
X168192164Y-40620312D01*
X168192161Y-40620313D01*
X168072338Y-40689492D01*
X168072333Y-40689496D01*
X167974496Y-40787333D01*
X167974492Y-40787338D01*
X167905313Y-40907161D01*
X167905312Y-40907164D01*
X167869500Y-41040817D01*
X150610500Y-41040817D01*
X150610500Y-38953562D01*
X150630185Y-38886523D01*
X150661609Y-38853248D01*
X150725787Y-38806621D01*
X150856621Y-38675787D01*
X150859680Y-38671576D01*
X150915006Y-38628909D01*
X150984619Y-38622926D01*
X151046415Y-38655529D01*
X151060315Y-38671570D01*
X151063379Y-38675787D01*
X151194213Y-38806621D01*
X151343904Y-38915378D01*
X151397224Y-38942546D01*
X151508764Y-38999379D01*
X151508767Y-38999380D01*
X151596750Y-39027967D01*
X151684736Y-39056555D01*
X151867486Y-39085500D01*
X151867487Y-39085500D01*
X152052513Y-39085500D01*
X152052514Y-39085500D01*
X152235264Y-39056555D01*
X152411235Y-38999379D01*
X152576096Y-38915378D01*
X152725787Y-38806621D01*
X152856621Y-38675787D01*
X152859680Y-38671576D01*
X152915006Y-38628909D01*
X152984619Y-38622926D01*
X153046415Y-38655529D01*
X153060315Y-38671570D01*
X153063379Y-38675787D01*
X153194213Y-38806621D01*
X153343904Y-38915378D01*
X153397224Y-38942546D01*
X153508764Y-38999379D01*
X153508767Y-38999380D01*
X153596750Y-39027967D01*
X153684736Y-39056555D01*
X153867486Y-39085500D01*
X153867487Y-39085500D01*
X154052513Y-39085500D01*
X154052514Y-39085500D01*
X154235264Y-39056555D01*
X154411235Y-38999379D01*
X154576096Y-38915378D01*
X154725787Y-38806621D01*
X154856621Y-38675787D01*
X154859680Y-38671576D01*
X154915006Y-38628909D01*
X154984619Y-38622926D01*
X155046415Y-38655529D01*
X155060315Y-38671570D01*
X155063379Y-38675787D01*
X155194213Y-38806621D01*
X155343904Y-38915378D01*
X155397224Y-38942546D01*
X155508764Y-38999379D01*
X155508767Y-38999380D01*
X155596750Y-39027967D01*
X155684736Y-39056555D01*
X155867486Y-39085500D01*
X155867487Y-39085500D01*
X156052513Y-39085500D01*
X156052514Y-39085500D01*
X156235264Y-39056555D01*
X156411235Y-38999379D01*
X156576096Y-38915378D01*
X156725787Y-38806621D01*
X156856621Y-38675787D01*
X156965378Y-38526096D01*
X157049379Y-38361235D01*
X157106555Y-38185264D01*
X157135500Y-38002514D01*
X157135500Y-37817486D01*
X157106555Y-37634736D01*
X157049379Y-37458765D01*
X157049379Y-37458764D01*
X156994356Y-37350776D01*
X156965378Y-37293904D01*
X156856621Y-37144213D01*
X156761631Y-37049223D01*
X160119500Y-37049223D01*
X160119500Y-37350776D01*
X160119501Y-37350793D01*
X160158861Y-37649766D01*
X160236913Y-37941060D01*
X160352314Y-38219661D01*
X160352318Y-38219671D01*
X160503099Y-38480831D01*
X160686679Y-38720078D01*
X160686685Y-38720085D01*
X160899914Y-38933314D01*
X160899921Y-38933320D01*
X161139168Y-39116900D01*
X161400328Y-39267681D01*
X161400329Y-39267681D01*
X161400332Y-39267683D01*
X161586072Y-39344619D01*
X161678939Y-39383086D01*
X161678940Y-39383086D01*
X161678942Y-39383087D01*
X161970232Y-39461138D01*
X162269217Y-39500500D01*
X162269224Y-39500500D01*
X162570776Y-39500500D01*
X162570783Y-39500500D01*
X162869768Y-39461138D01*
X163161058Y-39383087D01*
X163439668Y-39267683D01*
X163700832Y-39116900D01*
X163940080Y-38933319D01*
X164153319Y-38720080D01*
X164336900Y-38480832D01*
X164487683Y-38219668D01*
X164603087Y-37941058D01*
X164681138Y-37649768D01*
X164720500Y-37350783D01*
X164720500Y-37049217D01*
X164681138Y-36750232D01*
X164603087Y-36458942D01*
X164603086Y-36458939D01*
X164603086Y-36458938D01*
X164587435Y-36421153D01*
X171199500Y-36421153D01*
X171199500Y-36578846D01*
X171230261Y-36733489D01*
X171230264Y-36733501D01*
X171290602Y-36879172D01*
X171290609Y-36879185D01*
X171378210Y-37010288D01*
X171378213Y-37010292D01*
X171489707Y-37121786D01*
X171489711Y-37121789D01*
X171620814Y-37209390D01*
X171620827Y-37209397D01*
X171724903Y-37252506D01*
X171766503Y-37269737D01*
X171887993Y-37293903D01*
X171921153Y-37300499D01*
X171921156Y-37300500D01*
X171921158Y-37300500D01*
X172078844Y-37300500D01*
X172078845Y-37300499D01*
X172233497Y-37269737D01*
X172346166Y-37223067D01*
X172379172Y-37209397D01*
X172379172Y-37209396D01*
X172379179Y-37209394D01*
X172510289Y-37121789D01*
X172621789Y-37010289D01*
X172709394Y-36879179D01*
X172769737Y-36733497D01*
X172800500Y-36578842D01*
X172800500Y-36421158D01*
X172800500Y-36421155D01*
X172800499Y-36421153D01*
X172798338Y-36410287D01*
X172769737Y-36266503D01*
X172734044Y-36180332D01*
X172709397Y-36120827D01*
X172709390Y-36120814D01*
X172621789Y-35989711D01*
X172621786Y-35989707D01*
X172510292Y-35878213D01*
X172510288Y-35878210D01*
X172379185Y-35790609D01*
X172379172Y-35790602D01*
X172233501Y-35730264D01*
X172233489Y-35730261D01*
X172078845Y-35699500D01*
X172078842Y-35699500D01*
X171921158Y-35699500D01*
X171921155Y-35699500D01*
X171766510Y-35730261D01*
X171766498Y-35730264D01*
X171620827Y-35790602D01*
X171620814Y-35790609D01*
X171489711Y-35878210D01*
X171489707Y-35878213D01*
X171378213Y-35989707D01*
X171378210Y-35989711D01*
X171290609Y-36120814D01*
X171290602Y-36120827D01*
X171230264Y-36266498D01*
X171230261Y-36266510D01*
X171199500Y-36421153D01*
X164587435Y-36421153D01*
X164487685Y-36180338D01*
X164487681Y-36180328D01*
X164336900Y-35919168D01*
X164153320Y-35679921D01*
X164153314Y-35679914D01*
X163940085Y-35466685D01*
X163940078Y-35466679D01*
X163700831Y-35283099D01*
X163439671Y-35132318D01*
X163439661Y-35132314D01*
X163161060Y-35016913D01*
X162869766Y-34938861D01*
X162570793Y-34899501D01*
X162570788Y-34899500D01*
X162570783Y-34899500D01*
X162269217Y-34899500D01*
X162269211Y-34899500D01*
X162269206Y-34899501D01*
X161970233Y-34938861D01*
X161678939Y-35016913D01*
X161400338Y-35132314D01*
X161400328Y-35132318D01*
X161139168Y-35283099D01*
X160899921Y-35466679D01*
X160899914Y-35466685D01*
X160686685Y-35679914D01*
X160686679Y-35679921D01*
X160503099Y-35919168D01*
X160352318Y-36180328D01*
X160352314Y-36180338D01*
X160236913Y-36458939D01*
X160158861Y-36750233D01*
X160119501Y-37049206D01*
X160119500Y-37049223D01*
X156761631Y-37049223D01*
X156725787Y-37013379D01*
X156576096Y-36904622D01*
X156411235Y-36820620D01*
X156411232Y-36820619D01*
X156235265Y-36763445D01*
X156092972Y-36740908D01*
X156052514Y-36734500D01*
X155867486Y-36734500D01*
X155827028Y-36740908D01*
X155684734Y-36763445D01*
X155508767Y-36820619D01*
X155508764Y-36820620D01*
X155343903Y-36904622D01*
X155264188Y-36962539D01*
X155194213Y-37013379D01*
X155194211Y-37013381D01*
X155194210Y-37013381D01*
X155063381Y-37144210D01*
X155060314Y-37148432D01*
X155004981Y-37191094D01*
X154935367Y-37197069D01*
X154873574Y-37164459D01*
X154859686Y-37148432D01*
X154856621Y-37144213D01*
X154725787Y-37013379D01*
X154576096Y-36904622D01*
X154411235Y-36820620D01*
X154411232Y-36820619D01*
X154235265Y-36763445D01*
X154092972Y-36740908D01*
X154052514Y-36734500D01*
X153867486Y-36734500D01*
X153827028Y-36740908D01*
X153684734Y-36763445D01*
X153508767Y-36820619D01*
X153508764Y-36820620D01*
X153343903Y-36904622D01*
X153264188Y-36962539D01*
X153194213Y-37013379D01*
X153194211Y-37013381D01*
X153194210Y-37013381D01*
X153063381Y-37144210D01*
X153060314Y-37148432D01*
X153004981Y-37191094D01*
X152935367Y-37197069D01*
X152873574Y-37164459D01*
X152859686Y-37148432D01*
X152856621Y-37144213D01*
X152725787Y-37013379D01*
X152576096Y-36904622D01*
X152411235Y-36820620D01*
X152411232Y-36820619D01*
X152235265Y-36763445D01*
X152092972Y-36740908D01*
X152052514Y-36734500D01*
X151867486Y-36734500D01*
X151827028Y-36740908D01*
X151684734Y-36763445D01*
X151508767Y-36820619D01*
X151508764Y-36820620D01*
X151343903Y-36904622D01*
X151264188Y-36962539D01*
X151194213Y-37013379D01*
X151194211Y-37013381D01*
X151194210Y-37013381D01*
X151063381Y-37144210D01*
X151060314Y-37148432D01*
X151004981Y-37191094D01*
X150935367Y-37197069D01*
X150873574Y-37164459D01*
X150859686Y-37148432D01*
X150856621Y-37144213D01*
X150725787Y-37013379D01*
X150576096Y-36904622D01*
X150411235Y-36820620D01*
X150411232Y-36820619D01*
X150235265Y-36763445D01*
X150092972Y-36740908D01*
X150052514Y-36734500D01*
X149867486Y-36734500D01*
X149827028Y-36740908D01*
X149684734Y-36763445D01*
X149508767Y-36820619D01*
X149508764Y-36820620D01*
X149343903Y-36904622D01*
X149264188Y-36962539D01*
X149194213Y-37013379D01*
X149194211Y-37013381D01*
X149194210Y-37013381D01*
X149063381Y-37144210D01*
X149060314Y-37148432D01*
X149004981Y-37191094D01*
X148935367Y-37197069D01*
X148873574Y-37164459D01*
X148859686Y-37148432D01*
X148856621Y-37144213D01*
X148725787Y-37013379D01*
X148576096Y-36904622D01*
X148411235Y-36820620D01*
X148411232Y-36820619D01*
X148235265Y-36763445D01*
X148092972Y-36740908D01*
X148052514Y-36734500D01*
X147867486Y-36734500D01*
X147827028Y-36740908D01*
X147684734Y-36763445D01*
X147508767Y-36820619D01*
X147508764Y-36820620D01*
X147343903Y-36904622D01*
X147264188Y-36962539D01*
X147194213Y-37013379D01*
X147194211Y-37013381D01*
X147194210Y-37013381D01*
X147063381Y-37144210D01*
X147060314Y-37148432D01*
X147004981Y-37191094D01*
X146935367Y-37197069D01*
X146873574Y-37164459D01*
X146859686Y-37148432D01*
X146856621Y-37144213D01*
X146725787Y-37013379D01*
X146576096Y-36904622D01*
X146411235Y-36820620D01*
X146411232Y-36820619D01*
X146235265Y-36763445D01*
X146092972Y-36740908D01*
X146052514Y-36734500D01*
X145867486Y-36734500D01*
X145827028Y-36740908D01*
X145684734Y-36763445D01*
X145508767Y-36820619D01*
X145508764Y-36820620D01*
X145343903Y-36904622D01*
X145264188Y-36962539D01*
X145194213Y-37013379D01*
X145194211Y-37013381D01*
X145194210Y-37013381D01*
X145063381Y-37144210D01*
X145060314Y-37148432D01*
X145004981Y-37191094D01*
X144935367Y-37197069D01*
X144873574Y-37164459D01*
X144859686Y-37148432D01*
X144856621Y-37144213D01*
X144725787Y-37013379D01*
X144576096Y-36904622D01*
X144411235Y-36820620D01*
X144411232Y-36820619D01*
X144235265Y-36763445D01*
X144092972Y-36740908D01*
X144052514Y-36734500D01*
X143867486Y-36734500D01*
X143827028Y-36740908D01*
X143684734Y-36763445D01*
X143508767Y-36820619D01*
X143508764Y-36820620D01*
X143343900Y-36904624D01*
X143228392Y-36988545D01*
X143162586Y-37012025D01*
X143094532Y-36996199D01*
X143056241Y-36962539D01*
X143012884Y-36904622D01*
X142992546Y-36877454D01*
X142992544Y-36877453D01*
X142992544Y-36877452D01*
X142877335Y-36791206D01*
X142877328Y-36791202D01*
X142742482Y-36740908D01*
X142742483Y-36740908D01*
X142682883Y-36734501D01*
X142682881Y-36734500D01*
X142682873Y-36734500D01*
X142682865Y-36734500D01*
X142596940Y-36734500D01*
X142529901Y-36714815D01*
X142484146Y-36662011D01*
X142474202Y-36592853D01*
X142503227Y-36529297D01*
X142509259Y-36522818D01*
X142510285Y-36521791D01*
X142510289Y-36521789D01*
X142621789Y-36410289D01*
X142709394Y-36279179D01*
X142769737Y-36133497D01*
X142800500Y-35978842D01*
X142800500Y-35821158D01*
X142800500Y-35821155D01*
X142800499Y-35821153D01*
X142778820Y-35712168D01*
X142769737Y-35666503D01*
X142769735Y-35666498D01*
X142709397Y-35520827D01*
X142709390Y-35520814D01*
X142621789Y-35389711D01*
X142621786Y-35389707D01*
X142510292Y-35278213D01*
X142510288Y-35278210D01*
X142379185Y-35190609D01*
X142379172Y-35190602D01*
X142233501Y-35130264D01*
X142233489Y-35130261D01*
X142078845Y-35099500D01*
X142078842Y-35099500D01*
X141921158Y-35099500D01*
X141921155Y-35099500D01*
X141766510Y-35130261D01*
X141766498Y-35130264D01*
X141620827Y-35190602D01*
X141620814Y-35190609D01*
X141489711Y-35278210D01*
X141489707Y-35278213D01*
X141378213Y-35389707D01*
X141378210Y-35389711D01*
X141290609Y-35520814D01*
X141290602Y-35520827D01*
X141230264Y-35666498D01*
X141230261Y-35666510D01*
X141199500Y-35821153D01*
X141199500Y-35978846D01*
X141230261Y-36133489D01*
X141230264Y-36133501D01*
X141290602Y-36279172D01*
X141290609Y-36279185D01*
X141378210Y-36410288D01*
X141378213Y-36410292D01*
X141490740Y-36522819D01*
X141524225Y-36584142D01*
X141519241Y-36653834D01*
X141477369Y-36709767D01*
X141411905Y-36734184D01*
X141403060Y-36734500D01*
X141237130Y-36734500D01*
X141237123Y-36734501D01*
X141177516Y-36740908D01*
X141042671Y-36791202D01*
X141042664Y-36791206D01*
X140927455Y-36877452D01*
X140927452Y-36877455D01*
X140841206Y-36992664D01*
X140841202Y-36992671D01*
X140790908Y-37127517D01*
X140784501Y-37187116D01*
X140784500Y-37187135D01*
X140784500Y-38632870D01*
X140784501Y-38632876D01*
X140790908Y-38692483D01*
X140841202Y-38827328D01*
X140841206Y-38827335D01*
X140927452Y-38942544D01*
X140927455Y-38942547D01*
X141042664Y-39028793D01*
X141042671Y-39028797D01*
X141177517Y-39079091D01*
X141177516Y-39079091D01*
X141184444Y-39079835D01*
X141237127Y-39085500D01*
X142682872Y-39085499D01*
X142742483Y-39079091D01*
X142877331Y-39028796D01*
X142992546Y-38942546D01*
X143056241Y-38857459D01*
X143112174Y-38815590D01*
X143181866Y-38810606D01*
X143228392Y-38831453D01*
X143343904Y-38915378D01*
X143397224Y-38942546D01*
X143508764Y-38999379D01*
X143508767Y-38999380D01*
X143596750Y-39027967D01*
X143684736Y-39056555D01*
X143867486Y-39085500D01*
X143867487Y-39085500D01*
X144052513Y-39085500D01*
X144052514Y-39085500D01*
X144235264Y-39056555D01*
X144411235Y-38999379D01*
X144576096Y-38915378D01*
X144725787Y-38806621D01*
X144856621Y-38675787D01*
X144859680Y-38671576D01*
X144915006Y-38628909D01*
X144984619Y-38622926D01*
X145046415Y-38655529D01*
X145060315Y-38671570D01*
X145063379Y-38675787D01*
X145194213Y-38806621D01*
X145343904Y-38915378D01*
X145397224Y-38942546D01*
X145508764Y-38999379D01*
X145508767Y-38999380D01*
X145596750Y-39027967D01*
X145684736Y-39056555D01*
X145867486Y-39085500D01*
X145867487Y-39085500D01*
X146052513Y-39085500D01*
X146052514Y-39085500D01*
X146235264Y-39056555D01*
X146411235Y-38999379D01*
X146576096Y-38915378D01*
X146725787Y-38806621D01*
X146856621Y-38675787D01*
X146859680Y-38671576D01*
X146915006Y-38628909D01*
X146984619Y-38622926D01*
X147046415Y-38655529D01*
X147060315Y-38671570D01*
X147063379Y-38675787D01*
X147194213Y-38806621D01*
X147343904Y-38915378D01*
X147397224Y-38942546D01*
X147508764Y-38999379D01*
X147508767Y-38999380D01*
X147596750Y-39027967D01*
X147684736Y-39056555D01*
X147867486Y-39085500D01*
X147867487Y-39085500D01*
X148052513Y-39085500D01*
X148052514Y-39085500D01*
X148235264Y-39056555D01*
X148411235Y-38999379D01*
X148576096Y-38915378D01*
X148725787Y-38806621D01*
X148856621Y-38675787D01*
X148859680Y-38671576D01*
X148915006Y-38628909D01*
X148984619Y-38622926D01*
X149046415Y-38655529D01*
X149060315Y-38671570D01*
X149063379Y-38675787D01*
X149194213Y-38806621D01*
X149258388Y-38853246D01*
X149301051Y-38908573D01*
X149309500Y-38953562D01*
X149309500Y-40719192D01*
X149289815Y-40786231D01*
X149273181Y-40806873D01*
X149166873Y-40913181D01*
X149105550Y-40946666D01*
X149079192Y-40949500D01*
X146435929Y-40949500D01*
X146310261Y-40974497D01*
X146310255Y-40974499D01*
X146191870Y-41023535D01*
X146085331Y-41094722D01*
X146085324Y-41094728D01*
X145294726Y-41885326D01*
X145223534Y-41991874D01*
X145174499Y-42110255D01*
X145174497Y-42110261D01*
X145149500Y-42235928D01*
X145149500Y-48979192D01*
X145129815Y-49046231D01*
X145113181Y-49066873D01*
X144766873Y-49413181D01*
X144705550Y-49446666D01*
X144679192Y-49449500D01*
X141255168Y-49449500D01*
X141129500Y-49474497D01*
X141129494Y-49474499D01*
X141011109Y-49523535D01*
X140904570Y-49594722D01*
X140904563Y-49594728D01*
X134494726Y-56004565D01*
X134423534Y-56111113D01*
X134374499Y-56229494D01*
X134374497Y-56229500D01*
X134349500Y-56355167D01*
X134349500Y-56995064D01*
X134329815Y-57062103D01*
X134328603Y-57063954D01*
X134290608Y-57120817D01*
X134290602Y-57120828D01*
X134230264Y-57266498D01*
X134230261Y-57266510D01*
X134199500Y-57421153D01*
X134199500Y-57578846D01*
X134230261Y-57733489D01*
X134230264Y-57733501D01*
X134290602Y-57879172D01*
X134290609Y-57879185D01*
X134378210Y-58010288D01*
X134378213Y-58010292D01*
X134489707Y-58121786D01*
X134489711Y-58121789D01*
X134620814Y-58209390D01*
X134620827Y-58209397D01*
X134766498Y-58269735D01*
X134766503Y-58269737D01*
X134898691Y-58296031D01*
X134921153Y-58300499D01*
X134921156Y-58300500D01*
X134921158Y-58300500D01*
X135078842Y-58300500D01*
X135101308Y-58296031D01*
X135170898Y-58302257D01*
X135226076Y-58345119D01*
X135249322Y-58411008D01*
X135249500Y-58417648D01*
X135249500Y-58564069D01*
X135249500Y-58564071D01*
X135249499Y-58564071D01*
X135274497Y-58689738D01*
X135274499Y-58689744D01*
X135316277Y-58790606D01*
X135323535Y-58808127D01*
X135371005Y-58879172D01*
X135394726Y-58914673D01*
X136285326Y-59805273D01*
X136285329Y-59805275D01*
X136285331Y-59805277D01*
X136391873Y-59876465D01*
X136510256Y-59925501D01*
X136510260Y-59925501D01*
X136510261Y-59925502D01*
X136635928Y-59950500D01*
X136635931Y-59950500D01*
X137477098Y-59950500D01*
X137544137Y-59970185D01*
X137589892Y-60022989D01*
X137599836Y-60092147D01*
X137570811Y-60155703D01*
X137524549Y-60189062D01*
X137520821Y-60190605D01*
X137520814Y-60190609D01*
X137389711Y-60278210D01*
X137389707Y-60278213D01*
X137278213Y-60389707D01*
X137278210Y-60389711D01*
X137190609Y-60520814D01*
X137190602Y-60520827D01*
X137130264Y-60666498D01*
X137130261Y-60666510D01*
X137099500Y-60821153D01*
X137099500Y-60978846D01*
X137123699Y-61100499D01*
X137130263Y-61133497D01*
X137163628Y-61214049D01*
X137169427Y-61228047D01*
X137176896Y-61297517D01*
X137145621Y-61359996D01*
X137085532Y-61395648D01*
X137054866Y-61399500D01*
X136500098Y-61399500D01*
X136433059Y-61379815D01*
X136412417Y-61363181D01*
X135829954Y-60780718D01*
X135796469Y-60719395D01*
X135796018Y-60717228D01*
X135790723Y-60690609D01*
X135765118Y-60561884D01*
X135765116Y-60561879D01*
X135704778Y-60416208D01*
X135704771Y-60416195D01*
X135617170Y-60285092D01*
X135617167Y-60285088D01*
X135505673Y-60173594D01*
X135505669Y-60173591D01*
X135374566Y-60085990D01*
X135374553Y-60085983D01*
X135228882Y-60025645D01*
X135228870Y-60025642D01*
X135074226Y-59994881D01*
X135074223Y-59994881D01*
X134916539Y-59994881D01*
X134916536Y-59994881D01*
X134761891Y-60025642D01*
X134761879Y-60025645D01*
X134616208Y-60085983D01*
X134616190Y-60085993D01*
X134555114Y-60126803D01*
X134488437Y-60147681D01*
X134421057Y-60129196D01*
X134374367Y-60077217D01*
X134371663Y-60071153D01*
X134309397Y-59920827D01*
X134309390Y-59920814D01*
X134221789Y-59789711D01*
X134221786Y-59789707D01*
X134110292Y-59678213D01*
X134110288Y-59678210D01*
X133979185Y-59590609D01*
X133979172Y-59590602D01*
X133833501Y-59530264D01*
X133833489Y-59530261D01*
X133678845Y-59499500D01*
X133678842Y-59499500D01*
X133521158Y-59499500D01*
X133521155Y-59499500D01*
X133366510Y-59530261D01*
X133366498Y-59530264D01*
X133220827Y-59590602D01*
X133220814Y-59590609D01*
X133089711Y-59678210D01*
X133089707Y-59678213D01*
X132978213Y-59789707D01*
X132978210Y-59789711D01*
X132890609Y-59920814D01*
X132890602Y-59920827D01*
X132830264Y-60066498D01*
X132830261Y-60066510D01*
X132799500Y-60221153D01*
X132799500Y-60378846D01*
X132830261Y-60533489D01*
X132830264Y-60533501D01*
X132890602Y-60679172D01*
X132890609Y-60679185D01*
X132978210Y-60810288D01*
X132978213Y-60810292D01*
X133089707Y-60921786D01*
X133089711Y-60921789D01*
X133220814Y-61009390D01*
X133220827Y-61009397D01*
X133366498Y-61069735D01*
X133366503Y-61069737D01*
X133521153Y-61100499D01*
X133521156Y-61100500D01*
X133521158Y-61100500D01*
X133678844Y-61100500D01*
X133678845Y-61100499D01*
X133833497Y-61069737D01*
X133951592Y-61020821D01*
X133979172Y-61009397D01*
X133979172Y-61009396D01*
X133979179Y-61009394D01*
X133979184Y-61009390D01*
X133979187Y-61009389D01*
X134040264Y-60968578D01*
X134106941Y-60947699D01*
X134174321Y-60966183D01*
X134221012Y-61018161D01*
X134223717Y-61024227D01*
X134285983Y-61174553D01*
X134285990Y-61174566D01*
X134373591Y-61305669D01*
X134373594Y-61305673D01*
X134485088Y-61417167D01*
X134485092Y-61417170D01*
X134616195Y-61504771D01*
X134616208Y-61504778D01*
X134761879Y-61565116D01*
X134761884Y-61565118D01*
X134826528Y-61577976D01*
X134917230Y-61596019D01*
X134979141Y-61628404D01*
X134980720Y-61629955D01*
X135738583Y-62387819D01*
X135772068Y-62449142D01*
X135767084Y-62518834D01*
X135725212Y-62574767D01*
X135659748Y-62599184D01*
X135650902Y-62599500D01*
X133307205Y-62599500D01*
X133240166Y-62579815D01*
X133219528Y-62563185D01*
X133134554Y-62478211D01*
X133134553Y-62478210D01*
X133134552Y-62478209D01*
X133003450Y-62390609D01*
X133003437Y-62390602D01*
X132857766Y-62330264D01*
X132857754Y-62330261D01*
X132703110Y-62299500D01*
X132703107Y-62299500D01*
X132545423Y-62299500D01*
X132545420Y-62299500D01*
X132390775Y-62330261D01*
X132390763Y-62330264D01*
X132245092Y-62390602D01*
X132245079Y-62390609D01*
X132113976Y-62478210D01*
X132108387Y-62483799D01*
X132047062Y-62517281D01*
X131977371Y-62512293D01*
X131933029Y-62483794D01*
X130834574Y-61385339D01*
X130801089Y-61324016D01*
X130800638Y-61321849D01*
X130781979Y-61228047D01*
X130769737Y-61166503D01*
X130742398Y-61100500D01*
X130709397Y-61020827D01*
X130709390Y-61020814D01*
X130621789Y-60889711D01*
X130621786Y-60889707D01*
X130510292Y-60778213D01*
X130510288Y-60778210D01*
X130379185Y-60690609D01*
X130379172Y-60690602D01*
X130233501Y-60630264D01*
X130233489Y-60630261D01*
X130078845Y-60599500D01*
X130078842Y-60599500D01*
X129921158Y-60599500D01*
X129921155Y-60599500D01*
X129766510Y-60630261D01*
X129766498Y-60630264D01*
X129620827Y-60690602D01*
X129620814Y-60690609D01*
X129489711Y-60778210D01*
X129489707Y-60778213D01*
X129378213Y-60889707D01*
X129378210Y-60889711D01*
X129290609Y-61020814D01*
X129290602Y-61020827D01*
X129230264Y-61166498D01*
X129230261Y-61166510D01*
X129199500Y-61321153D01*
X107625140Y-61321153D01*
X107625141Y-61315038D01*
X107625562Y-59421153D01*
X125199500Y-59421153D01*
X125199500Y-59578846D01*
X125230261Y-59733489D01*
X125230264Y-59733501D01*
X125290602Y-59879172D01*
X125290609Y-59879185D01*
X125378210Y-60010288D01*
X125378213Y-60010292D01*
X125489707Y-60121786D01*
X125489711Y-60121789D01*
X125620814Y-60209390D01*
X125620827Y-60209397D01*
X125725951Y-60252940D01*
X125766503Y-60269737D01*
X125921153Y-60300499D01*
X125921156Y-60300500D01*
X125921158Y-60300500D01*
X126078844Y-60300500D01*
X126078845Y-60300499D01*
X126233497Y-60269737D01*
X126379179Y-60209394D01*
X126510289Y-60121789D01*
X126621789Y-60010289D01*
X126709394Y-59879179D01*
X126769737Y-59733497D01*
X126800500Y-59578842D01*
X126800500Y-59421158D01*
X126800500Y-59421155D01*
X126800499Y-59421153D01*
X126769738Y-59266510D01*
X126769737Y-59266503D01*
X126709794Y-59121786D01*
X126709397Y-59120827D01*
X126709390Y-59120814D01*
X126621789Y-58989711D01*
X126621786Y-58989707D01*
X126510292Y-58878213D01*
X126510288Y-58878210D01*
X126379185Y-58790609D01*
X126379172Y-58790602D01*
X126233501Y-58730264D01*
X126233489Y-58730261D01*
X126078845Y-58699500D01*
X126078842Y-58699500D01*
X125921158Y-58699500D01*
X125921155Y-58699500D01*
X125766510Y-58730261D01*
X125766498Y-58730264D01*
X125620827Y-58790602D01*
X125620814Y-58790609D01*
X125489711Y-58878210D01*
X125489707Y-58878213D01*
X125378213Y-58989707D01*
X125378210Y-58989711D01*
X125290609Y-59120814D01*
X125290602Y-59120827D01*
X125230264Y-59266498D01*
X125230261Y-59266510D01*
X125199500Y-59421153D01*
X107625562Y-59421153D01*
X107625785Y-58421153D01*
X113699500Y-58421153D01*
X113699500Y-58578846D01*
X113730261Y-58733489D01*
X113730264Y-58733501D01*
X113790602Y-58879172D01*
X113790609Y-58879185D01*
X113878210Y-59010288D01*
X113878213Y-59010292D01*
X113989707Y-59121786D01*
X113989711Y-59121789D01*
X114120814Y-59209390D01*
X114120827Y-59209397D01*
X114258683Y-59266498D01*
X114266503Y-59269737D01*
X114421153Y-59300499D01*
X114421156Y-59300500D01*
X114421158Y-59300500D01*
X114578844Y-59300500D01*
X114578845Y-59300499D01*
X114589179Y-59298443D01*
X114614287Y-59293450D01*
X114614292Y-59293449D01*
X114699800Y-59276439D01*
X114733497Y-59269737D01*
X114879179Y-59209394D01*
X115010289Y-59121789D01*
X115121789Y-59010289D01*
X115209394Y-58879179D01*
X115269737Y-58733497D01*
X115300500Y-58578842D01*
X115300500Y-58421158D01*
X115300500Y-58421155D01*
X115300499Y-58421153D01*
X115278447Y-58310292D01*
X115269737Y-58266503D01*
X115254847Y-58230554D01*
X115209397Y-58120827D01*
X115209390Y-58120814D01*
X115121790Y-57989712D01*
X115121784Y-57989705D01*
X115053232Y-57921153D01*
X128699500Y-57921153D01*
X128699500Y-58078846D01*
X128730261Y-58233489D01*
X128730264Y-58233501D01*
X128790602Y-58379172D01*
X128790609Y-58379185D01*
X128878210Y-58510288D01*
X128878213Y-58510292D01*
X128989707Y-58621786D01*
X128989711Y-58621789D01*
X129120814Y-58709390D01*
X129120827Y-58709397D01*
X129258683Y-58766498D01*
X129266503Y-58769737D01*
X129421153Y-58800499D01*
X129421156Y-58800500D01*
X129421158Y-58800500D01*
X129578844Y-58800500D01*
X129578845Y-58800499D01*
X129733497Y-58769737D01*
X129879179Y-58709394D01*
X130010289Y-58621789D01*
X130121789Y-58510289D01*
X130209394Y-58379179D01*
X130269737Y-58233497D01*
X130300500Y-58078842D01*
X130300500Y-57921158D01*
X130300500Y-57921155D01*
X130300499Y-57921153D01*
X130292148Y-57879172D01*
X130269737Y-57766503D01*
X130256062Y-57733489D01*
X130209397Y-57620827D01*
X130209390Y-57620814D01*
X130121789Y-57489711D01*
X130121786Y-57489707D01*
X130010292Y-57378213D01*
X130010288Y-57378210D01*
X129879185Y-57290609D01*
X129879172Y-57290602D01*
X129733501Y-57230264D01*
X129733489Y-57230261D01*
X129578845Y-57199500D01*
X129578842Y-57199500D01*
X129421158Y-57199500D01*
X129421155Y-57199500D01*
X129266510Y-57230261D01*
X129266498Y-57230264D01*
X129120827Y-57290602D01*
X129120814Y-57290609D01*
X128989711Y-57378210D01*
X128989707Y-57378213D01*
X128878213Y-57489707D01*
X128878210Y-57489711D01*
X128790609Y-57620814D01*
X128790602Y-57620827D01*
X128730264Y-57766498D01*
X128730261Y-57766510D01*
X128699500Y-57921153D01*
X115053232Y-57921153D01*
X115010292Y-57878213D01*
X115010288Y-57878210D01*
X114879185Y-57790609D01*
X114879172Y-57790602D01*
X114733501Y-57730264D01*
X114733489Y-57730261D01*
X114578845Y-57699500D01*
X114578842Y-57699500D01*
X114421158Y-57699500D01*
X114421155Y-57699500D01*
X114266510Y-57730261D01*
X114266498Y-57730264D01*
X114120827Y-57790602D01*
X114120814Y-57790609D01*
X113989711Y-57878210D01*
X113989707Y-57878213D01*
X113878213Y-57989707D01*
X113878210Y-57989711D01*
X113790609Y-58120814D01*
X113790602Y-58120827D01*
X113730264Y-58266498D01*
X113730261Y-58266510D01*
X113699500Y-58421153D01*
X107625785Y-58421153D01*
X107625786Y-58415038D01*
X107626229Y-56421153D01*
X109199500Y-56421153D01*
X109199500Y-56578846D01*
X109230261Y-56733489D01*
X109230264Y-56733501D01*
X109290602Y-56879172D01*
X109290609Y-56879185D01*
X109378210Y-57010288D01*
X109378213Y-57010292D01*
X109489707Y-57121786D01*
X109489711Y-57121789D01*
X109620814Y-57209390D01*
X109620827Y-57209397D01*
X109707576Y-57245329D01*
X109766503Y-57269737D01*
X109893830Y-57295064D01*
X109921153Y-57300499D01*
X109921156Y-57300500D01*
X109921158Y-57300500D01*
X110078844Y-57300500D01*
X110078845Y-57300499D01*
X110233497Y-57269737D01*
X110379179Y-57209394D01*
X110510289Y-57121789D01*
X110621789Y-57010289D01*
X110709394Y-56879179D01*
X110769737Y-56733497D01*
X110800500Y-56578842D01*
X110800500Y-56421158D01*
X110800500Y-56421155D01*
X110800499Y-56421153D01*
X110774531Y-56290606D01*
X110769737Y-56266503D01*
X110756062Y-56233489D01*
X110709397Y-56120827D01*
X110709390Y-56120814D01*
X110621789Y-55989711D01*
X110621786Y-55989707D01*
X110510292Y-55878213D01*
X110510288Y-55878210D01*
X110424897Y-55821153D01*
X131699500Y-55821153D01*
X131699500Y-55978846D01*
X131730261Y-56133489D01*
X131730264Y-56133501D01*
X131790602Y-56279172D01*
X131790609Y-56279185D01*
X131878210Y-56410288D01*
X131878213Y-56410292D01*
X131989707Y-56521786D01*
X131989711Y-56521789D01*
X132120814Y-56609390D01*
X132120827Y-56609397D01*
X132266498Y-56669735D01*
X132266503Y-56669737D01*
X132421153Y-56700499D01*
X132421156Y-56700500D01*
X132421158Y-56700500D01*
X132578844Y-56700500D01*
X132578845Y-56700499D01*
X132733497Y-56669737D01*
X132851592Y-56620821D01*
X132879172Y-56609397D01*
X132879172Y-56609396D01*
X132879179Y-56609394D01*
X133010289Y-56521789D01*
X133121789Y-56410289D01*
X133209394Y-56279179D01*
X133269737Y-56133497D01*
X133300500Y-55978842D01*
X133300500Y-55821158D01*
X133300500Y-55821155D01*
X133300499Y-55821153D01*
X133278269Y-55709397D01*
X133269737Y-55666503D01*
X133238825Y-55591874D01*
X133209397Y-55520827D01*
X133209390Y-55520814D01*
X133121789Y-55389711D01*
X133121786Y-55389707D01*
X133010292Y-55278213D01*
X133010288Y-55278210D01*
X132879185Y-55190609D01*
X132879172Y-55190602D01*
X132733501Y-55130264D01*
X132733489Y-55130261D01*
X132578845Y-55099500D01*
X132578842Y-55099500D01*
X132421158Y-55099500D01*
X132421155Y-55099500D01*
X132266510Y-55130261D01*
X132266498Y-55130264D01*
X132120827Y-55190602D01*
X132120814Y-55190609D01*
X131989711Y-55278210D01*
X131989707Y-55278213D01*
X131878213Y-55389707D01*
X131878210Y-55389711D01*
X131790609Y-55520814D01*
X131790602Y-55520827D01*
X131730264Y-55666498D01*
X131730261Y-55666510D01*
X131699500Y-55821153D01*
X110424897Y-55821153D01*
X110379185Y-55790609D01*
X110379172Y-55790602D01*
X110233501Y-55730264D01*
X110233489Y-55730261D01*
X110078845Y-55699500D01*
X110078842Y-55699500D01*
X109921158Y-55699500D01*
X109921155Y-55699500D01*
X109766510Y-55730261D01*
X109766498Y-55730264D01*
X109620827Y-55790602D01*
X109620814Y-55790609D01*
X109489711Y-55878210D01*
X109489707Y-55878213D01*
X109378213Y-55989707D01*
X109378210Y-55989711D01*
X109290609Y-56120814D01*
X109290602Y-56120827D01*
X109230264Y-56266498D01*
X109230261Y-56266510D01*
X109199500Y-56421153D01*
X107626229Y-56421153D01*
X107626230Y-56415038D01*
X107626571Y-54879172D01*
X107626862Y-53571153D01*
X110099500Y-53571153D01*
X110099500Y-53728846D01*
X110130261Y-53883489D01*
X110130264Y-53883501D01*
X110190602Y-54029172D01*
X110190609Y-54029185D01*
X110278210Y-54160288D01*
X110278213Y-54160292D01*
X110389707Y-54271786D01*
X110389711Y-54271789D01*
X110520814Y-54359390D01*
X110520827Y-54359397D01*
X110620060Y-54400500D01*
X110666503Y-54419737D01*
X110821153Y-54450499D01*
X110821156Y-54450500D01*
X110821158Y-54450500D01*
X110978844Y-54450500D01*
X110978845Y-54450499D01*
X111133497Y-54419737D01*
X111279179Y-54359394D01*
X111410289Y-54271789D01*
X111521789Y-54160289D01*
X111609394Y-54029179D01*
X111654139Y-53921153D01*
X115199500Y-53921153D01*
X115199500Y-54078846D01*
X115230261Y-54233489D01*
X115230264Y-54233501D01*
X115290602Y-54379172D01*
X115290609Y-54379185D01*
X115378210Y-54510288D01*
X115378213Y-54510292D01*
X115489707Y-54621786D01*
X115489711Y-54621789D01*
X115620814Y-54709390D01*
X115620827Y-54709397D01*
X115684887Y-54735931D01*
X115766503Y-54769737D01*
X115921153Y-54800499D01*
X115921156Y-54800500D01*
X115921158Y-54800500D01*
X116078844Y-54800500D01*
X116078845Y-54800499D01*
X116233497Y-54769737D01*
X116379179Y-54709394D01*
X116510289Y-54621789D01*
X116621789Y-54510289D01*
X116709394Y-54379179D01*
X116769737Y-54233497D01*
X116800500Y-54078842D01*
X116800500Y-53921158D01*
X116800500Y-53921155D01*
X116800499Y-53921153D01*
X116769737Y-53766503D01*
X116769735Y-53766498D01*
X116709397Y-53620827D01*
X116709390Y-53620814D01*
X116621789Y-53489711D01*
X116621786Y-53489707D01*
X116510292Y-53378213D01*
X116510288Y-53378210D01*
X116379185Y-53290609D01*
X116379172Y-53290602D01*
X116233501Y-53230264D01*
X116233489Y-53230261D01*
X116078845Y-53199500D01*
X116078842Y-53199500D01*
X115921158Y-53199500D01*
X115921155Y-53199500D01*
X115766510Y-53230261D01*
X115766498Y-53230264D01*
X115620827Y-53290602D01*
X115620814Y-53290609D01*
X115489711Y-53378210D01*
X115489707Y-53378213D01*
X115378213Y-53489707D01*
X115378210Y-53489711D01*
X115290609Y-53620814D01*
X115290602Y-53620827D01*
X115230264Y-53766498D01*
X115230261Y-53766510D01*
X115199500Y-53921153D01*
X111654139Y-53921153D01*
X111669737Y-53883497D01*
X111700500Y-53728842D01*
X111700500Y-53571158D01*
X111700500Y-53571155D01*
X111700499Y-53571153D01*
X111673307Y-53434450D01*
X111669737Y-53416503D01*
X111653876Y-53378210D01*
X111609397Y-53270827D01*
X111609390Y-53270814D01*
X111521789Y-53139711D01*
X111521786Y-53139707D01*
X111410292Y-53028213D01*
X111410288Y-53028210D01*
X111279185Y-52940609D01*
X111279172Y-52940602D01*
X111133501Y-52880264D01*
X111133489Y-52880261D01*
X110978845Y-52849500D01*
X110978842Y-52849500D01*
X110821158Y-52849500D01*
X110821155Y-52849500D01*
X110666510Y-52880261D01*
X110666498Y-52880264D01*
X110520827Y-52940602D01*
X110520814Y-52940609D01*
X110389711Y-53028210D01*
X110389707Y-53028213D01*
X110278213Y-53139707D01*
X110278210Y-53139711D01*
X110190609Y-53270814D01*
X110190602Y-53270827D01*
X110130264Y-53416498D01*
X110130261Y-53416510D01*
X110099500Y-53571153D01*
X107626862Y-53571153D01*
X107627105Y-52478842D01*
X107627229Y-51921153D01*
X109199500Y-51921153D01*
X109199500Y-52078846D01*
X109230261Y-52233489D01*
X109230264Y-52233501D01*
X109290602Y-52379172D01*
X109290609Y-52379185D01*
X109378210Y-52510288D01*
X109378213Y-52510292D01*
X109489707Y-52621786D01*
X109489711Y-52621789D01*
X109620814Y-52709390D01*
X109620827Y-52709397D01*
X109766498Y-52769735D01*
X109766503Y-52769737D01*
X109921153Y-52800499D01*
X109921156Y-52800500D01*
X109921158Y-52800500D01*
X110078844Y-52800500D01*
X110078845Y-52800499D01*
X110233497Y-52769737D01*
X110379179Y-52709394D01*
X110510289Y-52621789D01*
X110621789Y-52510289D01*
X110709394Y-52379179D01*
X110769737Y-52233497D01*
X110800500Y-52078842D01*
X110800500Y-51921158D01*
X110800500Y-51921155D01*
X110800499Y-51921153D01*
X111199500Y-51921153D01*
X111199500Y-52078846D01*
X111230261Y-52233489D01*
X111230264Y-52233501D01*
X111290602Y-52379172D01*
X111290609Y-52379185D01*
X111378210Y-52510288D01*
X111378213Y-52510292D01*
X111489707Y-52621786D01*
X111489711Y-52621789D01*
X111620814Y-52709390D01*
X111620827Y-52709397D01*
X111766498Y-52769735D01*
X111766503Y-52769737D01*
X111921153Y-52800499D01*
X111921156Y-52800500D01*
X111921158Y-52800500D01*
X112078844Y-52800500D01*
X112078845Y-52800499D01*
X112233497Y-52769737D01*
X112379179Y-52709394D01*
X112510289Y-52621789D01*
X112621789Y-52510289D01*
X112709394Y-52379179D01*
X112769737Y-52233497D01*
X112800500Y-52078842D01*
X112800500Y-51921158D01*
X112800500Y-51921155D01*
X112800499Y-51921153D01*
X112794244Y-51889707D01*
X112769737Y-51766503D01*
X112714057Y-51632078D01*
X112709397Y-51620827D01*
X112709390Y-51620814D01*
X112621789Y-51489711D01*
X112621786Y-51489707D01*
X112510292Y-51378213D01*
X112510288Y-51378210D01*
X112379185Y-51290609D01*
X112379172Y-51290602D01*
X112233501Y-51230264D01*
X112233489Y-51230261D01*
X112078845Y-51199500D01*
X112078842Y-51199500D01*
X111921158Y-51199500D01*
X111921155Y-51199500D01*
X111766510Y-51230261D01*
X111766498Y-51230264D01*
X111620827Y-51290602D01*
X111620814Y-51290609D01*
X111489711Y-51378210D01*
X111489707Y-51378213D01*
X111378213Y-51489707D01*
X111378210Y-51489711D01*
X111290609Y-51620814D01*
X111290602Y-51620827D01*
X111230264Y-51766498D01*
X111230261Y-51766510D01*
X111199500Y-51921153D01*
X110800499Y-51921153D01*
X110794244Y-51889707D01*
X110769737Y-51766503D01*
X110714057Y-51632078D01*
X110709397Y-51620827D01*
X110709390Y-51620814D01*
X110621789Y-51489711D01*
X110621786Y-51489707D01*
X110510292Y-51378213D01*
X110510288Y-51378210D01*
X110379185Y-51290609D01*
X110379172Y-51290602D01*
X110233501Y-51230264D01*
X110233489Y-51230261D01*
X110078845Y-51199500D01*
X110078842Y-51199500D01*
X109921158Y-51199500D01*
X109921155Y-51199500D01*
X109766510Y-51230261D01*
X109766498Y-51230264D01*
X109620827Y-51290602D01*
X109620814Y-51290609D01*
X109489711Y-51378210D01*
X109489707Y-51378213D01*
X109378213Y-51489707D01*
X109378210Y-51489711D01*
X109290609Y-51620814D01*
X109290602Y-51620827D01*
X109230264Y-51766498D01*
X109230261Y-51766510D01*
X109199500Y-51921153D01*
X107627229Y-51921153D01*
X107627230Y-51915038D01*
X107627504Y-50681902D01*
X115999500Y-50681902D01*
X115999500Y-50918097D01*
X116036446Y-51151368D01*
X116109433Y-51375996D01*
X116216657Y-51586433D01*
X116355483Y-51777510D01*
X116522490Y-51944517D01*
X116713567Y-52083343D01*
X116812991Y-52134002D01*
X116924003Y-52190566D01*
X116924005Y-52190566D01*
X116924008Y-52190568D01*
X117044412Y-52229689D01*
X117148631Y-52263553D01*
X117381903Y-52300500D01*
X117381908Y-52300500D01*
X119818097Y-52300500D01*
X120051368Y-52263553D01*
X120275992Y-52190568D01*
X120486433Y-52083343D01*
X120677510Y-51944517D01*
X120844517Y-51777510D01*
X120983343Y-51586433D01*
X121090568Y-51375992D01*
X121163553Y-51151368D01*
X121200500Y-50918097D01*
X121200500Y-50681902D01*
X121163553Y-50448631D01*
X121104378Y-50266510D01*
X121090568Y-50224008D01*
X121090566Y-50224005D01*
X121090566Y-50224003D01*
X120983342Y-50013565D01*
X120971865Y-49997769D01*
X120916200Y-49921153D01*
X129319500Y-49921153D01*
X129319500Y-50078846D01*
X129350261Y-50233489D01*
X129350264Y-50233501D01*
X129410602Y-50379172D01*
X129410609Y-50379185D01*
X129478713Y-50481109D01*
X129499591Y-50547787D01*
X129481107Y-50615167D01*
X129478713Y-50618891D01*
X129410609Y-50720814D01*
X129410602Y-50720827D01*
X129350264Y-50866498D01*
X129350261Y-50866510D01*
X129319500Y-51021153D01*
X129319500Y-51178846D01*
X129350261Y-51333489D01*
X129350264Y-51333501D01*
X129410602Y-51479172D01*
X129410609Y-51479185D01*
X129498210Y-51610288D01*
X129498213Y-51610292D01*
X129550240Y-51662319D01*
X129583725Y-51723642D01*
X129578741Y-51793334D01*
X129550240Y-51837681D01*
X129498213Y-51889707D01*
X129498210Y-51889711D01*
X129410609Y-52020814D01*
X129410602Y-52020827D01*
X129350264Y-52166498D01*
X129350261Y-52166510D01*
X129319500Y-52321153D01*
X129319500Y-52478846D01*
X129350261Y-52633489D01*
X129350264Y-52633501D01*
X129410602Y-52779172D01*
X129410609Y-52779185D01*
X129498210Y-52910288D01*
X129498213Y-52910292D01*
X129500240Y-52912319D01*
X129500962Y-52913642D01*
X129502076Y-52914999D01*
X129501818Y-52915210D01*
X129533725Y-52973642D01*
X129528741Y-53043334D01*
X129502001Y-53084939D01*
X129502076Y-53085001D01*
X129501552Y-53085639D01*
X129500240Y-53087681D01*
X129498213Y-53089707D01*
X129498210Y-53089711D01*
X129410609Y-53220814D01*
X129410602Y-53220827D01*
X129350264Y-53366498D01*
X129350261Y-53366510D01*
X129319500Y-53521153D01*
X129319500Y-53678846D01*
X129350261Y-53833489D01*
X129350264Y-53833501D01*
X129410602Y-53979172D01*
X129410609Y-53979185D01*
X129498210Y-54110288D01*
X129498213Y-54110292D01*
X129609707Y-54221786D01*
X129609711Y-54221789D01*
X129740814Y-54309390D01*
X129740827Y-54309397D01*
X129886498Y-54369735D01*
X129886503Y-54369737D01*
X130041153Y-54400499D01*
X130041156Y-54400500D01*
X130041158Y-54400500D01*
X130198844Y-54400500D01*
X130198845Y-54400499D01*
X130353497Y-54369737D01*
X130499179Y-54309394D01*
X130630289Y-54221789D01*
X130632312Y-54219766D01*
X130633634Y-54219043D01*
X130634999Y-54217924D01*
X130635211Y-54218182D01*
X130693632Y-54186276D01*
X130763324Y-54191255D01*
X130804939Y-54217999D01*
X130805001Y-54217924D01*
X130805648Y-54218454D01*
X130807688Y-54219766D01*
X130809711Y-54221789D01*
X130940814Y-54309390D01*
X130940827Y-54309397D01*
X131086498Y-54369735D01*
X131086503Y-54369737D01*
X131241153Y-54400499D01*
X131241156Y-54400500D01*
X131241158Y-54400500D01*
X131398844Y-54400500D01*
X131398845Y-54400499D01*
X131553497Y-54369737D01*
X131699179Y-54309394D01*
X131830289Y-54221789D01*
X131941789Y-54110289D01*
X132029394Y-53979179D01*
X132089737Y-53833497D01*
X132120500Y-53678842D01*
X132120500Y-53521158D01*
X132120500Y-53521155D01*
X132120499Y-53521153D01*
X132103253Y-53434452D01*
X132089737Y-53366503D01*
X132081596Y-53346848D01*
X132029397Y-53220827D01*
X132029390Y-53220814D01*
X131941789Y-53089711D01*
X131939766Y-53087688D01*
X131939043Y-53086365D01*
X131937924Y-53085001D01*
X131938182Y-53084788D01*
X131906276Y-53026368D01*
X131911255Y-52956676D01*
X131937999Y-52915060D01*
X131937924Y-52914999D01*
X131938454Y-52914351D01*
X131939766Y-52912312D01*
X131941789Y-52910289D01*
X132029394Y-52779179D01*
X132089737Y-52633497D01*
X132120500Y-52478842D01*
X132120500Y-52321158D01*
X132120500Y-52321155D01*
X132120499Y-52321153D01*
X132114244Y-52289707D01*
X132089737Y-52166503D01*
X132058298Y-52090602D01*
X132029397Y-52020827D01*
X132029390Y-52020814D01*
X131941789Y-51889711D01*
X131941786Y-51889707D01*
X131889760Y-51837681D01*
X131856275Y-51776358D01*
X131861259Y-51706666D01*
X131889760Y-51662319D01*
X131941786Y-51610292D01*
X131941789Y-51610289D01*
X132029394Y-51479179D01*
X132089737Y-51333497D01*
X132120500Y-51178842D01*
X132120500Y-51021158D01*
X132120500Y-51021155D01*
X132120499Y-51021153D01*
X132103569Y-50936043D01*
X132089737Y-50866503D01*
X132062398Y-50800500D01*
X132029397Y-50720827D01*
X132029393Y-50720820D01*
X132029389Y-50720814D01*
X131961284Y-50618888D01*
X131940408Y-50552214D01*
X131958892Y-50484834D01*
X131961257Y-50481152D01*
X132029394Y-50379179D01*
X132089737Y-50233497D01*
X132120500Y-50078842D01*
X132120500Y-49921158D01*
X132120500Y-49921155D01*
X132120499Y-49921153D01*
X132101847Y-49827385D01*
X132089737Y-49766503D01*
X132078691Y-49739836D01*
X132029397Y-49620827D01*
X132029390Y-49620814D01*
X131941789Y-49489711D01*
X131941786Y-49489707D01*
X131830292Y-49378213D01*
X131830288Y-49378210D01*
X131699185Y-49290609D01*
X131699172Y-49290602D01*
X131553501Y-49230264D01*
X131553489Y-49230261D01*
X131398845Y-49199500D01*
X131398842Y-49199500D01*
X131241158Y-49199500D01*
X131241155Y-49199500D01*
X131086510Y-49230261D01*
X131086498Y-49230264D01*
X130940827Y-49290602D01*
X130940814Y-49290609D01*
X130809711Y-49378210D01*
X130809707Y-49378213D01*
X130807681Y-49380240D01*
X130806357Y-49380962D01*
X130805001Y-49382076D01*
X130804789Y-49381818D01*
X130746358Y-49413725D01*
X130676666Y-49408741D01*
X130635060Y-49382001D01*
X130634999Y-49382076D01*
X130634360Y-49381552D01*
X130632319Y-49380240D01*
X130630292Y-49378213D01*
X130630288Y-49378210D01*
X130499185Y-49290609D01*
X130499172Y-49290602D01*
X130353501Y-49230264D01*
X130353489Y-49230261D01*
X130198845Y-49199500D01*
X130198842Y-49199500D01*
X130041158Y-49199500D01*
X130041155Y-49199500D01*
X129886510Y-49230261D01*
X129886498Y-49230264D01*
X129740827Y-49290602D01*
X129740814Y-49290609D01*
X129609711Y-49378210D01*
X129609707Y-49378213D01*
X129498213Y-49489707D01*
X129498210Y-49489711D01*
X129410609Y-49620814D01*
X129410602Y-49620827D01*
X129350264Y-49766498D01*
X129350261Y-49766510D01*
X129319500Y-49921153D01*
X120916200Y-49921153D01*
X120844517Y-49822490D01*
X120677510Y-49655483D01*
X120486433Y-49516657D01*
X120275996Y-49409433D01*
X120051368Y-49336446D01*
X119818097Y-49299500D01*
X119818092Y-49299500D01*
X118631941Y-49299500D01*
X118564902Y-49279815D01*
X118519147Y-49227011D01*
X118509203Y-49157853D01*
X118538228Y-49094297D01*
X118544260Y-49087819D01*
X118621786Y-49010292D01*
X118621789Y-49010289D01*
X118709394Y-48879179D01*
X118769737Y-48733497D01*
X118800500Y-48578842D01*
X118800500Y-48421158D01*
X118800500Y-48421155D01*
X118800499Y-48421153D01*
X118786246Y-48349500D01*
X118769737Y-48266503D01*
X118756062Y-48233489D01*
X118709397Y-48120827D01*
X118709390Y-48120814D01*
X118621789Y-47989711D01*
X118621786Y-47989707D01*
X118510292Y-47878213D01*
X118510288Y-47878210D01*
X118379185Y-47790609D01*
X118379172Y-47790602D01*
X118233501Y-47730264D01*
X118233489Y-47730261D01*
X118078845Y-47699500D01*
X118078842Y-47699500D01*
X117921158Y-47699500D01*
X117921155Y-47699500D01*
X117766510Y-47730261D01*
X117766498Y-47730264D01*
X117620827Y-47790602D01*
X117620814Y-47790609D01*
X117489711Y-47878210D01*
X117489707Y-47878213D01*
X117378213Y-47989707D01*
X117378210Y-47989711D01*
X117290609Y-48120814D01*
X117290602Y-48120827D01*
X117230264Y-48266498D01*
X117230261Y-48266510D01*
X117199500Y-48421153D01*
X117199500Y-48578846D01*
X117230261Y-48733489D01*
X117230264Y-48733501D01*
X117290602Y-48879172D01*
X117290609Y-48879185D01*
X117378210Y-49010288D01*
X117378213Y-49010292D01*
X117456394Y-49088473D01*
X117489879Y-49149796D01*
X117484895Y-49219488D01*
X117443023Y-49275421D01*
X117386409Y-49296779D01*
X117386720Y-49298737D01*
X117148631Y-49336446D01*
X116924003Y-49409433D01*
X116713566Y-49516657D01*
X116616019Y-49587530D01*
X116522490Y-49655483D01*
X116522488Y-49655485D01*
X116522487Y-49655485D01*
X116355485Y-49822487D01*
X116355485Y-49822488D01*
X116355483Y-49822490D01*
X116328050Y-49860248D01*
X116216657Y-50013566D01*
X116109433Y-50224003D01*
X116036446Y-50448631D01*
X115999500Y-50681902D01*
X107627504Y-50681902D01*
X107627505Y-50677008D01*
X107628256Y-47297605D01*
X107628815Y-44781902D01*
X113699500Y-44781902D01*
X113699500Y-47218097D01*
X113736446Y-47451368D01*
X113809433Y-47675996D01*
X113867832Y-47790609D01*
X113916657Y-47886433D01*
X114055483Y-48077510D01*
X114222490Y-48244517D01*
X114413567Y-48383343D01*
X114487783Y-48421158D01*
X114624003Y-48490566D01*
X114624005Y-48490566D01*
X114624008Y-48490568D01*
X114717720Y-48521017D01*
X114848631Y-48563553D01*
X115081903Y-48600500D01*
X115081908Y-48600500D01*
X115318097Y-48600500D01*
X115551368Y-48563553D01*
X115587349Y-48551862D01*
X115775992Y-48490568D01*
X115986433Y-48383343D01*
X116177510Y-48244517D01*
X116344517Y-48077510D01*
X116483343Y-47886433D01*
X116590568Y-47675992D01*
X116663553Y-47451368D01*
X116666899Y-47430240D01*
X116700500Y-47218097D01*
X116700500Y-44781902D01*
X116663553Y-44548631D01*
X116603802Y-44364738D01*
X116590568Y-44324008D01*
X116590566Y-44324005D01*
X116590566Y-44324003D01*
X116483342Y-44113566D01*
X116477331Y-44105292D01*
X116344517Y-43922490D01*
X116177510Y-43755483D01*
X116035264Y-43652135D01*
X119999500Y-43652135D01*
X119999500Y-48347870D01*
X119999501Y-48347876D01*
X120005908Y-48407483D01*
X120056202Y-48542328D01*
X120056206Y-48542335D01*
X120142452Y-48657544D01*
X120142455Y-48657547D01*
X120257664Y-48743793D01*
X120257671Y-48743797D01*
X120392517Y-48794091D01*
X120392516Y-48794091D01*
X120399444Y-48794835D01*
X120452127Y-48800500D01*
X122547872Y-48800499D01*
X122607483Y-48794091D01*
X122742331Y-48743796D01*
X122857546Y-48657546D01*
X122943796Y-48542331D01*
X122994091Y-48407483D01*
X123000500Y-48347873D01*
X123000500Y-47921153D01*
X133549500Y-47921153D01*
X133549500Y-48078846D01*
X133580261Y-48233489D01*
X133580264Y-48233501D01*
X133640602Y-48379172D01*
X133640609Y-48379185D01*
X133728210Y-48510288D01*
X133728213Y-48510292D01*
X133839707Y-48621786D01*
X133839711Y-48621789D01*
X133970814Y-48709390D01*
X133970827Y-48709397D01*
X134086682Y-48757385D01*
X134116503Y-48769737D01*
X134238938Y-48794091D01*
X134271153Y-48800499D01*
X134271156Y-48800500D01*
X134271158Y-48800500D01*
X134428844Y-48800500D01*
X134428845Y-48800499D01*
X134583497Y-48769737D01*
X134646132Y-48743793D01*
X134734808Y-48707063D01*
X134735578Y-48708922D01*
X134794932Y-48696553D01*
X134860181Y-48721540D01*
X134901563Y-48777837D01*
X134906624Y-48844346D01*
X134875982Y-48998395D01*
X134875982Y-49156088D01*
X134906743Y-49310731D01*
X134906746Y-49310743D01*
X134967084Y-49456414D01*
X134967091Y-49456427D01*
X135054692Y-49587530D01*
X135054695Y-49587534D01*
X135166189Y-49699028D01*
X135166193Y-49699031D01*
X135297296Y-49786632D01*
X135297309Y-49786639D01*
X135404782Y-49831155D01*
X135442985Y-49846979D01*
X135482987Y-49854936D01*
X135509691Y-49860248D01*
X135571602Y-49892633D01*
X135606176Y-49953348D01*
X135609500Y-49981865D01*
X135609500Y-49988846D01*
X135640261Y-50143489D01*
X135640264Y-50143501D01*
X135700602Y-50289172D01*
X135700609Y-50289185D01*
X135788210Y-50420288D01*
X135788213Y-50420292D01*
X135899707Y-50531786D01*
X135899711Y-50531789D01*
X136030814Y-50619390D01*
X136030827Y-50619397D01*
X136176498Y-50679735D01*
X136176503Y-50679737D01*
X136325578Y-50709390D01*
X136331153Y-50710499D01*
X136331156Y-50710500D01*
X136331158Y-50710500D01*
X136488844Y-50710500D01*
X136488845Y-50710499D01*
X136643497Y-50679737D01*
X136789179Y-50619394D01*
X136920289Y-50531789D01*
X137031789Y-50420289D01*
X137119394Y-50289179D01*
X137179737Y-50143497D01*
X137210500Y-49988842D01*
X137210500Y-49831158D01*
X137210500Y-49831155D01*
X137206178Y-49809428D01*
X137212405Y-49739836D01*
X137255268Y-49684659D01*
X137321157Y-49661414D01*
X137389154Y-49677482D01*
X137415476Y-49697555D01*
X137489707Y-49771786D01*
X137489711Y-49771789D01*
X137620814Y-49859390D01*
X137620827Y-49859397D01*
X137766498Y-49919735D01*
X137766503Y-49919737D01*
X137921153Y-49950499D01*
X137921156Y-49950500D01*
X137921158Y-49950500D01*
X138078844Y-49950500D01*
X138078845Y-49950499D01*
X138233497Y-49919737D01*
X138379179Y-49859394D01*
X138510289Y-49771789D01*
X138621789Y-49660289D01*
X138709394Y-49529179D01*
X138769737Y-49383497D01*
X138800500Y-49228842D01*
X138800500Y-49071158D01*
X138800500Y-49071155D01*
X138800499Y-49071153D01*
X138786026Y-48998395D01*
X138769737Y-48916503D01*
X138769735Y-48916498D01*
X138709397Y-48770827D01*
X138709390Y-48770814D01*
X138621789Y-48639711D01*
X138621786Y-48639707D01*
X138510292Y-48528213D01*
X138510288Y-48528210D01*
X138379185Y-48440609D01*
X138379172Y-48440602D01*
X138233501Y-48380264D01*
X138233489Y-48380261D01*
X138078845Y-48349500D01*
X138078842Y-48349500D01*
X137921158Y-48349500D01*
X137921155Y-48349500D01*
X137766510Y-48380261D01*
X137766498Y-48380264D01*
X137620827Y-48440602D01*
X137620814Y-48440609D01*
X137489711Y-48528210D01*
X137489707Y-48528213D01*
X137378213Y-48639707D01*
X137378210Y-48639711D01*
X137290609Y-48770814D01*
X137290602Y-48770827D01*
X137230264Y-48916498D01*
X137230261Y-48916510D01*
X137199500Y-49071153D01*
X137199500Y-49228844D01*
X137203822Y-49250575D01*
X137197593Y-49320166D01*
X137154728Y-49375342D01*
X137088838Y-49398585D01*
X137020842Y-49382516D01*
X136994523Y-49362444D01*
X136920292Y-49288213D01*
X136920288Y-49288210D01*
X136789185Y-49200609D01*
X136789172Y-49200602D01*
X136643501Y-49140264D01*
X136643492Y-49140262D01*
X136576789Y-49126993D01*
X136514879Y-49094607D01*
X136480305Y-49033891D01*
X136476982Y-49005376D01*
X136476982Y-48998397D01*
X136476981Y-48998395D01*
X136460693Y-48916510D01*
X136446219Y-48843745D01*
X136438216Y-48824424D01*
X136385879Y-48698069D01*
X136385872Y-48698056D01*
X136312131Y-48587695D01*
X136291253Y-48521017D01*
X136309738Y-48453637D01*
X136312131Y-48449913D01*
X136331344Y-48421158D01*
X136359394Y-48379179D01*
X136419737Y-48233497D01*
X136450500Y-48078842D01*
X136450500Y-47921158D01*
X136450500Y-47921155D01*
X136450499Y-47921153D01*
X136424531Y-47790606D01*
X136419737Y-47766503D01*
X136419735Y-47766498D01*
X136359397Y-47620827D01*
X136359390Y-47620814D01*
X136271789Y-47489711D01*
X136271786Y-47489707D01*
X136160292Y-47378213D01*
X136160288Y-47378210D01*
X136029185Y-47290609D01*
X136029172Y-47290602D01*
X135883501Y-47230264D01*
X135883489Y-47230261D01*
X135728845Y-47199500D01*
X135728842Y-47199500D01*
X135571158Y-47199500D01*
X135571155Y-47199500D01*
X135416510Y-47230261D01*
X135416498Y-47230264D01*
X135270827Y-47290602D01*
X135270814Y-47290609D01*
X135139711Y-47378210D01*
X135139707Y-47378213D01*
X135087681Y-47430240D01*
X135026358Y-47463725D01*
X134956666Y-47458741D01*
X134912319Y-47430240D01*
X134860292Y-47378213D01*
X134860288Y-47378210D01*
X134729185Y-47290609D01*
X134729172Y-47290602D01*
X134583501Y-47230264D01*
X134583489Y-47230261D01*
X134428845Y-47199500D01*
X134428842Y-47199500D01*
X134271158Y-47199500D01*
X134271155Y-47199500D01*
X134116510Y-47230261D01*
X134116498Y-47230264D01*
X133970827Y-47290602D01*
X133970814Y-47290609D01*
X133839711Y-47378210D01*
X133839707Y-47378213D01*
X133728213Y-47489707D01*
X133728210Y-47489711D01*
X133640609Y-47620814D01*
X133640602Y-47620827D01*
X133580264Y-47766498D01*
X133580261Y-47766510D01*
X133549500Y-47921153D01*
X123000500Y-47921153D01*
X123000499Y-43652128D01*
X122994091Y-43592517D01*
X122963102Y-43509432D01*
X122943797Y-43457671D01*
X122943793Y-43457664D01*
X122857547Y-43342455D01*
X122857544Y-43342452D01*
X122742335Y-43256206D01*
X122742328Y-43256202D01*
X122607482Y-43205908D01*
X122607483Y-43205908D01*
X122547883Y-43199501D01*
X122547881Y-43199500D01*
X122547873Y-43199500D01*
X122547864Y-43199500D01*
X120452129Y-43199500D01*
X120452123Y-43199501D01*
X120392516Y-43205908D01*
X120257671Y-43256202D01*
X120257664Y-43256206D01*
X120142455Y-43342452D01*
X120142452Y-43342455D01*
X120056206Y-43457664D01*
X120056202Y-43457671D01*
X120005908Y-43592517D01*
X119999501Y-43652116D01*
X119999501Y-43652123D01*
X119999500Y-43652135D01*
X116035264Y-43652135D01*
X115986433Y-43616657D01*
X115939054Y-43592516D01*
X115775996Y-43509433D01*
X115551368Y-43436446D01*
X115318097Y-43399500D01*
X115318092Y-43399500D01*
X115081908Y-43399500D01*
X115081903Y-43399500D01*
X114848631Y-43436446D01*
X114624003Y-43509433D01*
X114413566Y-43616657D01*
X114334859Y-43673842D01*
X114222490Y-43755483D01*
X114222488Y-43755485D01*
X114222487Y-43755485D01*
X114055485Y-43922487D01*
X114055485Y-43922488D01*
X114055483Y-43922490D01*
X114017934Y-43974172D01*
X113916657Y-44113566D01*
X113809433Y-44324003D01*
X113736446Y-44548631D01*
X113699500Y-44781902D01*
X107628815Y-44781902D01*
X107628976Y-44056099D01*
X107629229Y-42921153D01*
X123199500Y-42921153D01*
X123199500Y-43078846D01*
X123230261Y-43233489D01*
X123230264Y-43233501D01*
X123290602Y-43379172D01*
X123290609Y-43379185D01*
X123378210Y-43510288D01*
X123378213Y-43510292D01*
X123489707Y-43621786D01*
X123489711Y-43621789D01*
X123620814Y-43709390D01*
X123620827Y-43709397D01*
X123732095Y-43755485D01*
X123766503Y-43769737D01*
X123921153Y-43800499D01*
X123921156Y-43800500D01*
X123921158Y-43800500D01*
X124078844Y-43800500D01*
X124078845Y-43800499D01*
X124233497Y-43769737D01*
X124379179Y-43709394D01*
X124510289Y-43621789D01*
X124621789Y-43510289D01*
X124709394Y-43379179D01*
X124769737Y-43233497D01*
X124800500Y-43078842D01*
X124800500Y-42921158D01*
X124800500Y-42921155D01*
X124800499Y-42921153D01*
X124769738Y-42766510D01*
X124769737Y-42766503D01*
X124769735Y-42766498D01*
X124709397Y-42620827D01*
X124709390Y-42620814D01*
X124621789Y-42489711D01*
X124621786Y-42489707D01*
X124510292Y-42378213D01*
X124510288Y-42378210D01*
X124379185Y-42290609D01*
X124379172Y-42290602D01*
X124233501Y-42230264D01*
X124233489Y-42230261D01*
X124078845Y-42199500D01*
X124078842Y-42199500D01*
X123921158Y-42199500D01*
X123921155Y-42199500D01*
X123766510Y-42230261D01*
X123766498Y-42230264D01*
X123620827Y-42290602D01*
X123620814Y-42290609D01*
X123489711Y-42378210D01*
X123489707Y-42378213D01*
X123378213Y-42489707D01*
X123378210Y-42489711D01*
X123290609Y-42620814D01*
X123290602Y-42620827D01*
X123230264Y-42766498D01*
X123230261Y-42766510D01*
X123199500Y-42921153D01*
X107629229Y-42921153D01*
X107629230Y-42915038D01*
X107630125Y-38886523D01*
X107630488Y-37252495D01*
X107630500Y-37251869D01*
X107630500Y-37203052D01*
X107630649Y-37196967D01*
X107637907Y-37049223D01*
X109119500Y-37049223D01*
X109119500Y-37350776D01*
X109119501Y-37350793D01*
X109158861Y-37649766D01*
X109236913Y-37941060D01*
X109352314Y-38219661D01*
X109352318Y-38219671D01*
X109503099Y-38480831D01*
X109686679Y-38720078D01*
X109686685Y-38720085D01*
X109899914Y-38933314D01*
X109899921Y-38933320D01*
X110139168Y-39116900D01*
X110400328Y-39267681D01*
X110400329Y-39267681D01*
X110400332Y-39267683D01*
X110586072Y-39344619D01*
X110678939Y-39383086D01*
X110678940Y-39383086D01*
X110678942Y-39383087D01*
X110970232Y-39461138D01*
X111269217Y-39500500D01*
X111269224Y-39500500D01*
X111570776Y-39500500D01*
X111570783Y-39500500D01*
X111869768Y-39461138D01*
X112161058Y-39383087D01*
X112439668Y-39267683D01*
X112700832Y-39116900D01*
X112940080Y-38933319D01*
X113153319Y-38720080D01*
X113336900Y-38480832D01*
X113487683Y-38219668D01*
X113603087Y-37941058D01*
X113681138Y-37649768D01*
X113720500Y-37350783D01*
X113720500Y-37049217D01*
X113681138Y-36750232D01*
X113603087Y-36458942D01*
X113603085Y-36458938D01*
X113523374Y-36266498D01*
X113487683Y-36180332D01*
X113453324Y-36120821D01*
X113336900Y-35919168D01*
X113153320Y-35679921D01*
X113153314Y-35679914D01*
X112940085Y-35466685D01*
X112940078Y-35466679D01*
X112700831Y-35283099D01*
X112439671Y-35132318D01*
X112439661Y-35132314D01*
X112161060Y-35016913D01*
X111869766Y-34938861D01*
X111570793Y-34899501D01*
X111570788Y-34899500D01*
X111570783Y-34899500D01*
X111269217Y-34899500D01*
X111269211Y-34899500D01*
X111269206Y-34899501D01*
X110970233Y-34938861D01*
X110678939Y-35016913D01*
X110400338Y-35132314D01*
X110400328Y-35132318D01*
X110139168Y-35283099D01*
X109899921Y-35466679D01*
X109899914Y-35466685D01*
X109686685Y-35679914D01*
X109686679Y-35679921D01*
X109503099Y-35919168D01*
X109352318Y-36180328D01*
X109352314Y-36180338D01*
X109236913Y-36458939D01*
X109158861Y-36750233D01*
X109119501Y-37049206D01*
X109119500Y-37049223D01*
X107637907Y-37049223D01*
X107638406Y-37039073D01*
X107638406Y-37039072D01*
X107646261Y-36879179D01*
X107648497Y-36833659D01*
X107649690Y-36821555D01*
X107654192Y-36791204D01*
X107702614Y-36464765D01*
X107704981Y-36452863D01*
X107792631Y-36102947D01*
X107796152Y-36091341D01*
X107917672Y-35751717D01*
X107922314Y-35740509D01*
X108076547Y-35414409D01*
X108082262Y-35403717D01*
X108267704Y-35094327D01*
X108274447Y-35084234D01*
X108489329Y-34794500D01*
X108497032Y-34785115D01*
X108739273Y-34517843D01*
X108747843Y-34509273D01*
X109015115Y-34267032D01*
X109024500Y-34259329D01*
X109314234Y-34044447D01*
X109324327Y-34037704D01*
X109633717Y-33852262D01*
X109644409Y-33846547D01*
X109970509Y-33692314D01*
X109981717Y-33687672D01*
X110321341Y-33566152D01*
X110332947Y-33562631D01*
X110682863Y-33474981D01*
X110694765Y-33472614D01*
X111051561Y-33419689D01*
X111063658Y-33418497D01*
X111426956Y-33400648D01*
X111433041Y-33400500D01*
X111482219Y-33400500D01*
X111482560Y-33400464D01*
X171446930Y-33360501D01*
X171453038Y-33360649D01*
G37*
%TD.AperFunction*%
%TD*%
M02*
