M48
; DRILL file KiCad 10.0.5 date 2026-08-04T00:28:08
; FORMAT={-:-/ absolute / metric / decimal}
; #@! TF.CreationDate,2026-08-04T00:28:08-04:00
; #@! TF.GenerationSoftware,Kicad,Pcbnew,10.0.5
; #@! TF.FileFunction,Plated,1,4,PTH
FMAT,2
METRIC
; #@! TA.AperFunction,Plated,PTH,ViaDrill
T1C0.300
; #@! TA.AperFunction,Plated,PTH,ComponentDrill
T2C0.300
; #@! TA.AperFunction,Plated,PTH,ComponentDrill
T3C0.800
; #@! TA.AperFunction,Plated,PTH,ComponentDrill
T4C1.000
; #@! TA.AperFunction,Plated,PTH,ComponentDrill
T5C3.200
%
G90
G05
T1
X110.0Y-52.0
X110.0Y-56.5
X110.9Y-53.65
X112.0Y-52.0
X114.5Y-58.5
X116.0Y-54.0
X117.0Y-79.0
X118.0Y-48.5
X124.0Y-43.0
X124.1Y-65.2
X124.5Y-62.5
X125.0Y-79.0
X126.0Y-59.5
X126.0Y-84.0
X126.5Y-75.5
X126.65Y-62.5
X127.0Y-68.0
X129.5Y-58.0
X130.0Y-61.4
X130.5Y-76.5
X132.35Y-67.2
X132.5Y-55.9
X132.624Y-63.1
X133.0Y-64.4
X133.6Y-60.3
X133.75Y-65.85
X134.35Y-48.0
X134.5Y-66.5
X134.995Y-60.795
X135.0Y-57.5
X135.0Y-82.5
X135.65Y-48.0
X135.676Y-49.077
X135.9Y-57.0
X136.41Y-49.91
X136.5Y-54.0
X136.5Y-56.0
X137.1Y-70.2
X137.9Y-60.9
X138.0Y-41.5
X138.0Y-49.15
X138.5Y-57.8
X138.5Y-76.0
X139.1Y-65.1
X139.334Y-54.056
X139.5Y-59.0
X139.74Y-81.26
X140.0Y-54.5
X141.09Y-52.8
X142.0Y-35.9
X142.0Y-57.0
X142.46Y-62.609
X142.6Y-59.5
X143.1Y-60.8
X144.5Y-51.0
X144.5Y-75.0
X145.8Y-70.75
X146.0Y-55.0
X146.0Y-79.9
X146.7Y-65.8
X147.0Y-48.0
X147.0Y-70.7
X147.05Y-62.6
X154.0Y-50.0
X154.0Y-69.1
X155.0Y-74.7
X156.0Y-85.0
X156.2Y-64.9
X156.9Y-64.2
X157.01Y-43.595
X158.0Y-73.2
X159.0Y-75.1
X160.0Y-42.5
X160.0Y-71.5
X161.0Y-72.5
X164.0Y-44.0
X164.9Y-50.5
X167.0Y-54.5
X168.4Y-68.6
X169.2Y-69.5
X171.1Y-71.9
X171.5Y-56.5
X172.0Y-36.5
X172.0Y-47.0
T2
X130.12Y-50.0
X130.12Y-51.1
X130.12Y-52.4
X130.12Y-53.6
X131.32Y-50.0
X131.32Y-51.1
X131.32Y-52.4
X131.32Y-53.6
T3
X141.96Y-37.91
X141.96Y-82.91
X143.96Y-37.91
X143.96Y-82.91
X145.96Y-37.91
X145.96Y-82.91
X147.96Y-37.91
X147.96Y-82.91
X149.96Y-37.91
X149.96Y-82.91
X151.96Y-37.91
X151.96Y-82.91
X153.96Y-37.91
X153.96Y-82.91
X155.96Y-37.91
X155.96Y-82.91
T5
X111.42Y-37.2
X111.42Y-82.2
X162.42Y-37.2
X162.42Y-82.2
T4
G00X115.2Y-44.9
M15
G01X115.2Y-47.1
M16
G05
G00X119.7Y-50.8
M15
G01X117.5Y-50.8
M16
G05
G00X121.5Y-44.7
M15
G01X121.5Y-47.3
M16
G05
M30
