%TF.GenerationSoftware,KiCad,Pcbnew,10.0.5*%
%TF.CreationDate,2026-08-04T00:28:34-04:00*%
%TF.ProjectId,STM32 and GPS Technology PCB,53544d33-3220-4616-9e64-204750532054,rev?*%
%TF.SameCoordinates,Original*%
%TF.FileFunction,Legend,Bot*%
%TF.FilePolarity,Positive*%
%FSLAX46Y46*%
G04 Gerber Fmt 4.6, Leading zero omitted, Abs format (unit mm)*
G04 Created by KiCad (PCBNEW 10.0.5) date 2026-08-04 00:28:34*
%MOMM*%
%LPD*%
G01*
G04 APERTURE LIST*
%ADD10C,0.100000*%
%ADD11C,0.125000*%
%ADD12C,0.150000*%
%ADD13C,0.120000*%
%ADD14C,0.200000*%
%ADD15C,0.127000*%
%ADD16C,0.400000*%
%ADD17C,0.000000*%
G04 APERTURE END LIST*
D10*
X156009800Y-39561027D02*
X156033609Y-39632455D01*
X156033609Y-39632455D02*
X156033609Y-39751503D01*
X156033609Y-39751503D02*
X156009800Y-39799122D01*
X156009800Y-39799122D02*
X155985990Y-39822931D01*
X155985990Y-39822931D02*
X155938371Y-39846741D01*
X155938371Y-39846741D02*
X155890752Y-39846741D01*
X155890752Y-39846741D02*
X155843133Y-39822931D01*
X155843133Y-39822931D02*
X155819323Y-39799122D01*
X155819323Y-39799122D02*
X155795514Y-39751503D01*
X155795514Y-39751503D02*
X155771704Y-39656265D01*
X155771704Y-39656265D02*
X155747895Y-39608646D01*
X155747895Y-39608646D02*
X155724085Y-39584836D01*
X155724085Y-39584836D02*
X155676466Y-39561027D01*
X155676466Y-39561027D02*
X155628847Y-39561027D01*
X155628847Y-39561027D02*
X155581228Y-39584836D01*
X155581228Y-39584836D02*
X155557419Y-39608646D01*
X155557419Y-39608646D02*
X155533609Y-39656265D01*
X155533609Y-39656265D02*
X155533609Y-39775312D01*
X155533609Y-39775312D02*
X155557419Y-39846741D01*
X156033609Y-40061026D02*
X155533609Y-40061026D01*
X156033609Y-40299121D02*
X155533609Y-40299121D01*
X155533609Y-40299121D02*
X155890752Y-40465788D01*
X155890752Y-40465788D02*
X155533609Y-40632454D01*
X155533609Y-40632454D02*
X156033609Y-40632454D01*
X156033609Y-41251502D02*
X155533609Y-41251502D01*
X155533609Y-41251502D02*
X155533609Y-41441978D01*
X155533609Y-41441978D02*
X155557419Y-41489597D01*
X155557419Y-41489597D02*
X155581228Y-41513407D01*
X155581228Y-41513407D02*
X155628847Y-41537216D01*
X155628847Y-41537216D02*
X155700276Y-41537216D01*
X155700276Y-41537216D02*
X155747895Y-41513407D01*
X155747895Y-41513407D02*
X155771704Y-41489597D01*
X155771704Y-41489597D02*
X155795514Y-41441978D01*
X155795514Y-41441978D02*
X155795514Y-41251502D01*
X155533609Y-41703883D02*
X156033609Y-41822931D01*
X156033609Y-41822931D02*
X155676466Y-41918169D01*
X155676466Y-41918169D02*
X156033609Y-42013407D01*
X156033609Y-42013407D02*
X155533609Y-42132455D01*
X156033609Y-42608645D02*
X155795514Y-42441979D01*
X156033609Y-42322931D02*
X155533609Y-42322931D01*
X155533609Y-42322931D02*
X155533609Y-42513407D01*
X155533609Y-42513407D02*
X155557419Y-42561026D01*
X155557419Y-42561026D02*
X155581228Y-42584836D01*
X155581228Y-42584836D02*
X155628847Y-42608645D01*
X155628847Y-42608645D02*
X155700276Y-42608645D01*
X155700276Y-42608645D02*
X155747895Y-42584836D01*
X155747895Y-42584836D02*
X155771704Y-42561026D01*
X155771704Y-42561026D02*
X155795514Y-42513407D01*
X155795514Y-42513407D02*
X155795514Y-42322931D01*
X141357419Y-39846741D02*
X141333609Y-39799122D01*
X141333609Y-39799122D02*
X141333609Y-39727693D01*
X141333609Y-39727693D02*
X141357419Y-39656265D01*
X141357419Y-39656265D02*
X141405038Y-39608646D01*
X141405038Y-39608646D02*
X141452657Y-39584836D01*
X141452657Y-39584836D02*
X141547895Y-39561027D01*
X141547895Y-39561027D02*
X141619323Y-39561027D01*
X141619323Y-39561027D02*
X141714561Y-39584836D01*
X141714561Y-39584836D02*
X141762180Y-39608646D01*
X141762180Y-39608646D02*
X141809800Y-39656265D01*
X141809800Y-39656265D02*
X141833609Y-39727693D01*
X141833609Y-39727693D02*
X141833609Y-39775312D01*
X141833609Y-39775312D02*
X141809800Y-39846741D01*
X141809800Y-39846741D02*
X141785990Y-39870550D01*
X141785990Y-39870550D02*
X141619323Y-39870550D01*
X141619323Y-39870550D02*
X141619323Y-39775312D01*
X141833609Y-40084836D02*
X141333609Y-40084836D01*
X141333609Y-40084836D02*
X141833609Y-40370550D01*
X141833609Y-40370550D02*
X141333609Y-40370550D01*
X141833609Y-40608646D02*
X141333609Y-40608646D01*
X141333609Y-40608646D02*
X141333609Y-40727694D01*
X141333609Y-40727694D02*
X141357419Y-40799122D01*
X141357419Y-40799122D02*
X141405038Y-40846741D01*
X141405038Y-40846741D02*
X141452657Y-40870551D01*
X141452657Y-40870551D02*
X141547895Y-40894360D01*
X141547895Y-40894360D02*
X141619323Y-40894360D01*
X141619323Y-40894360D02*
X141714561Y-40870551D01*
X141714561Y-40870551D02*
X141762180Y-40846741D01*
X141762180Y-40846741D02*
X141809800Y-40799122D01*
X141809800Y-40799122D02*
X141833609Y-40727694D01*
X141833609Y-40727694D02*
X141833609Y-40608646D01*
X149924086Y-39561027D02*
X149947895Y-39632455D01*
X149947895Y-39632455D02*
X149947895Y-39751503D01*
X149947895Y-39751503D02*
X149924086Y-39799122D01*
X149924086Y-39799122D02*
X149900276Y-39822931D01*
X149900276Y-39822931D02*
X149852657Y-39846741D01*
X149852657Y-39846741D02*
X149805038Y-39846741D01*
X149805038Y-39846741D02*
X149757419Y-39822931D01*
X149757419Y-39822931D02*
X149733609Y-39799122D01*
X149733609Y-39799122D02*
X149709800Y-39751503D01*
X149709800Y-39751503D02*
X149685990Y-39656265D01*
X149685990Y-39656265D02*
X149662181Y-39608646D01*
X149662181Y-39608646D02*
X149638371Y-39584836D01*
X149638371Y-39584836D02*
X149590752Y-39561027D01*
X149590752Y-39561027D02*
X149543133Y-39561027D01*
X149543133Y-39561027D02*
X149495514Y-39584836D01*
X149495514Y-39584836D02*
X149471705Y-39608646D01*
X149471705Y-39608646D02*
X149447895Y-39656265D01*
X149447895Y-39656265D02*
X149447895Y-39775312D01*
X149447895Y-39775312D02*
X149471705Y-39846741D01*
X149947895Y-40061026D02*
X149447895Y-40061026D01*
X149947895Y-40299121D02*
X149447895Y-40299121D01*
X149447895Y-40299121D02*
X149805038Y-40465788D01*
X149805038Y-40465788D02*
X149447895Y-40632454D01*
X149447895Y-40632454D02*
X149947895Y-40632454D01*
X149947895Y-41537216D02*
X149709800Y-41370550D01*
X149947895Y-41251502D02*
X149447895Y-41251502D01*
X149447895Y-41251502D02*
X149447895Y-41441978D01*
X149447895Y-41441978D02*
X149471705Y-41489597D01*
X149471705Y-41489597D02*
X149495514Y-41513407D01*
X149495514Y-41513407D02*
X149543133Y-41537216D01*
X149543133Y-41537216D02*
X149614562Y-41537216D01*
X149614562Y-41537216D02*
X149662181Y-41513407D01*
X149662181Y-41513407D02*
X149685990Y-41489597D01*
X149685990Y-41489597D02*
X149709800Y-41441978D01*
X149709800Y-41441978D02*
X149709800Y-41251502D01*
X149924086Y-41727693D02*
X149947895Y-41799121D01*
X149947895Y-41799121D02*
X149947895Y-41918169D01*
X149947895Y-41918169D02*
X149924086Y-41965788D01*
X149924086Y-41965788D02*
X149900276Y-41989597D01*
X149900276Y-41989597D02*
X149852657Y-42013407D01*
X149852657Y-42013407D02*
X149805038Y-42013407D01*
X149805038Y-42013407D02*
X149757419Y-41989597D01*
X149757419Y-41989597D02*
X149733609Y-41965788D01*
X149733609Y-41965788D02*
X149709800Y-41918169D01*
X149709800Y-41918169D02*
X149685990Y-41822931D01*
X149685990Y-41822931D02*
X149662181Y-41775312D01*
X149662181Y-41775312D02*
X149638371Y-41751502D01*
X149638371Y-41751502D02*
X149590752Y-41727693D01*
X149590752Y-41727693D02*
X149543133Y-41727693D01*
X149543133Y-41727693D02*
X149495514Y-41751502D01*
X149495514Y-41751502D02*
X149471705Y-41775312D01*
X149471705Y-41775312D02*
X149447895Y-41822931D01*
X149447895Y-41822931D02*
X149447895Y-41941978D01*
X149447895Y-41941978D02*
X149471705Y-42013407D01*
X149447895Y-42156264D02*
X149447895Y-42441978D01*
X149947895Y-42299121D02*
X149447895Y-42299121D01*
X147895514Y-39561027D02*
X147919323Y-39632455D01*
X147919323Y-39632455D02*
X147919323Y-39751503D01*
X147919323Y-39751503D02*
X147895514Y-39799122D01*
X147895514Y-39799122D02*
X147871704Y-39822931D01*
X147871704Y-39822931D02*
X147824085Y-39846741D01*
X147824085Y-39846741D02*
X147776466Y-39846741D01*
X147776466Y-39846741D02*
X147728847Y-39822931D01*
X147728847Y-39822931D02*
X147705037Y-39799122D01*
X147705037Y-39799122D02*
X147681228Y-39751503D01*
X147681228Y-39751503D02*
X147657418Y-39656265D01*
X147657418Y-39656265D02*
X147633609Y-39608646D01*
X147633609Y-39608646D02*
X147609799Y-39584836D01*
X147609799Y-39584836D02*
X147562180Y-39561027D01*
X147562180Y-39561027D02*
X147514561Y-39561027D01*
X147514561Y-39561027D02*
X147466942Y-39584836D01*
X147466942Y-39584836D02*
X147443133Y-39608646D01*
X147443133Y-39608646D02*
X147419323Y-39656265D01*
X147419323Y-39656265D02*
X147419323Y-39775312D01*
X147419323Y-39775312D02*
X147443133Y-39846741D01*
X147419323Y-40013407D02*
X147919323Y-40132455D01*
X147919323Y-40132455D02*
X147562180Y-40227693D01*
X147562180Y-40227693D02*
X147919323Y-40322931D01*
X147919323Y-40322931D02*
X147419323Y-40441979D01*
X147919323Y-40632455D02*
X147419323Y-40632455D01*
X147419323Y-40632455D02*
X147419323Y-40751503D01*
X147419323Y-40751503D02*
X147443133Y-40822931D01*
X147443133Y-40822931D02*
X147490752Y-40870550D01*
X147490752Y-40870550D02*
X147538371Y-40894360D01*
X147538371Y-40894360D02*
X147633609Y-40918169D01*
X147633609Y-40918169D02*
X147705037Y-40918169D01*
X147705037Y-40918169D02*
X147800275Y-40894360D01*
X147800275Y-40894360D02*
X147847894Y-40870550D01*
X147847894Y-40870550D02*
X147895514Y-40822931D01*
X147895514Y-40822931D02*
X147919323Y-40751503D01*
X147919323Y-40751503D02*
X147919323Y-40632455D01*
X147871704Y-41418169D02*
X147895514Y-41394360D01*
X147895514Y-41394360D02*
X147919323Y-41322931D01*
X147919323Y-41322931D02*
X147919323Y-41275312D01*
X147919323Y-41275312D02*
X147895514Y-41203884D01*
X147895514Y-41203884D02*
X147847894Y-41156265D01*
X147847894Y-41156265D02*
X147800275Y-41132455D01*
X147800275Y-41132455D02*
X147705037Y-41108646D01*
X147705037Y-41108646D02*
X147633609Y-41108646D01*
X147633609Y-41108646D02*
X147538371Y-41132455D01*
X147538371Y-41132455D02*
X147490752Y-41156265D01*
X147490752Y-41156265D02*
X147443133Y-41203884D01*
X147443133Y-41203884D02*
X147419323Y-41275312D01*
X147419323Y-41275312D02*
X147419323Y-41322931D01*
X147419323Y-41322931D02*
X147443133Y-41394360D01*
X147443133Y-41394360D02*
X147466942Y-41418169D01*
X147919323Y-41870550D02*
X147919323Y-41632455D01*
X147919323Y-41632455D02*
X147419323Y-41632455D01*
X147919323Y-42037217D02*
X147419323Y-42037217D01*
X147919323Y-42322931D02*
X147633609Y-42108646D01*
X147419323Y-42322931D02*
X147705037Y-42037217D01*
X145890752Y-39584836D02*
X145390752Y-39584836D01*
X145390752Y-39584836D02*
X145890752Y-39870550D01*
X145890752Y-39870550D02*
X145390752Y-39870550D01*
X145890752Y-40394360D02*
X145652657Y-40227694D01*
X145890752Y-40108646D02*
X145390752Y-40108646D01*
X145390752Y-40108646D02*
X145390752Y-40299122D01*
X145390752Y-40299122D02*
X145414562Y-40346741D01*
X145414562Y-40346741D02*
X145438371Y-40370551D01*
X145438371Y-40370551D02*
X145485990Y-40394360D01*
X145485990Y-40394360D02*
X145557419Y-40394360D01*
X145557419Y-40394360D02*
X145605038Y-40370551D01*
X145605038Y-40370551D02*
X145628847Y-40346741D01*
X145628847Y-40346741D02*
X145652657Y-40299122D01*
X145652657Y-40299122D02*
X145652657Y-40108646D01*
X145866943Y-40584837D02*
X145890752Y-40656265D01*
X145890752Y-40656265D02*
X145890752Y-40775313D01*
X145890752Y-40775313D02*
X145866943Y-40822932D01*
X145866943Y-40822932D02*
X145843133Y-40846741D01*
X145843133Y-40846741D02*
X145795514Y-40870551D01*
X145795514Y-40870551D02*
X145747895Y-40870551D01*
X145747895Y-40870551D02*
X145700276Y-40846741D01*
X145700276Y-40846741D02*
X145676466Y-40822932D01*
X145676466Y-40822932D02*
X145652657Y-40775313D01*
X145652657Y-40775313D02*
X145628847Y-40680075D01*
X145628847Y-40680075D02*
X145605038Y-40632456D01*
X145605038Y-40632456D02*
X145581228Y-40608646D01*
X145581228Y-40608646D02*
X145533609Y-40584837D01*
X145533609Y-40584837D02*
X145485990Y-40584837D01*
X145485990Y-40584837D02*
X145438371Y-40608646D01*
X145438371Y-40608646D02*
X145414562Y-40632456D01*
X145414562Y-40632456D02*
X145390752Y-40680075D01*
X145390752Y-40680075D02*
X145390752Y-40799122D01*
X145390752Y-40799122D02*
X145414562Y-40870551D01*
X145390752Y-41013408D02*
X145390752Y-41299122D01*
X145890752Y-41156265D02*
X145390752Y-41156265D01*
X151952657Y-39561027D02*
X151976466Y-39632455D01*
X151976466Y-39632455D02*
X151976466Y-39751503D01*
X151976466Y-39751503D02*
X151952657Y-39799122D01*
X151952657Y-39799122D02*
X151928847Y-39822931D01*
X151928847Y-39822931D02*
X151881228Y-39846741D01*
X151881228Y-39846741D02*
X151833609Y-39846741D01*
X151833609Y-39846741D02*
X151785990Y-39822931D01*
X151785990Y-39822931D02*
X151762180Y-39799122D01*
X151762180Y-39799122D02*
X151738371Y-39751503D01*
X151738371Y-39751503D02*
X151714561Y-39656265D01*
X151714561Y-39656265D02*
X151690752Y-39608646D01*
X151690752Y-39608646D02*
X151666942Y-39584836D01*
X151666942Y-39584836D02*
X151619323Y-39561027D01*
X151619323Y-39561027D02*
X151571704Y-39561027D01*
X151571704Y-39561027D02*
X151524085Y-39584836D01*
X151524085Y-39584836D02*
X151500276Y-39608646D01*
X151500276Y-39608646D02*
X151476466Y-39656265D01*
X151476466Y-39656265D02*
X151476466Y-39775312D01*
X151476466Y-39775312D02*
X151500276Y-39846741D01*
X151976466Y-40061026D02*
X151476466Y-40061026D01*
X151976466Y-40299121D02*
X151476466Y-40299121D01*
X151476466Y-40299121D02*
X151833609Y-40465788D01*
X151833609Y-40465788D02*
X151476466Y-40632454D01*
X151476466Y-40632454D02*
X151976466Y-40632454D01*
X151976466Y-41537216D02*
X151738371Y-41370550D01*
X151976466Y-41251502D02*
X151476466Y-41251502D01*
X151476466Y-41251502D02*
X151476466Y-41441978D01*
X151476466Y-41441978D02*
X151500276Y-41489597D01*
X151500276Y-41489597D02*
X151524085Y-41513407D01*
X151524085Y-41513407D02*
X151571704Y-41537216D01*
X151571704Y-41537216D02*
X151643133Y-41537216D01*
X151643133Y-41537216D02*
X151690752Y-41513407D01*
X151690752Y-41513407D02*
X151714561Y-41489597D01*
X151714561Y-41489597D02*
X151738371Y-41441978D01*
X151738371Y-41441978D02*
X151738371Y-41251502D01*
X151476466Y-41703883D02*
X151976466Y-42037216D01*
X151476466Y-42037216D02*
X151976466Y-41703883D01*
X153981229Y-39561027D02*
X154005038Y-39632455D01*
X154005038Y-39632455D02*
X154005038Y-39751503D01*
X154005038Y-39751503D02*
X153981229Y-39799122D01*
X153981229Y-39799122D02*
X153957419Y-39822931D01*
X153957419Y-39822931D02*
X153909800Y-39846741D01*
X153909800Y-39846741D02*
X153862181Y-39846741D01*
X153862181Y-39846741D02*
X153814562Y-39822931D01*
X153814562Y-39822931D02*
X153790752Y-39799122D01*
X153790752Y-39799122D02*
X153766943Y-39751503D01*
X153766943Y-39751503D02*
X153743133Y-39656265D01*
X153743133Y-39656265D02*
X153719324Y-39608646D01*
X153719324Y-39608646D02*
X153695514Y-39584836D01*
X153695514Y-39584836D02*
X153647895Y-39561027D01*
X153647895Y-39561027D02*
X153600276Y-39561027D01*
X153600276Y-39561027D02*
X153552657Y-39584836D01*
X153552657Y-39584836D02*
X153528848Y-39608646D01*
X153528848Y-39608646D02*
X153505038Y-39656265D01*
X153505038Y-39656265D02*
X153505038Y-39775312D01*
X153505038Y-39775312D02*
X153528848Y-39846741D01*
X154005038Y-40061026D02*
X153505038Y-40061026D01*
X154005038Y-40299121D02*
X153505038Y-40299121D01*
X153505038Y-40299121D02*
X153862181Y-40465788D01*
X153862181Y-40465788D02*
X153505038Y-40632454D01*
X153505038Y-40632454D02*
X154005038Y-40632454D01*
X153505038Y-41180074D02*
X153505038Y-41465788D01*
X154005038Y-41322931D02*
X153505038Y-41322931D01*
X153505038Y-41584835D02*
X154005038Y-41918168D01*
X153505038Y-41918168D02*
X154005038Y-41584835D01*
X143838371Y-39561027D02*
X143862180Y-39632455D01*
X143862180Y-39632455D02*
X143862180Y-39751503D01*
X143862180Y-39751503D02*
X143838371Y-39799122D01*
X143838371Y-39799122D02*
X143814561Y-39822931D01*
X143814561Y-39822931D02*
X143766942Y-39846741D01*
X143766942Y-39846741D02*
X143719323Y-39846741D01*
X143719323Y-39846741D02*
X143671704Y-39822931D01*
X143671704Y-39822931D02*
X143647894Y-39799122D01*
X143647894Y-39799122D02*
X143624085Y-39751503D01*
X143624085Y-39751503D02*
X143600275Y-39656265D01*
X143600275Y-39656265D02*
X143576466Y-39608646D01*
X143576466Y-39608646D02*
X143552656Y-39584836D01*
X143552656Y-39584836D02*
X143505037Y-39561027D01*
X143505037Y-39561027D02*
X143457418Y-39561027D01*
X143457418Y-39561027D02*
X143409799Y-39584836D01*
X143409799Y-39584836D02*
X143385990Y-39608646D01*
X143385990Y-39608646D02*
X143362180Y-39656265D01*
X143362180Y-39656265D02*
X143362180Y-39775312D01*
X143362180Y-39775312D02*
X143385990Y-39846741D01*
X143362180Y-40013407D02*
X143862180Y-40132455D01*
X143862180Y-40132455D02*
X143505037Y-40227693D01*
X143505037Y-40227693D02*
X143862180Y-40322931D01*
X143862180Y-40322931D02*
X143362180Y-40441979D01*
X143862180Y-40632455D02*
X143362180Y-40632455D01*
X143362180Y-40632455D02*
X143362180Y-40751503D01*
X143362180Y-40751503D02*
X143385990Y-40822931D01*
X143385990Y-40822931D02*
X143433609Y-40870550D01*
X143433609Y-40870550D02*
X143481228Y-40894360D01*
X143481228Y-40894360D02*
X143576466Y-40918169D01*
X143576466Y-40918169D02*
X143647894Y-40918169D01*
X143647894Y-40918169D02*
X143743132Y-40894360D01*
X143743132Y-40894360D02*
X143790751Y-40870550D01*
X143790751Y-40870550D02*
X143838371Y-40822931D01*
X143838371Y-40822931D02*
X143862180Y-40751503D01*
X143862180Y-40751503D02*
X143862180Y-40632455D01*
X143862180Y-41132455D02*
X143362180Y-41132455D01*
X143362180Y-41465788D02*
X143362180Y-41561026D01*
X143362180Y-41561026D02*
X143385990Y-41608645D01*
X143385990Y-41608645D02*
X143433609Y-41656264D01*
X143433609Y-41656264D02*
X143528847Y-41680074D01*
X143528847Y-41680074D02*
X143695513Y-41680074D01*
X143695513Y-41680074D02*
X143790751Y-41656264D01*
X143790751Y-41656264D02*
X143838371Y-41608645D01*
X143838371Y-41608645D02*
X143862180Y-41561026D01*
X143862180Y-41561026D02*
X143862180Y-41465788D01*
X143862180Y-41465788D02*
X143838371Y-41418169D01*
X143838371Y-41418169D02*
X143790751Y-41370550D01*
X143790751Y-41370550D02*
X143695513Y-41346741D01*
X143695513Y-41346741D02*
X143528847Y-41346741D01*
X143528847Y-41346741D02*
X143433609Y-41370550D01*
X143433609Y-41370550D02*
X143385990Y-41418169D01*
X143385990Y-41418169D02*
X143362180Y-41465788D01*
X141557419Y-80789939D02*
X141533609Y-80742320D01*
X141533609Y-80742320D02*
X141533609Y-80670891D01*
X141533609Y-80670891D02*
X141557419Y-80599463D01*
X141557419Y-80599463D02*
X141605038Y-80551844D01*
X141605038Y-80551844D02*
X141652657Y-80528034D01*
X141652657Y-80528034D02*
X141747895Y-80504225D01*
X141747895Y-80504225D02*
X141819323Y-80504225D01*
X141819323Y-80504225D02*
X141914561Y-80528034D01*
X141914561Y-80528034D02*
X141962180Y-80551844D01*
X141962180Y-80551844D02*
X142009800Y-80599463D01*
X142009800Y-80599463D02*
X142033609Y-80670891D01*
X142033609Y-80670891D02*
X142033609Y-80718510D01*
X142033609Y-80718510D02*
X142009800Y-80789939D01*
X142009800Y-80789939D02*
X141985990Y-80813748D01*
X141985990Y-80813748D02*
X141819323Y-80813748D01*
X141819323Y-80813748D02*
X141819323Y-80718510D01*
X142033609Y-81028034D02*
X141533609Y-81028034D01*
X141533609Y-81028034D02*
X142033609Y-81313748D01*
X142033609Y-81313748D02*
X141533609Y-81313748D01*
X142033609Y-81551844D02*
X141533609Y-81551844D01*
X141533609Y-81551844D02*
X141533609Y-81670892D01*
X141533609Y-81670892D02*
X141557419Y-81742320D01*
X141557419Y-81742320D02*
X141605038Y-81789939D01*
X141605038Y-81789939D02*
X141652657Y-81813749D01*
X141652657Y-81813749D02*
X141747895Y-81837558D01*
X141747895Y-81837558D02*
X141819323Y-81837558D01*
X141819323Y-81837558D02*
X141914561Y-81813749D01*
X141914561Y-81813749D02*
X141962180Y-81789939D01*
X141962180Y-81789939D02*
X142009800Y-81742320D01*
X142009800Y-81742320D02*
X142033609Y-81670892D01*
X142033609Y-81670892D02*
X142033609Y-81551844D01*
X144062180Y-80528034D02*
X143562180Y-80528034D01*
X143562180Y-80528034D02*
X143562180Y-80718510D01*
X143562180Y-80718510D02*
X143585990Y-80766129D01*
X143585990Y-80766129D02*
X143609799Y-80789939D01*
X143609799Y-80789939D02*
X143657418Y-80813748D01*
X143657418Y-80813748D02*
X143728847Y-80813748D01*
X143728847Y-80813748D02*
X143776466Y-80789939D01*
X143776466Y-80789939D02*
X143800275Y-80766129D01*
X143800275Y-80766129D02*
X143824085Y-80718510D01*
X143824085Y-80718510D02*
X143824085Y-80528034D01*
X143919323Y-81004225D02*
X143919323Y-81242320D01*
X144062180Y-80956606D02*
X143562180Y-81123272D01*
X143562180Y-81123272D02*
X144062180Y-81289939D01*
X143562180Y-81408986D02*
X143562180Y-81742319D01*
X143562180Y-81742319D02*
X144062180Y-81528034D01*
X146090752Y-80528034D02*
X145590752Y-80528034D01*
X145590752Y-80528034D02*
X145590752Y-80718510D01*
X145590752Y-80718510D02*
X145614562Y-80766129D01*
X145614562Y-80766129D02*
X145638371Y-80789939D01*
X145638371Y-80789939D02*
X145685990Y-80813748D01*
X145685990Y-80813748D02*
X145757419Y-80813748D01*
X145757419Y-80813748D02*
X145805038Y-80789939D01*
X145805038Y-80789939D02*
X145828847Y-80766129D01*
X145828847Y-80766129D02*
X145852657Y-80718510D01*
X145852657Y-80718510D02*
X145852657Y-80528034D01*
X145947895Y-81004225D02*
X145947895Y-81242320D01*
X146090752Y-80956606D02*
X145590752Y-81123272D01*
X145590752Y-81123272D02*
X146090752Y-81289939D01*
X145590752Y-81670891D02*
X145590752Y-81575653D01*
X145590752Y-81575653D02*
X145614562Y-81528034D01*
X145614562Y-81528034D02*
X145638371Y-81504224D01*
X145638371Y-81504224D02*
X145709800Y-81456605D01*
X145709800Y-81456605D02*
X145805038Y-81432796D01*
X145805038Y-81432796D02*
X145995514Y-81432796D01*
X145995514Y-81432796D02*
X146043133Y-81456605D01*
X146043133Y-81456605D02*
X146066943Y-81480415D01*
X146066943Y-81480415D02*
X146090752Y-81528034D01*
X146090752Y-81528034D02*
X146090752Y-81623272D01*
X146090752Y-81623272D02*
X146066943Y-81670891D01*
X146066943Y-81670891D02*
X146043133Y-81694700D01*
X146043133Y-81694700D02*
X145995514Y-81718510D01*
X145995514Y-81718510D02*
X145876466Y-81718510D01*
X145876466Y-81718510D02*
X145828847Y-81694700D01*
X145828847Y-81694700D02*
X145805038Y-81670891D01*
X145805038Y-81670891D02*
X145781228Y-81623272D01*
X145781228Y-81623272D02*
X145781228Y-81528034D01*
X145781228Y-81528034D02*
X145805038Y-81480415D01*
X145805038Y-81480415D02*
X145828847Y-81456605D01*
X145828847Y-81456605D02*
X145876466Y-81432796D01*
X148119323Y-80528034D02*
X147619323Y-80528034D01*
X147619323Y-80528034D02*
X147619323Y-80718510D01*
X147619323Y-80718510D02*
X147643133Y-80766129D01*
X147643133Y-80766129D02*
X147666942Y-80789939D01*
X147666942Y-80789939D02*
X147714561Y-80813748D01*
X147714561Y-80813748D02*
X147785990Y-80813748D01*
X147785990Y-80813748D02*
X147833609Y-80789939D01*
X147833609Y-80789939D02*
X147857418Y-80766129D01*
X147857418Y-80766129D02*
X147881228Y-80718510D01*
X147881228Y-80718510D02*
X147881228Y-80528034D01*
X147976466Y-81004225D02*
X147976466Y-81242320D01*
X148119323Y-80956606D02*
X147619323Y-81123272D01*
X147619323Y-81123272D02*
X148119323Y-81289939D01*
X147619323Y-81694700D02*
X147619323Y-81456605D01*
X147619323Y-81456605D02*
X147857418Y-81432796D01*
X147857418Y-81432796D02*
X147833609Y-81456605D01*
X147833609Y-81456605D02*
X147809799Y-81504224D01*
X147809799Y-81504224D02*
X147809799Y-81623272D01*
X147809799Y-81623272D02*
X147833609Y-81670891D01*
X147833609Y-81670891D02*
X147857418Y-81694700D01*
X147857418Y-81694700D02*
X147905037Y-81718510D01*
X147905037Y-81718510D02*
X148024085Y-81718510D01*
X148024085Y-81718510D02*
X148071704Y-81694700D01*
X148071704Y-81694700D02*
X148095514Y-81670891D01*
X148095514Y-81670891D02*
X148119323Y-81623272D01*
X148119323Y-81623272D02*
X148119323Y-81504224D01*
X148119323Y-81504224D02*
X148095514Y-81456605D01*
X148095514Y-81456605D02*
X148071704Y-81432796D01*
X150147895Y-80528034D02*
X149647895Y-80528034D01*
X149647895Y-80528034D02*
X149647895Y-80718510D01*
X149647895Y-80718510D02*
X149671705Y-80766129D01*
X149671705Y-80766129D02*
X149695514Y-80789939D01*
X149695514Y-80789939D02*
X149743133Y-80813748D01*
X149743133Y-80813748D02*
X149814562Y-80813748D01*
X149814562Y-80813748D02*
X149862181Y-80789939D01*
X149862181Y-80789939D02*
X149885990Y-80766129D01*
X149885990Y-80766129D02*
X149909800Y-80718510D01*
X149909800Y-80718510D02*
X149909800Y-80528034D01*
X150005038Y-81004225D02*
X150005038Y-81242320D01*
X150147895Y-80956606D02*
X149647895Y-81123272D01*
X149647895Y-81123272D02*
X150147895Y-81289939D01*
X149814562Y-81670891D02*
X150147895Y-81670891D01*
X149624086Y-81551843D02*
X149981228Y-81432796D01*
X149981228Y-81432796D02*
X149981228Y-81742319D01*
X152176466Y-80813748D02*
X151938371Y-80647082D01*
X152176466Y-80528034D02*
X151676466Y-80528034D01*
X151676466Y-80528034D02*
X151676466Y-80718510D01*
X151676466Y-80718510D02*
X151700276Y-80766129D01*
X151700276Y-80766129D02*
X151724085Y-80789939D01*
X151724085Y-80789939D02*
X151771704Y-80813748D01*
X151771704Y-80813748D02*
X151843133Y-80813748D01*
X151843133Y-80813748D02*
X151890752Y-80789939D01*
X151890752Y-80789939D02*
X151914561Y-80766129D01*
X151914561Y-80766129D02*
X151938371Y-80718510D01*
X151938371Y-80718510D02*
X151938371Y-80528034D01*
X151676466Y-80980415D02*
X152176466Y-81313748D01*
X151676466Y-81313748D02*
X152176466Y-80980415D01*
X153705038Y-80456606D02*
X153705038Y-80742320D01*
X154205038Y-80599463D02*
X153705038Y-80599463D01*
X153705038Y-80861367D02*
X154205038Y-81194700D01*
X153705038Y-81194700D02*
X154205038Y-80861367D01*
X153752657Y-81361367D02*
X153728848Y-81385176D01*
X153728848Y-81385176D02*
X153705038Y-81432795D01*
X153705038Y-81432795D02*
X153705038Y-81551843D01*
X153705038Y-81551843D02*
X153728848Y-81599462D01*
X153728848Y-81599462D02*
X153752657Y-81623271D01*
X153752657Y-81623271D02*
X153800276Y-81647081D01*
X153800276Y-81647081D02*
X153847895Y-81647081D01*
X153847895Y-81647081D02*
X153919324Y-81623271D01*
X153919324Y-81623271D02*
X154205038Y-81337557D01*
X154205038Y-81337557D02*
X154205038Y-81647081D01*
X155733609Y-80480415D02*
X155733609Y-80789939D01*
X155733609Y-80789939D02*
X155924085Y-80623272D01*
X155924085Y-80623272D02*
X155924085Y-80694701D01*
X155924085Y-80694701D02*
X155947895Y-80742320D01*
X155947895Y-80742320D02*
X155971704Y-80766129D01*
X155971704Y-80766129D02*
X156019323Y-80789939D01*
X156019323Y-80789939D02*
X156138371Y-80789939D01*
X156138371Y-80789939D02*
X156185990Y-80766129D01*
X156185990Y-80766129D02*
X156209800Y-80742320D01*
X156209800Y-80742320D02*
X156233609Y-80694701D01*
X156233609Y-80694701D02*
X156233609Y-80551844D01*
X156233609Y-80551844D02*
X156209800Y-80504225D01*
X156209800Y-80504225D02*
X156185990Y-80480415D01*
X155733609Y-80932796D02*
X156233609Y-81099462D01*
X156233609Y-81099462D02*
X155733609Y-81266129D01*
X155733609Y-81385176D02*
X155733609Y-81694700D01*
X155733609Y-81694700D02*
X155924085Y-81528033D01*
X155924085Y-81528033D02*
X155924085Y-81599462D01*
X155924085Y-81599462D02*
X155947895Y-81647081D01*
X155947895Y-81647081D02*
X155971704Y-81670890D01*
X155971704Y-81670890D02*
X156019323Y-81694700D01*
X156019323Y-81694700D02*
X156138371Y-81694700D01*
X156138371Y-81694700D02*
X156185990Y-81670890D01*
X156185990Y-81670890D02*
X156209800Y-81647081D01*
X156209800Y-81647081D02*
X156233609Y-81599462D01*
X156233609Y-81599462D02*
X156233609Y-81456605D01*
X156233609Y-81456605D02*
X156209800Y-81408986D01*
X156209800Y-81408986D02*
X156185990Y-81385176D01*
X141717497Y-63068598D02*
X141683825Y-63135941D01*
X141683825Y-63135941D02*
X141599646Y-63220121D01*
X141599646Y-63220121D02*
X141549138Y-63236957D01*
X141549138Y-63236957D02*
X141515466Y-63236957D01*
X141515466Y-63236957D02*
X141464959Y-63220121D01*
X141464959Y-63220121D02*
X141431287Y-63186449D01*
X141431287Y-63186449D02*
X141414451Y-63135941D01*
X141414451Y-63135941D02*
X141414451Y-63102270D01*
X141414451Y-63102270D02*
X141431287Y-63051762D01*
X141431287Y-63051762D02*
X141481794Y-62967583D01*
X141481794Y-62967583D02*
X141498630Y-62917075D01*
X141498630Y-62917075D02*
X141498630Y-62883403D01*
X141498630Y-62883403D02*
X141481794Y-62832895D01*
X141481794Y-62832895D02*
X141448123Y-62799224D01*
X141448123Y-62799224D02*
X141397615Y-62782388D01*
X141397615Y-62782388D02*
X141363943Y-62782388D01*
X141363943Y-62782388D02*
X141313436Y-62799224D01*
X141313436Y-62799224D02*
X141229256Y-62883403D01*
X141229256Y-62883403D02*
X141195584Y-62950747D01*
X141077734Y-63034926D02*
X140875703Y-63236956D01*
X141330272Y-63489494D02*
X140976718Y-63135941D01*
X141111406Y-63708360D02*
X140757852Y-63354807D01*
X140757852Y-63354807D02*
X140892539Y-63725196D01*
X140892539Y-63725196D02*
X140522150Y-63590509D01*
X140522150Y-63590509D02*
X140875703Y-63944063D01*
X140387463Y-63725197D02*
X140168596Y-63944063D01*
X140168596Y-63944063D02*
X140421135Y-63960899D01*
X140421135Y-63960899D02*
X140370627Y-64011406D01*
X140370627Y-64011406D02*
X140353791Y-64061914D01*
X140353791Y-64061914D02*
X140353791Y-64095586D01*
X140353791Y-64095586D02*
X140370627Y-64146094D01*
X140370627Y-64146094D02*
X140454806Y-64230273D01*
X140454806Y-64230273D02*
X140505314Y-64247109D01*
X140505314Y-64247109D02*
X140538986Y-64247109D01*
X140538986Y-64247109D02*
X140589493Y-64230273D01*
X140589493Y-64230273D02*
X140690509Y-64129258D01*
X140690509Y-64129258D02*
X140707344Y-64078750D01*
X140707344Y-64078750D02*
X140707344Y-64045078D01*
X140067581Y-64112421D02*
X140033910Y-64112421D01*
X140033910Y-64112421D02*
X139983402Y-64129257D01*
X139983402Y-64129257D02*
X139899223Y-64213437D01*
X139899223Y-64213437D02*
X139882387Y-64263944D01*
X139882387Y-64263944D02*
X139882387Y-64297616D01*
X139882387Y-64297616D02*
X139899223Y-64348124D01*
X139899223Y-64348124D02*
X139932894Y-64381795D01*
X139932894Y-64381795D02*
X140000238Y-64415467D01*
X140000238Y-64415467D02*
X140404299Y-64415467D01*
X140404299Y-64415467D02*
X140185433Y-64634334D01*
X163623808Y-51009800D02*
X163480951Y-51057419D01*
X163480951Y-51057419D02*
X163242856Y-51057419D01*
X163242856Y-51057419D02*
X163147618Y-51009800D01*
X163147618Y-51009800D02*
X163099999Y-50962180D01*
X163099999Y-50962180D02*
X163052380Y-50866942D01*
X163052380Y-50866942D02*
X163052380Y-50771704D01*
X163052380Y-50771704D02*
X163099999Y-50676466D01*
X163099999Y-50676466D02*
X163147618Y-50628847D01*
X163147618Y-50628847D02*
X163242856Y-50581228D01*
X163242856Y-50581228D02*
X163433332Y-50533609D01*
X163433332Y-50533609D02*
X163528570Y-50485990D01*
X163528570Y-50485990D02*
X163576189Y-50438371D01*
X163576189Y-50438371D02*
X163623808Y-50343133D01*
X163623808Y-50343133D02*
X163623808Y-50247895D01*
X163623808Y-50247895D02*
X163576189Y-50152657D01*
X163576189Y-50152657D02*
X163528570Y-50105038D01*
X163528570Y-50105038D02*
X163433332Y-50057419D01*
X163433332Y-50057419D02*
X163195237Y-50057419D01*
X163195237Y-50057419D02*
X163052380Y-50105038D01*
X162623808Y-51057419D02*
X162623808Y-50057419D01*
X162147618Y-51057419D02*
X162147618Y-50057419D01*
X162147618Y-50057419D02*
X161814285Y-50771704D01*
X161814285Y-50771704D02*
X161480952Y-50057419D01*
X161480952Y-50057419D02*
X161480952Y-51057419D01*
X160861904Y-50485990D02*
X160957142Y-50438371D01*
X160957142Y-50438371D02*
X161004761Y-50390752D01*
X161004761Y-50390752D02*
X161052380Y-50295514D01*
X161052380Y-50295514D02*
X161052380Y-50247895D01*
X161052380Y-50247895D02*
X161004761Y-50152657D01*
X161004761Y-50152657D02*
X160957142Y-50105038D01*
X160957142Y-50105038D02*
X160861904Y-50057419D01*
X160861904Y-50057419D02*
X160671428Y-50057419D01*
X160671428Y-50057419D02*
X160576190Y-50105038D01*
X160576190Y-50105038D02*
X160528571Y-50152657D01*
X160528571Y-50152657D02*
X160480952Y-50247895D01*
X160480952Y-50247895D02*
X160480952Y-50295514D01*
X160480952Y-50295514D02*
X160528571Y-50390752D01*
X160528571Y-50390752D02*
X160576190Y-50438371D01*
X160576190Y-50438371D02*
X160671428Y-50485990D01*
X160671428Y-50485990D02*
X160861904Y-50485990D01*
X160861904Y-50485990D02*
X160957142Y-50533609D01*
X160957142Y-50533609D02*
X161004761Y-50581228D01*
X161004761Y-50581228D02*
X161052380Y-50676466D01*
X161052380Y-50676466D02*
X161052380Y-50866942D01*
X161052380Y-50866942D02*
X161004761Y-50962180D01*
X161004761Y-50962180D02*
X160957142Y-51009800D01*
X160957142Y-51009800D02*
X160861904Y-51057419D01*
X160861904Y-51057419D02*
X160671428Y-51057419D01*
X160671428Y-51057419D02*
X160576190Y-51009800D01*
X160576190Y-51009800D02*
X160528571Y-50962180D01*
X160528571Y-50962180D02*
X160480952Y-50866942D01*
X160480952Y-50866942D02*
X160480952Y-50676466D01*
X160480952Y-50676466D02*
X160528571Y-50581228D01*
X160528571Y-50581228D02*
X160576190Y-50533609D01*
X160576190Y-50533609D02*
X160671428Y-50485990D01*
X159861904Y-50057419D02*
X159766666Y-50057419D01*
X159766666Y-50057419D02*
X159671428Y-50105038D01*
X159671428Y-50105038D02*
X159623809Y-50152657D01*
X159623809Y-50152657D02*
X159576190Y-50247895D01*
X159576190Y-50247895D02*
X159528571Y-50438371D01*
X159528571Y-50438371D02*
X159528571Y-50676466D01*
X159528571Y-50676466D02*
X159576190Y-50866942D01*
X159576190Y-50866942D02*
X159623809Y-50962180D01*
X159623809Y-50962180D02*
X159671428Y-51009800D01*
X159671428Y-51009800D02*
X159766666Y-51057419D01*
X159766666Y-51057419D02*
X159861904Y-51057419D01*
X159861904Y-51057419D02*
X159957142Y-51009800D01*
X159957142Y-51009800D02*
X160004761Y-50962180D01*
X160004761Y-50962180D02*
X160052380Y-50866942D01*
X160052380Y-50866942D02*
X160099999Y-50676466D01*
X160099999Y-50676466D02*
X160099999Y-50438371D01*
X160099999Y-50438371D02*
X160052380Y-50247895D01*
X160052380Y-50247895D02*
X160004761Y-50152657D01*
X160004761Y-50152657D02*
X159957142Y-50105038D01*
X159957142Y-50105038D02*
X159861904Y-50057419D01*
X158957142Y-50485990D02*
X159052380Y-50438371D01*
X159052380Y-50438371D02*
X159099999Y-50390752D01*
X159099999Y-50390752D02*
X159147618Y-50295514D01*
X159147618Y-50295514D02*
X159147618Y-50247895D01*
X159147618Y-50247895D02*
X159099999Y-50152657D01*
X159099999Y-50152657D02*
X159052380Y-50105038D01*
X159052380Y-50105038D02*
X158957142Y-50057419D01*
X158957142Y-50057419D02*
X158766666Y-50057419D01*
X158766666Y-50057419D02*
X158671428Y-50105038D01*
X158671428Y-50105038D02*
X158623809Y-50152657D01*
X158623809Y-50152657D02*
X158576190Y-50247895D01*
X158576190Y-50247895D02*
X158576190Y-50295514D01*
X158576190Y-50295514D02*
X158623809Y-50390752D01*
X158623809Y-50390752D02*
X158671428Y-50438371D01*
X158671428Y-50438371D02*
X158766666Y-50485990D01*
X158766666Y-50485990D02*
X158957142Y-50485990D01*
X158957142Y-50485990D02*
X159052380Y-50533609D01*
X159052380Y-50533609D02*
X159099999Y-50581228D01*
X159099999Y-50581228D02*
X159147618Y-50676466D01*
X159147618Y-50676466D02*
X159147618Y-50866942D01*
X159147618Y-50866942D02*
X159099999Y-50962180D01*
X159099999Y-50962180D02*
X159052380Y-51009800D01*
X159052380Y-51009800D02*
X158957142Y-51057419D01*
X158957142Y-51057419D02*
X158766666Y-51057419D01*
X158766666Y-51057419D02*
X158671428Y-51009800D01*
X158671428Y-51009800D02*
X158623809Y-50962180D01*
X158623809Y-50962180D02*
X158576190Y-50866942D01*
X158576190Y-50866942D02*
X158576190Y-50676466D01*
X158576190Y-50676466D02*
X158623809Y-50581228D01*
X158623809Y-50581228D02*
X158671428Y-50533609D01*
X158671428Y-50533609D02*
X158766666Y-50485990D01*
X158831428Y-45773490D02*
X158855237Y-45797300D01*
X158855237Y-45797300D02*
X158926666Y-45821109D01*
X158926666Y-45821109D02*
X158974285Y-45821109D01*
X158974285Y-45821109D02*
X159045713Y-45797300D01*
X159045713Y-45797300D02*
X159093332Y-45749680D01*
X159093332Y-45749680D02*
X159117142Y-45702061D01*
X159117142Y-45702061D02*
X159140951Y-45606823D01*
X159140951Y-45606823D02*
X159140951Y-45535395D01*
X159140951Y-45535395D02*
X159117142Y-45440157D01*
X159117142Y-45440157D02*
X159093332Y-45392538D01*
X159093332Y-45392538D02*
X159045713Y-45344919D01*
X159045713Y-45344919D02*
X158974285Y-45321109D01*
X158974285Y-45321109D02*
X158926666Y-45321109D01*
X158926666Y-45321109D02*
X158855237Y-45344919D01*
X158855237Y-45344919D02*
X158831428Y-45368728D01*
X158640951Y-45368728D02*
X158617142Y-45344919D01*
X158617142Y-45344919D02*
X158569523Y-45321109D01*
X158569523Y-45321109D02*
X158450475Y-45321109D01*
X158450475Y-45321109D02*
X158402856Y-45344919D01*
X158402856Y-45344919D02*
X158379047Y-45368728D01*
X158379047Y-45368728D02*
X158355237Y-45416347D01*
X158355237Y-45416347D02*
X158355237Y-45463966D01*
X158355237Y-45463966D02*
X158379047Y-45535395D01*
X158379047Y-45535395D02*
X158664761Y-45821109D01*
X158664761Y-45821109D02*
X158355237Y-45821109D01*
X158164761Y-45368728D02*
X158140952Y-45344919D01*
X158140952Y-45344919D02*
X158093333Y-45321109D01*
X158093333Y-45321109D02*
X157974285Y-45321109D01*
X157974285Y-45321109D02*
X157926666Y-45344919D01*
X157926666Y-45344919D02*
X157902857Y-45368728D01*
X157902857Y-45368728D02*
X157879047Y-45416347D01*
X157879047Y-45416347D02*
X157879047Y-45463966D01*
X157879047Y-45463966D02*
X157902857Y-45535395D01*
X157902857Y-45535395D02*
X158188571Y-45821109D01*
X158188571Y-45821109D02*
X157879047Y-45821109D01*
X158841428Y-41473490D02*
X158865237Y-41497300D01*
X158865237Y-41497300D02*
X158936666Y-41521109D01*
X158936666Y-41521109D02*
X158984285Y-41521109D01*
X158984285Y-41521109D02*
X159055713Y-41497300D01*
X159055713Y-41497300D02*
X159103332Y-41449680D01*
X159103332Y-41449680D02*
X159127142Y-41402061D01*
X159127142Y-41402061D02*
X159150951Y-41306823D01*
X159150951Y-41306823D02*
X159150951Y-41235395D01*
X159150951Y-41235395D02*
X159127142Y-41140157D01*
X159127142Y-41140157D02*
X159103332Y-41092538D01*
X159103332Y-41092538D02*
X159055713Y-41044919D01*
X159055713Y-41044919D02*
X158984285Y-41021109D01*
X158984285Y-41021109D02*
X158936666Y-41021109D01*
X158936666Y-41021109D02*
X158865237Y-41044919D01*
X158865237Y-41044919D02*
X158841428Y-41068728D01*
X158650951Y-41068728D02*
X158627142Y-41044919D01*
X158627142Y-41044919D02*
X158579523Y-41021109D01*
X158579523Y-41021109D02*
X158460475Y-41021109D01*
X158460475Y-41021109D02*
X158412856Y-41044919D01*
X158412856Y-41044919D02*
X158389047Y-41068728D01*
X158389047Y-41068728D02*
X158365237Y-41116347D01*
X158365237Y-41116347D02*
X158365237Y-41163966D01*
X158365237Y-41163966D02*
X158389047Y-41235395D01*
X158389047Y-41235395D02*
X158674761Y-41521109D01*
X158674761Y-41521109D02*
X158365237Y-41521109D01*
X157889047Y-41521109D02*
X158174761Y-41521109D01*
X158031904Y-41521109D02*
X158031904Y-41021109D01*
X158031904Y-41021109D02*
X158079523Y-41092538D01*
X158079523Y-41092538D02*
X158127142Y-41140157D01*
X158127142Y-41140157D02*
X158174761Y-41163966D01*
D11*
X145586714Y-55461905D02*
X145824809Y-55461905D01*
X145324809Y-55295239D02*
X145586714Y-55461905D01*
X145586714Y-55461905D02*
X145324809Y-55628572D01*
X145824809Y-56057143D02*
X145824809Y-55771429D01*
X145824809Y-55914286D02*
X145324809Y-55914286D01*
X145324809Y-55914286D02*
X145396238Y-55866667D01*
X145396238Y-55866667D02*
X145443857Y-55819048D01*
X145443857Y-55819048D02*
X145467666Y-55771429D01*
D10*
X126726109Y-57678571D02*
X126488014Y-57511905D01*
X126726109Y-57392857D02*
X126226109Y-57392857D01*
X126226109Y-57392857D02*
X126226109Y-57583333D01*
X126226109Y-57583333D02*
X126249919Y-57630952D01*
X126249919Y-57630952D02*
X126273728Y-57654762D01*
X126273728Y-57654762D02*
X126321347Y-57678571D01*
X126321347Y-57678571D02*
X126392776Y-57678571D01*
X126392776Y-57678571D02*
X126440395Y-57654762D01*
X126440395Y-57654762D02*
X126464204Y-57630952D01*
X126464204Y-57630952D02*
X126488014Y-57583333D01*
X126488014Y-57583333D02*
X126488014Y-57392857D01*
X126726109Y-58154762D02*
X126726109Y-57869048D01*
X126726109Y-58011905D02*
X126226109Y-58011905D01*
X126226109Y-58011905D02*
X126297538Y-57964286D01*
X126297538Y-57964286D02*
X126345157Y-57916667D01*
X126345157Y-57916667D02*
X126368966Y-57869048D01*
X126726109Y-58630952D02*
X126726109Y-58345238D01*
X126726109Y-58488095D02*
X126226109Y-58488095D01*
X126226109Y-58488095D02*
X126297538Y-58440476D01*
X126297538Y-58440476D02*
X126345157Y-58392857D01*
X126345157Y-58392857D02*
X126368966Y-58345238D01*
X136166665Y-85302300D02*
X136095237Y-85326109D01*
X136095237Y-85326109D02*
X135976189Y-85326109D01*
X135976189Y-85326109D02*
X135928570Y-85302300D01*
X135928570Y-85302300D02*
X135904761Y-85278490D01*
X135904761Y-85278490D02*
X135880951Y-85230871D01*
X135880951Y-85230871D02*
X135880951Y-85183252D01*
X135880951Y-85183252D02*
X135904761Y-85135633D01*
X135904761Y-85135633D02*
X135928570Y-85111823D01*
X135928570Y-85111823D02*
X135976189Y-85088014D01*
X135976189Y-85088014D02*
X136071427Y-85064204D01*
X136071427Y-85064204D02*
X136119046Y-85040395D01*
X136119046Y-85040395D02*
X136142856Y-85016585D01*
X136142856Y-85016585D02*
X136166665Y-84968966D01*
X136166665Y-84968966D02*
X136166665Y-84921347D01*
X136166665Y-84921347D02*
X136142856Y-84873728D01*
X136142856Y-84873728D02*
X136119046Y-84849919D01*
X136119046Y-84849919D02*
X136071427Y-84826109D01*
X136071427Y-84826109D02*
X135952380Y-84826109D01*
X135952380Y-84826109D02*
X135880951Y-84849919D01*
X135714285Y-84826109D02*
X135595237Y-85326109D01*
X135595237Y-85326109D02*
X135499999Y-84968966D01*
X135499999Y-84968966D02*
X135404761Y-85326109D01*
X135404761Y-85326109D02*
X135285714Y-84826109D01*
X135142856Y-84826109D02*
X134833332Y-84826109D01*
X134833332Y-84826109D02*
X134999999Y-85016585D01*
X134999999Y-85016585D02*
X134928570Y-85016585D01*
X134928570Y-85016585D02*
X134880951Y-85040395D01*
X134880951Y-85040395D02*
X134857142Y-85064204D01*
X134857142Y-85064204D02*
X134833332Y-85111823D01*
X134833332Y-85111823D02*
X134833332Y-85230871D01*
X134833332Y-85230871D02*
X134857142Y-85278490D01*
X134857142Y-85278490D02*
X134880951Y-85302300D01*
X134880951Y-85302300D02*
X134928570Y-85326109D01*
X134928570Y-85326109D02*
X135071427Y-85326109D01*
X135071427Y-85326109D02*
X135119046Y-85302300D01*
X135119046Y-85302300D02*
X135142856Y-85278490D01*
X146678490Y-48678571D02*
X146702300Y-48654762D01*
X146702300Y-48654762D02*
X146726109Y-48583333D01*
X146726109Y-48583333D02*
X146726109Y-48535714D01*
X146726109Y-48535714D02*
X146702300Y-48464286D01*
X146702300Y-48464286D02*
X146654680Y-48416667D01*
X146654680Y-48416667D02*
X146607061Y-48392857D01*
X146607061Y-48392857D02*
X146511823Y-48369048D01*
X146511823Y-48369048D02*
X146440395Y-48369048D01*
X146440395Y-48369048D02*
X146345157Y-48392857D01*
X146345157Y-48392857D02*
X146297538Y-48416667D01*
X146297538Y-48416667D02*
X146249919Y-48464286D01*
X146249919Y-48464286D02*
X146226109Y-48535714D01*
X146226109Y-48535714D02*
X146226109Y-48583333D01*
X146226109Y-48583333D02*
X146249919Y-48654762D01*
X146249919Y-48654762D02*
X146273728Y-48678571D01*
X146726109Y-49154762D02*
X146726109Y-48869048D01*
X146726109Y-49011905D02*
X146226109Y-49011905D01*
X146226109Y-49011905D02*
X146297538Y-48964286D01*
X146297538Y-48964286D02*
X146345157Y-48916667D01*
X146345157Y-48916667D02*
X146368966Y-48869048D01*
X146726109Y-49392857D02*
X146726109Y-49488095D01*
X146726109Y-49488095D02*
X146702300Y-49535714D01*
X146702300Y-49535714D02*
X146678490Y-49559523D01*
X146678490Y-49559523D02*
X146607061Y-49607142D01*
X146607061Y-49607142D02*
X146511823Y-49630952D01*
X146511823Y-49630952D02*
X146321347Y-49630952D01*
X146321347Y-49630952D02*
X146273728Y-49607142D01*
X146273728Y-49607142D02*
X146249919Y-49583333D01*
X146249919Y-49583333D02*
X146226109Y-49535714D01*
X146226109Y-49535714D02*
X146226109Y-49440476D01*
X146226109Y-49440476D02*
X146249919Y-49392857D01*
X146249919Y-49392857D02*
X146273728Y-49369047D01*
X146273728Y-49369047D02*
X146321347Y-49345238D01*
X146321347Y-49345238D02*
X146440395Y-49345238D01*
X146440395Y-49345238D02*
X146488014Y-49369047D01*
X146488014Y-49369047D02*
X146511823Y-49392857D01*
X146511823Y-49392857D02*
X146535633Y-49440476D01*
X146535633Y-49440476D02*
X146535633Y-49535714D01*
X146535633Y-49535714D02*
X146511823Y-49583333D01*
X146511823Y-49583333D02*
X146488014Y-49607142D01*
X146488014Y-49607142D02*
X146440395Y-49630952D01*
X122802300Y-81158334D02*
X122826109Y-81229762D01*
X122826109Y-81229762D02*
X122826109Y-81348810D01*
X122826109Y-81348810D02*
X122802300Y-81396429D01*
X122802300Y-81396429D02*
X122778490Y-81420238D01*
X122778490Y-81420238D02*
X122730871Y-81444048D01*
X122730871Y-81444048D02*
X122683252Y-81444048D01*
X122683252Y-81444048D02*
X122635633Y-81420238D01*
X122635633Y-81420238D02*
X122611823Y-81396429D01*
X122611823Y-81396429D02*
X122588014Y-81348810D01*
X122588014Y-81348810D02*
X122564204Y-81253572D01*
X122564204Y-81253572D02*
X122540395Y-81205953D01*
X122540395Y-81205953D02*
X122516585Y-81182143D01*
X122516585Y-81182143D02*
X122468966Y-81158334D01*
X122468966Y-81158334D02*
X122421347Y-81158334D01*
X122421347Y-81158334D02*
X122373728Y-81182143D01*
X122373728Y-81182143D02*
X122349919Y-81205953D01*
X122349919Y-81205953D02*
X122326109Y-81253572D01*
X122326109Y-81253572D02*
X122326109Y-81372619D01*
X122326109Y-81372619D02*
X122349919Y-81444048D01*
X122326109Y-81610714D02*
X122826109Y-81729762D01*
X122826109Y-81729762D02*
X122468966Y-81825000D01*
X122468966Y-81825000D02*
X122826109Y-81920238D01*
X122826109Y-81920238D02*
X122326109Y-82039286D01*
X122373728Y-82205953D02*
X122349919Y-82229762D01*
X122349919Y-82229762D02*
X122326109Y-82277381D01*
X122326109Y-82277381D02*
X122326109Y-82396429D01*
X122326109Y-82396429D02*
X122349919Y-82444048D01*
X122349919Y-82444048D02*
X122373728Y-82467857D01*
X122373728Y-82467857D02*
X122421347Y-82491667D01*
X122421347Y-82491667D02*
X122468966Y-82491667D01*
X122468966Y-82491667D02*
X122540395Y-82467857D01*
X122540395Y-82467857D02*
X122826109Y-82182143D01*
X122826109Y-82182143D02*
X122826109Y-82491667D01*
X120090475Y-59002300D02*
X120019047Y-59026109D01*
X120019047Y-59026109D02*
X119899999Y-59026109D01*
X119899999Y-59026109D02*
X119852380Y-59002300D01*
X119852380Y-59002300D02*
X119828571Y-58978490D01*
X119828571Y-58978490D02*
X119804761Y-58930871D01*
X119804761Y-58930871D02*
X119804761Y-58883252D01*
X119804761Y-58883252D02*
X119828571Y-58835633D01*
X119828571Y-58835633D02*
X119852380Y-58811823D01*
X119852380Y-58811823D02*
X119899999Y-58788014D01*
X119899999Y-58788014D02*
X119995237Y-58764204D01*
X119995237Y-58764204D02*
X120042856Y-58740395D01*
X120042856Y-58740395D02*
X120066666Y-58716585D01*
X120066666Y-58716585D02*
X120090475Y-58668966D01*
X120090475Y-58668966D02*
X120090475Y-58621347D01*
X120090475Y-58621347D02*
X120066666Y-58573728D01*
X120066666Y-58573728D02*
X120042856Y-58549919D01*
X120042856Y-58549919D02*
X119995237Y-58526109D01*
X119995237Y-58526109D02*
X119876190Y-58526109D01*
X119876190Y-58526109D02*
X119804761Y-58549919D01*
X119590476Y-59026109D02*
X119590476Y-58526109D01*
X119352381Y-59026109D02*
X119352381Y-58526109D01*
X119352381Y-58526109D02*
X119185714Y-58883252D01*
X119185714Y-58883252D02*
X119019048Y-58526109D01*
X119019048Y-58526109D02*
X119019048Y-59026109D01*
X118400000Y-59026109D02*
X118400000Y-58526109D01*
X118400000Y-58764204D02*
X118114286Y-58764204D01*
X118114286Y-59026109D02*
X118114286Y-58526109D01*
X117780952Y-58526109D02*
X117685714Y-58526109D01*
X117685714Y-58526109D02*
X117638095Y-58549919D01*
X117638095Y-58549919D02*
X117590476Y-58597538D01*
X117590476Y-58597538D02*
X117566666Y-58692776D01*
X117566666Y-58692776D02*
X117566666Y-58859442D01*
X117566666Y-58859442D02*
X117590476Y-58954680D01*
X117590476Y-58954680D02*
X117638095Y-59002300D01*
X117638095Y-59002300D02*
X117685714Y-59026109D01*
X117685714Y-59026109D02*
X117780952Y-59026109D01*
X117780952Y-59026109D02*
X117828571Y-59002300D01*
X117828571Y-59002300D02*
X117876190Y-58954680D01*
X117876190Y-58954680D02*
X117899999Y-58859442D01*
X117899999Y-58859442D02*
X117899999Y-58692776D01*
X117899999Y-58692776D02*
X117876190Y-58597538D01*
X117876190Y-58597538D02*
X117828571Y-58549919D01*
X117828571Y-58549919D02*
X117780952Y-58526109D01*
X117114285Y-59026109D02*
X117352380Y-59026109D01*
X117352380Y-59026109D02*
X117352380Y-58526109D01*
X116947618Y-59026109D02*
X116947618Y-58526109D01*
X116947618Y-58526109D02*
X116828570Y-58526109D01*
X116828570Y-58526109D02*
X116757142Y-58549919D01*
X116757142Y-58549919D02*
X116709523Y-58597538D01*
X116709523Y-58597538D02*
X116685713Y-58645157D01*
X116685713Y-58645157D02*
X116661904Y-58740395D01*
X116661904Y-58740395D02*
X116661904Y-58811823D01*
X116661904Y-58811823D02*
X116685713Y-58907061D01*
X116685713Y-58907061D02*
X116709523Y-58954680D01*
X116709523Y-58954680D02*
X116757142Y-59002300D01*
X116757142Y-59002300D02*
X116828570Y-59026109D01*
X116828570Y-59026109D02*
X116947618Y-59026109D01*
X116447618Y-58764204D02*
X116280951Y-58764204D01*
X116209523Y-59026109D02*
X116447618Y-59026109D01*
X116447618Y-59026109D02*
X116447618Y-58526109D01*
X116447618Y-58526109D02*
X116209523Y-58526109D01*
X115709523Y-59026109D02*
X115876189Y-58788014D01*
X115995237Y-59026109D02*
X115995237Y-58526109D01*
X115995237Y-58526109D02*
X115804761Y-58526109D01*
X115804761Y-58526109D02*
X115757142Y-58549919D01*
X115757142Y-58549919D02*
X115733332Y-58573728D01*
X115733332Y-58573728D02*
X115709523Y-58621347D01*
X115709523Y-58621347D02*
X115709523Y-58692776D01*
X115709523Y-58692776D02*
X115733332Y-58740395D01*
X115733332Y-58740395D02*
X115757142Y-58764204D01*
X115757142Y-58764204D02*
X115804761Y-58788014D01*
X115804761Y-58788014D02*
X115995237Y-58788014D01*
X137726109Y-78078571D02*
X137488014Y-77911905D01*
X137726109Y-77792857D02*
X137226109Y-77792857D01*
X137226109Y-77792857D02*
X137226109Y-77983333D01*
X137226109Y-77983333D02*
X137249919Y-78030952D01*
X137249919Y-78030952D02*
X137273728Y-78054762D01*
X137273728Y-78054762D02*
X137321347Y-78078571D01*
X137321347Y-78078571D02*
X137392776Y-78078571D01*
X137392776Y-78078571D02*
X137440395Y-78054762D01*
X137440395Y-78054762D02*
X137464204Y-78030952D01*
X137464204Y-78030952D02*
X137488014Y-77983333D01*
X137488014Y-77983333D02*
X137488014Y-77792857D01*
X137726109Y-78554762D02*
X137726109Y-78269048D01*
X137726109Y-78411905D02*
X137226109Y-78411905D01*
X137226109Y-78411905D02*
X137297538Y-78364286D01*
X137297538Y-78364286D02*
X137345157Y-78316667D01*
X137345157Y-78316667D02*
X137368966Y-78269048D01*
X137226109Y-78864285D02*
X137226109Y-78911904D01*
X137226109Y-78911904D02*
X137249919Y-78959523D01*
X137249919Y-78959523D02*
X137273728Y-78983333D01*
X137273728Y-78983333D02*
X137321347Y-79007142D01*
X137321347Y-79007142D02*
X137416585Y-79030952D01*
X137416585Y-79030952D02*
X137535633Y-79030952D01*
X137535633Y-79030952D02*
X137630871Y-79007142D01*
X137630871Y-79007142D02*
X137678490Y-78983333D01*
X137678490Y-78983333D02*
X137702300Y-78959523D01*
X137702300Y-78959523D02*
X137726109Y-78911904D01*
X137726109Y-78911904D02*
X137726109Y-78864285D01*
X137726109Y-78864285D02*
X137702300Y-78816666D01*
X137702300Y-78816666D02*
X137678490Y-78792857D01*
X137678490Y-78792857D02*
X137630871Y-78769047D01*
X137630871Y-78769047D02*
X137535633Y-78745238D01*
X137535633Y-78745238D02*
X137416585Y-78745238D01*
X137416585Y-78745238D02*
X137321347Y-78769047D01*
X137321347Y-78769047D02*
X137273728Y-78792857D01*
X137273728Y-78792857D02*
X137249919Y-78816666D01*
X137249919Y-78816666D02*
X137226109Y-78864285D01*
X140678490Y-74916666D02*
X140702300Y-74892857D01*
X140702300Y-74892857D02*
X140726109Y-74821428D01*
X140726109Y-74821428D02*
X140726109Y-74773809D01*
X140726109Y-74773809D02*
X140702300Y-74702381D01*
X140702300Y-74702381D02*
X140654680Y-74654762D01*
X140654680Y-74654762D02*
X140607061Y-74630952D01*
X140607061Y-74630952D02*
X140511823Y-74607143D01*
X140511823Y-74607143D02*
X140440395Y-74607143D01*
X140440395Y-74607143D02*
X140345157Y-74630952D01*
X140345157Y-74630952D02*
X140297538Y-74654762D01*
X140297538Y-74654762D02*
X140249919Y-74702381D01*
X140249919Y-74702381D02*
X140226109Y-74773809D01*
X140226109Y-74773809D02*
X140226109Y-74821428D01*
X140226109Y-74821428D02*
X140249919Y-74892857D01*
X140249919Y-74892857D02*
X140273728Y-74916666D01*
X140226109Y-75083333D02*
X140226109Y-75392857D01*
X140226109Y-75392857D02*
X140416585Y-75226190D01*
X140416585Y-75226190D02*
X140416585Y-75297619D01*
X140416585Y-75297619D02*
X140440395Y-75345238D01*
X140440395Y-75345238D02*
X140464204Y-75369047D01*
X140464204Y-75369047D02*
X140511823Y-75392857D01*
X140511823Y-75392857D02*
X140630871Y-75392857D01*
X140630871Y-75392857D02*
X140678490Y-75369047D01*
X140678490Y-75369047D02*
X140702300Y-75345238D01*
X140702300Y-75345238D02*
X140726109Y-75297619D01*
X140726109Y-75297619D02*
X140726109Y-75154762D01*
X140726109Y-75154762D02*
X140702300Y-75107143D01*
X140702300Y-75107143D02*
X140678490Y-75083333D01*
X128678490Y-55678571D02*
X128702300Y-55654762D01*
X128702300Y-55654762D02*
X128726109Y-55583333D01*
X128726109Y-55583333D02*
X128726109Y-55535714D01*
X128726109Y-55535714D02*
X128702300Y-55464286D01*
X128702300Y-55464286D02*
X128654680Y-55416667D01*
X128654680Y-55416667D02*
X128607061Y-55392857D01*
X128607061Y-55392857D02*
X128511823Y-55369048D01*
X128511823Y-55369048D02*
X128440395Y-55369048D01*
X128440395Y-55369048D02*
X128345157Y-55392857D01*
X128345157Y-55392857D02*
X128297538Y-55416667D01*
X128297538Y-55416667D02*
X128249919Y-55464286D01*
X128249919Y-55464286D02*
X128226109Y-55535714D01*
X128226109Y-55535714D02*
X128226109Y-55583333D01*
X128226109Y-55583333D02*
X128249919Y-55654762D01*
X128249919Y-55654762D02*
X128273728Y-55678571D01*
X128726109Y-56154762D02*
X128726109Y-55869048D01*
X128726109Y-56011905D02*
X128226109Y-56011905D01*
X128226109Y-56011905D02*
X128297538Y-55964286D01*
X128297538Y-55964286D02*
X128345157Y-55916667D01*
X128345157Y-55916667D02*
X128368966Y-55869048D01*
X128440395Y-56440476D02*
X128416585Y-56392857D01*
X128416585Y-56392857D02*
X128392776Y-56369047D01*
X128392776Y-56369047D02*
X128345157Y-56345238D01*
X128345157Y-56345238D02*
X128321347Y-56345238D01*
X128321347Y-56345238D02*
X128273728Y-56369047D01*
X128273728Y-56369047D02*
X128249919Y-56392857D01*
X128249919Y-56392857D02*
X128226109Y-56440476D01*
X128226109Y-56440476D02*
X128226109Y-56535714D01*
X128226109Y-56535714D02*
X128249919Y-56583333D01*
X128249919Y-56583333D02*
X128273728Y-56607142D01*
X128273728Y-56607142D02*
X128321347Y-56630952D01*
X128321347Y-56630952D02*
X128345157Y-56630952D01*
X128345157Y-56630952D02*
X128392776Y-56607142D01*
X128392776Y-56607142D02*
X128416585Y-56583333D01*
X128416585Y-56583333D02*
X128440395Y-56535714D01*
X128440395Y-56535714D02*
X128440395Y-56440476D01*
X128440395Y-56440476D02*
X128464204Y-56392857D01*
X128464204Y-56392857D02*
X128488014Y-56369047D01*
X128488014Y-56369047D02*
X128535633Y-56345238D01*
X128535633Y-56345238D02*
X128630871Y-56345238D01*
X128630871Y-56345238D02*
X128678490Y-56369047D01*
X128678490Y-56369047D02*
X128702300Y-56392857D01*
X128702300Y-56392857D02*
X128726109Y-56440476D01*
X128726109Y-56440476D02*
X128726109Y-56535714D01*
X128726109Y-56535714D02*
X128702300Y-56583333D01*
X128702300Y-56583333D02*
X128678490Y-56607142D01*
X128678490Y-56607142D02*
X128630871Y-56630952D01*
X128630871Y-56630952D02*
X128535633Y-56630952D01*
X128535633Y-56630952D02*
X128488014Y-56607142D01*
X128488014Y-56607142D02*
X128464204Y-56583333D01*
X128464204Y-56583333D02*
X128440395Y-56535714D01*
X128183333Y-61826109D02*
X128349999Y-61588014D01*
X128469047Y-61826109D02*
X128469047Y-61326109D01*
X128469047Y-61326109D02*
X128278571Y-61326109D01*
X128278571Y-61326109D02*
X128230952Y-61349919D01*
X128230952Y-61349919D02*
X128207142Y-61373728D01*
X128207142Y-61373728D02*
X128183333Y-61421347D01*
X128183333Y-61421347D02*
X128183333Y-61492776D01*
X128183333Y-61492776D02*
X128207142Y-61540395D01*
X128207142Y-61540395D02*
X128230952Y-61564204D01*
X128230952Y-61564204D02*
X128278571Y-61588014D01*
X128278571Y-61588014D02*
X128469047Y-61588014D01*
X127945237Y-61826109D02*
X127849999Y-61826109D01*
X127849999Y-61826109D02*
X127802380Y-61802300D01*
X127802380Y-61802300D02*
X127778571Y-61778490D01*
X127778571Y-61778490D02*
X127730952Y-61707061D01*
X127730952Y-61707061D02*
X127707142Y-61611823D01*
X127707142Y-61611823D02*
X127707142Y-61421347D01*
X127707142Y-61421347D02*
X127730952Y-61373728D01*
X127730952Y-61373728D02*
X127754761Y-61349919D01*
X127754761Y-61349919D02*
X127802380Y-61326109D01*
X127802380Y-61326109D02*
X127897618Y-61326109D01*
X127897618Y-61326109D02*
X127945237Y-61349919D01*
X127945237Y-61349919D02*
X127969047Y-61373728D01*
X127969047Y-61373728D02*
X127992856Y-61421347D01*
X127992856Y-61421347D02*
X127992856Y-61540395D01*
X127992856Y-61540395D02*
X127969047Y-61588014D01*
X127969047Y-61588014D02*
X127945237Y-61611823D01*
X127945237Y-61611823D02*
X127897618Y-61635633D01*
X127897618Y-61635633D02*
X127802380Y-61635633D01*
X127802380Y-61635633D02*
X127754761Y-61611823D01*
X127754761Y-61611823D02*
X127730952Y-61588014D01*
X127730952Y-61588014D02*
X127707142Y-61540395D01*
D12*
X139833333Y-82354819D02*
X139833333Y-83069104D01*
X139833333Y-83069104D02*
X139880952Y-83211961D01*
X139880952Y-83211961D02*
X139976190Y-83307200D01*
X139976190Y-83307200D02*
X140119047Y-83354819D01*
X140119047Y-83354819D02*
X140214285Y-83354819D01*
X139452380Y-82354819D02*
X138833333Y-82354819D01*
X138833333Y-82354819D02*
X139166666Y-82735771D01*
X139166666Y-82735771D02*
X139023809Y-82735771D01*
X139023809Y-82735771D02*
X138928571Y-82783390D01*
X138928571Y-82783390D02*
X138880952Y-82831009D01*
X138880952Y-82831009D02*
X138833333Y-82926247D01*
X138833333Y-82926247D02*
X138833333Y-83164342D01*
X138833333Y-83164342D02*
X138880952Y-83259580D01*
X138880952Y-83259580D02*
X138928571Y-83307200D01*
X138928571Y-83307200D02*
X139023809Y-83354819D01*
X139023809Y-83354819D02*
X139309523Y-83354819D01*
X139309523Y-83354819D02*
X139404761Y-83307200D01*
X139404761Y-83307200D02*
X139452380Y-83259580D01*
D10*
X130826109Y-60216666D02*
X130588014Y-60050000D01*
X130826109Y-59930952D02*
X130326109Y-59930952D01*
X130326109Y-59930952D02*
X130326109Y-60121428D01*
X130326109Y-60121428D02*
X130349919Y-60169047D01*
X130349919Y-60169047D02*
X130373728Y-60192857D01*
X130373728Y-60192857D02*
X130421347Y-60216666D01*
X130421347Y-60216666D02*
X130492776Y-60216666D01*
X130492776Y-60216666D02*
X130540395Y-60192857D01*
X130540395Y-60192857D02*
X130564204Y-60169047D01*
X130564204Y-60169047D02*
X130588014Y-60121428D01*
X130588014Y-60121428D02*
X130588014Y-59930952D01*
X130326109Y-60669047D02*
X130326109Y-60430952D01*
X130326109Y-60430952D02*
X130564204Y-60407143D01*
X130564204Y-60407143D02*
X130540395Y-60430952D01*
X130540395Y-60430952D02*
X130516585Y-60478571D01*
X130516585Y-60478571D02*
X130516585Y-60597619D01*
X130516585Y-60597619D02*
X130540395Y-60645238D01*
X130540395Y-60645238D02*
X130564204Y-60669047D01*
X130564204Y-60669047D02*
X130611823Y-60692857D01*
X130611823Y-60692857D02*
X130730871Y-60692857D01*
X130730871Y-60692857D02*
X130778490Y-60669047D01*
X130778490Y-60669047D02*
X130802300Y-60645238D01*
X130802300Y-60645238D02*
X130826109Y-60597619D01*
X130826109Y-60597619D02*
X130826109Y-60478571D01*
X130826109Y-60478571D02*
X130802300Y-60430952D01*
X130802300Y-60430952D02*
X130778490Y-60407143D01*
D12*
X118686666Y-46459580D02*
X118734285Y-46507200D01*
X118734285Y-46507200D02*
X118877142Y-46554819D01*
X118877142Y-46554819D02*
X118972380Y-46554819D01*
X118972380Y-46554819D02*
X119115237Y-46507200D01*
X119115237Y-46507200D02*
X119210475Y-46411961D01*
X119210475Y-46411961D02*
X119258094Y-46316723D01*
X119258094Y-46316723D02*
X119305713Y-46126247D01*
X119305713Y-46126247D02*
X119305713Y-45983390D01*
X119305713Y-45983390D02*
X119258094Y-45792914D01*
X119258094Y-45792914D02*
X119210475Y-45697676D01*
X119210475Y-45697676D02*
X119115237Y-45602438D01*
X119115237Y-45602438D02*
X118972380Y-45554819D01*
X118972380Y-45554819D02*
X118877142Y-45554819D01*
X118877142Y-45554819D02*
X118734285Y-45602438D01*
X118734285Y-45602438D02*
X118686666Y-45650057D01*
X117734285Y-46554819D02*
X118305713Y-46554819D01*
X118019999Y-46554819D02*
X118019999Y-45554819D01*
X118019999Y-45554819D02*
X118115237Y-45697676D01*
X118115237Y-45697676D02*
X118210475Y-45792914D01*
X118210475Y-45792914D02*
X118305713Y-45840533D01*
D10*
X142726109Y-70630952D02*
X142226109Y-70630952D01*
X142226109Y-70630952D02*
X142226109Y-70750000D01*
X142226109Y-70750000D02*
X142249919Y-70821428D01*
X142249919Y-70821428D02*
X142297538Y-70869047D01*
X142297538Y-70869047D02*
X142345157Y-70892857D01*
X142345157Y-70892857D02*
X142440395Y-70916666D01*
X142440395Y-70916666D02*
X142511823Y-70916666D01*
X142511823Y-70916666D02*
X142607061Y-70892857D01*
X142607061Y-70892857D02*
X142654680Y-70869047D01*
X142654680Y-70869047D02*
X142702300Y-70821428D01*
X142702300Y-70821428D02*
X142726109Y-70750000D01*
X142726109Y-70750000D02*
X142726109Y-70630952D01*
X142226109Y-71369047D02*
X142226109Y-71130952D01*
X142226109Y-71130952D02*
X142464204Y-71107143D01*
X142464204Y-71107143D02*
X142440395Y-71130952D01*
X142440395Y-71130952D02*
X142416585Y-71178571D01*
X142416585Y-71178571D02*
X142416585Y-71297619D01*
X142416585Y-71297619D02*
X142440395Y-71345238D01*
X142440395Y-71345238D02*
X142464204Y-71369047D01*
X142464204Y-71369047D02*
X142511823Y-71392857D01*
X142511823Y-71392857D02*
X142630871Y-71392857D01*
X142630871Y-71392857D02*
X142678490Y-71369047D01*
X142678490Y-71369047D02*
X142702300Y-71345238D01*
X142702300Y-71345238D02*
X142726109Y-71297619D01*
X142726109Y-71297619D02*
X142726109Y-71178571D01*
X142726109Y-71178571D02*
X142702300Y-71130952D01*
X142702300Y-71130952D02*
X142678490Y-71107143D01*
D12*
X149933333Y-35054819D02*
X149933333Y-35769104D01*
X149933333Y-35769104D02*
X149980952Y-35911961D01*
X149980952Y-35911961D02*
X150076190Y-36007200D01*
X150076190Y-36007200D02*
X150219047Y-36054819D01*
X150219047Y-36054819D02*
X150314285Y-36054819D01*
X149028571Y-35388152D02*
X149028571Y-36054819D01*
X149266666Y-35007200D02*
X149504761Y-35721485D01*
X149504761Y-35721485D02*
X148885714Y-35721485D01*
D13*
%TO.C,STM32*%
X137578622Y-54401551D02*
X137486699Y-53828794D01*
X137005866Y-54309627D01*
X137578622Y-54401551D01*
G36*
X137578622Y-54401551D02*
G01*
X137005866Y-54309627D01*
X137486699Y-53828794D01*
X137578622Y-54401551D01*
G37*
X141913187Y-59641212D02*
X141594989Y-59323014D01*
X141594989Y-59959410D02*
X141913187Y-59641212D01*
X137126074Y-54854099D02*
X136807876Y-54535901D01*
X136807876Y-64746523D02*
X137126074Y-64428325D01*
X136807876Y-54535901D02*
X136489678Y-54854099D01*
X136489678Y-64428325D02*
X136807876Y-64746523D01*
X132020763Y-59323014D02*
X131702565Y-59641212D01*
X131702565Y-59641212D02*
X132020763Y-59959410D01*
%TO.C,SIM808*%
D14*
X175100000Y-56500000D02*
G75*
G02*
X174900000Y-56500000I-100000J0D01*
G01*
X174900000Y-56500000D02*
G75*
G02*
X175100000Y-56500000I100000J0D01*
G01*
D15*
X173075000Y-76575000D02*
X173075000Y-73120000D01*
X173075000Y-55880000D02*
X173075000Y-52425000D01*
X173075000Y-52425000D02*
X169620000Y-52425000D01*
X169620000Y-76575000D02*
X173075000Y-76575000D01*
X152380000Y-52425000D02*
X148925000Y-52425000D01*
X148925000Y-76575000D02*
X152380000Y-76575000D01*
X148925000Y-73120000D02*
X148925000Y-76575000D01*
X148925000Y-52425000D02*
X148925000Y-55880000D01*
%TO.C,C22*%
D13*
X158627836Y-44385000D02*
X158412164Y-44385000D01*
X158627836Y-45105000D02*
X158412164Y-45105000D01*
%TO.C,C21*%
X158627836Y-42095000D02*
X158412164Y-42095000D01*
X158627836Y-42815000D02*
X158412164Y-42815000D01*
%TO.C,Y1*%
X142770000Y-53100000D02*
X144770000Y-53100000D01*
X142770000Y-53300000D02*
X142770000Y-54300000D01*
X142770000Y-56100000D02*
X142770000Y-56900000D01*
X142770000Y-56900000D02*
X144770000Y-56900000D01*
X144770000Y-53100000D02*
X145170000Y-53100000D01*
X144770000Y-53300000D02*
X142770000Y-53300000D01*
X144770000Y-53300000D02*
X145170000Y-53300000D01*
X144770000Y-56900000D02*
X145170000Y-56900000D01*
X145170000Y-54300000D02*
X145170000Y-53300000D01*
X145170000Y-54300000D02*
X145570000Y-54300000D01*
X145170000Y-56900000D02*
X145170000Y-56100000D01*
%TO.C,R11*%
X127120000Y-58356359D02*
X127120000Y-58663641D01*
X127880000Y-58356359D02*
X127880000Y-58663641D01*
%TO.C,SW3*%
X127965000Y-81490000D02*
X132885000Y-81490000D01*
X127965000Y-81740000D02*
X127965000Y-81490000D01*
X127965000Y-85210000D02*
X127965000Y-84960000D01*
X132885000Y-81740000D02*
X132885000Y-81490000D01*
X132885000Y-85210000D02*
X127965000Y-85210000D01*
X132885000Y-85210000D02*
X132885000Y-84960000D01*
%TO.C,C19*%
X146940000Y-49287836D02*
X146940000Y-49072164D01*
X147660000Y-49287836D02*
X147660000Y-49072164D01*
%TO.C,SW2*%
X117990000Y-84285000D02*
X117990000Y-79365000D01*
X118240000Y-79365000D02*
X117990000Y-79365000D01*
X118240000Y-84285000D02*
X117990000Y-84285000D01*
X121710000Y-79365000D02*
X121460000Y-79365000D01*
X121710000Y-79365000D02*
X121710000Y-84285000D01*
X121710000Y-84285000D02*
X121460000Y-84285000D01*
%TO.C,SIM HOLDER*%
D14*
X108250000Y-59650000D02*
X114750000Y-59650000D01*
X108250000Y-62400000D02*
X108250000Y-59650000D01*
X108250000Y-73500000D02*
X108250000Y-76250000D01*
X108250000Y-76250000D02*
X114750000Y-76250000D01*
X112050000Y-62400000D02*
X108250000Y-62400000D01*
X112050000Y-63230000D02*
X112050000Y-62400000D01*
X112050000Y-64930000D02*
X112050000Y-65730000D01*
X112050000Y-67430000D02*
X112050000Y-68330000D01*
X112050000Y-69930000D02*
X112050000Y-73500000D01*
X112050000Y-73500000D02*
X108250000Y-73500000D01*
X119750000Y-59650000D02*
X124750000Y-59650000D01*
X123720000Y-62400000D02*
X123720000Y-63230000D01*
X123720000Y-69930000D02*
X123720000Y-73500000D01*
X123720000Y-73500000D02*
X124750000Y-73500000D01*
X124750000Y-59650000D02*
X124750000Y-62400000D01*
X124750000Y-62400000D02*
X123720000Y-62400000D01*
X124750000Y-73500000D02*
X124750000Y-76250000D01*
X124750000Y-76250000D02*
X119750000Y-76250000D01*
D16*
X110350000Y-64050000D02*
G75*
G02*
X110150000Y-64050000I-100000J0D01*
G01*
X110150000Y-64050000D02*
G75*
G02*
X110350000Y-64050000I100000J0D01*
G01*
%TO.C,R10*%
D13*
X138120000Y-78143641D02*
X138120000Y-77836359D01*
X138880000Y-78143641D02*
X138880000Y-77836359D01*
%TO.C,C3*%
X135740000Y-69804437D02*
X135740000Y-74260000D01*
X135740000Y-74260000D02*
X137440000Y-74260000D01*
X136502500Y-68187500D02*
X137127500Y-68187500D01*
X136804437Y-68740000D02*
X135740000Y-69804437D01*
X136804437Y-68740000D02*
X137440000Y-68740000D01*
X136815000Y-67875000D02*
X136815000Y-68500000D01*
X140195563Y-68740000D02*
X139560000Y-68740000D01*
X140195563Y-68740000D02*
X141260000Y-69804437D01*
X141260000Y-69804437D02*
X141260000Y-74260000D01*
X141260000Y-74260000D02*
X139560000Y-74260000D01*
%TO.C,C18*%
X127190000Y-56032164D02*
X127190000Y-56247836D01*
X127910000Y-56032164D02*
X127910000Y-56247836D01*
%TO.C,R9*%
X128793641Y-62120000D02*
X128486359Y-62120000D01*
X128793641Y-62880000D02*
X128486359Y-62880000D01*
%TO.C,J3*%
X140850000Y-81800000D02*
X140850000Y-82910000D01*
X141960000Y-81800000D02*
X140850000Y-81800000D01*
X142960000Y-81800000D02*
X142960000Y-84020000D01*
X142960000Y-81800000D02*
X157070000Y-81800000D01*
X142960000Y-84020000D02*
X157070000Y-84020000D01*
X157070000Y-81800000D02*
X157070000Y-84020000D01*
%TO.C,R5*%
X129120000Y-59663641D02*
X129120000Y-59356359D01*
X129880000Y-59663641D02*
X129880000Y-59356359D01*
%TO.C,C1*%
X118627836Y-46900000D02*
X118412164Y-46900000D01*
X118627836Y-47620000D02*
X118412164Y-47620000D01*
%TO.C,D5*%
X143190000Y-68510000D02*
X145410000Y-68510000D01*
X143190000Y-72920000D02*
X143190000Y-68510000D01*
X145410000Y-68510000D02*
X145410000Y-72920000D01*
%TO.C,J4*%
X140850000Y-36800000D02*
X140850000Y-37910000D01*
X141960000Y-36800000D02*
X140850000Y-36800000D01*
X142960000Y-36800000D02*
X142960000Y-39020000D01*
X142960000Y-36800000D02*
X157070000Y-36800000D01*
X142960000Y-39020000D02*
X157070000Y-39020000D01*
X157070000Y-36800000D02*
X157070000Y-39020000D01*
D17*
%TO.C,G\u002A\u002A\u002A*%
G36*
X136297756Y-43397755D02*
G01*
X133299396Y-43397755D01*
X130301037Y-43397755D01*
X130301608Y-40403019D01*
X130301629Y-40294050D01*
X130301653Y-40174850D01*
X130301678Y-40056894D01*
X130301704Y-39940275D01*
X130301730Y-39825083D01*
X130301757Y-39711412D01*
X130301785Y-39599353D01*
X130301813Y-39488998D01*
X130301841Y-39380439D01*
X130301871Y-39273768D01*
X130301900Y-39169077D01*
X130301930Y-39066458D01*
X130301961Y-38966003D01*
X130301991Y-38867804D01*
X130302022Y-38771953D01*
X130302054Y-38678542D01*
X130302085Y-38587663D01*
X130302117Y-38499407D01*
X130302149Y-38413867D01*
X130302181Y-38331135D01*
X130302213Y-38251303D01*
X130302245Y-38174463D01*
X130302277Y-38100706D01*
X130302309Y-38030125D01*
X130302341Y-37962811D01*
X130302373Y-37898857D01*
X130302405Y-37838355D01*
X130302437Y-37781396D01*
X130302468Y-37728073D01*
X130302500Y-37678477D01*
X130302531Y-37632701D01*
X130302561Y-37590836D01*
X130302591Y-37552975D01*
X130302621Y-37519209D01*
X130302651Y-37489631D01*
X130302680Y-37464331D01*
X130302708Y-37443404D01*
X130302736Y-37426939D01*
X130302763Y-37415030D01*
X130302790Y-37407768D01*
X130302797Y-37407075D01*
X130307076Y-37407075D01*
X130307076Y-40400000D01*
X130307076Y-43392924D01*
X133300000Y-43392924D01*
X136292925Y-43392924D01*
X136292925Y-40400000D01*
X136292925Y-37407075D01*
X133300000Y-37407075D01*
X130307076Y-37407075D01*
X130302797Y-37407075D01*
X130302816Y-37405245D01*
X130303735Y-37405145D01*
X130308721Y-37404992D01*
X130318045Y-37404844D01*
X130331718Y-37404699D01*
X130349748Y-37404559D01*
X130372147Y-37404422D01*
X130398924Y-37404289D01*
X130430088Y-37404160D01*
X130465650Y-37404035D01*
X130505619Y-37403914D01*
X130550005Y-37403796D01*
X130598819Y-37403683D01*
X130652070Y-37403573D01*
X130709767Y-37403467D01*
X130771921Y-37403365D01*
X130838542Y-37403267D01*
X130909639Y-37403172D01*
X130985222Y-37403082D01*
X131065301Y-37402995D01*
X131149886Y-37402912D01*
X131238987Y-37402833D01*
X131332614Y-37402758D01*
X131430776Y-37402686D01*
X131533484Y-37402619D01*
X131640747Y-37402555D01*
X131752575Y-37402495D01*
X131868978Y-37402438D01*
X131989966Y-37402386D01*
X132115548Y-37402337D01*
X132245735Y-37402292D01*
X132380536Y-37402251D01*
X132519962Y-37402213D01*
X132664021Y-37402179D01*
X132812725Y-37402149D01*
X132966082Y-37402123D01*
X133124103Y-37402100D01*
X133286797Y-37402082D01*
X133454175Y-37402066D01*
X133626246Y-37402055D01*
X133803020Y-37402047D01*
X133984507Y-37402043D01*
X134170717Y-37402043D01*
X134361660Y-37402047D01*
X134557345Y-37402054D01*
X134757782Y-37402065D01*
X134962981Y-37402079D01*
X135172953Y-37402097D01*
X135387706Y-37402119D01*
X135607252Y-37402145D01*
X135831598Y-37402174D01*
X136060757Y-37402207D01*
X136294736Y-37402244D01*
X136294770Y-37402283D01*
X136294920Y-37403470D01*
X136295065Y-37406357D01*
X136295205Y-37411013D01*
X136295341Y-37417505D01*
X136295472Y-37425903D01*
X136295599Y-37436273D01*
X136295721Y-37448685D01*
X136295839Y-37463205D01*
X136295953Y-37479903D01*
X136296062Y-37498845D01*
X136296167Y-37520101D01*
X136296268Y-37543738D01*
X136296365Y-37569825D01*
X136296458Y-37598429D01*
X136296547Y-37629618D01*
X136296633Y-37663460D01*
X136296714Y-37700024D01*
X136296792Y-37739378D01*
X136296866Y-37781589D01*
X136296937Y-37826726D01*
X136297004Y-37874857D01*
X136297068Y-37926050D01*
X136297129Y-37980372D01*
X136297186Y-38037892D01*
X136297240Y-38098678D01*
X136297291Y-38162798D01*
X136297339Y-38230321D01*
X136297383Y-38301313D01*
X136297425Y-38375843D01*
X136297464Y-38453980D01*
X136297501Y-38535791D01*
X136297534Y-38621344D01*
X136297565Y-38710708D01*
X136297593Y-38803950D01*
X136297619Y-38901139D01*
X136297642Y-39002342D01*
X136297663Y-39107628D01*
X136297682Y-39217064D01*
X136297698Y-39330719D01*
X136297712Y-39448661D01*
X136297724Y-39570958D01*
X136297734Y-39697677D01*
X136297742Y-39828888D01*
X136297748Y-39964657D01*
X136297753Y-40105053D01*
X136297755Y-40250145D01*
X136297756Y-40400000D01*
X136297756Y-43397755D01*
G37*
G36*
X133397446Y-37725032D02*
G01*
X133411012Y-37725179D01*
X133421988Y-37725435D01*
X133430880Y-37725818D01*
X133438196Y-37726348D01*
X133444444Y-37727045D01*
X133450130Y-37727927D01*
X133455761Y-37729015D01*
X133461845Y-37730327D01*
X133490889Y-37738423D01*
X133516521Y-37749345D01*
X133538736Y-37763290D01*
X133557904Y-37780538D01*
X133574397Y-37801369D01*
X133588585Y-37826063D01*
X133592564Y-37834488D01*
X133596664Y-37844152D01*
X133600469Y-37854436D01*
X133604057Y-37865721D01*
X133607505Y-37878386D01*
X133610891Y-37892812D01*
X133614292Y-37909378D01*
X133617785Y-37928464D01*
X133621448Y-37950450D01*
X133625359Y-37975715D01*
X133629595Y-38004640D01*
X133634233Y-38037604D01*
X133639351Y-38074988D01*
X133641651Y-38091919D01*
X133646383Y-38126362D01*
X133650624Y-38156486D01*
X133654447Y-38182618D01*
X133657928Y-38205088D01*
X133661138Y-38224222D01*
X133664152Y-38240350D01*
X133667045Y-38253798D01*
X133669888Y-38264895D01*
X133672758Y-38273970D01*
X133675726Y-38281349D01*
X133678867Y-38287361D01*
X133682255Y-38292334D01*
X133685964Y-38296596D01*
X133690066Y-38300475D01*
X133696833Y-38305870D01*
X133707458Y-38312576D01*
X133720238Y-38318761D01*
X133735704Y-38324619D01*
X133754387Y-38330348D01*
X133776819Y-38336140D01*
X133803529Y-38342192D01*
X133810747Y-38343769D01*
X133839186Y-38350488D01*
X133867062Y-38357968D01*
X133895589Y-38366573D01*
X133925983Y-38376662D01*
X133959458Y-38388598D01*
X133969085Y-38392141D01*
X133996467Y-38402420D01*
X134021872Y-38412324D01*
X134045981Y-38422167D01*
X134069477Y-38432263D01*
X134093043Y-38442926D01*
X134117360Y-38454470D01*
X134143112Y-38467208D01*
X134170980Y-38481455D01*
X134201647Y-38497525D01*
X134235795Y-38515731D01*
X134246685Y-38521560D01*
X134267669Y-38532715D01*
X134288100Y-38543482D01*
X134307364Y-38553542D01*
X134324845Y-38562575D01*
X134339926Y-38570264D01*
X134351991Y-38576287D01*
X134360426Y-38580327D01*
X134389651Y-38593731D01*
X134414838Y-38581485D01*
X134418534Y-38579673D01*
X134433226Y-38572139D01*
X134447802Y-38564069D01*
X134462681Y-38555168D01*
X134478280Y-38545146D01*
X134495020Y-38533712D01*
X134513317Y-38520572D01*
X134533591Y-38505436D01*
X134556261Y-38488012D01*
X134581745Y-38468008D01*
X134610462Y-38445132D01*
X134617634Y-38439393D01*
X134643596Y-38418762D01*
X134666358Y-38400937D01*
X134686294Y-38385650D01*
X134703778Y-38372633D01*
X134719182Y-38361616D01*
X134732880Y-38352332D01*
X134745246Y-38344511D01*
X134756654Y-38337884D01*
X134767475Y-38332184D01*
X134769304Y-38331277D01*
X134791315Y-38321592D01*
X134811959Y-38315168D01*
X134832862Y-38311607D01*
X134855645Y-38310508D01*
X134858975Y-38310529D01*
X134880830Y-38311887D01*
X134901198Y-38315650D01*
X134921665Y-38322203D01*
X134943814Y-38331931D01*
X134945966Y-38332988D01*
X134962239Y-38341660D01*
X134978327Y-38351550D01*
X134994680Y-38363029D01*
X135011750Y-38376467D01*
X135029985Y-38392236D01*
X135049838Y-38410704D01*
X135071759Y-38432244D01*
X135096197Y-38457224D01*
X135102163Y-38463360D01*
X135118547Y-38479788D01*
X135136518Y-38497316D01*
X135154858Y-38514783D01*
X135172354Y-38531025D01*
X135187789Y-38544878D01*
X135198428Y-38554275D01*
X135227952Y-38581280D01*
X135253559Y-38606318D01*
X135275463Y-38629704D01*
X135293877Y-38651753D01*
X135309016Y-38672780D01*
X135321093Y-38693100D01*
X135330322Y-38713028D01*
X135336916Y-38732878D01*
X135341090Y-38752965D01*
X135343057Y-38773605D01*
X135343164Y-38776232D01*
X135343343Y-38790605D01*
X135342661Y-38804284D01*
X135340938Y-38817602D01*
X135337995Y-38830891D01*
X135333654Y-38844484D01*
X135327735Y-38858714D01*
X135320059Y-38873912D01*
X135310447Y-38890412D01*
X135298720Y-38908546D01*
X135284699Y-38928646D01*
X135268205Y-38951045D01*
X135249059Y-38976076D01*
X135227082Y-39004070D01*
X135202094Y-39035360D01*
X135192967Y-39046732D01*
X135172715Y-39072073D01*
X135155150Y-39094236D01*
X135139985Y-39113602D01*
X135126933Y-39130548D01*
X135115706Y-39145455D01*
X135106017Y-39158702D01*
X135097579Y-39170668D01*
X135090104Y-39181733D01*
X135083307Y-39192276D01*
X135082129Y-39194152D01*
X135073732Y-39207933D01*
X135066574Y-39220380D01*
X135061017Y-39230819D01*
X135057419Y-39238581D01*
X135056139Y-39242993D01*
X135056475Y-39244614D01*
X135058788Y-39250639D01*
X135063109Y-39260218D01*
X135069218Y-39272915D01*
X135076895Y-39288297D01*
X135085917Y-39305930D01*
X135096065Y-39325379D01*
X135107117Y-39346210D01*
X135118853Y-39367988D01*
X135131052Y-39390280D01*
X135141168Y-39408676D01*
X135159094Y-39441625D01*
X135174961Y-39471356D01*
X135189056Y-39498477D01*
X135201668Y-39523593D01*
X135213085Y-39547312D01*
X135223597Y-39570239D01*
X135233492Y-39592981D01*
X135243059Y-39616145D01*
X135252587Y-39640337D01*
X135262363Y-39666164D01*
X135266459Y-39677259D01*
X135273268Y-39696270D01*
X135279475Y-39714521D01*
X135285360Y-39732924D01*
X135291200Y-39752391D01*
X135297274Y-39773834D01*
X135303860Y-39798165D01*
X135311236Y-39826295D01*
X135312574Y-39831437D01*
X135318831Y-39854800D01*
X135324404Y-39874060D01*
X135329548Y-39889740D01*
X135334519Y-39902362D01*
X135339572Y-39912448D01*
X135344962Y-39920522D01*
X135350943Y-39927106D01*
X135357771Y-39932722D01*
X135365701Y-39937894D01*
X135370310Y-39940509D01*
X135377191Y-39943895D01*
X135384995Y-39947091D01*
X135394073Y-39950168D01*
X135404779Y-39953199D01*
X135417463Y-39956257D01*
X135432477Y-39959415D01*
X135450172Y-39962746D01*
X135470902Y-39966322D01*
X135495017Y-39970215D01*
X135522870Y-39974500D01*
X135554811Y-39979248D01*
X135591194Y-39984533D01*
X135614381Y-39987882D01*
X135647826Y-39992765D01*
X135677103Y-39997127D01*
X135702594Y-40001044D01*
X135724680Y-40004590D01*
X135743743Y-40007841D01*
X135760165Y-40010872D01*
X135774326Y-40013758D01*
X135786610Y-40016575D01*
X135797397Y-40019398D01*
X135807070Y-40022301D01*
X135816009Y-40025361D01*
X135824596Y-40028653D01*
X135833214Y-40032251D01*
X135855495Y-40043310D01*
X135877696Y-40058370D01*
X135896109Y-40076095D01*
X135911030Y-40096838D01*
X135922756Y-40120948D01*
X135931583Y-40148778D01*
X135931904Y-40150067D01*
X135934235Y-40160177D01*
X135936270Y-40170628D01*
X135938021Y-40181765D01*
X135939499Y-40193934D01*
X135940716Y-40207480D01*
X135941685Y-40222748D01*
X135942417Y-40240083D01*
X135942924Y-40259831D01*
X135943218Y-40282336D01*
X135943311Y-40307944D01*
X135943215Y-40337001D01*
X135942941Y-40369851D01*
X135942502Y-40406839D01*
X135941910Y-40448312D01*
X135941782Y-40456511D01*
X135941336Y-40481782D01*
X135940833Y-40506136D01*
X135940291Y-40529015D01*
X135939725Y-40549859D01*
X135939150Y-40568109D01*
X135938583Y-40583205D01*
X135938040Y-40594589D01*
X135937537Y-40601702D01*
X135936867Y-40607857D01*
X135931074Y-40641136D01*
X135921876Y-40671062D01*
X135909155Y-40697813D01*
X135892793Y-40721566D01*
X135872671Y-40742498D01*
X135848671Y-40760785D01*
X135820676Y-40776605D01*
X135818879Y-40777476D01*
X135804256Y-40784182D01*
X135789192Y-40790345D01*
X135773351Y-40796027D01*
X135756395Y-40801290D01*
X135737987Y-40806196D01*
X135717790Y-40810807D01*
X135695466Y-40815186D01*
X135670679Y-40819393D01*
X135643092Y-40823492D01*
X135612366Y-40827544D01*
X135578165Y-40831611D01*
X135540152Y-40835755D01*
X135497989Y-40840038D01*
X135451339Y-40844523D01*
X135439709Y-40845620D01*
X135418900Y-40847603D01*
X135399899Y-40849440D01*
X135383207Y-40851082D01*
X135369324Y-40852477D01*
X135358751Y-40853576D01*
X135351987Y-40854330D01*
X135349533Y-40854687D01*
X135349343Y-40855169D01*
X135348121Y-40859281D01*
X135346014Y-40866879D01*
X135343252Y-40877120D01*
X135340069Y-40889158D01*
X135331904Y-40919661D01*
X135313210Y-40984728D01*
X135293473Y-41046731D01*
X135272334Y-41106571D01*
X135249428Y-41165150D01*
X135224394Y-41223369D01*
X135196870Y-41282131D01*
X135166494Y-41342337D01*
X135132902Y-41404888D01*
X135125147Y-41419012D01*
X135115649Y-41436472D01*
X135106523Y-41453410D01*
X135098263Y-41468902D01*
X135091366Y-41482023D01*
X135086326Y-41491849D01*
X135086184Y-41492134D01*
X135080422Y-41504034D01*
X135074536Y-41516857D01*
X135068895Y-41529723D01*
X135063867Y-41541751D01*
X135059819Y-41552063D01*
X135057121Y-41559776D01*
X135056139Y-41564012D01*
X135056576Y-41565282D01*
X135059350Y-41570309D01*
X135064373Y-41578432D01*
X135071282Y-41589119D01*
X135079715Y-41601841D01*
X135089310Y-41616065D01*
X135099705Y-41631260D01*
X135110538Y-41646895D01*
X135121447Y-41662440D01*
X135132071Y-41677362D01*
X135142046Y-41691130D01*
X135151011Y-41703214D01*
X135159929Y-41714909D01*
X135172555Y-41731185D01*
X135186734Y-41749229D01*
X135201636Y-41767989D01*
X135216430Y-41786417D01*
X135230286Y-41803461D01*
X135236298Y-41810811D01*
X135256387Y-41835566D01*
X135273621Y-41857184D01*
X135288263Y-41876050D01*
X135300579Y-41892549D01*
X135310835Y-41907065D01*
X135319294Y-41919983D01*
X135326221Y-41931687D01*
X135331883Y-41942561D01*
X135336543Y-41952990D01*
X135340466Y-41963359D01*
X135342997Y-41971304D01*
X135347248Y-41991718D01*
X135348111Y-42012234D01*
X135345474Y-42033184D01*
X135339225Y-42054902D01*
X135329252Y-42077723D01*
X135315443Y-42101981D01*
X135297687Y-42128008D01*
X135275871Y-42156139D01*
X135275042Y-42157141D01*
X135268783Y-42164307D01*
X135259557Y-42174429D01*
X135247741Y-42187118D01*
X135233710Y-42201988D01*
X135217842Y-42218650D01*
X135200512Y-42236716D01*
X135182097Y-42255799D01*
X135162971Y-42275511D01*
X135143513Y-42295463D01*
X135124097Y-42315268D01*
X135105099Y-42334539D01*
X135086897Y-42352886D01*
X135069866Y-42369924D01*
X135054382Y-42385262D01*
X135040821Y-42398515D01*
X135035964Y-42403162D01*
X135007928Y-42427832D01*
X134980025Y-42448778D01*
X134952599Y-42465784D01*
X134925994Y-42478632D01*
X134900551Y-42487107D01*
X134881211Y-42490571D01*
X134857912Y-42491958D01*
X134834581Y-42490785D01*
X134813285Y-42487053D01*
X134810781Y-42486397D01*
X134801392Y-42483615D01*
X134791845Y-42480205D01*
X134781862Y-42475984D01*
X134771162Y-42470770D01*
X134759468Y-42464381D01*
X134746499Y-42456634D01*
X134731977Y-42447347D01*
X134715622Y-42436337D01*
X134697154Y-42423423D01*
X134676295Y-42408422D01*
X134652765Y-42391151D01*
X134626285Y-42371429D01*
X134596576Y-42349073D01*
X134563357Y-42323900D01*
X134562848Y-42323513D01*
X134533212Y-42301341D01*
X134504482Y-42280498D01*
X134477201Y-42261357D01*
X134451913Y-42244293D01*
X134429159Y-42229680D01*
X134409482Y-42217891D01*
X134389673Y-42206581D01*
X134368417Y-42220820D01*
X134361811Y-42225205D01*
X134329151Y-42245782D01*
X134294513Y-42265790D01*
X134257583Y-42285368D01*
X134218050Y-42304650D01*
X134175603Y-42323774D01*
X134129929Y-42342876D01*
X134080717Y-42362092D01*
X134027654Y-42381558D01*
X133970430Y-42401412D01*
X133908731Y-42421788D01*
X133889181Y-42428109D01*
X133853991Y-42439535D01*
X133823002Y-42449678D01*
X133795944Y-42458643D01*
X133772544Y-42466533D01*
X133752530Y-42473452D01*
X133735631Y-42479505D01*
X133721573Y-42484794D01*
X133710086Y-42489424D01*
X133700898Y-42493499D01*
X133693735Y-42497123D01*
X133688328Y-42500398D01*
X133684402Y-42503431D01*
X133681688Y-42506323D01*
X133679912Y-42509179D01*
X133678892Y-42511526D01*
X133675978Y-42519730D01*
X133672399Y-42531237D01*
X133668425Y-42545068D01*
X133664321Y-42560248D01*
X133660356Y-42575800D01*
X133656797Y-42590748D01*
X133653911Y-42604116D01*
X133651145Y-42618545D01*
X133648554Y-42633677D01*
X133646172Y-42649617D01*
X133643917Y-42667036D01*
X133641710Y-42686601D01*
X133639469Y-42708982D01*
X133637115Y-42734848D01*
X133634567Y-42764869D01*
X133634193Y-42769374D01*
X133631349Y-42801766D01*
X133628561Y-42829905D01*
X133625744Y-42854304D01*
X133622810Y-42875471D01*
X133619676Y-42893919D01*
X133616255Y-42910159D01*
X133612462Y-42924700D01*
X133608211Y-42938055D01*
X133603416Y-42950733D01*
X133597645Y-42963421D01*
X133582719Y-42987784D01*
X133564028Y-43009346D01*
X133541911Y-43027751D01*
X133516705Y-43042639D01*
X133509661Y-43045969D01*
X133492650Y-43053041D01*
X133474859Y-43058958D01*
X133455480Y-43063910D01*
X133433702Y-43068087D01*
X133408717Y-43071680D01*
X133379715Y-43074879D01*
X133377581Y-43075006D01*
X133370554Y-43075221D01*
X133359730Y-43075435D01*
X133345752Y-43075638D01*
X133329265Y-43075821D01*
X133310914Y-43075976D01*
X133291342Y-43076094D01*
X133211423Y-43076481D01*
X133209815Y-42710117D01*
X133209637Y-42667587D01*
X133209441Y-42616099D01*
X133209253Y-42562084D01*
X133209076Y-42506214D01*
X133208910Y-42449155D01*
X133208759Y-42391577D01*
X133208622Y-42334149D01*
X133208502Y-42277539D01*
X133208400Y-42222416D01*
X133208318Y-42169449D01*
X133208258Y-42119307D01*
X133208220Y-42072659D01*
X133208208Y-42030173D01*
X133208208Y-41716592D01*
X133202773Y-41715470D01*
X133200809Y-41715202D01*
X133194243Y-41714571D01*
X133184073Y-41713733D01*
X133171040Y-41712746D01*
X133155890Y-41711667D01*
X133139363Y-41710555D01*
X133136174Y-41710347D01*
X133089402Y-41707471D01*
X133047084Y-41705254D01*
X133008902Y-41703730D01*
X132974541Y-41702933D01*
X132943684Y-41702897D01*
X132916013Y-41703658D01*
X132891213Y-41705249D01*
X132868966Y-41707705D01*
X132848955Y-41711061D01*
X132830865Y-41715351D01*
X132814377Y-41720609D01*
X132799176Y-41726870D01*
X132784945Y-41734168D01*
X132771366Y-41742538D01*
X132758124Y-41752014D01*
X132756393Y-41753397D01*
X132749788Y-41759160D01*
X132740577Y-41767637D01*
X132729320Y-41778296D01*
X132716574Y-41790605D01*
X132702900Y-41804030D01*
X132688854Y-41818040D01*
X132685914Y-41820991D01*
X132675776Y-41831111D01*
X132662587Y-41844218D01*
X132646636Y-41860026D01*
X132628214Y-41878249D01*
X132607612Y-41898600D01*
X132585121Y-41920791D01*
X132561030Y-41944538D01*
X132535631Y-41969552D01*
X132509215Y-41995548D01*
X132482070Y-42022238D01*
X132454489Y-42049337D01*
X132426762Y-42076557D01*
X132416533Y-42086594D01*
X132388799Y-42113811D01*
X132361298Y-42140800D01*
X132334323Y-42167273D01*
X132308167Y-42192943D01*
X132283121Y-42217525D01*
X132259478Y-42240731D01*
X132237531Y-42262274D01*
X132217570Y-42281868D01*
X132199889Y-42299225D01*
X132184779Y-42314059D01*
X132172534Y-42326084D01*
X132163444Y-42335011D01*
X132152050Y-42346183D01*
X132138473Y-42359388D01*
X132127481Y-42369880D01*
X132118588Y-42378073D01*
X132111312Y-42384383D01*
X132105167Y-42389224D01*
X132099669Y-42393012D01*
X132094333Y-42396162D01*
X132088676Y-42399088D01*
X132069485Y-42408568D01*
X131959459Y-42408568D01*
X131950216Y-42408569D01*
X131925743Y-42408583D01*
X131905448Y-42408631D01*
X131888841Y-42408735D01*
X131875435Y-42408915D01*
X131864739Y-42409192D01*
X131856266Y-42409586D01*
X131849525Y-42410117D01*
X131844028Y-42410808D01*
X131839286Y-42411678D01*
X131834809Y-42412748D01*
X131830110Y-42414039D01*
X131828361Y-42414539D01*
X131814514Y-42418979D01*
X131802284Y-42424038D01*
X131790387Y-42430392D01*
X131777544Y-42438717D01*
X131762473Y-42449687D01*
X131751381Y-42457792D01*
X131735058Y-42468438D01*
X131719473Y-42476663D01*
X131703122Y-42483221D01*
X131684500Y-42488870D01*
X131683735Y-42489075D01*
X131674452Y-42491417D01*
X131666191Y-42493078D01*
X131657781Y-42494172D01*
X131648051Y-42494812D01*
X131635832Y-42495115D01*
X131619953Y-42495195D01*
X131613704Y-42495190D01*
X131599677Y-42495079D01*
X131588983Y-42494732D01*
X131580527Y-42494036D01*
X131573217Y-42492876D01*
X131565959Y-42491138D01*
X131557659Y-42488710D01*
X131528472Y-42477764D01*
X131499349Y-42462146D01*
X131473276Y-42442898D01*
X131450456Y-42420223D01*
X131431092Y-42394326D01*
X131415388Y-42365412D01*
X131403547Y-42333685D01*
X131401329Y-42324508D01*
X131398868Y-42308428D01*
X131397314Y-42290311D01*
X131396747Y-42271763D01*
X131397246Y-42254390D01*
X131398891Y-42239801D01*
X131406301Y-42210382D01*
X131418360Y-42180954D01*
X131434476Y-42153590D01*
X131454295Y-42129000D01*
X131474544Y-42109641D01*
X131499512Y-42091251D01*
X131526980Y-42076562D01*
X131557659Y-42065135D01*
X131561873Y-42063868D01*
X131569423Y-42061818D01*
X131576488Y-42060384D01*
X131584131Y-42059454D01*
X131593415Y-42058921D01*
X131605404Y-42058676D01*
X131621161Y-42058607D01*
X131634748Y-42058649D01*
X131648042Y-42058900D01*
X131658428Y-42059456D01*
X131666967Y-42060410D01*
X131674723Y-42061852D01*
X131682758Y-42063872D01*
X131687423Y-42065207D01*
X131705675Y-42071654D01*
X131723518Y-42080150D01*
X131742076Y-42091284D01*
X131762473Y-42105646D01*
X131766396Y-42108550D01*
X131781499Y-42119198D01*
X131794406Y-42127175D01*
X131806174Y-42133021D01*
X131817857Y-42137275D01*
X131830509Y-42140479D01*
X131843556Y-42142494D01*
X131860780Y-42143675D01*
X131879601Y-42143765D01*
X131898956Y-42142847D01*
X131917778Y-42140999D01*
X131935002Y-42138303D01*
X131949564Y-42134839D01*
X131960399Y-42130686D01*
X131966179Y-42127557D01*
X131981253Y-42118397D01*
X131998481Y-42106646D01*
X132017935Y-42092239D01*
X132039689Y-42075108D01*
X132063815Y-42055188D01*
X132090385Y-42032413D01*
X132119472Y-42006717D01*
X132151148Y-41978034D01*
X132185486Y-41946297D01*
X132222559Y-41911441D01*
X132262438Y-41873399D01*
X132305197Y-41832106D01*
X132350908Y-41787495D01*
X132399643Y-41739501D01*
X132451475Y-41688056D01*
X132506477Y-41633096D01*
X132509521Y-41630045D01*
X132532816Y-41606751D01*
X132555368Y-41584284D01*
X132576910Y-41562904D01*
X132597177Y-41542871D01*
X132615903Y-41524446D01*
X132632823Y-41507890D01*
X132647669Y-41493461D01*
X132660176Y-41481421D01*
X132670079Y-41472030D01*
X132677112Y-41465548D01*
X132681007Y-41462236D01*
X132681207Y-41462089D01*
X132685609Y-41458790D01*
X132689489Y-41455880D01*
X132693164Y-41453336D01*
X132696948Y-41451135D01*
X132701156Y-41449254D01*
X132706102Y-41447669D01*
X132712102Y-41446357D01*
X132719470Y-41445295D01*
X132728521Y-41444461D01*
X132739570Y-41443829D01*
X132752931Y-41443379D01*
X132768920Y-41443086D01*
X132787851Y-41442926D01*
X132810040Y-41442878D01*
X132835800Y-41442918D01*
X132865447Y-41443022D01*
X132899296Y-41443167D01*
X132937661Y-41443331D01*
X132965509Y-41443455D01*
X132997253Y-41443624D01*
X133027716Y-41443816D01*
X133056506Y-41444026D01*
X133083227Y-41444250D01*
X133107485Y-41444485D01*
X133128885Y-41444727D01*
X133147033Y-41444971D01*
X133161533Y-41445215D01*
X133171991Y-41445454D01*
X133178013Y-41445684D01*
X133202169Y-41447161D01*
X133207412Y-41543785D01*
X133207735Y-41549761D01*
X133208876Y-41571006D01*
X133209930Y-41590901D01*
X133210866Y-41608865D01*
X133211655Y-41624320D01*
X133212268Y-41636687D01*
X133212675Y-41645388D01*
X133212847Y-41649844D01*
X133213039Y-41659280D01*
X133248669Y-41657727D01*
X133277658Y-41656187D01*
X133358285Y-41648970D01*
X133437636Y-41637544D01*
X133515485Y-41621983D01*
X133591605Y-41602366D01*
X133665773Y-41578768D01*
X133737762Y-41551265D01*
X133807348Y-41519934D01*
X133874304Y-41484850D01*
X133938406Y-41446091D01*
X133999427Y-41403732D01*
X134040896Y-41371325D01*
X134094109Y-41324863D01*
X134144958Y-41274845D01*
X134192858Y-41221889D01*
X134237224Y-41166612D01*
X134277473Y-41109633D01*
X134287135Y-41094734D01*
X134325319Y-41030495D01*
X134359809Y-40963440D01*
X134390448Y-40893984D01*
X134417075Y-40822545D01*
X134439532Y-40749539D01*
X134457661Y-40675383D01*
X134471304Y-40600494D01*
X134475477Y-40570199D01*
X134482043Y-40503609D01*
X134485403Y-40435472D01*
X134485540Y-40367064D01*
X134482437Y-40299658D01*
X134476078Y-40234531D01*
X134466662Y-40171539D01*
X134451022Y-40094780D01*
X134431073Y-40019802D01*
X134406887Y-39946764D01*
X134378534Y-39875824D01*
X134346084Y-39807142D01*
X134309608Y-39740876D01*
X134269175Y-39677185D01*
X134224857Y-39616228D01*
X134176723Y-39558164D01*
X134166650Y-39547073D01*
X134152280Y-39531897D01*
X134136167Y-39515414D01*
X134119140Y-39498439D01*
X134102030Y-39481790D01*
X134085665Y-39466281D01*
X134070877Y-39452728D01*
X134058494Y-39441947D01*
X134034192Y-39422118D01*
X133972861Y-39376348D01*
X133909149Y-39334726D01*
X133842987Y-39297216D01*
X133774304Y-39263784D01*
X133703031Y-39234393D01*
X133629096Y-39209009D01*
X133552430Y-39187597D01*
X133531135Y-39182515D01*
X133493592Y-39174482D01*
X133454338Y-39167119D01*
X133414273Y-39160549D01*
X133374295Y-39154894D01*
X133335303Y-39150279D01*
X133298196Y-39146826D01*
X133263874Y-39144659D01*
X133233235Y-39143899D01*
X133213574Y-39143889D01*
X133212020Y-39196429D01*
X133211517Y-39212943D01*
X133210832Y-39234518D01*
X133210099Y-39256742D01*
X133209379Y-39277790D01*
X133208733Y-39295836D01*
X133207000Y-39342703D01*
X133198209Y-39345740D01*
X133195452Y-39346584D01*
X133187354Y-39348640D01*
X133176880Y-39350968D01*
X133165599Y-39353208D01*
X133163975Y-39353504D01*
X133159348Y-39354263D01*
X133154342Y-39354926D01*
X133148615Y-39355498D01*
X133141825Y-39355987D01*
X133133629Y-39356400D01*
X133123684Y-39356743D01*
X133111648Y-39357024D01*
X133097179Y-39357251D01*
X133079933Y-39357429D01*
X133059569Y-39357566D01*
X133035744Y-39357669D01*
X133008115Y-39357745D01*
X132976340Y-39357802D01*
X132940076Y-39357845D01*
X132924207Y-39357855D01*
X132893367Y-39357837D01*
X132863753Y-39357771D01*
X132835765Y-39357662D01*
X132809805Y-39357512D01*
X132786273Y-39357325D01*
X132765569Y-39357105D01*
X132748094Y-39356854D01*
X132734249Y-39356577D01*
X132724434Y-39356276D01*
X132719049Y-39355956D01*
X132713452Y-39355364D01*
X132708054Y-39354721D01*
X132703020Y-39353875D01*
X132698111Y-39352629D01*
X132693086Y-39350785D01*
X132687705Y-39348147D01*
X132681728Y-39344519D01*
X132674915Y-39339702D01*
X132667026Y-39333501D01*
X132657821Y-39325718D01*
X132647059Y-39316157D01*
X132634501Y-39304620D01*
X132619906Y-39290910D01*
X132603034Y-39274832D01*
X132583645Y-39256187D01*
X132561499Y-39234779D01*
X132536355Y-39210412D01*
X132507975Y-39182887D01*
X132501727Y-39176829D01*
X132474393Y-39150328D01*
X132445608Y-39122429D01*
X132415920Y-39093659D01*
X132385873Y-39064548D01*
X132356016Y-39035626D01*
X132326893Y-39007422D01*
X132299052Y-38980464D01*
X132273039Y-38955283D01*
X132249401Y-38932408D01*
X132228683Y-38912367D01*
X132225603Y-38909388D01*
X132203912Y-38888373D01*
X132182051Y-38867138D01*
X132160475Y-38846130D01*
X132139641Y-38825794D01*
X132120006Y-38806578D01*
X132102025Y-38788928D01*
X132086155Y-38773289D01*
X132072852Y-38760110D01*
X132062573Y-38749835D01*
X132057790Y-38745029D01*
X132039502Y-38726911D01*
X132023808Y-38711917D01*
X132010191Y-38699671D01*
X131998134Y-38689795D01*
X131987122Y-38681914D01*
X131976637Y-38675650D01*
X131966163Y-38670627D01*
X131955184Y-38666469D01*
X131943182Y-38662799D01*
X131929782Y-38659913D01*
X131908472Y-38657764D01*
X131884864Y-38657663D01*
X131860131Y-38659555D01*
X131835450Y-38663382D01*
X131811993Y-38669090D01*
X131804892Y-38671369D01*
X131792149Y-38676451D01*
X131778528Y-38683244D01*
X131763103Y-38692228D01*
X131744945Y-38703885D01*
X131735889Y-38709824D01*
X131717217Y-38721466D01*
X131701044Y-38730485D01*
X131686549Y-38737238D01*
X131672910Y-38742083D01*
X131659308Y-38745376D01*
X131644921Y-38747477D01*
X131620724Y-38748209D01*
X131593965Y-38745497D01*
X131566574Y-38739580D01*
X131539720Y-38730775D01*
X131514576Y-38719403D01*
X131492312Y-38705784D01*
X131480536Y-38696560D01*
X131461421Y-38678314D01*
X131443719Y-38657506D01*
X131428504Y-38635449D01*
X131416847Y-38613455D01*
X131414713Y-38608464D01*
X131404730Y-38578262D01*
X131399208Y-38547291D01*
X131398063Y-38516074D01*
X131401212Y-38485132D01*
X131408572Y-38454987D01*
X131420059Y-38426160D01*
X131435590Y-38399172D01*
X131455080Y-38374547D01*
X131473098Y-38357092D01*
X131498770Y-38338041D01*
X131526909Y-38323009D01*
X131557224Y-38312120D01*
X131589427Y-38305497D01*
X131623227Y-38303262D01*
X131628470Y-38303307D01*
X131645066Y-38304211D01*
X131660478Y-38306504D01*
X131675513Y-38310481D01*
X131690974Y-38316438D01*
X131707669Y-38324673D01*
X131726402Y-38335481D01*
X131747979Y-38349158D01*
X131758954Y-38356190D01*
X131772193Y-38364333D01*
X131784460Y-38371533D01*
X131794746Y-38377201D01*
X131802042Y-38380748D01*
X131808281Y-38383241D01*
X131819526Y-38387064D01*
X131831408Y-38390141D01*
X131844449Y-38392511D01*
X131859170Y-38394214D01*
X131876094Y-38395290D01*
X131895742Y-38395780D01*
X131918637Y-38395723D01*
X131945300Y-38395161D01*
X131976253Y-38394131D01*
X131977709Y-38394077D01*
X132000431Y-38393381D01*
X132020533Y-38393235D01*
X132038474Y-38393867D01*
X132054711Y-38395503D01*
X132069702Y-38398370D01*
X132083903Y-38402696D01*
X132097773Y-38408707D01*
X132111769Y-38416630D01*
X132126348Y-38426693D01*
X132141969Y-38439122D01*
X132159088Y-38454145D01*
X132178164Y-38471987D01*
X132199653Y-38492877D01*
X132224014Y-38517041D01*
X132235165Y-38528270D01*
X132250053Y-38543470D01*
X132267275Y-38561220D01*
X132286332Y-38581000D01*
X132306727Y-38602290D01*
X132327963Y-38624571D01*
X132349544Y-38647325D01*
X132370970Y-38670032D01*
X132391747Y-38692173D01*
X132400021Y-38701007D01*
X132431912Y-38734858D01*
X132463389Y-38767964D01*
X132494171Y-38800040D01*
X132523976Y-38830802D01*
X132552523Y-38859963D01*
X132579529Y-38887240D01*
X132604714Y-38912347D01*
X132627796Y-38935001D01*
X132648493Y-38954915D01*
X132666524Y-38971806D01*
X132681608Y-38985388D01*
X132699440Y-39000725D01*
X132729416Y-39025128D01*
X132757099Y-39045808D01*
X132782385Y-39062694D01*
X132805173Y-39075717D01*
X132825361Y-39084805D01*
X132827853Y-39085690D01*
X132837178Y-39088267D01*
X132848659Y-39090411D01*
X132862629Y-39092136D01*
X132879420Y-39093462D01*
X132899367Y-39094404D01*
X132922803Y-39094980D01*
X132950061Y-39095207D01*
X132981474Y-39095102D01*
X133017375Y-39094683D01*
X133026544Y-39094535D01*
X133048032Y-39094110D01*
X133070088Y-39093577D01*
X133092172Y-39092958D01*
X133113744Y-39092274D01*
X133134264Y-39091545D01*
X133153193Y-39090792D01*
X133169990Y-39090036D01*
X133184117Y-39089299D01*
X133195032Y-39088601D01*
X133202197Y-39087962D01*
X133205072Y-39087405D01*
X133205094Y-39086811D01*
X133205153Y-39082095D01*
X133205227Y-39072835D01*
X133205317Y-39059224D01*
X133205422Y-39041456D01*
X133205540Y-39019722D01*
X133205671Y-38994217D01*
X133205814Y-38965133D01*
X133205968Y-38932662D01*
X133206132Y-38896999D01*
X133206305Y-38858335D01*
X133206487Y-38816865D01*
X133206677Y-38772780D01*
X133206873Y-38726274D01*
X133207075Y-38677539D01*
X133207282Y-38626770D01*
X133207494Y-38574158D01*
X133207708Y-38519896D01*
X133207925Y-38464178D01*
X133208143Y-38407197D01*
X133208250Y-38379257D01*
X133208471Y-38322859D01*
X133208694Y-38267815D01*
X133208917Y-38214319D01*
X133209140Y-38162563D01*
X133209361Y-38112741D01*
X133209580Y-38065045D01*
X133209795Y-38019670D01*
X133210006Y-37976807D01*
X133210211Y-37936652D01*
X133210409Y-37899395D01*
X133210600Y-37865231D01*
X133210782Y-37834354D01*
X133210955Y-37806955D01*
X133211116Y-37783228D01*
X133211267Y-37763367D01*
X133211404Y-37747564D01*
X133211528Y-37736013D01*
X133211637Y-37728906D01*
X133211730Y-37726438D01*
X133213814Y-37726248D01*
X133220292Y-37726036D01*
X133230689Y-37725830D01*
X133244523Y-37725634D01*
X133261312Y-37725456D01*
X133280577Y-37725300D01*
X133301836Y-37725173D01*
X133324608Y-37725080D01*
X133336133Y-37725045D01*
X133360513Y-37724984D01*
X133380782Y-37724973D01*
X133397446Y-37725032D01*
G37*
G36*
X132843604Y-40850179D02*
G01*
X132892913Y-40850348D01*
X132939460Y-40850675D01*
X132983038Y-40851156D01*
X133023440Y-40851788D01*
X133060460Y-40852569D01*
X133093890Y-40853496D01*
X133123525Y-40854564D01*
X133149157Y-40855772D01*
X133170579Y-40857117D01*
X133187585Y-40858595D01*
X133199969Y-40860204D01*
X133207431Y-40861452D01*
X133208916Y-40987621D01*
X133209023Y-40997126D01*
X133209246Y-41020851D01*
X133209392Y-41042930D01*
X133209463Y-41062906D01*
X133209458Y-41080326D01*
X133209378Y-41094734D01*
X133209225Y-41105676D01*
X133208999Y-41112697D01*
X133208700Y-41115341D01*
X133208080Y-41115646D01*
X133203220Y-41116606D01*
X133194111Y-41117685D01*
X133181178Y-41118853D01*
X133164851Y-41120080D01*
X133145556Y-41121334D01*
X133123721Y-41122585D01*
X133099774Y-41123803D01*
X133074142Y-41124956D01*
X133057672Y-41125514D01*
X133035337Y-41126002D01*
X133009094Y-41126359D01*
X132979424Y-41126590D01*
X132946811Y-41126698D01*
X132911737Y-41126687D01*
X132874685Y-41126560D01*
X132836137Y-41126321D01*
X132796577Y-41125974D01*
X132756487Y-41125522D01*
X132716349Y-41124970D01*
X132676646Y-41124321D01*
X132637861Y-41123578D01*
X132600477Y-41122745D01*
X132564976Y-41121826D01*
X132531841Y-41120824D01*
X132504306Y-41120003D01*
X132474479Y-41119261D01*
X132442800Y-41118599D01*
X132409683Y-41118019D01*
X132375549Y-41117522D01*
X132340814Y-41117110D01*
X132305896Y-41116784D01*
X132271213Y-41116545D01*
X132237182Y-41116394D01*
X132204222Y-41116333D01*
X132172750Y-41116364D01*
X132143184Y-41116487D01*
X132115942Y-41116703D01*
X132091440Y-41117015D01*
X132070098Y-41117423D01*
X132052333Y-41117929D01*
X132038563Y-41118534D01*
X132029205Y-41119239D01*
X132017867Y-41120672D01*
X131997891Y-41124447D01*
X131979083Y-41129906D01*
X131960976Y-41137351D01*
X131943102Y-41147082D01*
X131924994Y-41159401D01*
X131906187Y-41174608D01*
X131886211Y-41193005D01*
X131864602Y-41214892D01*
X131840891Y-41240569D01*
X131836459Y-41245420D01*
X131825205Y-41257371D01*
X131811317Y-41271753D01*
X131795385Y-41287973D01*
X131777996Y-41305439D01*
X131759738Y-41323560D01*
X131741198Y-41341743D01*
X131722965Y-41359395D01*
X131716669Y-41365449D01*
X131676027Y-41404660D01*
X131637855Y-41441719D01*
X131602253Y-41476525D01*
X131569320Y-41508979D01*
X131539157Y-41538979D01*
X131511862Y-41566424D01*
X131487535Y-41591214D01*
X131466276Y-41613248D01*
X131448185Y-41632426D01*
X131433361Y-41648646D01*
X131421904Y-41661808D01*
X131413913Y-41671811D01*
X131413628Y-41672197D01*
X131409046Y-41678744D01*
X131404591Y-41685934D01*
X131399943Y-41694405D01*
X131394785Y-41704801D01*
X131388796Y-41717761D01*
X131381657Y-41733928D01*
X131373051Y-41753942D01*
X131369928Y-41761212D01*
X131359008Y-41785584D01*
X131348958Y-41806002D01*
X131339389Y-41823005D01*
X131329914Y-41837129D01*
X131320143Y-41848912D01*
X131309688Y-41858892D01*
X131298162Y-41867606D01*
X131285175Y-41875593D01*
X131278794Y-41878941D01*
X131260103Y-41886828D01*
X131238409Y-41893790D01*
X131215005Y-41899443D01*
X131191184Y-41903406D01*
X131190488Y-41903488D01*
X131180893Y-41903984D01*
X131168164Y-41903871D01*
X131153802Y-41903235D01*
X131139308Y-41902163D01*
X131126185Y-41900742D01*
X131115935Y-41899058D01*
X131092185Y-41892427D01*
X131064057Y-41880314D01*
X131038082Y-41864349D01*
X131014567Y-41844923D01*
X130993821Y-41822430D01*
X130976152Y-41797261D01*
X130961867Y-41769810D01*
X130951274Y-41740470D01*
X130944681Y-41709632D01*
X130942396Y-41677690D01*
X130943737Y-41653487D01*
X130949480Y-41623025D01*
X130959542Y-41594161D01*
X130973700Y-41567187D01*
X130991733Y-41542399D01*
X131013420Y-41520089D01*
X131038538Y-41500552D01*
X131066867Y-41484083D01*
X131098184Y-41470975D01*
X131103956Y-41469031D01*
X131110444Y-41467136D01*
X131116821Y-41465809D01*
X131124076Y-41464941D01*
X131133196Y-41464422D01*
X131145172Y-41464143D01*
X131160989Y-41463992D01*
X131168150Y-41463936D01*
X131182399Y-41463727D01*
X131193098Y-41463342D01*
X131201151Y-41462690D01*
X131207464Y-41461681D01*
X131212942Y-41460224D01*
X131218489Y-41458227D01*
X131222770Y-41456410D01*
X131236059Y-41449492D01*
X131250944Y-41440259D01*
X131266135Y-41429550D01*
X131280338Y-41418198D01*
X131283385Y-41415424D01*
X131290030Y-41409101D01*
X131299629Y-41399810D01*
X131311928Y-41387803D01*
X131326676Y-41373331D01*
X131343620Y-41356644D01*
X131362508Y-41337995D01*
X131383088Y-41317635D01*
X131405108Y-41295815D01*
X131428316Y-41272786D01*
X131452460Y-41248799D01*
X131477287Y-41224107D01*
X131502545Y-41198959D01*
X131527983Y-41173609D01*
X131553347Y-41148306D01*
X131578387Y-41123302D01*
X131602849Y-41098849D01*
X131626481Y-41075198D01*
X131649032Y-41052600D01*
X131670250Y-41031306D01*
X131689881Y-41011568D01*
X131707674Y-40993637D01*
X131723378Y-40977765D01*
X131736738Y-40964202D01*
X131747504Y-40953201D01*
X131755424Y-40945011D01*
X131760245Y-40939886D01*
X131764886Y-40934795D01*
X131774812Y-40924027D01*
X131784134Y-40914064D01*
X131791977Y-40905836D01*
X131797468Y-40900272D01*
X131798676Y-40899105D01*
X131814402Y-40885949D01*
X131831327Y-40875720D01*
X131850296Y-40868071D01*
X131872154Y-40862656D01*
X131897746Y-40859127D01*
X131900091Y-40858950D01*
X131908393Y-40858567D01*
X131920918Y-40858177D01*
X131937252Y-40857786D01*
X131956984Y-40857402D01*
X131979700Y-40857030D01*
X132004988Y-40856678D01*
X132032435Y-40856350D01*
X132061629Y-40856055D01*
X132092156Y-40855798D01*
X132123605Y-40855586D01*
X132128793Y-40855555D01*
X132161640Y-40855342D01*
X132198487Y-40855078D01*
X132238629Y-40854769D01*
X132281358Y-40854422D01*
X132325965Y-40854043D01*
X132371744Y-40853637D01*
X132417986Y-40853213D01*
X132463984Y-40852774D01*
X132509030Y-40852329D01*
X132552418Y-40851883D01*
X132593438Y-40851441D01*
X132622876Y-40851136D01*
X132681168Y-40850646D01*
X132737525Y-40850325D01*
X132791739Y-40850170D01*
X132843604Y-40850179D01*
G37*
G36*
X133682433Y-40435002D02*
G01*
X133678903Y-40472461D01*
X133672109Y-40507471D01*
X133668972Y-40519213D01*
X133655590Y-40558811D01*
X133638719Y-40595070D01*
X133618349Y-40628003D01*
X133594471Y-40657620D01*
X133567077Y-40683934D01*
X133536157Y-40706956D01*
X133501703Y-40726698D01*
X133483764Y-40734750D01*
X133455755Y-40744566D01*
X133425711Y-40752302D01*
X133395154Y-40757517D01*
X133384501Y-40758427D01*
X133368749Y-40758931D01*
X133350837Y-40758869D01*
X133332160Y-40758286D01*
X133314116Y-40757229D01*
X133298100Y-40755743D01*
X133285507Y-40753877D01*
X133278431Y-40752419D01*
X133240476Y-40742091D01*
X133204659Y-40728061D01*
X133171436Y-40710560D01*
X133141261Y-40689825D01*
X133114590Y-40666088D01*
X133103239Y-40653792D01*
X133081623Y-40625538D01*
X133062740Y-40593967D01*
X133046905Y-40559719D01*
X133034434Y-40523434D01*
X133025643Y-40485753D01*
X133024318Y-40477259D01*
X133022274Y-40457938D01*
X133020934Y-40435985D01*
X133020507Y-40419762D01*
X133114441Y-40419762D01*
X133116805Y-40455271D01*
X133122135Y-40489560D01*
X133130414Y-40521754D01*
X133141626Y-40550974D01*
X133145586Y-40559126D01*
X133162338Y-40586929D01*
X133182574Y-40611811D01*
X133205894Y-40633437D01*
X133231895Y-40651470D01*
X133260177Y-40665576D01*
X133290338Y-40675418D01*
X133292051Y-40675824D01*
X133307528Y-40678559D01*
X133325708Y-40680497D01*
X133345109Y-40681586D01*
X133364246Y-40681771D01*
X133381637Y-40681000D01*
X133395799Y-40679219D01*
X133399151Y-40678555D01*
X133431714Y-40669575D01*
X133461706Y-40656600D01*
X133488954Y-40639824D01*
X133513285Y-40619437D01*
X133534524Y-40595631D01*
X133552499Y-40568598D01*
X133567037Y-40538529D01*
X133577963Y-40505617D01*
X133585105Y-40470052D01*
X133585560Y-40466354D01*
X133586566Y-40453381D01*
X133587214Y-40437325D01*
X133587503Y-40419457D01*
X133587433Y-40401050D01*
X133587006Y-40383375D01*
X133586220Y-40367704D01*
X133585077Y-40355311D01*
X133584609Y-40351743D01*
X133578811Y-40317581D01*
X133571031Y-40287407D01*
X133561064Y-40260755D01*
X133548707Y-40237160D01*
X133533757Y-40216155D01*
X133516010Y-40197275D01*
X133515782Y-40197062D01*
X133489432Y-40175691D01*
X133460804Y-40158540D01*
X133430165Y-40145718D01*
X133397777Y-40137338D01*
X133363906Y-40133509D01*
X133359130Y-40133336D01*
X133324742Y-40134410D01*
X133292525Y-40139728D01*
X133262210Y-40149371D01*
X133233531Y-40163422D01*
X133206221Y-40181962D01*
X133188351Y-40197644D01*
X133168117Y-40220919D01*
X133150954Y-40247773D01*
X133136742Y-40278375D01*
X133134943Y-40283090D01*
X133125292Y-40314699D01*
X133118668Y-40348599D01*
X133115056Y-40383913D01*
X133114441Y-40419762D01*
X133020507Y-40419762D01*
X133020324Y-40412817D01*
X133020472Y-40389853D01*
X133021401Y-40368512D01*
X133023140Y-40350212D01*
X133027099Y-40325439D01*
X133036976Y-40284484D01*
X133050554Y-40246497D01*
X133067742Y-40211578D01*
X133088451Y-40179827D01*
X133112592Y-40151344D01*
X133140074Y-40126229D01*
X133170809Y-40104583D01*
X133204707Y-40086505D01*
X133241677Y-40072095D01*
X133281632Y-40061454D01*
X133292384Y-40059626D01*
X133310081Y-40057739D01*
X133330191Y-40056543D01*
X133351351Y-40056061D01*
X133372198Y-40056319D01*
X133391366Y-40057341D01*
X133407494Y-40059154D01*
X133438558Y-40065201D01*
X133472560Y-40075158D01*
X133504034Y-40088437D01*
X133533794Y-40105392D01*
X133562654Y-40126373D01*
X133584386Y-40145557D01*
X133608869Y-40172412D01*
X133629720Y-40202083D01*
X133647171Y-40234910D01*
X133661455Y-40271233D01*
X133664872Y-40282025D01*
X133673918Y-40318605D01*
X133679893Y-40357006D01*
X133682747Y-40396161D01*
X133682559Y-40419457D01*
X133682433Y-40435002D01*
G37*
G36*
X133785615Y-40067198D02*
G01*
X133832141Y-40067855D01*
X133850821Y-40117375D01*
X133853548Y-40124598D01*
X133858458Y-40137582D01*
X133864792Y-40154324D01*
X133872390Y-40174395D01*
X133881089Y-40197369D01*
X133890728Y-40222818D01*
X133901144Y-40250314D01*
X133912176Y-40279430D01*
X133923662Y-40309738D01*
X133935440Y-40340811D01*
X133947347Y-40372220D01*
X133957027Y-40397794D01*
X133968672Y-40428669D01*
X133979973Y-40458744D01*
X133990775Y-40487606D01*
X134000926Y-40514843D01*
X134010273Y-40540043D01*
X134018662Y-40562791D01*
X134025942Y-40582677D01*
X134031959Y-40599286D01*
X134036559Y-40612207D01*
X134039591Y-40621027D01*
X134039655Y-40621221D01*
X134044237Y-40635057D01*
X134048337Y-40647439D01*
X134051696Y-40657585D01*
X134054055Y-40664712D01*
X134055155Y-40668035D01*
X134055304Y-40668114D01*
X134056733Y-40665622D01*
X134059424Y-40659226D01*
X134063177Y-40649458D01*
X134067791Y-40636849D01*
X134073068Y-40621929D01*
X134078806Y-40605230D01*
X134079894Y-40602038D01*
X134084464Y-40588854D01*
X134090500Y-40571697D01*
X134097846Y-40550998D01*
X134106348Y-40527185D01*
X134115852Y-40500689D01*
X134126201Y-40471939D01*
X134137243Y-40441364D01*
X134148823Y-40409395D01*
X134160785Y-40376460D01*
X134172975Y-40342990D01*
X134185240Y-40309415D01*
X134192877Y-40288537D01*
X134204316Y-40257265D01*
X134215242Y-40227392D01*
X134225541Y-40199232D01*
X134235097Y-40173100D01*
X134243797Y-40149309D01*
X134251525Y-40128172D01*
X134258166Y-40110004D01*
X134263606Y-40095118D01*
X134267731Y-40083828D01*
X134270425Y-40076447D01*
X134271573Y-40073290D01*
X134273958Y-40066647D01*
X134323242Y-40066647D01*
X134327052Y-40066650D01*
X134341513Y-40066718D01*
X134354007Y-40066865D01*
X134363818Y-40067076D01*
X134370229Y-40067337D01*
X134372525Y-40067635D01*
X134372297Y-40068283D01*
X134370570Y-40072792D01*
X134367248Y-40081332D01*
X134362451Y-40093600D01*
X134356298Y-40109288D01*
X134348911Y-40128093D01*
X134340408Y-40149709D01*
X134330910Y-40173830D01*
X134320538Y-40200152D01*
X134309410Y-40228368D01*
X134297648Y-40258175D01*
X134285371Y-40289266D01*
X134275754Y-40313613D01*
X134254040Y-40368587D01*
X134234035Y-40419237D01*
X134215692Y-40465684D01*
X134198964Y-40508045D01*
X134183803Y-40546441D01*
X134170162Y-40580992D01*
X134157995Y-40611816D01*
X134147254Y-40639033D01*
X134137891Y-40662763D01*
X134129861Y-40683124D01*
X134123115Y-40700238D01*
X134117607Y-40714221D01*
X134113289Y-40725196D01*
X134110115Y-40733279D01*
X134108036Y-40738592D01*
X134107007Y-40741254D01*
X134104475Y-40747948D01*
X134056822Y-40747293D01*
X134009168Y-40746638D01*
X133875591Y-40412078D01*
X133873039Y-40405688D01*
X133857757Y-40367396D01*
X133842971Y-40330324D01*
X133828781Y-40294722D01*
X133815286Y-40260843D01*
X133802587Y-40228936D01*
X133790783Y-40199254D01*
X133779974Y-40172047D01*
X133770259Y-40147567D01*
X133761739Y-40126066D01*
X133754514Y-40107794D01*
X133748682Y-40093004D01*
X133744345Y-40081945D01*
X133741601Y-40074870D01*
X133740551Y-40072029D01*
X133739089Y-40066541D01*
X133785615Y-40067198D01*
G37*
G36*
X132903842Y-40407246D02*
G01*
X132903842Y-40747846D01*
X132687647Y-40747846D01*
X132471451Y-40747846D01*
X132471451Y-40707988D01*
X132471451Y-40668131D01*
X132641750Y-40668131D01*
X132812050Y-40668131D01*
X132812050Y-40367389D01*
X132812050Y-40066647D01*
X132857946Y-40066647D01*
X132903842Y-40066647D01*
X132903842Y-40407246D01*
G37*
G36*
X132485944Y-40106505D02*
G01*
X132485944Y-40107571D01*
X132485841Y-40122897D01*
X132485526Y-40133935D01*
X132484960Y-40141197D01*
X132484106Y-40145192D01*
X132482925Y-40146431D01*
X132480563Y-40146443D01*
X132473762Y-40146453D01*
X132463055Y-40146459D01*
X132448935Y-40146462D01*
X132431895Y-40146462D01*
X132412428Y-40146458D01*
X132391027Y-40146451D01*
X132368184Y-40146440D01*
X132256463Y-40146379D01*
X132256463Y-40447112D01*
X132256463Y-40747846D01*
X132210566Y-40747846D01*
X132164670Y-40747846D01*
X132164670Y-40446974D01*
X132164670Y-40146102D01*
X132049928Y-40146836D01*
X131935186Y-40147570D01*
X131935187Y-40107109D01*
X131935188Y-40066647D01*
X132210566Y-40066647D01*
X132485944Y-40066647D01*
X132485944Y-40106505D01*
G37*
G36*
X130757364Y-40232977D02*
G01*
X130763888Y-40236131D01*
X130772462Y-40241411D01*
X130780763Y-40248188D01*
X130789484Y-40257122D01*
X130799315Y-40268874D01*
X130810949Y-40284102D01*
X130819404Y-40295211D01*
X130828811Y-40306681D01*
X130836031Y-40314285D01*
X130840931Y-40317873D01*
X130843722Y-40318203D01*
X130851131Y-40318531D01*
X130862785Y-40318820D01*
X130878380Y-40319073D01*
X130897609Y-40319290D01*
X130920166Y-40319472D01*
X130945743Y-40319619D01*
X130974036Y-40319734D01*
X131004738Y-40319816D01*
X131037542Y-40319866D01*
X131072142Y-40319885D01*
X131108232Y-40319875D01*
X131145506Y-40319836D01*
X131183657Y-40319768D01*
X131222378Y-40319673D01*
X131261365Y-40319552D01*
X131300310Y-40319405D01*
X131338906Y-40319233D01*
X131376849Y-40319038D01*
X131413831Y-40318819D01*
X131449546Y-40318579D01*
X131483688Y-40318317D01*
X131515950Y-40318035D01*
X131546027Y-40317733D01*
X131573612Y-40317413D01*
X131598398Y-40317074D01*
X131620080Y-40316719D01*
X131638350Y-40316348D01*
X131652904Y-40315961D01*
X131663434Y-40315560D01*
X131674080Y-40315086D01*
X131696770Y-40314290D01*
X131721673Y-40313654D01*
X131748082Y-40313179D01*
X131775295Y-40312865D01*
X131802608Y-40312712D01*
X131829316Y-40312723D01*
X131854715Y-40312897D01*
X131878102Y-40313236D01*
X131898773Y-40313740D01*
X131916023Y-40314411D01*
X131929149Y-40315248D01*
X131942199Y-40316423D01*
X131957665Y-40317997D01*
X131971093Y-40319566D01*
X131981788Y-40321040D01*
X131989055Y-40322330D01*
X131992199Y-40323347D01*
X131992286Y-40324127D01*
X131992459Y-40329054D01*
X131992643Y-40338129D01*
X131992833Y-40350908D01*
X131993023Y-40366950D01*
X131993209Y-40385809D01*
X131993386Y-40407043D01*
X131993548Y-40430209D01*
X131993691Y-40454863D01*
X131994370Y-40585568D01*
X131971422Y-40587081D01*
X131970819Y-40587121D01*
X131937654Y-40589038D01*
X131900522Y-40590694D01*
X131859344Y-40592090D01*
X131814043Y-40593225D01*
X131764541Y-40594102D01*
X131710760Y-40594720D01*
X131652621Y-40595081D01*
X131590048Y-40595184D01*
X131522962Y-40595031D01*
X131451285Y-40594622D01*
X131374939Y-40593959D01*
X131293847Y-40593041D01*
X131258775Y-40592610D01*
X131220860Y-40592162D01*
X131183364Y-40591737D01*
X131146729Y-40591339D01*
X131111394Y-40590971D01*
X131077802Y-40590639D01*
X131046393Y-40590347D01*
X131017610Y-40590098D01*
X130991892Y-40589897D01*
X130969681Y-40589748D01*
X130951419Y-40589656D01*
X130937547Y-40589624D01*
X130917539Y-40589596D01*
X130897308Y-40589601D01*
X130880775Y-40589837D01*
X130867320Y-40590506D01*
X130856325Y-40591810D01*
X130847170Y-40593950D01*
X130839237Y-40597128D01*
X130831907Y-40601545D01*
X130824560Y-40607403D01*
X130816579Y-40614904D01*
X130807343Y-40624248D01*
X130796234Y-40635639D01*
X130795132Y-40636759D01*
X130784354Y-40647525D01*
X130774318Y-40657222D01*
X130765676Y-40665243D01*
X130759076Y-40670985D01*
X130755169Y-40673844D01*
X130752659Y-40674983D01*
X130741111Y-40677435D01*
X130728303Y-40676670D01*
X130716059Y-40672739D01*
X130708374Y-40667988D01*
X130698313Y-40659899D01*
X130687726Y-40649891D01*
X130677761Y-40639058D01*
X130669565Y-40628491D01*
X130657467Y-40608251D01*
X130645341Y-40580545D01*
X130636063Y-40549861D01*
X130629738Y-40516778D01*
X130626473Y-40481878D01*
X130626374Y-40445738D01*
X130629545Y-40408939D01*
X130630975Y-40398867D01*
X130636704Y-40368453D01*
X130644133Y-40340351D01*
X130653081Y-40314811D01*
X130663364Y-40292086D01*
X130674799Y-40272427D01*
X130687204Y-40256087D01*
X130700395Y-40243317D01*
X130714190Y-40234370D01*
X130728405Y-40229496D01*
X130742857Y-40228948D01*
X130757364Y-40232977D01*
G37*
G36*
X131216841Y-38901784D02*
G01*
X131246899Y-38908695D01*
X131274522Y-38919083D01*
X131290257Y-38927451D01*
X131306304Y-38938741D01*
X131321063Y-38952483D01*
X131334821Y-38969072D01*
X131347862Y-38988900D01*
X131360473Y-39012360D01*
X131372940Y-39039846D01*
X131385549Y-39071751D01*
X131390237Y-39083911D01*
X131395276Y-39095442D01*
X131400605Y-39105410D01*
X131407126Y-39115478D01*
X131415746Y-39127310D01*
X131430874Y-39146766D01*
X131450738Y-39170944D01*
X131473529Y-39197543D01*
X131498868Y-39226170D01*
X131526376Y-39256435D01*
X131555674Y-39287945D01*
X131586383Y-39320308D01*
X131618123Y-39353134D01*
X131650516Y-39386030D01*
X131683183Y-39418605D01*
X131715745Y-39450467D01*
X131747822Y-39481224D01*
X131779036Y-39510485D01*
X131809007Y-39537858D01*
X131837356Y-39562951D01*
X131865219Y-39586708D01*
X131891262Y-39607988D01*
X131915183Y-39626560D01*
X131936751Y-39642255D01*
X131955735Y-39654905D01*
X131971903Y-39664343D01*
X131985024Y-39670400D01*
X131990768Y-39672286D01*
X131997693Y-39674003D01*
X132005918Y-39675506D01*
X132015695Y-39676800D01*
X132027276Y-39677891D01*
X132040913Y-39678785D01*
X132056859Y-39679486D01*
X132075365Y-39680000D01*
X132096684Y-39680332D01*
X132121067Y-39680487D01*
X132148767Y-39680471D01*
X132180036Y-39680289D01*
X132215125Y-39679947D01*
X132254288Y-39679449D01*
X132297775Y-39678802D01*
X132345840Y-39678010D01*
X132367926Y-39677637D01*
X132440278Y-39676491D01*
X132510562Y-39675493D01*
X132578595Y-39674643D01*
X132644193Y-39673942D01*
X132707171Y-39673388D01*
X132767345Y-39672984D01*
X132824532Y-39672728D01*
X132878547Y-39672621D01*
X132929207Y-39672663D01*
X132976326Y-39672854D01*
X133019721Y-39673195D01*
X133059207Y-39673686D01*
X133094602Y-39674326D01*
X133125720Y-39675117D01*
X133152377Y-39676058D01*
X133174389Y-39677149D01*
X133204584Y-39678944D01*
X133207059Y-39809386D01*
X133207302Y-39822546D01*
X133207709Y-39846487D01*
X133208042Y-39868727D01*
X133208298Y-39888821D01*
X133208472Y-39906320D01*
X133208560Y-39920778D01*
X133208557Y-39931747D01*
X133208461Y-39938781D01*
X133208266Y-39941431D01*
X133207187Y-39941862D01*
X133201766Y-39942699D01*
X133192275Y-39943610D01*
X133179202Y-39944569D01*
X133163032Y-39945553D01*
X133144254Y-39946535D01*
X133123352Y-39947491D01*
X133100814Y-39948398D01*
X133077126Y-39949229D01*
X133052774Y-39949961D01*
X133028246Y-39950568D01*
X133009912Y-39950952D01*
X132977704Y-39951530D01*
X132945136Y-39951984D01*
X132911759Y-39952315D01*
X132877127Y-39952523D01*
X132840794Y-39952608D01*
X132802312Y-39952570D01*
X132761235Y-39952408D01*
X132717116Y-39952122D01*
X132669507Y-39951714D01*
X132617963Y-39951181D01*
X132562036Y-39950526D01*
X132550064Y-39950380D01*
X132513177Y-39949946D01*
X132472600Y-39949488D01*
X132429176Y-39949016D01*
X132383749Y-39948537D01*
X132337163Y-39948060D01*
X132290260Y-39947595D01*
X132243885Y-39947148D01*
X132198880Y-39946730D01*
X132156090Y-39946347D01*
X132116358Y-39946010D01*
X132081104Y-39945715D01*
X132045332Y-39945398D01*
X132013841Y-39945096D01*
X131986335Y-39944801D01*
X131962522Y-39944507D01*
X131942108Y-39944206D01*
X131924799Y-39943891D01*
X131910304Y-39943556D01*
X131898327Y-39943194D01*
X131888575Y-39942798D01*
X131880755Y-39942361D01*
X131874575Y-39941876D01*
X131869739Y-39941336D01*
X131865955Y-39940735D01*
X131862930Y-39940065D01*
X131859887Y-39939257D01*
X131848739Y-39935698D01*
X131838766Y-39931227D01*
X131829129Y-39925270D01*
X131818993Y-39917253D01*
X131807521Y-39906604D01*
X131793876Y-39892749D01*
X131787118Y-39885741D01*
X131774378Y-39872659D01*
X131759145Y-39857141D01*
X131741656Y-39839421D01*
X131722146Y-39819734D01*
X131700852Y-39798314D01*
X131678010Y-39775394D01*
X131653857Y-39751210D01*
X131628628Y-39725996D01*
X131602559Y-39699985D01*
X131575887Y-39673413D01*
X131548848Y-39646513D01*
X131521678Y-39619519D01*
X131494613Y-39592666D01*
X131467889Y-39566189D01*
X131441744Y-39540321D01*
X131416412Y-39515297D01*
X131392129Y-39491350D01*
X131369133Y-39468716D01*
X131347660Y-39447629D01*
X131327944Y-39428322D01*
X131310224Y-39411030D01*
X131294734Y-39395988D01*
X131281711Y-39383429D01*
X131271392Y-39373588D01*
X131264011Y-39366699D01*
X131259806Y-39362997D01*
X131251275Y-39356334D01*
X131241499Y-39349607D01*
X131232867Y-39345396D01*
X131223992Y-39343244D01*
X131213491Y-39342696D01*
X131199976Y-39343294D01*
X131199106Y-39343349D01*
X131181012Y-39343706D01*
X131162929Y-39342364D01*
X131143805Y-39339151D01*
X131122589Y-39333892D01*
X131098229Y-39326412D01*
X131082988Y-39321169D01*
X131062728Y-39313173D01*
X131045593Y-39304860D01*
X131030563Y-39295717D01*
X131016622Y-39285230D01*
X131004568Y-39274456D01*
X130984357Y-39251577D01*
X130968036Y-39225929D01*
X130955687Y-39197682D01*
X130947393Y-39167006D01*
X130943237Y-39134071D01*
X130942973Y-39128532D01*
X130943786Y-39099311D01*
X130948058Y-39070104D01*
X130955530Y-39042245D01*
X130965942Y-39017071D01*
X130968546Y-39012075D01*
X130985267Y-38985806D01*
X131005491Y-38962259D01*
X131028688Y-38941911D01*
X131054329Y-38925239D01*
X131081884Y-38912719D01*
X131091367Y-38909524D01*
X131121613Y-38902217D01*
X131153244Y-38898513D01*
X131185305Y-38898379D01*
X131216841Y-38901784D01*
G37*
%TD*%
M02*
