M48
; DRILL file KiCad 10.0.5 date 2026-07-30T01:17:04
; FORMAT={-:-/ absolute / metric / decimal}
; #@! TF.CreationDate,2026-07-30T01:17:04-04:00
; #@! TF.GenerationSoftware,Kicad,Pcbnew,10.0.5
; #@! TF.FileFunction,MixedPlating,1,2
FMAT,2
METRIC
; #@! TA.AperFunction,Plated,PTH,ViaDrill
T1C0.300
; #@! TA.AperFunction,Plated,PTH,ComponentDrill
T2C0.800
; #@! TA.AperFunction,Plated,PTH,ComponentDrill
T3C1.000
; #@! TA.AperFunction,Plated,PTH,ComponentDrill
T4C1.500
; #@! TA.AperFunction,NonPlated,NPTH,ComponentDrill
T5C1.000
; #@! TA.AperFunction,NonPlated,NPTH,ComponentDrill
T6C3.000
%
G90
G05
T1
X68.41Y-38.83
X80.49Y-40.04
X81.36Y-48.6
X81.5Y-29.48
X83.67Y-45.01
X86.01Y-40.94
X87.29Y-46.43
X87.76Y-51.83
X87.79Y-50.34
X88.03Y-39.51
X88.19Y-36.69
X91.12Y-42.39
X91.92Y-38.35
X95.65Y-43.94
X97.74Y-33.26
X99.38Y-39.11
X102.19Y-45.16
X104.53Y-45.34
X104.85Y-50.43
X105.53Y-47.05
X107.74Y-41.0
T2
X77.46Y-31.9
X79.46Y-31.9
X81.46Y-31.9
T3
X71.0Y-38.86
X71.0Y-41.4
X71.0Y-43.94
X71.0Y-46.48
X77.3Y-38.8
X77.3Y-41.34
X77.3Y-43.88
X77.3Y-46.42
X89.96Y-29.0
X90.52Y-51.1
X90.53Y-56.5
X92.5Y-29.0
X93.06Y-51.1
X93.07Y-56.5
X95.6Y-51.1
X95.61Y-56.5
X97.72Y-31.1
X98.14Y-51.1
X98.15Y-56.5
X100.26Y-31.1
X102.8Y-31.1
X105.34Y-31.1
T4
X75.36Y-31.9
X83.56Y-31.9
T5
X112.325Y-40.4
X112.325Y-44.8
T6
X70.2Y-29.95
X70.2Y-54.95
X115.2Y-29.95
X115.2Y-54.95
M30
