%TF.GenerationSoftware,KiCad,Pcbnew,10.0.5*%
%TF.CreationDate,2026-07-30T01:17:07-04:00*%
%TF.ProjectId,STM32 PCB Design,53544d33-3220-4504-9342-204465736967,rev?*%
%TF.SameCoordinates,Original*%
%TF.FileFunction,Copper,L2,Bot*%
%TF.FilePolarity,Positive*%
%FSLAX46Y46*%
G04 Gerber Fmt 4.6, Leading zero omitted, Abs format (unit mm)*
G04 Created by KiCad (PCBNEW 10.0.5) date 2026-07-30 01:17:07*
%MOMM*%
%LPD*%
G01*
G04 APERTURE LIST*
%TA.AperFunction,ComponentPad*%
%ADD10R,1.700000X1.700000*%
%TD*%
%TA.AperFunction,ComponentPad*%
%ADD11C,1.700000*%
%TD*%
%TA.AperFunction,ComponentPad*%
%ADD12O,2.200000X3.500000*%
%TD*%
%TA.AperFunction,ComponentPad*%
%ADD13R,1.500000X2.500000*%
%TD*%
%TA.AperFunction,ComponentPad*%
%ADD14O,1.500000X2.500000*%
%TD*%
%TA.AperFunction,ViaPad*%
%ADD15C,0.700000*%
%TD*%
%TA.AperFunction,Conductor*%
%ADD16C,0.500000*%
%TD*%
%TA.AperFunction,Conductor*%
%ADD17C,0.300000*%
%TD*%
G04 APERTURE END LIST*
D10*
%TO.P,SDA,1,Pin_1_1*%
%TO.N,/I2C2_SDA*%
X90520000Y-51100000D03*
D11*
%TO.P,SDA,2,Pin_2_2*%
X93060000Y-51100000D03*
%TO.P,SDA,3,Pin_3_3*%
X95600000Y-51100000D03*
%TO.P,SDA,4,Pin_4_4*%
X98140000Y-51100000D03*
%TD*%
D10*
%TO.P,+3.3V,1,Pin_1_1*%
%TO.N,+3.3V*%
X77300000Y-38800000D03*
D11*
%TO.P,+3.3V,2,Pin_2_2*%
X77300000Y-41340000D03*
%TO.P,+3.3V,3,Pin_3_3*%
X77300000Y-43880000D03*
%TO.P,+3.3V,4,Pin_4_4*%
X77300000Y-46420000D03*
%TD*%
D10*
%TO.P,SCL,1,Pin_1_1*%
%TO.N,/I2C2_SCL*%
X90530000Y-56500000D03*
D11*
%TO.P,SCL,2,Pin_2_2*%
X93070000Y-56500000D03*
%TO.P,SCL,3,Pin_3_3*%
X95610000Y-56500000D03*
%TO.P,SCL,4,Pin_4_4*%
X98150000Y-56500000D03*
%TD*%
D10*
%TO.P,GND,1,Pin_1_1*%
%TO.N,GND*%
X71000000Y-38860000D03*
D11*
%TO.P,GND,2,Pin_2_2*%
X71000000Y-41400000D03*
%TO.P,GND,3,Pin_3_3*%
X71000000Y-43940000D03*
%TO.P,GND,4,Pin_4_4*%
X71000000Y-46480000D03*
%TD*%
D12*
%TO.P,SWT,*%
%TO.N,*%
X83560000Y-31900000D03*
X75360000Y-31900000D03*
D13*
%TO.P,SWT,1,A_1*%
%TO.N,GND*%
X81460000Y-31900000D03*
D14*
%TO.P,SWT,2,B_2*%
%TO.N,/SW_BOOT0*%
X79460000Y-31900000D03*
%TO.P,SWT,3,C_3*%
%TO.N,+3.3V*%
X77460000Y-31900000D03*
%TD*%
D10*
%TO.P,UART,1,Pin_1_1*%
%TO.N,/USART1_TX*%
X92500000Y-29000000D03*
D11*
%TO.P,UART,2,Pin_2_2*%
%TO.N,/USART1_RX*%
X89960000Y-29000000D03*
%TD*%
D10*
%TO.P,SWD,1,Pin_1_1*%
%TO.N,GND*%
X97720000Y-31100000D03*
D11*
%TO.P,SWD,2,Pin_2_2*%
%TO.N,+3.3V*%
X100260000Y-31100000D03*
%TO.P,SWD,3,Pin_3_3*%
%TO.N,/SWDIO*%
X102800000Y-31100000D03*
%TO.P,SWD,4,Pin_4_4*%
%TO.N,/SWCLK*%
X105340000Y-31100000D03*
%TD*%
D15*
%TO.N,GND*%
X91120000Y-42390000D03*
X91920000Y-38350000D03*
X99380000Y-39110000D03*
X95650000Y-43940000D03*
%TO.N,+3.3V*%
X104530000Y-45340000D03*
X102190000Y-45160000D03*
%TO.N,GND*%
X97740000Y-33260000D03*
X83670000Y-45010000D03*
X86010000Y-40940000D03*
X105530000Y-47050000D03*
X104850000Y-50430000D03*
X68410000Y-38830000D03*
X80490000Y-40040000D03*
X88190000Y-36690000D03*
X88030000Y-39510000D03*
X107740000Y-41000000D03*
X81500000Y-29480000D03*
X81360000Y-48600000D03*
X87290000Y-46430000D03*
%TO.N,/I2C2_SCL*%
X87790000Y-50340000D03*
X87760000Y-51830000D03*
%TD*%
%TO.N,+3.3V*%
D16*
X102694264Y-45334264D02*
X104524264Y-45334264D01*
X102190000Y-45160000D02*
X102520000Y-45160000D01*
X102520000Y-45160000D02*
X102694264Y-45334264D01*
X104524264Y-45334264D02*
X104530000Y-45340000D01*
%TO.N,/I2C2_SCL*%
D17*
X87760000Y-51620000D02*
X87850000Y-51530000D01*
X87790000Y-51590000D02*
X87790000Y-50340000D01*
X87760000Y-51830000D02*
X87760000Y-51620000D01*
X87760000Y-51620000D02*
X87790000Y-51590000D01*
%TD*%
%TA.AperFunction,Conductor*%
%TO.N,GND*%
G36*
X115203033Y-26300649D02*
G01*
X115519771Y-26316209D01*
X115526547Y-26316731D01*
X115599882Y-26324438D01*
X115605006Y-26325088D01*
X115881308Y-26366074D01*
X115888862Y-26367436D01*
X115955332Y-26381564D01*
X115959631Y-26382559D01*
X116236951Y-26452024D01*
X116245092Y-26454363D01*
X116299234Y-26471955D01*
X116302546Y-26473086D01*
X116582814Y-26573367D01*
X116591440Y-26576824D01*
X116624993Y-26591763D01*
X116627456Y-26592893D01*
X116914873Y-26728831D01*
X116925581Y-26734555D01*
X117222324Y-26912416D01*
X117232442Y-26919176D01*
X117510324Y-27125268D01*
X117519731Y-27132988D01*
X117776072Y-27365323D01*
X117784676Y-27373927D01*
X118017011Y-27630268D01*
X118024731Y-27639675D01*
X118230823Y-27917557D01*
X118237583Y-27927675D01*
X118415436Y-28224405D01*
X118421173Y-28235137D01*
X118557078Y-28522484D01*
X118558263Y-28525066D01*
X118573167Y-28558541D01*
X118576638Y-28567202D01*
X118676884Y-28847370D01*
X118678064Y-28850827D01*
X118695629Y-28904888D01*
X118697982Y-28913076D01*
X118767433Y-29190343D01*
X118768439Y-29194691D01*
X118782559Y-29261120D01*
X118783927Y-29268706D01*
X118824903Y-29544938D01*
X118825566Y-29550171D01*
X118833263Y-29623401D01*
X118833793Y-29630279D01*
X118849351Y-29946967D01*
X118849500Y-29953051D01*
X118849500Y-54946948D01*
X118849351Y-54953032D01*
X118833793Y-55269719D01*
X118833263Y-55276597D01*
X118825566Y-55349827D01*
X118824903Y-55355060D01*
X118783927Y-55631292D01*
X118782559Y-55638878D01*
X118768439Y-55705307D01*
X118767433Y-55709655D01*
X118697982Y-55986922D01*
X118695629Y-55995110D01*
X118678064Y-56049171D01*
X118676884Y-56052628D01*
X118576638Y-56332796D01*
X118573167Y-56341457D01*
X118558263Y-56374932D01*
X118557078Y-56377514D01*
X118421173Y-56664861D01*
X118415436Y-56675593D01*
X118237583Y-56972324D01*
X118230823Y-56982442D01*
X118024731Y-57260324D01*
X118017011Y-57269731D01*
X117784676Y-57526072D01*
X117776072Y-57534676D01*
X117519731Y-57767011D01*
X117510324Y-57774731D01*
X117232442Y-57980823D01*
X117222324Y-57987583D01*
X116925593Y-58165436D01*
X116914861Y-58171173D01*
X116627514Y-58307078D01*
X116624932Y-58308263D01*
X116591457Y-58323167D01*
X116582796Y-58326638D01*
X116302628Y-58426884D01*
X116299171Y-58428064D01*
X116245110Y-58445629D01*
X116236923Y-58447982D01*
X115959660Y-58517433D01*
X115955310Y-58518439D01*
X115888874Y-58532560D01*
X115881288Y-58533928D01*
X115802754Y-58545577D01*
X115784817Y-58546919D01*
X90369862Y-58599500D01*
X70303051Y-58599500D01*
X70296967Y-58599351D01*
X69980279Y-58583793D01*
X69973401Y-58583263D01*
X69900171Y-58575566D01*
X69894938Y-58574903D01*
X69618706Y-58533927D01*
X69611120Y-58532559D01*
X69544691Y-58518439D01*
X69540343Y-58517433D01*
X69263076Y-58447982D01*
X69254888Y-58445629D01*
X69200827Y-58428064D01*
X69197370Y-58426884D01*
X68917202Y-58326638D01*
X68908541Y-58323167D01*
X68875066Y-58308263D01*
X68872484Y-58307078D01*
X68585137Y-58171173D01*
X68574405Y-58165436D01*
X68277675Y-57987583D01*
X68267557Y-57980823D01*
X67989675Y-57774731D01*
X67980268Y-57767011D01*
X67723927Y-57534676D01*
X67715323Y-57526072D01*
X67482988Y-57269731D01*
X67475268Y-57260324D01*
X67337625Y-57074734D01*
X67269174Y-56982439D01*
X67262416Y-56972324D01*
X67162977Y-56806420D01*
X67084555Y-56675581D01*
X67078831Y-56664873D01*
X66942893Y-56377456D01*
X66941763Y-56374993D01*
X66926824Y-56341440D01*
X66923367Y-56332814D01*
X66823086Y-56052546D01*
X66821955Y-56049234D01*
X66804363Y-55995092D01*
X66802024Y-55986951D01*
X66732559Y-55709631D01*
X66731559Y-55705307D01*
X66717436Y-55638862D01*
X66716074Y-55631308D01*
X66675088Y-55355006D01*
X66674438Y-55349882D01*
X66666731Y-55276547D01*
X66666209Y-55269771D01*
X66650649Y-54953032D01*
X66650501Y-54947458D01*
X66650300Y-54898490D01*
X66650293Y-54898432D01*
X66650040Y-54835258D01*
X68449500Y-54835258D01*
X68449500Y-55064741D01*
X68458005Y-55129338D01*
X68479452Y-55292238D01*
X68524707Y-55461133D01*
X68538842Y-55513887D01*
X68626650Y-55725876D01*
X68626657Y-55725890D01*
X68741392Y-55924617D01*
X68881081Y-56106661D01*
X68881089Y-56106670D01*
X69043330Y-56268911D01*
X69043338Y-56268918D01*
X69225382Y-56408607D01*
X69225385Y-56408608D01*
X69225388Y-56408611D01*
X69424112Y-56523344D01*
X69424117Y-56523346D01*
X69424123Y-56523349D01*
X69515480Y-56561190D01*
X69636113Y-56611158D01*
X69857762Y-56670548D01*
X70085266Y-56700500D01*
X70085273Y-56700500D01*
X70314727Y-56700500D01*
X70314734Y-56700500D01*
X70542238Y-56670548D01*
X70763887Y-56611158D01*
X70975888Y-56523344D01*
X71174612Y-56408611D01*
X71356661Y-56268919D01*
X71356665Y-56268914D01*
X71356670Y-56268911D01*
X71518911Y-56106670D01*
X71518914Y-56106665D01*
X71518919Y-56106661D01*
X71658611Y-55924612D01*
X71773344Y-55725888D01*
X71812960Y-55630247D01*
X89479500Y-55630247D01*
X89479500Y-57369752D01*
X89491131Y-57428229D01*
X89491132Y-57428230D01*
X89535447Y-57494552D01*
X89601769Y-57538867D01*
X89601770Y-57538868D01*
X89660247Y-57550499D01*
X89660250Y-57550500D01*
X89660252Y-57550500D01*
X91399750Y-57550500D01*
X91399751Y-57550499D01*
X91414568Y-57547552D01*
X91458229Y-57538868D01*
X91458229Y-57538867D01*
X91458231Y-57538867D01*
X91524552Y-57494552D01*
X91568867Y-57428231D01*
X91568867Y-57428229D01*
X91568868Y-57428229D01*
X91580499Y-57369752D01*
X91580500Y-57369750D01*
X91580500Y-56396530D01*
X92019500Y-56396530D01*
X92019500Y-56603469D01*
X92059868Y-56806412D01*
X92059870Y-56806420D01*
X92139058Y-56997596D01*
X92254024Y-57169657D01*
X92400342Y-57315975D01*
X92400345Y-57315977D01*
X92572402Y-57430941D01*
X92763580Y-57510130D01*
X92908052Y-57538867D01*
X92966530Y-57550499D01*
X92966534Y-57550500D01*
X92966535Y-57550500D01*
X93173466Y-57550500D01*
X93173467Y-57550499D01*
X93376420Y-57510130D01*
X93567598Y-57430941D01*
X93739655Y-57315977D01*
X93885977Y-57169655D01*
X94000941Y-56997598D01*
X94080130Y-56806420D01*
X94120500Y-56603465D01*
X94120500Y-56396535D01*
X94120499Y-56396530D01*
X94559500Y-56396530D01*
X94559500Y-56603469D01*
X94599868Y-56806412D01*
X94599870Y-56806420D01*
X94679058Y-56997596D01*
X94794024Y-57169657D01*
X94940342Y-57315975D01*
X94940345Y-57315977D01*
X95112402Y-57430941D01*
X95303580Y-57510130D01*
X95448052Y-57538867D01*
X95506530Y-57550499D01*
X95506534Y-57550500D01*
X95506535Y-57550500D01*
X95713466Y-57550500D01*
X95713467Y-57550499D01*
X95916420Y-57510130D01*
X96107598Y-57430941D01*
X96279655Y-57315977D01*
X96425977Y-57169655D01*
X96540941Y-56997598D01*
X96620130Y-56806420D01*
X96660500Y-56603465D01*
X96660500Y-56396535D01*
X96660499Y-56396530D01*
X97099500Y-56396530D01*
X97099500Y-56603469D01*
X97139868Y-56806412D01*
X97139870Y-56806420D01*
X97219058Y-56997596D01*
X97334024Y-57169657D01*
X97480342Y-57315975D01*
X97480345Y-57315977D01*
X97652402Y-57430941D01*
X97843580Y-57510130D01*
X97988052Y-57538867D01*
X98046530Y-57550499D01*
X98046534Y-57550500D01*
X98046535Y-57550500D01*
X98253466Y-57550500D01*
X98253467Y-57550499D01*
X98456420Y-57510130D01*
X98647598Y-57430941D01*
X98819655Y-57315977D01*
X98965977Y-57169655D01*
X99080941Y-56997598D01*
X99160130Y-56806420D01*
X99200500Y-56603465D01*
X99200500Y-56396535D01*
X99160130Y-56193580D01*
X99080941Y-56002402D01*
X98965977Y-55830345D01*
X98965975Y-55830342D01*
X98819657Y-55684024D01*
X98651655Y-55571770D01*
X98647598Y-55569059D01*
X98456420Y-55489870D01*
X98456412Y-55489868D01*
X98253469Y-55449500D01*
X98253465Y-55449500D01*
X98046535Y-55449500D01*
X98046530Y-55449500D01*
X97843587Y-55489868D01*
X97843579Y-55489870D01*
X97652403Y-55569058D01*
X97480342Y-55684024D01*
X97334024Y-55830342D01*
X97219058Y-56002403D01*
X97139870Y-56193579D01*
X97139868Y-56193587D01*
X97099500Y-56396530D01*
X96660499Y-56396530D01*
X96620130Y-56193580D01*
X96540941Y-56002402D01*
X96425977Y-55830345D01*
X96425975Y-55830342D01*
X96279657Y-55684024D01*
X96111655Y-55571770D01*
X96107598Y-55569059D01*
X95916420Y-55489870D01*
X95916412Y-55489868D01*
X95713469Y-55449500D01*
X95713465Y-55449500D01*
X95506535Y-55449500D01*
X95506530Y-55449500D01*
X95303587Y-55489868D01*
X95303579Y-55489870D01*
X95112403Y-55569058D01*
X94940342Y-55684024D01*
X94794024Y-55830342D01*
X94679058Y-56002403D01*
X94599870Y-56193579D01*
X94599868Y-56193587D01*
X94559500Y-56396530D01*
X94120499Y-56396530D01*
X94080130Y-56193580D01*
X94000941Y-56002402D01*
X93885977Y-55830345D01*
X93885975Y-55830342D01*
X93739657Y-55684024D01*
X93571655Y-55571770D01*
X93567598Y-55569059D01*
X93376420Y-55489870D01*
X93376412Y-55489868D01*
X93173469Y-55449500D01*
X93173465Y-55449500D01*
X92966535Y-55449500D01*
X92966530Y-55449500D01*
X92763587Y-55489868D01*
X92763579Y-55489870D01*
X92572403Y-55569058D01*
X92400342Y-55684024D01*
X92254024Y-55830342D01*
X92139058Y-56002403D01*
X92059870Y-56193579D01*
X92059868Y-56193587D01*
X92019500Y-56396530D01*
X91580500Y-56396530D01*
X91580500Y-55630249D01*
X91580499Y-55630247D01*
X91568868Y-55571770D01*
X91568867Y-55571769D01*
X91524552Y-55505447D01*
X91458230Y-55461132D01*
X91458229Y-55461131D01*
X91399752Y-55449500D01*
X91399748Y-55449500D01*
X89660252Y-55449500D01*
X89660247Y-55449500D01*
X89601770Y-55461131D01*
X89601769Y-55461132D01*
X89535447Y-55505447D01*
X89491132Y-55571769D01*
X89491131Y-55571770D01*
X89479500Y-55630247D01*
X71812960Y-55630247D01*
X71861158Y-55513887D01*
X71920548Y-55292238D01*
X71950500Y-55064734D01*
X71950500Y-54835266D01*
X71950499Y-54835258D01*
X113449500Y-54835258D01*
X113449500Y-55064741D01*
X113458005Y-55129338D01*
X113479452Y-55292238D01*
X113524707Y-55461133D01*
X113538842Y-55513887D01*
X113626650Y-55725876D01*
X113626657Y-55725890D01*
X113741392Y-55924617D01*
X113881081Y-56106661D01*
X113881089Y-56106670D01*
X114043330Y-56268911D01*
X114043338Y-56268918D01*
X114225382Y-56408607D01*
X114225385Y-56408608D01*
X114225388Y-56408611D01*
X114424112Y-56523344D01*
X114424117Y-56523346D01*
X114424123Y-56523349D01*
X114515480Y-56561190D01*
X114636113Y-56611158D01*
X114857762Y-56670548D01*
X115085266Y-56700500D01*
X115085273Y-56700500D01*
X115314727Y-56700500D01*
X115314734Y-56700500D01*
X115542238Y-56670548D01*
X115763887Y-56611158D01*
X115975888Y-56523344D01*
X116174612Y-56408611D01*
X116356661Y-56268919D01*
X116356665Y-56268914D01*
X116356670Y-56268911D01*
X116518911Y-56106670D01*
X116518914Y-56106665D01*
X116518919Y-56106661D01*
X116658611Y-55924612D01*
X116773344Y-55725888D01*
X116861158Y-55513887D01*
X116920548Y-55292238D01*
X116950500Y-55064734D01*
X116950500Y-54835266D01*
X116920548Y-54607762D01*
X116861158Y-54386113D01*
X116773344Y-54174112D01*
X116658611Y-53975388D01*
X116658608Y-53975385D01*
X116658607Y-53975382D01*
X116518918Y-53793338D01*
X116518911Y-53793330D01*
X116356670Y-53631089D01*
X116356661Y-53631081D01*
X116174617Y-53491392D01*
X115975890Y-53376657D01*
X115975876Y-53376650D01*
X115763887Y-53288842D01*
X115542238Y-53229452D01*
X115504215Y-53224446D01*
X115314741Y-53199500D01*
X115314734Y-53199500D01*
X115085266Y-53199500D01*
X115085258Y-53199500D01*
X114868715Y-53228009D01*
X114857762Y-53229452D01*
X114764076Y-53254554D01*
X114636112Y-53288842D01*
X114424123Y-53376650D01*
X114424109Y-53376657D01*
X114225382Y-53491392D01*
X114043338Y-53631081D01*
X113881081Y-53793338D01*
X113741392Y-53975382D01*
X113626657Y-54174109D01*
X113626650Y-54174123D01*
X113538842Y-54386112D01*
X113479453Y-54607759D01*
X113479451Y-54607770D01*
X113449500Y-54835258D01*
X71950499Y-54835258D01*
X71920548Y-54607762D01*
X71861158Y-54386113D01*
X71773344Y-54174112D01*
X71658611Y-53975388D01*
X71658608Y-53975385D01*
X71658607Y-53975382D01*
X71518918Y-53793338D01*
X71518911Y-53793330D01*
X71356670Y-53631089D01*
X71356661Y-53631081D01*
X71174617Y-53491392D01*
X70975890Y-53376657D01*
X70975876Y-53376650D01*
X70763887Y-53288842D01*
X70542238Y-53229452D01*
X70504215Y-53224446D01*
X70314741Y-53199500D01*
X70314734Y-53199500D01*
X70085266Y-53199500D01*
X70085258Y-53199500D01*
X69868715Y-53228009D01*
X69857762Y-53229452D01*
X69764076Y-53254554D01*
X69636112Y-53288842D01*
X69424123Y-53376650D01*
X69424109Y-53376657D01*
X69225382Y-53491392D01*
X69043338Y-53631081D01*
X68881081Y-53793338D01*
X68741392Y-53975382D01*
X68626657Y-54174109D01*
X68626650Y-54174123D01*
X68538842Y-54386112D01*
X68479453Y-54607759D01*
X68479451Y-54607770D01*
X68449500Y-54835258D01*
X66650040Y-54835258D01*
X66637729Y-51757525D01*
X87209500Y-51757525D01*
X87209500Y-51902475D01*
X87243197Y-52028231D01*
X87247017Y-52042488D01*
X87319488Y-52168011D01*
X87319490Y-52168013D01*
X87319491Y-52168015D01*
X87421985Y-52270509D01*
X87421986Y-52270510D01*
X87421988Y-52270511D01*
X87547511Y-52342982D01*
X87547512Y-52342982D01*
X87547515Y-52342984D01*
X87687525Y-52380500D01*
X87687528Y-52380500D01*
X87832472Y-52380500D01*
X87832475Y-52380500D01*
X87972485Y-52342984D01*
X88098015Y-52270509D01*
X88200509Y-52168015D01*
X88272984Y-52042485D01*
X88310500Y-51902475D01*
X88310500Y-51757525D01*
X88272984Y-51617515D01*
X88212718Y-51513131D01*
X88200330Y-51483223D01*
X88176615Y-51394714D01*
X88176614Y-51394713D01*
X88176614Y-51394712D01*
X88157112Y-51360934D01*
X88140500Y-51298935D01*
X88140500Y-50819386D01*
X88160185Y-50752347D01*
X88176819Y-50731705D01*
X88230509Y-50678015D01*
X88302984Y-50552485D01*
X88340500Y-50412475D01*
X88340500Y-50267525D01*
X88330511Y-50230247D01*
X89469500Y-50230247D01*
X89469500Y-51969752D01*
X89481131Y-52028229D01*
X89481132Y-52028230D01*
X89525447Y-52094552D01*
X89591769Y-52138867D01*
X89591770Y-52138868D01*
X89650247Y-52150499D01*
X89650250Y-52150500D01*
X89650252Y-52150500D01*
X91389750Y-52150500D01*
X91389751Y-52150499D01*
X91404568Y-52147552D01*
X91448229Y-52138868D01*
X91448229Y-52138867D01*
X91448231Y-52138867D01*
X91514552Y-52094552D01*
X91558867Y-52028231D01*
X91558867Y-52028229D01*
X91558868Y-52028229D01*
X91570499Y-51969752D01*
X91570500Y-51969750D01*
X91570500Y-50996530D01*
X92009500Y-50996530D01*
X92009500Y-51203469D01*
X92049868Y-51406412D01*
X92049870Y-51406420D01*
X92129059Y-51597598D01*
X92142367Y-51617515D01*
X92244024Y-51769657D01*
X92390342Y-51915975D01*
X92390345Y-51915977D01*
X92562402Y-52030941D01*
X92753580Y-52110130D01*
X92898052Y-52138867D01*
X92956530Y-52150499D01*
X92956534Y-52150500D01*
X92956535Y-52150500D01*
X93163466Y-52150500D01*
X93163467Y-52150499D01*
X93366420Y-52110130D01*
X93557598Y-52030941D01*
X93729655Y-51915977D01*
X93875977Y-51769655D01*
X93990941Y-51597598D01*
X94070130Y-51406420D01*
X94110500Y-51203465D01*
X94110500Y-50996535D01*
X94110499Y-50996530D01*
X94549500Y-50996530D01*
X94549500Y-51203469D01*
X94589868Y-51406412D01*
X94589870Y-51406420D01*
X94669059Y-51597598D01*
X94682367Y-51617515D01*
X94784024Y-51769657D01*
X94930342Y-51915975D01*
X94930345Y-51915977D01*
X95102402Y-52030941D01*
X95293580Y-52110130D01*
X95438052Y-52138867D01*
X95496530Y-52150499D01*
X95496534Y-52150500D01*
X95496535Y-52150500D01*
X95703466Y-52150500D01*
X95703467Y-52150499D01*
X95906420Y-52110130D01*
X96097598Y-52030941D01*
X96269655Y-51915977D01*
X96415977Y-51769655D01*
X96530941Y-51597598D01*
X96610130Y-51406420D01*
X96650500Y-51203465D01*
X96650500Y-50996535D01*
X96650499Y-50996530D01*
X97089500Y-50996530D01*
X97089500Y-51203469D01*
X97129868Y-51406412D01*
X97129870Y-51406420D01*
X97209059Y-51597598D01*
X97222367Y-51617515D01*
X97324024Y-51769657D01*
X97470342Y-51915975D01*
X97470345Y-51915977D01*
X97642402Y-52030941D01*
X97833580Y-52110130D01*
X97978052Y-52138867D01*
X98036530Y-52150499D01*
X98036534Y-52150500D01*
X98036535Y-52150500D01*
X98243466Y-52150500D01*
X98243467Y-52150499D01*
X98446420Y-52110130D01*
X98637598Y-52030941D01*
X98809655Y-51915977D01*
X98955977Y-51769655D01*
X99070941Y-51597598D01*
X99150130Y-51406420D01*
X99190500Y-51203465D01*
X99190500Y-50996535D01*
X99150130Y-50793580D01*
X99070941Y-50602402D01*
X98955977Y-50430345D01*
X98955975Y-50430342D01*
X98809657Y-50284024D01*
X98641655Y-50171770D01*
X98637598Y-50169059D01*
X98446420Y-50089870D01*
X98446412Y-50089868D01*
X98243469Y-50049500D01*
X98243465Y-50049500D01*
X98036535Y-50049500D01*
X98036530Y-50049500D01*
X97833587Y-50089868D01*
X97833579Y-50089870D01*
X97642403Y-50169058D01*
X97470342Y-50284024D01*
X97324024Y-50430342D01*
X97209058Y-50602403D01*
X97129870Y-50793579D01*
X97129868Y-50793587D01*
X97089500Y-50996530D01*
X96650499Y-50996530D01*
X96610130Y-50793580D01*
X96530941Y-50602402D01*
X96415977Y-50430345D01*
X96415975Y-50430342D01*
X96269657Y-50284024D01*
X96101655Y-50171770D01*
X96097598Y-50169059D01*
X95906420Y-50089870D01*
X95906412Y-50089868D01*
X95703469Y-50049500D01*
X95703465Y-50049500D01*
X95496535Y-50049500D01*
X95496530Y-50049500D01*
X95293587Y-50089868D01*
X95293579Y-50089870D01*
X95102403Y-50169058D01*
X94930342Y-50284024D01*
X94784024Y-50430342D01*
X94669058Y-50602403D01*
X94589870Y-50793579D01*
X94589868Y-50793587D01*
X94549500Y-50996530D01*
X94110499Y-50996530D01*
X94070130Y-50793580D01*
X93990941Y-50602402D01*
X93875977Y-50430345D01*
X93875975Y-50430342D01*
X93729657Y-50284024D01*
X93561655Y-50171770D01*
X93557598Y-50169059D01*
X93366420Y-50089870D01*
X93366412Y-50089868D01*
X93163469Y-50049500D01*
X93163465Y-50049500D01*
X92956535Y-50049500D01*
X92956530Y-50049500D01*
X92753587Y-50089868D01*
X92753579Y-50089870D01*
X92562403Y-50169058D01*
X92390342Y-50284024D01*
X92244024Y-50430342D01*
X92129058Y-50602403D01*
X92049870Y-50793579D01*
X92049868Y-50793587D01*
X92009500Y-50996530D01*
X91570500Y-50996530D01*
X91570500Y-50230249D01*
X91570499Y-50230247D01*
X91558868Y-50171770D01*
X91558867Y-50171769D01*
X91514552Y-50105447D01*
X91448230Y-50061132D01*
X91448229Y-50061131D01*
X91389752Y-50049500D01*
X91389748Y-50049500D01*
X89650252Y-50049500D01*
X89650247Y-50049500D01*
X89591770Y-50061131D01*
X89591769Y-50061132D01*
X89525447Y-50105447D01*
X89481132Y-50171769D01*
X89481131Y-50171770D01*
X89469500Y-50230247D01*
X88330511Y-50230247D01*
X88302984Y-50127515D01*
X88281248Y-50089868D01*
X88230511Y-50001988D01*
X88230506Y-50001982D01*
X88128017Y-49899493D01*
X88128011Y-49899488D01*
X88002488Y-49827017D01*
X88002489Y-49827017D01*
X87991006Y-49823940D01*
X87862475Y-49789500D01*
X87717525Y-49789500D01*
X87588993Y-49823940D01*
X87577511Y-49827017D01*
X87451988Y-49899488D01*
X87451982Y-49899493D01*
X87349493Y-50001982D01*
X87349488Y-50001988D01*
X87277017Y-50127511D01*
X87277016Y-50127515D01*
X87239500Y-50267525D01*
X87239500Y-50412475D01*
X87277016Y-50552485D01*
X87277017Y-50552488D01*
X87349488Y-50678011D01*
X87349493Y-50678017D01*
X87403181Y-50731705D01*
X87436666Y-50793028D01*
X87439500Y-50819386D01*
X87439500Y-51320613D01*
X87419815Y-51387652D01*
X87403182Y-51408294D01*
X87319488Y-51491988D01*
X87247017Y-51617511D01*
X87247016Y-51617515D01*
X87209500Y-51757525D01*
X66637729Y-51757525D01*
X66615966Y-46316530D01*
X76249500Y-46316530D01*
X76249500Y-46523469D01*
X76289868Y-46726412D01*
X76289870Y-46726420D01*
X76369058Y-46917596D01*
X76484024Y-47089657D01*
X76630342Y-47235975D01*
X76630345Y-47235977D01*
X76802402Y-47350941D01*
X76993580Y-47430130D01*
X77196530Y-47470499D01*
X77196534Y-47470500D01*
X77196535Y-47470500D01*
X77403466Y-47470500D01*
X77403467Y-47470499D01*
X77606420Y-47430130D01*
X77797598Y-47350941D01*
X77969655Y-47235977D01*
X78115977Y-47089655D01*
X78230941Y-46917598D01*
X78310130Y-46726420D01*
X78350500Y-46523465D01*
X78350500Y-46316535D01*
X78310130Y-46113580D01*
X78230941Y-45922402D01*
X78115977Y-45750345D01*
X78115975Y-45750342D01*
X77969657Y-45604024D01*
X77883626Y-45546541D01*
X77797598Y-45489059D01*
X77606420Y-45409870D01*
X77606412Y-45409868D01*
X77403469Y-45369500D01*
X77403465Y-45369500D01*
X77196535Y-45369500D01*
X77196530Y-45369500D01*
X76993587Y-45409868D01*
X76993579Y-45409870D01*
X76802403Y-45489058D01*
X76630342Y-45604024D01*
X76484024Y-45750342D01*
X76369058Y-45922403D01*
X76289870Y-46113579D01*
X76289868Y-46113587D01*
X76249500Y-46316530D01*
X66615966Y-46316530D01*
X66611050Y-45087525D01*
X101639500Y-45087525D01*
X101639500Y-45232475D01*
X101651811Y-45278419D01*
X101677017Y-45372488D01*
X101749488Y-45498011D01*
X101749490Y-45498013D01*
X101749491Y-45498015D01*
X101851985Y-45600509D01*
X101851986Y-45600510D01*
X101851988Y-45600511D01*
X101977511Y-45672982D01*
X101977512Y-45672982D01*
X101977515Y-45672984D01*
X102117525Y-45710500D01*
X102117528Y-45710500D01*
X102262474Y-45710500D01*
X102262475Y-45710500D01*
X102337475Y-45690403D01*
X102407325Y-45692064D01*
X102431569Y-45702789D01*
X102496886Y-45740500D01*
X102520378Y-45754063D01*
X102634955Y-45784764D01*
X104166129Y-45784764D01*
X104228129Y-45801377D01*
X104317511Y-45852982D01*
X104317512Y-45852982D01*
X104317515Y-45852984D01*
X104457525Y-45890500D01*
X104457528Y-45890500D01*
X104602472Y-45890500D01*
X104602475Y-45890500D01*
X104742485Y-45852984D01*
X104868015Y-45780509D01*
X104970509Y-45678015D01*
X105042984Y-45552485D01*
X105080500Y-45412475D01*
X105080500Y-45267525D01*
X105042984Y-45127515D01*
X104980282Y-45018913D01*
X104970511Y-45001988D01*
X104970506Y-45001982D01*
X104868017Y-44899493D01*
X104868015Y-44899491D01*
X104823725Y-44873920D01*
X111574499Y-44873920D01*
X111603340Y-45018907D01*
X111603343Y-45018917D01*
X111659912Y-45155488D01*
X111659919Y-45155501D01*
X111742048Y-45278415D01*
X111742051Y-45278419D01*
X111846580Y-45382948D01*
X111846584Y-45382951D01*
X111969498Y-45465080D01*
X111969511Y-45465087D01*
X112049012Y-45498017D01*
X112106087Y-45521658D01*
X112106091Y-45521658D01*
X112106092Y-45521659D01*
X112251079Y-45550500D01*
X112251082Y-45550500D01*
X112398920Y-45550500D01*
X112496462Y-45531096D01*
X112543913Y-45521658D01*
X112680495Y-45465084D01*
X112803416Y-45382951D01*
X112907951Y-45278416D01*
X112990084Y-45155495D01*
X113046658Y-45018913D01*
X113070413Y-44899491D01*
X113075500Y-44873920D01*
X113075500Y-44726079D01*
X113046659Y-44581092D01*
X113046658Y-44581091D01*
X113046658Y-44581087D01*
X113033639Y-44549657D01*
X112990087Y-44444511D01*
X112990080Y-44444498D01*
X112907951Y-44321584D01*
X112907948Y-44321580D01*
X112803419Y-44217051D01*
X112803415Y-44217048D01*
X112680501Y-44134919D01*
X112680488Y-44134912D01*
X112543917Y-44078343D01*
X112543907Y-44078340D01*
X112398920Y-44049500D01*
X112398918Y-44049500D01*
X112251082Y-44049500D01*
X112251080Y-44049500D01*
X112106092Y-44078340D01*
X112106082Y-44078343D01*
X111969511Y-44134912D01*
X111969498Y-44134919D01*
X111846584Y-44217048D01*
X111846580Y-44217051D01*
X111742051Y-44321580D01*
X111742048Y-44321584D01*
X111659919Y-44444498D01*
X111659912Y-44444511D01*
X111603343Y-44581082D01*
X111603340Y-44581092D01*
X111574500Y-44726079D01*
X111574500Y-44726082D01*
X111574500Y-44873918D01*
X111574500Y-44873920D01*
X111574499Y-44873920D01*
X104823725Y-44873920D01*
X104777869Y-44847445D01*
X104743111Y-44827377D01*
X104743110Y-44827376D01*
X104743109Y-44827376D01*
X104742487Y-44827017D01*
X104742486Y-44827016D01*
X104742485Y-44827016D01*
X104602475Y-44789500D01*
X104457525Y-44789500D01*
X104317515Y-44827016D01*
X104317513Y-44827016D01*
X104317513Y-44827017D01*
X104295088Y-44839964D01*
X104247998Y-44867151D01*
X104185999Y-44883764D01*
X102932229Y-44883764D01*
X102865190Y-44864079D01*
X102844548Y-44847445D01*
X102796616Y-44799513D01*
X102796614Y-44799511D01*
X102745250Y-44769856D01*
X102693888Y-44740201D01*
X102681780Y-44736957D01*
X102669673Y-44733713D01*
X102669670Y-44733712D01*
X102616596Y-44719491D01*
X102579309Y-44709500D01*
X102579308Y-44709500D01*
X102543936Y-44709500D01*
X102481936Y-44692887D01*
X102402485Y-44647016D01*
X102262475Y-44609500D01*
X102117525Y-44609500D01*
X101988993Y-44643940D01*
X101977511Y-44647017D01*
X101851988Y-44719488D01*
X101851982Y-44719493D01*
X101749493Y-44821982D01*
X101749488Y-44821988D01*
X101677017Y-44947511D01*
X101677016Y-44947515D01*
X101639500Y-45087525D01*
X66611050Y-45087525D01*
X66605806Y-43776530D01*
X76249500Y-43776530D01*
X76249500Y-43983469D01*
X76289868Y-44186412D01*
X76289870Y-44186420D01*
X76369058Y-44377596D01*
X76484024Y-44549657D01*
X76630342Y-44695975D01*
X76630345Y-44695977D01*
X76802402Y-44810941D01*
X76993580Y-44890130D01*
X77196530Y-44930499D01*
X77196534Y-44930500D01*
X77196535Y-44930500D01*
X77403466Y-44930500D01*
X77403467Y-44930499D01*
X77606420Y-44890130D01*
X77797598Y-44810941D01*
X77969655Y-44695977D01*
X78115977Y-44549655D01*
X78230941Y-44377598D01*
X78310130Y-44186420D01*
X78350500Y-43983465D01*
X78350500Y-43776535D01*
X78310130Y-43573580D01*
X78230941Y-43382402D01*
X78115977Y-43210345D01*
X78115975Y-43210342D01*
X77969657Y-43064024D01*
X77883626Y-43006541D01*
X77797598Y-42949059D01*
X77606420Y-42869870D01*
X77606412Y-42869868D01*
X77403469Y-42829500D01*
X77403465Y-42829500D01*
X77196535Y-42829500D01*
X77196530Y-42829500D01*
X76993587Y-42869868D01*
X76993579Y-42869870D01*
X76802403Y-42949058D01*
X76630342Y-43064024D01*
X76484024Y-43210342D01*
X76369058Y-43382403D01*
X76289870Y-43573579D01*
X76289868Y-43573587D01*
X76249500Y-43776530D01*
X66605806Y-43776530D01*
X66595646Y-41236530D01*
X76249500Y-41236530D01*
X76249500Y-41443469D01*
X76289868Y-41646412D01*
X76289870Y-41646420D01*
X76369058Y-41837596D01*
X76484024Y-42009657D01*
X76630342Y-42155975D01*
X76630345Y-42155977D01*
X76802402Y-42270941D01*
X76993580Y-42350130D01*
X77196530Y-42390499D01*
X77196534Y-42390500D01*
X77196535Y-42390500D01*
X77403466Y-42390500D01*
X77403467Y-42390499D01*
X77606420Y-42350130D01*
X77797598Y-42270941D01*
X77969655Y-42155977D01*
X78115977Y-42009655D01*
X78230941Y-41837598D01*
X78310130Y-41646420D01*
X78350500Y-41443465D01*
X78350500Y-41236535D01*
X78310130Y-41033580D01*
X78230941Y-40842402D01*
X78115977Y-40670345D01*
X78115975Y-40670342D01*
X77969657Y-40524024D01*
X77894670Y-40473920D01*
X111574499Y-40473920D01*
X111603340Y-40618907D01*
X111603343Y-40618917D01*
X111659912Y-40755488D01*
X111659919Y-40755501D01*
X111742048Y-40878415D01*
X111742051Y-40878419D01*
X111846580Y-40982948D01*
X111846584Y-40982951D01*
X111969498Y-41065080D01*
X111969511Y-41065087D01*
X112106082Y-41121656D01*
X112106087Y-41121658D01*
X112106091Y-41121658D01*
X112106092Y-41121659D01*
X112251079Y-41150500D01*
X112251082Y-41150500D01*
X112398920Y-41150500D01*
X112496462Y-41131096D01*
X112543913Y-41121658D01*
X112680495Y-41065084D01*
X112803416Y-40982951D01*
X112907951Y-40878416D01*
X112990084Y-40755495D01*
X113046658Y-40618913D01*
X113075500Y-40473918D01*
X113075500Y-40326082D01*
X113075500Y-40326079D01*
X113046659Y-40181092D01*
X113046658Y-40181091D01*
X113046658Y-40181087D01*
X113046656Y-40181082D01*
X112990087Y-40044511D01*
X112990080Y-40044498D01*
X112907951Y-39921584D01*
X112907948Y-39921580D01*
X112803419Y-39817051D01*
X112803415Y-39817048D01*
X112680501Y-39734919D01*
X112680488Y-39734912D01*
X112543917Y-39678343D01*
X112543907Y-39678340D01*
X112398920Y-39649500D01*
X112398918Y-39649500D01*
X112251082Y-39649500D01*
X112251080Y-39649500D01*
X112106092Y-39678340D01*
X112106082Y-39678343D01*
X111969511Y-39734912D01*
X111969498Y-39734919D01*
X111846584Y-39817048D01*
X111846580Y-39817051D01*
X111742051Y-39921580D01*
X111742048Y-39921584D01*
X111659919Y-40044498D01*
X111659912Y-40044511D01*
X111603343Y-40181082D01*
X111603340Y-40181092D01*
X111574500Y-40326079D01*
X111574500Y-40326082D01*
X111574500Y-40473918D01*
X111574500Y-40473920D01*
X111574499Y-40473920D01*
X77894670Y-40473920D01*
X77894667Y-40473918D01*
X77818600Y-40423092D01*
X77818599Y-40423090D01*
X77797599Y-40409059D01*
X77606420Y-40329870D01*
X77606412Y-40329868D01*
X77403469Y-40289500D01*
X77403465Y-40289500D01*
X77196535Y-40289500D01*
X77196530Y-40289500D01*
X76993587Y-40329868D01*
X76993579Y-40329870D01*
X76802403Y-40409058D01*
X76630342Y-40524024D01*
X76484024Y-40670342D01*
X76369058Y-40842403D01*
X76289870Y-41033579D01*
X76289868Y-41033587D01*
X76249500Y-41236530D01*
X66595646Y-41236530D01*
X66582421Y-37930247D01*
X76249500Y-37930247D01*
X76249500Y-39669752D01*
X76261131Y-39728229D01*
X76261132Y-39728230D01*
X76305447Y-39794552D01*
X76371769Y-39838867D01*
X76371770Y-39838868D01*
X76430247Y-39850499D01*
X76430250Y-39850500D01*
X76430252Y-39850500D01*
X78169750Y-39850500D01*
X78169751Y-39850499D01*
X78184568Y-39847552D01*
X78228229Y-39838868D01*
X78228229Y-39838867D01*
X78228231Y-39838867D01*
X78294552Y-39794552D01*
X78338867Y-39728231D01*
X78338867Y-39728229D01*
X78338868Y-39728229D01*
X78348790Y-39678343D01*
X78350500Y-39669748D01*
X78350500Y-37930252D01*
X78350500Y-37930249D01*
X78350499Y-37930247D01*
X78338868Y-37871770D01*
X78338867Y-37871769D01*
X78294552Y-37805447D01*
X78228230Y-37761132D01*
X78228229Y-37761131D01*
X78169752Y-37749500D01*
X78169748Y-37749500D01*
X76430252Y-37749500D01*
X76430247Y-37749500D01*
X76371770Y-37761131D01*
X76371769Y-37761132D01*
X76305447Y-37805447D01*
X76261132Y-37871769D01*
X76261131Y-37871770D01*
X76249500Y-37930247D01*
X66582421Y-37930247D01*
X66550513Y-29953290D01*
X66550661Y-29946718D01*
X66551569Y-29928230D01*
X66556136Y-29835258D01*
X68449500Y-29835258D01*
X68449500Y-30064741D01*
X68474446Y-30254215D01*
X68479452Y-30292238D01*
X68531377Y-30486027D01*
X68538842Y-30513887D01*
X68626650Y-30725876D01*
X68626657Y-30725890D01*
X68741392Y-30924617D01*
X68881081Y-31106661D01*
X68881089Y-31106670D01*
X69043330Y-31268911D01*
X69043338Y-31268918D01*
X69225382Y-31408607D01*
X69225385Y-31408608D01*
X69225388Y-31408611D01*
X69424112Y-31523344D01*
X69424117Y-31523346D01*
X69424123Y-31523349D01*
X69515480Y-31561190D01*
X69636113Y-31611158D01*
X69857762Y-31670548D01*
X70085266Y-31700500D01*
X70085273Y-31700500D01*
X70314727Y-31700500D01*
X70314734Y-31700500D01*
X70542238Y-31670548D01*
X70763887Y-31611158D01*
X70975888Y-31523344D01*
X71174612Y-31408611D01*
X71356661Y-31268919D01*
X71356665Y-31268914D01*
X71356670Y-31268911D01*
X71477933Y-31147648D01*
X74059500Y-31147648D01*
X74059500Y-32652351D01*
X74091522Y-32854534D01*
X74154781Y-33049223D01*
X74247715Y-33231613D01*
X74368028Y-33397213D01*
X74512786Y-33541971D01*
X74667749Y-33654556D01*
X74678390Y-33662287D01*
X74794607Y-33721503D01*
X74860776Y-33755218D01*
X74860778Y-33755218D01*
X74860781Y-33755220D01*
X74965137Y-33789127D01*
X75055465Y-33818477D01*
X75156557Y-33834488D01*
X75257648Y-33850500D01*
X75257649Y-33850500D01*
X75462351Y-33850500D01*
X75462352Y-33850500D01*
X75664534Y-33818477D01*
X75859219Y-33755220D01*
X76041610Y-33662287D01*
X76134590Y-33594732D01*
X76207213Y-33541971D01*
X76207215Y-33541968D01*
X76207219Y-33541966D01*
X76351966Y-33397219D01*
X76351968Y-33397215D01*
X76351971Y-33397213D01*
X76472284Y-33231614D01*
X76472285Y-33231613D01*
X76472287Y-33231610D01*
X76555174Y-33068934D01*
X76603147Y-33018140D01*
X76670968Y-33001345D01*
X76737103Y-33023882D01*
X76753339Y-33037550D01*
X76854088Y-33138299D01*
X76854092Y-33138302D01*
X77009762Y-33242318D01*
X77009768Y-33242321D01*
X77009769Y-33242322D01*
X77182749Y-33313973D01*
X77366379Y-33350499D01*
X77366383Y-33350500D01*
X77366384Y-33350500D01*
X77553617Y-33350500D01*
X77553618Y-33350499D01*
X77737251Y-33313973D01*
X77910231Y-33242322D01*
X78065908Y-33138302D01*
X78198302Y-33005908D01*
X78302322Y-32850231D01*
X78345439Y-32746138D01*
X78389280Y-32691734D01*
X78455574Y-32669669D01*
X78523273Y-32686948D01*
X78570884Y-32738085D01*
X78574561Y-32746138D01*
X78617674Y-32850224D01*
X78617681Y-32850237D01*
X78721697Y-33005907D01*
X78721700Y-33005911D01*
X78854088Y-33138299D01*
X78854092Y-33138302D01*
X79009762Y-33242318D01*
X79009768Y-33242321D01*
X79009769Y-33242322D01*
X79182749Y-33313973D01*
X79366379Y-33350499D01*
X79366383Y-33350500D01*
X79366384Y-33350500D01*
X79553617Y-33350500D01*
X79553618Y-33350499D01*
X79737251Y-33313973D01*
X79910231Y-33242322D01*
X80065908Y-33138302D01*
X80198302Y-33005908D01*
X80302322Y-32850231D01*
X80373973Y-32677251D01*
X80410500Y-32493616D01*
X80410500Y-31306384D01*
X80390029Y-31203469D01*
X80382769Y-31166967D01*
X80378926Y-31147648D01*
X82259500Y-31147648D01*
X82259500Y-32652351D01*
X82291522Y-32854534D01*
X82354781Y-33049223D01*
X82447715Y-33231613D01*
X82568028Y-33397213D01*
X82712786Y-33541971D01*
X82867749Y-33654556D01*
X82878390Y-33662287D01*
X82994607Y-33721503D01*
X83060776Y-33755218D01*
X83060778Y-33755218D01*
X83060781Y-33755220D01*
X83165137Y-33789127D01*
X83255465Y-33818477D01*
X83356557Y-33834488D01*
X83457648Y-33850500D01*
X83457649Y-33850500D01*
X83662351Y-33850500D01*
X83662352Y-33850500D01*
X83864534Y-33818477D01*
X84059219Y-33755220D01*
X84241610Y-33662287D01*
X84334590Y-33594732D01*
X84407213Y-33541971D01*
X84407215Y-33541968D01*
X84407219Y-33541966D01*
X84551966Y-33397219D01*
X84551968Y-33397215D01*
X84551971Y-33397213D01*
X84604732Y-33324590D01*
X84672287Y-33231610D01*
X84765220Y-33049219D01*
X84828477Y-32854534D01*
X84860500Y-32652352D01*
X84860500Y-31147648D01*
X84836565Y-30996530D01*
X99209500Y-30996530D01*
X99209500Y-31203469D01*
X99249868Y-31406412D01*
X99249870Y-31406420D01*
X99329059Y-31597598D01*
X99377801Y-31670546D01*
X99444024Y-31769657D01*
X99590342Y-31915975D01*
X99590345Y-31915977D01*
X99762402Y-32030941D01*
X99953580Y-32110130D01*
X100156530Y-32150499D01*
X100156534Y-32150500D01*
X100156535Y-32150500D01*
X100363466Y-32150500D01*
X100363467Y-32150499D01*
X100566420Y-32110130D01*
X100757598Y-32030941D01*
X100929655Y-31915977D01*
X101075977Y-31769655D01*
X101190941Y-31597598D01*
X101270130Y-31406420D01*
X101310500Y-31203465D01*
X101310500Y-30996535D01*
X101310499Y-30996530D01*
X101749500Y-30996530D01*
X101749500Y-31203469D01*
X101789868Y-31406412D01*
X101789870Y-31406420D01*
X101869059Y-31597598D01*
X101917801Y-31670546D01*
X101984024Y-31769657D01*
X102130342Y-31915975D01*
X102130345Y-31915977D01*
X102302402Y-32030941D01*
X102493580Y-32110130D01*
X102696530Y-32150499D01*
X102696534Y-32150500D01*
X102696535Y-32150500D01*
X102903466Y-32150500D01*
X102903467Y-32150499D01*
X103106420Y-32110130D01*
X103297598Y-32030941D01*
X103469655Y-31915977D01*
X103615977Y-31769655D01*
X103730941Y-31597598D01*
X103810130Y-31406420D01*
X103850500Y-31203465D01*
X103850500Y-30996535D01*
X103850499Y-30996530D01*
X104289500Y-30996530D01*
X104289500Y-31203469D01*
X104329868Y-31406412D01*
X104329870Y-31406420D01*
X104409059Y-31597598D01*
X104457801Y-31670546D01*
X104524024Y-31769657D01*
X104670342Y-31915975D01*
X104670345Y-31915977D01*
X104842402Y-32030941D01*
X105033580Y-32110130D01*
X105236530Y-32150499D01*
X105236534Y-32150500D01*
X105236535Y-32150500D01*
X105443466Y-32150500D01*
X105443467Y-32150499D01*
X105646420Y-32110130D01*
X105837598Y-32030941D01*
X106009655Y-31915977D01*
X106155977Y-31769655D01*
X106270941Y-31597598D01*
X106350130Y-31406420D01*
X106390500Y-31203465D01*
X106390500Y-30996535D01*
X106350130Y-30793580D01*
X106270941Y-30602402D01*
X106155977Y-30430345D01*
X106155975Y-30430342D01*
X106009657Y-30284024D01*
X105923626Y-30226541D01*
X105837598Y-30169059D01*
X105761927Y-30137715D01*
X105646420Y-30089870D01*
X105646412Y-30089868D01*
X105443469Y-30049500D01*
X105443465Y-30049500D01*
X105236535Y-30049500D01*
X105236530Y-30049500D01*
X105033587Y-30089868D01*
X105033579Y-30089870D01*
X104842403Y-30169058D01*
X104670342Y-30284024D01*
X104524024Y-30430342D01*
X104409058Y-30602403D01*
X104329870Y-30793579D01*
X104329868Y-30793587D01*
X104289500Y-30996530D01*
X103850499Y-30996530D01*
X103810130Y-30793580D01*
X103730941Y-30602402D01*
X103615977Y-30430345D01*
X103615975Y-30430342D01*
X103469657Y-30284024D01*
X103383626Y-30226541D01*
X103297598Y-30169059D01*
X103221927Y-30137715D01*
X103106420Y-30089870D01*
X103106412Y-30089868D01*
X102903469Y-30049500D01*
X102903465Y-30049500D01*
X102696535Y-30049500D01*
X102696530Y-30049500D01*
X102493587Y-30089868D01*
X102493579Y-30089870D01*
X102302403Y-30169058D01*
X102130342Y-30284024D01*
X101984024Y-30430342D01*
X101869058Y-30602403D01*
X101789870Y-30793579D01*
X101789868Y-30793587D01*
X101749500Y-30996530D01*
X101310499Y-30996530D01*
X101270130Y-30793580D01*
X101190941Y-30602402D01*
X101075977Y-30430345D01*
X101075975Y-30430342D01*
X100929657Y-30284024D01*
X100843626Y-30226541D01*
X100757598Y-30169059D01*
X100681927Y-30137715D01*
X100566420Y-30089870D01*
X100566412Y-30089868D01*
X100363469Y-30049500D01*
X100363465Y-30049500D01*
X100156535Y-30049500D01*
X100156530Y-30049500D01*
X99953587Y-30089868D01*
X99953579Y-30089870D01*
X99762403Y-30169058D01*
X99590342Y-30284024D01*
X99444024Y-30430342D01*
X99329058Y-30602403D01*
X99249870Y-30793579D01*
X99249868Y-30793587D01*
X99209500Y-30996530D01*
X84836565Y-30996530D01*
X84828477Y-30945466D01*
X84765220Y-30750781D01*
X84765218Y-30750778D01*
X84765218Y-30750776D01*
X84719829Y-30661697D01*
X84672287Y-30568390D01*
X84632689Y-30513887D01*
X84551971Y-30402786D01*
X84407213Y-30258028D01*
X84241613Y-30137715D01*
X84241612Y-30137714D01*
X84241610Y-30137713D01*
X84184653Y-30108691D01*
X84059223Y-30044781D01*
X83864534Y-29981522D01*
X83684772Y-29953051D01*
X83662352Y-29949500D01*
X83457648Y-29949500D01*
X83435228Y-29953051D01*
X83255465Y-29981522D01*
X83060776Y-30044781D01*
X82878386Y-30137715D01*
X82712786Y-30258028D01*
X82568028Y-30402786D01*
X82447715Y-30568386D01*
X82354781Y-30750776D01*
X82291522Y-30945465D01*
X82259500Y-31147648D01*
X80378926Y-31147648D01*
X80373974Y-31122756D01*
X80373973Y-31122749D01*
X80302322Y-30949769D01*
X80302321Y-30949768D01*
X80302318Y-30949762D01*
X80198302Y-30794092D01*
X80198299Y-30794088D01*
X80065911Y-30661700D01*
X80065907Y-30661697D01*
X79910237Y-30557681D01*
X79910228Y-30557676D01*
X79737251Y-30486027D01*
X79737243Y-30486025D01*
X79553620Y-30449500D01*
X79553616Y-30449500D01*
X79366384Y-30449500D01*
X79366379Y-30449500D01*
X79182756Y-30486025D01*
X79182748Y-30486027D01*
X79009771Y-30557676D01*
X79009762Y-30557681D01*
X78854092Y-30661697D01*
X78854088Y-30661700D01*
X78721700Y-30794088D01*
X78721697Y-30794092D01*
X78617681Y-30949762D01*
X78617676Y-30949772D01*
X78574561Y-31053862D01*
X78530720Y-31108265D01*
X78464426Y-31130330D01*
X78396726Y-31113051D01*
X78349116Y-31061913D01*
X78345439Y-31053862D01*
X78302323Y-30949772D01*
X78302323Y-30949771D01*
X78302322Y-30949769D01*
X78302320Y-30949766D01*
X78302318Y-30949762D01*
X78198302Y-30794092D01*
X78198299Y-30794088D01*
X78065911Y-30661700D01*
X78065907Y-30661697D01*
X77910237Y-30557681D01*
X77910228Y-30557676D01*
X77737251Y-30486027D01*
X77737243Y-30486025D01*
X77553620Y-30449500D01*
X77553616Y-30449500D01*
X77366384Y-30449500D01*
X77366379Y-30449500D01*
X77182756Y-30486025D01*
X77182748Y-30486027D01*
X77009771Y-30557676D01*
X77009762Y-30557681D01*
X76854092Y-30661697D01*
X76753339Y-30762450D01*
X76692016Y-30795934D01*
X76622324Y-30790950D01*
X76566391Y-30749078D01*
X76555173Y-30731063D01*
X76519829Y-30661697D01*
X76472287Y-30568390D01*
X76472285Y-30568387D01*
X76472284Y-30568385D01*
X76351971Y-30402786D01*
X76207213Y-30258028D01*
X76041613Y-30137715D01*
X76041612Y-30137714D01*
X76041610Y-30137713D01*
X75984653Y-30108691D01*
X75859223Y-30044781D01*
X75664534Y-29981522D01*
X75484772Y-29953051D01*
X75462352Y-29949500D01*
X75257648Y-29949500D01*
X75235228Y-29953051D01*
X75055465Y-29981522D01*
X74860776Y-30044781D01*
X74678386Y-30137715D01*
X74512786Y-30258028D01*
X74368028Y-30402786D01*
X74247715Y-30568386D01*
X74154781Y-30750776D01*
X74091522Y-30945465D01*
X74059500Y-31147648D01*
X71477933Y-31147648D01*
X71518911Y-31106670D01*
X71518916Y-31106664D01*
X71518919Y-31106661D01*
X71658611Y-30924612D01*
X71773344Y-30725888D01*
X71861158Y-30513887D01*
X71920548Y-30292238D01*
X71950500Y-30064734D01*
X71950500Y-29835266D01*
X71920548Y-29607762D01*
X71861158Y-29386113D01*
X71773344Y-29174112D01*
X71658611Y-28975388D01*
X71598101Y-28896530D01*
X88909500Y-28896530D01*
X88909500Y-29103469D01*
X88942368Y-29268706D01*
X88949870Y-29306420D01*
X89029059Y-29497598D01*
X89064187Y-29550171D01*
X89144024Y-29669657D01*
X89290342Y-29815975D01*
X89290345Y-29815977D01*
X89462402Y-29930941D01*
X89653580Y-30010130D01*
X89851508Y-30049500D01*
X89856530Y-30050499D01*
X89856534Y-30050500D01*
X89856535Y-30050500D01*
X90063466Y-30050500D01*
X90063467Y-30050499D01*
X90266420Y-30010130D01*
X90457598Y-29930941D01*
X90629655Y-29815977D01*
X90775977Y-29669655D01*
X90890941Y-29497598D01*
X90970130Y-29306420D01*
X91010500Y-29103465D01*
X91010500Y-28896535D01*
X90970130Y-28693580D01*
X90890941Y-28502402D01*
X90775977Y-28330345D01*
X90775975Y-28330342D01*
X90629657Y-28184024D01*
X90549173Y-28130247D01*
X91449500Y-28130247D01*
X91449500Y-29869752D01*
X91461131Y-29928229D01*
X91461132Y-29928230D01*
X91505447Y-29994552D01*
X91571769Y-30038867D01*
X91571770Y-30038868D01*
X91630247Y-30050499D01*
X91630250Y-30050500D01*
X91630252Y-30050500D01*
X93369750Y-30050500D01*
X93369751Y-30050499D01*
X93384568Y-30047552D01*
X93428229Y-30038868D01*
X93428229Y-30038867D01*
X93428231Y-30038867D01*
X93494552Y-29994552D01*
X93538867Y-29928231D01*
X93538867Y-29928229D01*
X93538868Y-29928229D01*
X93550499Y-29869752D01*
X93550500Y-29869750D01*
X93550500Y-29835258D01*
X113449500Y-29835258D01*
X113449500Y-30064741D01*
X113474446Y-30254215D01*
X113479452Y-30292238D01*
X113531377Y-30486027D01*
X113538842Y-30513887D01*
X113626650Y-30725876D01*
X113626657Y-30725890D01*
X113741392Y-30924617D01*
X113881081Y-31106661D01*
X113881089Y-31106670D01*
X114043330Y-31268911D01*
X114043338Y-31268918D01*
X114225382Y-31408607D01*
X114225385Y-31408608D01*
X114225388Y-31408611D01*
X114424112Y-31523344D01*
X114424117Y-31523346D01*
X114424123Y-31523349D01*
X114515480Y-31561190D01*
X114636113Y-31611158D01*
X114857762Y-31670548D01*
X115085266Y-31700500D01*
X115085273Y-31700500D01*
X115314727Y-31700500D01*
X115314734Y-31700500D01*
X115542238Y-31670548D01*
X115763887Y-31611158D01*
X115975888Y-31523344D01*
X116174612Y-31408611D01*
X116356661Y-31268919D01*
X116356665Y-31268914D01*
X116356670Y-31268911D01*
X116518911Y-31106670D01*
X116518916Y-31106664D01*
X116518919Y-31106661D01*
X116658611Y-30924612D01*
X116773344Y-30725888D01*
X116861158Y-30513887D01*
X116920548Y-30292238D01*
X116950500Y-30064734D01*
X116950500Y-29835266D01*
X116920548Y-29607762D01*
X116861158Y-29386113D01*
X116773344Y-29174112D01*
X116658611Y-28975388D01*
X116658608Y-28975385D01*
X116658607Y-28975382D01*
X116518918Y-28793338D01*
X116518911Y-28793330D01*
X116356670Y-28631089D01*
X116356661Y-28631081D01*
X116174617Y-28491392D01*
X115975890Y-28376657D01*
X115975876Y-28376650D01*
X115763887Y-28288842D01*
X115542238Y-28229452D01*
X115503903Y-28224405D01*
X115314741Y-28199500D01*
X115314734Y-28199500D01*
X115085266Y-28199500D01*
X115085258Y-28199500D01*
X114868715Y-28228009D01*
X114857762Y-28229452D01*
X114764076Y-28254554D01*
X114636112Y-28288842D01*
X114424123Y-28376650D01*
X114424109Y-28376657D01*
X114225382Y-28491392D01*
X114043338Y-28631081D01*
X113881081Y-28793338D01*
X113741392Y-28975382D01*
X113626657Y-29174109D01*
X113626650Y-29174123D01*
X113538842Y-29386112D01*
X113538842Y-29386113D01*
X113496286Y-29544938D01*
X113479453Y-29607759D01*
X113479451Y-29607770D01*
X113449500Y-29835258D01*
X93550500Y-29835258D01*
X93550500Y-28130249D01*
X93550499Y-28130247D01*
X93538868Y-28071770D01*
X93538867Y-28071769D01*
X93494552Y-28005447D01*
X93428230Y-27961132D01*
X93428229Y-27961131D01*
X93369752Y-27949500D01*
X93369748Y-27949500D01*
X91630252Y-27949500D01*
X91630247Y-27949500D01*
X91571770Y-27961131D01*
X91571769Y-27961132D01*
X91505447Y-28005447D01*
X91461132Y-28071769D01*
X91461131Y-28071770D01*
X91449500Y-28130247D01*
X90549173Y-28130247D01*
X90461655Y-28071770D01*
X90457598Y-28069059D01*
X90266420Y-27989870D01*
X90266412Y-27989868D01*
X90063469Y-27949500D01*
X90063465Y-27949500D01*
X89856535Y-27949500D01*
X89856530Y-27949500D01*
X89653587Y-27989868D01*
X89653579Y-27989870D01*
X89462403Y-28069058D01*
X89290342Y-28184024D01*
X89144024Y-28330342D01*
X89029058Y-28502403D01*
X88949870Y-28693579D01*
X88949868Y-28693587D01*
X88909500Y-28896530D01*
X71598101Y-28896530D01*
X71518919Y-28793339D01*
X71518918Y-28793338D01*
X71518911Y-28793330D01*
X71356670Y-28631089D01*
X71356661Y-28631081D01*
X71174617Y-28491392D01*
X70975890Y-28376657D01*
X70975876Y-28376650D01*
X70763887Y-28288842D01*
X70542238Y-28229452D01*
X70503903Y-28224405D01*
X70314741Y-28199500D01*
X70314734Y-28199500D01*
X70085266Y-28199500D01*
X70085258Y-28199500D01*
X69868715Y-28228009D01*
X69857762Y-28229452D01*
X69764076Y-28254554D01*
X69636112Y-28288842D01*
X69424123Y-28376650D01*
X69424109Y-28376657D01*
X69225382Y-28491392D01*
X69043338Y-28631081D01*
X68881081Y-28793338D01*
X68741392Y-28975382D01*
X68626657Y-29174109D01*
X68626650Y-29174123D01*
X68538842Y-29386112D01*
X68538842Y-29386113D01*
X68496286Y-29544938D01*
X68479453Y-29607759D01*
X68479451Y-29607770D01*
X68449500Y-29835258D01*
X66556136Y-29835258D01*
X66566209Y-29630222D01*
X66566730Y-29623457D01*
X66574440Y-29550106D01*
X66575086Y-29545005D01*
X66616075Y-29268679D01*
X66617433Y-29261148D01*
X66631570Y-29194642D01*
X66632553Y-29190392D01*
X66702028Y-28913033D01*
X66704358Y-28904923D01*
X66721969Y-28850723D01*
X66723071Y-28847495D01*
X66823374Y-28567166D01*
X66826816Y-28558577D01*
X66841793Y-28524939D01*
X66842862Y-28522610D01*
X66978839Y-28235109D01*
X66984546Y-28224434D01*
X67162424Y-27927662D01*
X67169167Y-27917569D01*
X67375271Y-27639670D01*
X67382988Y-27630268D01*
X67505119Y-27495518D01*
X67615329Y-27373920D01*
X67623920Y-27365329D01*
X67880272Y-27132984D01*
X67889675Y-27125268D01*
X68167569Y-26919167D01*
X68177662Y-26912424D01*
X68474434Y-26734546D01*
X68485109Y-26728839D01*
X68772610Y-26592862D01*
X68774939Y-26591793D01*
X68808577Y-26576816D01*
X68817166Y-26573374D01*
X69097495Y-26473071D01*
X69100723Y-26471969D01*
X69154923Y-26454358D01*
X69163033Y-26452028D01*
X69440392Y-26382553D01*
X69444642Y-26381570D01*
X69511148Y-26367433D01*
X69518679Y-26366075D01*
X69795005Y-26325086D01*
X69800106Y-26324440D01*
X69873457Y-26316730D01*
X69880222Y-26316209D01*
X70196967Y-26300649D01*
X70203051Y-26300500D01*
X115196949Y-26300500D01*
X115203033Y-26300649D01*
G37*
%TD.AperFunction*%
%TD*%
M02*
