%TF.GenerationSoftware,KiCad,Pcbnew,10.0.5*%
%TF.CreationDate,2026-07-30T01:17:07-04:00*%
%TF.ProjectId,STM32 PCB Design,53544d33-3220-4504-9342-204465736967,rev?*%
%TF.SameCoordinates,Original*%
%TF.FileFunction,Legend,Top*%
%TF.FilePolarity,Positive*%
%FSLAX46Y46*%
G04 Gerber Fmt 4.6, Leading zero omitted, Abs format (unit mm)*
G04 Created by KiCad (PCBNEW 10.0.5) date 2026-07-30 01:17:07*
%MOMM*%
%LPD*%
G01*
G04 APERTURE LIST*
%ADD10C,0.100000*%
%ADD11C,0.150000*%
%ADD12C,0.120000*%
G04 APERTURE END LIST*
D10*
X100686666Y-37566109D02*
X100520000Y-37328014D01*
X100400952Y-37566109D02*
X100400952Y-37066109D01*
X100400952Y-37066109D02*
X100591428Y-37066109D01*
X100591428Y-37066109D02*
X100639047Y-37089919D01*
X100639047Y-37089919D02*
X100662857Y-37113728D01*
X100662857Y-37113728D02*
X100686666Y-37161347D01*
X100686666Y-37161347D02*
X100686666Y-37232776D01*
X100686666Y-37232776D02*
X100662857Y-37280395D01*
X100662857Y-37280395D02*
X100639047Y-37304204D01*
X100639047Y-37304204D02*
X100591428Y-37328014D01*
X100591428Y-37328014D02*
X100400952Y-37328014D01*
X100877143Y-37113728D02*
X100900952Y-37089919D01*
X100900952Y-37089919D02*
X100948571Y-37066109D01*
X100948571Y-37066109D02*
X101067619Y-37066109D01*
X101067619Y-37066109D02*
X101115238Y-37089919D01*
X101115238Y-37089919D02*
X101139047Y-37113728D01*
X101139047Y-37113728D02*
X101162857Y-37161347D01*
X101162857Y-37161347D02*
X101162857Y-37208966D01*
X101162857Y-37208966D02*
X101139047Y-37280395D01*
X101139047Y-37280395D02*
X100853333Y-37566109D01*
X100853333Y-37566109D02*
X101162857Y-37566109D01*
X90502858Y-53972300D02*
X90574286Y-53996109D01*
X90574286Y-53996109D02*
X90693334Y-53996109D01*
X90693334Y-53996109D02*
X90740953Y-53972300D01*
X90740953Y-53972300D02*
X90764762Y-53948490D01*
X90764762Y-53948490D02*
X90788572Y-53900871D01*
X90788572Y-53900871D02*
X90788572Y-53853252D01*
X90788572Y-53853252D02*
X90764762Y-53805633D01*
X90764762Y-53805633D02*
X90740953Y-53781823D01*
X90740953Y-53781823D02*
X90693334Y-53758014D01*
X90693334Y-53758014D02*
X90598096Y-53734204D01*
X90598096Y-53734204D02*
X90550477Y-53710395D01*
X90550477Y-53710395D02*
X90526667Y-53686585D01*
X90526667Y-53686585D02*
X90502858Y-53638966D01*
X90502858Y-53638966D02*
X90502858Y-53591347D01*
X90502858Y-53591347D02*
X90526667Y-53543728D01*
X90526667Y-53543728D02*
X90550477Y-53519919D01*
X90550477Y-53519919D02*
X90598096Y-53496109D01*
X90598096Y-53496109D02*
X90717143Y-53496109D01*
X90717143Y-53496109D02*
X90788572Y-53519919D01*
X91002857Y-53996109D02*
X91002857Y-53496109D01*
X91002857Y-53496109D02*
X91121905Y-53496109D01*
X91121905Y-53496109D02*
X91193333Y-53519919D01*
X91193333Y-53519919D02*
X91240952Y-53567538D01*
X91240952Y-53567538D02*
X91264762Y-53615157D01*
X91264762Y-53615157D02*
X91288571Y-53710395D01*
X91288571Y-53710395D02*
X91288571Y-53781823D01*
X91288571Y-53781823D02*
X91264762Y-53877061D01*
X91264762Y-53877061D02*
X91240952Y-53924680D01*
X91240952Y-53924680D02*
X91193333Y-53972300D01*
X91193333Y-53972300D02*
X91121905Y-53996109D01*
X91121905Y-53996109D02*
X91002857Y-53996109D01*
X91479048Y-53853252D02*
X91717143Y-53853252D01*
X91431429Y-53996109D02*
X91598095Y-53496109D01*
X91598095Y-53496109D02*
X91764762Y-53996109D01*
X81106666Y-49636109D02*
X80940000Y-49398014D01*
X80820952Y-49636109D02*
X80820952Y-49136109D01*
X80820952Y-49136109D02*
X81011428Y-49136109D01*
X81011428Y-49136109D02*
X81059047Y-49159919D01*
X81059047Y-49159919D02*
X81082857Y-49183728D01*
X81082857Y-49183728D02*
X81106666Y-49231347D01*
X81106666Y-49231347D02*
X81106666Y-49302776D01*
X81106666Y-49302776D02*
X81082857Y-49350395D01*
X81082857Y-49350395D02*
X81059047Y-49374204D01*
X81059047Y-49374204D02*
X81011428Y-49398014D01*
X81011428Y-49398014D02*
X80820952Y-49398014D01*
X81273333Y-49136109D02*
X81582857Y-49136109D01*
X81582857Y-49136109D02*
X81416190Y-49326585D01*
X81416190Y-49326585D02*
X81487619Y-49326585D01*
X81487619Y-49326585D02*
X81535238Y-49350395D01*
X81535238Y-49350395D02*
X81559047Y-49374204D01*
X81559047Y-49374204D02*
X81582857Y-49421823D01*
X81582857Y-49421823D02*
X81582857Y-49540871D01*
X81582857Y-49540871D02*
X81559047Y-49588490D01*
X81559047Y-49588490D02*
X81535238Y-49612300D01*
X81535238Y-49612300D02*
X81487619Y-49636109D01*
X81487619Y-49636109D02*
X81344762Y-49636109D01*
X81344762Y-49636109D02*
X81297143Y-49612300D01*
X81297143Y-49612300D02*
X81273333Y-49588490D01*
D11*
X102148572Y-57273866D02*
X102910477Y-57273866D01*
X102529524Y-57654819D02*
X102529524Y-56892914D01*
X103291429Y-56654819D02*
X103910476Y-56654819D01*
X103910476Y-56654819D02*
X103577143Y-57035771D01*
X103577143Y-57035771D02*
X103720000Y-57035771D01*
X103720000Y-57035771D02*
X103815238Y-57083390D01*
X103815238Y-57083390D02*
X103862857Y-57131009D01*
X103862857Y-57131009D02*
X103910476Y-57226247D01*
X103910476Y-57226247D02*
X103910476Y-57464342D01*
X103910476Y-57464342D02*
X103862857Y-57559580D01*
X103862857Y-57559580D02*
X103815238Y-57607200D01*
X103815238Y-57607200D02*
X103720000Y-57654819D01*
X103720000Y-57654819D02*
X103434286Y-57654819D01*
X103434286Y-57654819D02*
X103339048Y-57607200D01*
X103339048Y-57607200D02*
X103291429Y-57559580D01*
X104339048Y-57559580D02*
X104386667Y-57607200D01*
X104386667Y-57607200D02*
X104339048Y-57654819D01*
X104339048Y-57654819D02*
X104291429Y-57607200D01*
X104291429Y-57607200D02*
X104339048Y-57559580D01*
X104339048Y-57559580D02*
X104339048Y-57654819D01*
X104720000Y-56654819D02*
X105339047Y-56654819D01*
X105339047Y-56654819D02*
X105005714Y-57035771D01*
X105005714Y-57035771D02*
X105148571Y-57035771D01*
X105148571Y-57035771D02*
X105243809Y-57083390D01*
X105243809Y-57083390D02*
X105291428Y-57131009D01*
X105291428Y-57131009D02*
X105339047Y-57226247D01*
X105339047Y-57226247D02*
X105339047Y-57464342D01*
X105339047Y-57464342D02*
X105291428Y-57559580D01*
X105291428Y-57559580D02*
X105243809Y-57607200D01*
X105243809Y-57607200D02*
X105148571Y-57654819D01*
X105148571Y-57654819D02*
X104862857Y-57654819D01*
X104862857Y-57654819D02*
X104767619Y-57607200D01*
X104767619Y-57607200D02*
X104720000Y-57559580D01*
X105624762Y-56654819D02*
X105958095Y-57654819D01*
X105958095Y-57654819D02*
X106291428Y-56654819D01*
X107958095Y-57654819D02*
X107624762Y-57178628D01*
X107386667Y-57654819D02*
X107386667Y-56654819D01*
X107386667Y-56654819D02*
X107767619Y-56654819D01*
X107767619Y-56654819D02*
X107862857Y-56702438D01*
X107862857Y-56702438D02*
X107910476Y-56750057D01*
X107910476Y-56750057D02*
X107958095Y-56845295D01*
X107958095Y-56845295D02*
X107958095Y-56988152D01*
X107958095Y-56988152D02*
X107910476Y-57083390D01*
X107910476Y-57083390D02*
X107862857Y-57131009D01*
X107862857Y-57131009D02*
X107767619Y-57178628D01*
X107767619Y-57178628D02*
X107386667Y-57178628D01*
X108386667Y-57131009D02*
X108720000Y-57131009D01*
X108862857Y-57654819D02*
X108386667Y-57654819D01*
X108386667Y-57654819D02*
X108386667Y-56654819D01*
X108386667Y-56654819D02*
X108862857Y-56654819D01*
X109815238Y-56702438D02*
X109720000Y-56654819D01*
X109720000Y-56654819D02*
X109577143Y-56654819D01*
X109577143Y-56654819D02*
X109434286Y-56702438D01*
X109434286Y-56702438D02*
X109339048Y-56797676D01*
X109339048Y-56797676D02*
X109291429Y-56892914D01*
X109291429Y-56892914D02*
X109243810Y-57083390D01*
X109243810Y-57083390D02*
X109243810Y-57226247D01*
X109243810Y-57226247D02*
X109291429Y-57416723D01*
X109291429Y-57416723D02*
X109339048Y-57511961D01*
X109339048Y-57511961D02*
X109434286Y-57607200D01*
X109434286Y-57607200D02*
X109577143Y-57654819D01*
X109577143Y-57654819D02*
X109672381Y-57654819D01*
X109672381Y-57654819D02*
X109815238Y-57607200D01*
X109815238Y-57607200D02*
X109862857Y-57559580D01*
X109862857Y-57559580D02*
X109862857Y-57226247D01*
X109862857Y-57226247D02*
X109672381Y-57226247D01*
X110291429Y-57559580D02*
X110339048Y-57607200D01*
X110339048Y-57607200D02*
X110291429Y-57654819D01*
X110291429Y-57654819D02*
X110243810Y-57607200D01*
X110243810Y-57607200D02*
X110291429Y-57559580D01*
X110291429Y-57559580D02*
X110291429Y-57654819D01*
D10*
X85548490Y-41571428D02*
X85572300Y-41595237D01*
X85572300Y-41595237D02*
X85596109Y-41666666D01*
X85596109Y-41666666D02*
X85596109Y-41714285D01*
X85596109Y-41714285D02*
X85572300Y-41785713D01*
X85572300Y-41785713D02*
X85524680Y-41833332D01*
X85524680Y-41833332D02*
X85477061Y-41857142D01*
X85477061Y-41857142D02*
X85381823Y-41880951D01*
X85381823Y-41880951D02*
X85310395Y-41880951D01*
X85310395Y-41880951D02*
X85215157Y-41857142D01*
X85215157Y-41857142D02*
X85167538Y-41833332D01*
X85167538Y-41833332D02*
X85119919Y-41785713D01*
X85119919Y-41785713D02*
X85096109Y-41714285D01*
X85096109Y-41714285D02*
X85096109Y-41666666D01*
X85096109Y-41666666D02*
X85119919Y-41595237D01*
X85119919Y-41595237D02*
X85143728Y-41571428D01*
X85596109Y-41095237D02*
X85596109Y-41380951D01*
X85596109Y-41238094D02*
X85096109Y-41238094D01*
X85096109Y-41238094D02*
X85167538Y-41285713D01*
X85167538Y-41285713D02*
X85215157Y-41333332D01*
X85215157Y-41333332D02*
X85238966Y-41380951D01*
X85096109Y-40642857D02*
X85096109Y-40880952D01*
X85096109Y-40880952D02*
X85334204Y-40904761D01*
X85334204Y-40904761D02*
X85310395Y-40880952D01*
X85310395Y-40880952D02*
X85286585Y-40833333D01*
X85286585Y-40833333D02*
X85286585Y-40714285D01*
X85286585Y-40714285D02*
X85310395Y-40666666D01*
X85310395Y-40666666D02*
X85334204Y-40642857D01*
X85334204Y-40642857D02*
X85381823Y-40619047D01*
X85381823Y-40619047D02*
X85500871Y-40619047D01*
X85500871Y-40619047D02*
X85548490Y-40642857D01*
X85548490Y-40642857D02*
X85572300Y-40666666D01*
X85572300Y-40666666D02*
X85596109Y-40714285D01*
X85596109Y-40714285D02*
X85596109Y-40833333D01*
X85596109Y-40833333D02*
X85572300Y-40880952D01*
X85572300Y-40880952D02*
X85548490Y-40904761D01*
X94879047Y-35346109D02*
X94879047Y-35750871D01*
X94879047Y-35750871D02*
X94902857Y-35798490D01*
X94902857Y-35798490D02*
X94926666Y-35822300D01*
X94926666Y-35822300D02*
X94974285Y-35846109D01*
X94974285Y-35846109D02*
X95069523Y-35846109D01*
X95069523Y-35846109D02*
X95117142Y-35822300D01*
X95117142Y-35822300D02*
X95140952Y-35798490D01*
X95140952Y-35798490D02*
X95164761Y-35750871D01*
X95164761Y-35750871D02*
X95164761Y-35346109D01*
X95664762Y-35846109D02*
X95379048Y-35846109D01*
X95521905Y-35846109D02*
X95521905Y-35346109D01*
X95521905Y-35346109D02*
X95474286Y-35417538D01*
X95474286Y-35417538D02*
X95426667Y-35465157D01*
X95426667Y-35465157D02*
X95379048Y-35488966D01*
X80048490Y-39341428D02*
X80072300Y-39365237D01*
X80072300Y-39365237D02*
X80096109Y-39436666D01*
X80096109Y-39436666D02*
X80096109Y-39484285D01*
X80096109Y-39484285D02*
X80072300Y-39555713D01*
X80072300Y-39555713D02*
X80024680Y-39603332D01*
X80024680Y-39603332D02*
X79977061Y-39627142D01*
X79977061Y-39627142D02*
X79881823Y-39650951D01*
X79881823Y-39650951D02*
X79810395Y-39650951D01*
X79810395Y-39650951D02*
X79715157Y-39627142D01*
X79715157Y-39627142D02*
X79667538Y-39603332D01*
X79667538Y-39603332D02*
X79619919Y-39555713D01*
X79619919Y-39555713D02*
X79596109Y-39484285D01*
X79596109Y-39484285D02*
X79596109Y-39436666D01*
X79596109Y-39436666D02*
X79619919Y-39365237D01*
X79619919Y-39365237D02*
X79643728Y-39341428D01*
X80096109Y-38865237D02*
X80096109Y-39150951D01*
X80096109Y-39008094D02*
X79596109Y-39008094D01*
X79596109Y-39008094D02*
X79667538Y-39055713D01*
X79667538Y-39055713D02*
X79715157Y-39103332D01*
X79715157Y-39103332D02*
X79738966Y-39150951D01*
X79643728Y-38674761D02*
X79619919Y-38650952D01*
X79619919Y-38650952D02*
X79596109Y-38603333D01*
X79596109Y-38603333D02*
X79596109Y-38484285D01*
X79596109Y-38484285D02*
X79619919Y-38436666D01*
X79619919Y-38436666D02*
X79643728Y-38412857D01*
X79643728Y-38412857D02*
X79691347Y-38389047D01*
X79691347Y-38389047D02*
X79738966Y-38389047D01*
X79738966Y-38389047D02*
X79810395Y-38412857D01*
X79810395Y-38412857D02*
X80096109Y-38698571D01*
X80096109Y-38698571D02*
X80096109Y-38389047D01*
D11*
X69438095Y-51454819D02*
X69438095Y-50454819D01*
X69438095Y-50931009D02*
X70009523Y-50931009D01*
X70009523Y-51454819D02*
X70009523Y-50454819D01*
X70914285Y-50788152D02*
X70914285Y-51454819D01*
X70676190Y-50407200D02*
X70438095Y-51121485D01*
X70438095Y-51121485D02*
X71057142Y-51121485D01*
D10*
X84266666Y-53226109D02*
X84100000Y-52988014D01*
X83980952Y-53226109D02*
X83980952Y-52726109D01*
X83980952Y-52726109D02*
X84171428Y-52726109D01*
X84171428Y-52726109D02*
X84219047Y-52749919D01*
X84219047Y-52749919D02*
X84242857Y-52773728D01*
X84242857Y-52773728D02*
X84266666Y-52821347D01*
X84266666Y-52821347D02*
X84266666Y-52892776D01*
X84266666Y-52892776D02*
X84242857Y-52940395D01*
X84242857Y-52940395D02*
X84219047Y-52964204D01*
X84219047Y-52964204D02*
X84171428Y-52988014D01*
X84171428Y-52988014D02*
X83980952Y-52988014D01*
X84695238Y-52892776D02*
X84695238Y-53226109D01*
X84576190Y-52702300D02*
X84457143Y-53059442D01*
X84457143Y-53059442D02*
X84766666Y-53059442D01*
X86620952Y-47436109D02*
X86620952Y-46936109D01*
X86620952Y-46936109D02*
X86740000Y-46936109D01*
X86740000Y-46936109D02*
X86811428Y-46959919D01*
X86811428Y-46959919D02*
X86859047Y-47007538D01*
X86859047Y-47007538D02*
X86882857Y-47055157D01*
X86882857Y-47055157D02*
X86906666Y-47150395D01*
X86906666Y-47150395D02*
X86906666Y-47221823D01*
X86906666Y-47221823D02*
X86882857Y-47317061D01*
X86882857Y-47317061D02*
X86859047Y-47364680D01*
X86859047Y-47364680D02*
X86811428Y-47412300D01*
X86811428Y-47412300D02*
X86740000Y-47436109D01*
X86740000Y-47436109D02*
X86620952Y-47436109D01*
X87382857Y-47436109D02*
X87097143Y-47436109D01*
X87240000Y-47436109D02*
X87240000Y-46936109D01*
X87240000Y-46936109D02*
X87192381Y-47007538D01*
X87192381Y-47007538D02*
X87144762Y-47055157D01*
X87144762Y-47055157D02*
X87097143Y-47078966D01*
X87636666Y-34718490D02*
X87612857Y-34742300D01*
X87612857Y-34742300D02*
X87541428Y-34766109D01*
X87541428Y-34766109D02*
X87493809Y-34766109D01*
X87493809Y-34766109D02*
X87422381Y-34742300D01*
X87422381Y-34742300D02*
X87374762Y-34694680D01*
X87374762Y-34694680D02*
X87350952Y-34647061D01*
X87350952Y-34647061D02*
X87327143Y-34551823D01*
X87327143Y-34551823D02*
X87327143Y-34480395D01*
X87327143Y-34480395D02*
X87350952Y-34385157D01*
X87350952Y-34385157D02*
X87374762Y-34337538D01*
X87374762Y-34337538D02*
X87422381Y-34289919D01*
X87422381Y-34289919D02*
X87493809Y-34266109D01*
X87493809Y-34266109D02*
X87541428Y-34266109D01*
X87541428Y-34266109D02*
X87612857Y-34289919D01*
X87612857Y-34289919D02*
X87636666Y-34313728D01*
X87922381Y-34480395D02*
X87874762Y-34456585D01*
X87874762Y-34456585D02*
X87850952Y-34432776D01*
X87850952Y-34432776D02*
X87827143Y-34385157D01*
X87827143Y-34385157D02*
X87827143Y-34361347D01*
X87827143Y-34361347D02*
X87850952Y-34313728D01*
X87850952Y-34313728D02*
X87874762Y-34289919D01*
X87874762Y-34289919D02*
X87922381Y-34266109D01*
X87922381Y-34266109D02*
X88017619Y-34266109D01*
X88017619Y-34266109D02*
X88065238Y-34289919D01*
X88065238Y-34289919D02*
X88089047Y-34313728D01*
X88089047Y-34313728D02*
X88112857Y-34361347D01*
X88112857Y-34361347D02*
X88112857Y-34385157D01*
X88112857Y-34385157D02*
X88089047Y-34432776D01*
X88089047Y-34432776D02*
X88065238Y-34456585D01*
X88065238Y-34456585D02*
X88017619Y-34480395D01*
X88017619Y-34480395D02*
X87922381Y-34480395D01*
X87922381Y-34480395D02*
X87874762Y-34504204D01*
X87874762Y-34504204D02*
X87850952Y-34528014D01*
X87850952Y-34528014D02*
X87827143Y-34575633D01*
X87827143Y-34575633D02*
X87827143Y-34670871D01*
X87827143Y-34670871D02*
X87850952Y-34718490D01*
X87850952Y-34718490D02*
X87874762Y-34742300D01*
X87874762Y-34742300D02*
X87922381Y-34766109D01*
X87922381Y-34766109D02*
X88017619Y-34766109D01*
X88017619Y-34766109D02*
X88065238Y-34742300D01*
X88065238Y-34742300D02*
X88089047Y-34718490D01*
X88089047Y-34718490D02*
X88112857Y-34670871D01*
X88112857Y-34670871D02*
X88112857Y-34575633D01*
X88112857Y-34575633D02*
X88089047Y-34528014D01*
X88089047Y-34528014D02*
X88065238Y-34504204D01*
X88065238Y-34504204D02*
X88017619Y-34480395D01*
D11*
X73338095Y-28154819D02*
X73338095Y-27154819D01*
X73338095Y-27631009D02*
X73909523Y-27631009D01*
X73909523Y-28154819D02*
X73909523Y-27154819D01*
X74909523Y-28154819D02*
X74338095Y-28154819D01*
X74623809Y-28154819D02*
X74623809Y-27154819D01*
X74623809Y-27154819D02*
X74528571Y-27297676D01*
X74528571Y-27297676D02*
X74433333Y-27392914D01*
X74433333Y-27392914D02*
X74338095Y-27440533D01*
D10*
X89776666Y-34938490D02*
X89752857Y-34962300D01*
X89752857Y-34962300D02*
X89681428Y-34986109D01*
X89681428Y-34986109D02*
X89633809Y-34986109D01*
X89633809Y-34986109D02*
X89562381Y-34962300D01*
X89562381Y-34962300D02*
X89514762Y-34914680D01*
X89514762Y-34914680D02*
X89490952Y-34867061D01*
X89490952Y-34867061D02*
X89467143Y-34771823D01*
X89467143Y-34771823D02*
X89467143Y-34700395D01*
X89467143Y-34700395D02*
X89490952Y-34605157D01*
X89490952Y-34605157D02*
X89514762Y-34557538D01*
X89514762Y-34557538D02*
X89562381Y-34509919D01*
X89562381Y-34509919D02*
X89633809Y-34486109D01*
X89633809Y-34486109D02*
X89681428Y-34486109D01*
X89681428Y-34486109D02*
X89752857Y-34509919D01*
X89752857Y-34509919D02*
X89776666Y-34533728D01*
X90252857Y-34986109D02*
X89967143Y-34986109D01*
X90110000Y-34986109D02*
X90110000Y-34486109D01*
X90110000Y-34486109D02*
X90062381Y-34557538D01*
X90062381Y-34557538D02*
X90014762Y-34605157D01*
X90014762Y-34605157D02*
X89967143Y-34628966D01*
X85668490Y-37493333D02*
X85692300Y-37517142D01*
X85692300Y-37517142D02*
X85716109Y-37588571D01*
X85716109Y-37588571D02*
X85716109Y-37636190D01*
X85716109Y-37636190D02*
X85692300Y-37707618D01*
X85692300Y-37707618D02*
X85644680Y-37755237D01*
X85644680Y-37755237D02*
X85597061Y-37779047D01*
X85597061Y-37779047D02*
X85501823Y-37802856D01*
X85501823Y-37802856D02*
X85430395Y-37802856D01*
X85430395Y-37802856D02*
X85335157Y-37779047D01*
X85335157Y-37779047D02*
X85287538Y-37755237D01*
X85287538Y-37755237D02*
X85239919Y-37707618D01*
X85239919Y-37707618D02*
X85216109Y-37636190D01*
X85216109Y-37636190D02*
X85216109Y-37588571D01*
X85216109Y-37588571D02*
X85239919Y-37517142D01*
X85239919Y-37517142D02*
X85263728Y-37493333D01*
X85263728Y-37302856D02*
X85239919Y-37279047D01*
X85239919Y-37279047D02*
X85216109Y-37231428D01*
X85216109Y-37231428D02*
X85216109Y-37112380D01*
X85216109Y-37112380D02*
X85239919Y-37064761D01*
X85239919Y-37064761D02*
X85263728Y-37040952D01*
X85263728Y-37040952D02*
X85311347Y-37017142D01*
X85311347Y-37017142D02*
X85358966Y-37017142D01*
X85358966Y-37017142D02*
X85430395Y-37040952D01*
X85430395Y-37040952D02*
X85716109Y-37326666D01*
X85716109Y-37326666D02*
X85716109Y-37017142D01*
X84296666Y-55486109D02*
X84130000Y-55248014D01*
X84010952Y-55486109D02*
X84010952Y-54986109D01*
X84010952Y-54986109D02*
X84201428Y-54986109D01*
X84201428Y-54986109D02*
X84249047Y-55009919D01*
X84249047Y-55009919D02*
X84272857Y-55033728D01*
X84272857Y-55033728D02*
X84296666Y-55081347D01*
X84296666Y-55081347D02*
X84296666Y-55152776D01*
X84296666Y-55152776D02*
X84272857Y-55200395D01*
X84272857Y-55200395D02*
X84249047Y-55224204D01*
X84249047Y-55224204D02*
X84201428Y-55248014D01*
X84201428Y-55248014D02*
X84010952Y-55248014D01*
X84749047Y-54986109D02*
X84510952Y-54986109D01*
X84510952Y-54986109D02*
X84487143Y-55224204D01*
X84487143Y-55224204D02*
X84510952Y-55200395D01*
X84510952Y-55200395D02*
X84558571Y-55176585D01*
X84558571Y-55176585D02*
X84677619Y-55176585D01*
X84677619Y-55176585D02*
X84725238Y-55200395D01*
X84725238Y-55200395D02*
X84749047Y-55224204D01*
X84749047Y-55224204D02*
X84772857Y-55271823D01*
X84772857Y-55271823D02*
X84772857Y-55390871D01*
X84772857Y-55390871D02*
X84749047Y-55438490D01*
X84749047Y-55438490D02*
X84725238Y-55462300D01*
X84725238Y-55462300D02*
X84677619Y-55486109D01*
X84677619Y-55486109D02*
X84558571Y-55486109D01*
X84558571Y-55486109D02*
X84510952Y-55462300D01*
X84510952Y-55462300D02*
X84487143Y-55438490D01*
X89776666Y-33228490D02*
X89752857Y-33252300D01*
X89752857Y-33252300D02*
X89681428Y-33276109D01*
X89681428Y-33276109D02*
X89633809Y-33276109D01*
X89633809Y-33276109D02*
X89562381Y-33252300D01*
X89562381Y-33252300D02*
X89514762Y-33204680D01*
X89514762Y-33204680D02*
X89490952Y-33157061D01*
X89490952Y-33157061D02*
X89467143Y-33061823D01*
X89467143Y-33061823D02*
X89467143Y-32990395D01*
X89467143Y-32990395D02*
X89490952Y-32895157D01*
X89490952Y-32895157D02*
X89514762Y-32847538D01*
X89514762Y-32847538D02*
X89562381Y-32799919D01*
X89562381Y-32799919D02*
X89633809Y-32776109D01*
X89633809Y-32776109D02*
X89681428Y-32776109D01*
X89681428Y-32776109D02*
X89752857Y-32799919D01*
X89752857Y-32799919D02*
X89776666Y-32823728D01*
X89943333Y-32776109D02*
X90252857Y-32776109D01*
X90252857Y-32776109D02*
X90086190Y-32966585D01*
X90086190Y-32966585D02*
X90157619Y-32966585D01*
X90157619Y-32966585D02*
X90205238Y-32990395D01*
X90205238Y-32990395D02*
X90229047Y-33014204D01*
X90229047Y-33014204D02*
X90252857Y-33061823D01*
X90252857Y-33061823D02*
X90252857Y-33180871D01*
X90252857Y-33180871D02*
X90229047Y-33228490D01*
X90229047Y-33228490D02*
X90205238Y-33252300D01*
X90205238Y-33252300D02*
X90157619Y-33276109D01*
X90157619Y-33276109D02*
X90014762Y-33276109D01*
X90014762Y-33276109D02*
X89967143Y-33252300D01*
X89967143Y-33252300D02*
X89943333Y-33228490D01*
X74955633Y-43539999D02*
X74955633Y-43159047D01*
X75146109Y-43349523D02*
X74765157Y-43349523D01*
X74646109Y-42968570D02*
X74646109Y-42659046D01*
X74646109Y-42659046D02*
X74836585Y-42825713D01*
X74836585Y-42825713D02*
X74836585Y-42754284D01*
X74836585Y-42754284D02*
X74860395Y-42706665D01*
X74860395Y-42706665D02*
X74884204Y-42682856D01*
X74884204Y-42682856D02*
X74931823Y-42659046D01*
X74931823Y-42659046D02*
X75050871Y-42659046D01*
X75050871Y-42659046D02*
X75098490Y-42682856D01*
X75098490Y-42682856D02*
X75122300Y-42706665D01*
X75122300Y-42706665D02*
X75146109Y-42754284D01*
X75146109Y-42754284D02*
X75146109Y-42897141D01*
X75146109Y-42897141D02*
X75122300Y-42944760D01*
X75122300Y-42944760D02*
X75098490Y-42968570D01*
X75098490Y-42444761D02*
X75122300Y-42420951D01*
X75122300Y-42420951D02*
X75146109Y-42444761D01*
X75146109Y-42444761D02*
X75122300Y-42468570D01*
X75122300Y-42468570D02*
X75098490Y-42444761D01*
X75098490Y-42444761D02*
X75146109Y-42444761D01*
X74646109Y-42254285D02*
X74646109Y-41944761D01*
X74646109Y-41944761D02*
X74836585Y-42111428D01*
X74836585Y-42111428D02*
X74836585Y-42039999D01*
X74836585Y-42039999D02*
X74860395Y-41992380D01*
X74860395Y-41992380D02*
X74884204Y-41968571D01*
X74884204Y-41968571D02*
X74931823Y-41944761D01*
X74931823Y-41944761D02*
X75050871Y-41944761D01*
X75050871Y-41944761D02*
X75098490Y-41968571D01*
X75098490Y-41968571D02*
X75122300Y-41992380D01*
X75122300Y-41992380D02*
X75146109Y-42039999D01*
X75146109Y-42039999D02*
X75146109Y-42182856D01*
X75146109Y-42182856D02*
X75122300Y-42230475D01*
X75122300Y-42230475D02*
X75098490Y-42254285D01*
X74646109Y-41801904D02*
X75146109Y-41635238D01*
X75146109Y-41635238D02*
X74646109Y-41468571D01*
D11*
X111298095Y-35144819D02*
X111298095Y-35954342D01*
X111298095Y-35954342D02*
X111345714Y-36049580D01*
X111345714Y-36049580D02*
X111393333Y-36097200D01*
X111393333Y-36097200D02*
X111488571Y-36144819D01*
X111488571Y-36144819D02*
X111679047Y-36144819D01*
X111679047Y-36144819D02*
X111774285Y-36097200D01*
X111774285Y-36097200D02*
X111821904Y-36049580D01*
X111821904Y-36049580D02*
X111869523Y-35954342D01*
X111869523Y-35954342D02*
X111869523Y-35144819D01*
X112298095Y-36097200D02*
X112440952Y-36144819D01*
X112440952Y-36144819D02*
X112679047Y-36144819D01*
X112679047Y-36144819D02*
X112774285Y-36097200D01*
X112774285Y-36097200D02*
X112821904Y-36049580D01*
X112821904Y-36049580D02*
X112869523Y-35954342D01*
X112869523Y-35954342D02*
X112869523Y-35859104D01*
X112869523Y-35859104D02*
X112821904Y-35763866D01*
X112821904Y-35763866D02*
X112774285Y-35716247D01*
X112774285Y-35716247D02*
X112679047Y-35668628D01*
X112679047Y-35668628D02*
X112488571Y-35621009D01*
X112488571Y-35621009D02*
X112393333Y-35573390D01*
X112393333Y-35573390D02*
X112345714Y-35525771D01*
X112345714Y-35525771D02*
X112298095Y-35430533D01*
X112298095Y-35430533D02*
X112298095Y-35335295D01*
X112298095Y-35335295D02*
X112345714Y-35240057D01*
X112345714Y-35240057D02*
X112393333Y-35192438D01*
X112393333Y-35192438D02*
X112488571Y-35144819D01*
X112488571Y-35144819D02*
X112726666Y-35144819D01*
X112726666Y-35144819D02*
X112869523Y-35192438D01*
X113631428Y-35621009D02*
X113774285Y-35668628D01*
X113774285Y-35668628D02*
X113821904Y-35716247D01*
X113821904Y-35716247D02*
X113869523Y-35811485D01*
X113869523Y-35811485D02*
X113869523Y-35954342D01*
X113869523Y-35954342D02*
X113821904Y-36049580D01*
X113821904Y-36049580D02*
X113774285Y-36097200D01*
X113774285Y-36097200D02*
X113679047Y-36144819D01*
X113679047Y-36144819D02*
X113298095Y-36144819D01*
X113298095Y-36144819D02*
X113298095Y-35144819D01*
X113298095Y-35144819D02*
X113631428Y-35144819D01*
X113631428Y-35144819D02*
X113726666Y-35192438D01*
X113726666Y-35192438D02*
X113774285Y-35240057D01*
X113774285Y-35240057D02*
X113821904Y-35335295D01*
X113821904Y-35335295D02*
X113821904Y-35430533D01*
X113821904Y-35430533D02*
X113774285Y-35525771D01*
X113774285Y-35525771D02*
X113726666Y-35573390D01*
X113726666Y-35573390D02*
X113631428Y-35621009D01*
X113631428Y-35621009D02*
X113298095Y-35621009D01*
D10*
X102798571Y-48538490D02*
X102774762Y-48562300D01*
X102774762Y-48562300D02*
X102703333Y-48586109D01*
X102703333Y-48586109D02*
X102655714Y-48586109D01*
X102655714Y-48586109D02*
X102584286Y-48562300D01*
X102584286Y-48562300D02*
X102536667Y-48514680D01*
X102536667Y-48514680D02*
X102512857Y-48467061D01*
X102512857Y-48467061D02*
X102489048Y-48371823D01*
X102489048Y-48371823D02*
X102489048Y-48300395D01*
X102489048Y-48300395D02*
X102512857Y-48205157D01*
X102512857Y-48205157D02*
X102536667Y-48157538D01*
X102536667Y-48157538D02*
X102584286Y-48109919D01*
X102584286Y-48109919D02*
X102655714Y-48086109D01*
X102655714Y-48086109D02*
X102703333Y-48086109D01*
X102703333Y-48086109D02*
X102774762Y-48109919D01*
X102774762Y-48109919D02*
X102798571Y-48133728D01*
X103274762Y-48586109D02*
X102989048Y-48586109D01*
X103131905Y-48586109D02*
X103131905Y-48086109D01*
X103131905Y-48086109D02*
X103084286Y-48157538D01*
X103084286Y-48157538D02*
X103036667Y-48205157D01*
X103036667Y-48205157D02*
X102989048Y-48228966D01*
X103441428Y-48086109D02*
X103750952Y-48086109D01*
X103750952Y-48086109D02*
X103584285Y-48276585D01*
X103584285Y-48276585D02*
X103655714Y-48276585D01*
X103655714Y-48276585D02*
X103703333Y-48300395D01*
X103703333Y-48300395D02*
X103727142Y-48324204D01*
X103727142Y-48324204D02*
X103750952Y-48371823D01*
X103750952Y-48371823D02*
X103750952Y-48490871D01*
X103750952Y-48490871D02*
X103727142Y-48538490D01*
X103727142Y-48538490D02*
X103703333Y-48562300D01*
X103703333Y-48562300D02*
X103655714Y-48586109D01*
X103655714Y-48586109D02*
X103512857Y-48586109D01*
X103512857Y-48586109D02*
X103465238Y-48562300D01*
X103465238Y-48562300D02*
X103441428Y-48538490D01*
X88088490Y-37683333D02*
X88112300Y-37707142D01*
X88112300Y-37707142D02*
X88136109Y-37778571D01*
X88136109Y-37778571D02*
X88136109Y-37826190D01*
X88136109Y-37826190D02*
X88112300Y-37897618D01*
X88112300Y-37897618D02*
X88064680Y-37945237D01*
X88064680Y-37945237D02*
X88017061Y-37969047D01*
X88017061Y-37969047D02*
X87921823Y-37992856D01*
X87921823Y-37992856D02*
X87850395Y-37992856D01*
X87850395Y-37992856D02*
X87755157Y-37969047D01*
X87755157Y-37969047D02*
X87707538Y-37945237D01*
X87707538Y-37945237D02*
X87659919Y-37897618D01*
X87659919Y-37897618D02*
X87636109Y-37826190D01*
X87636109Y-37826190D02*
X87636109Y-37778571D01*
X87636109Y-37778571D02*
X87659919Y-37707142D01*
X87659919Y-37707142D02*
X87683728Y-37683333D01*
X87802776Y-37254761D02*
X88136109Y-37254761D01*
X87612300Y-37373809D02*
X87969442Y-37492856D01*
X87969442Y-37492856D02*
X87969442Y-37183333D01*
X82656666Y-45148490D02*
X82632857Y-45172300D01*
X82632857Y-45172300D02*
X82561428Y-45196109D01*
X82561428Y-45196109D02*
X82513809Y-45196109D01*
X82513809Y-45196109D02*
X82442381Y-45172300D01*
X82442381Y-45172300D02*
X82394762Y-45124680D01*
X82394762Y-45124680D02*
X82370952Y-45077061D01*
X82370952Y-45077061D02*
X82347143Y-44981823D01*
X82347143Y-44981823D02*
X82347143Y-44910395D01*
X82347143Y-44910395D02*
X82370952Y-44815157D01*
X82370952Y-44815157D02*
X82394762Y-44767538D01*
X82394762Y-44767538D02*
X82442381Y-44719919D01*
X82442381Y-44719919D02*
X82513809Y-44696109D01*
X82513809Y-44696109D02*
X82561428Y-44696109D01*
X82561428Y-44696109D02*
X82632857Y-44719919D01*
X82632857Y-44719919D02*
X82656666Y-44743728D01*
X83085238Y-44696109D02*
X82990000Y-44696109D01*
X82990000Y-44696109D02*
X82942381Y-44719919D01*
X82942381Y-44719919D02*
X82918571Y-44743728D01*
X82918571Y-44743728D02*
X82870952Y-44815157D01*
X82870952Y-44815157D02*
X82847143Y-44910395D01*
X82847143Y-44910395D02*
X82847143Y-45100871D01*
X82847143Y-45100871D02*
X82870952Y-45148490D01*
X82870952Y-45148490D02*
X82894762Y-45172300D01*
X82894762Y-45172300D02*
X82942381Y-45196109D01*
X82942381Y-45196109D02*
X83037619Y-45196109D01*
X83037619Y-45196109D02*
X83085238Y-45172300D01*
X83085238Y-45172300D02*
X83109047Y-45148490D01*
X83109047Y-45148490D02*
X83132857Y-45100871D01*
X83132857Y-45100871D02*
X83132857Y-44981823D01*
X83132857Y-44981823D02*
X83109047Y-44934204D01*
X83109047Y-44934204D02*
X83085238Y-44910395D01*
X83085238Y-44910395D02*
X83037619Y-44886585D01*
X83037619Y-44886585D02*
X82942381Y-44886585D01*
X82942381Y-44886585D02*
X82894762Y-44910395D01*
X82894762Y-44910395D02*
X82870952Y-44934204D01*
X82870952Y-44934204D02*
X82847143Y-44981823D01*
X87234762Y-56862300D02*
X87306190Y-56886109D01*
X87306190Y-56886109D02*
X87425238Y-56886109D01*
X87425238Y-56886109D02*
X87472857Y-56862300D01*
X87472857Y-56862300D02*
X87496666Y-56838490D01*
X87496666Y-56838490D02*
X87520476Y-56790871D01*
X87520476Y-56790871D02*
X87520476Y-56743252D01*
X87520476Y-56743252D02*
X87496666Y-56695633D01*
X87496666Y-56695633D02*
X87472857Y-56671823D01*
X87472857Y-56671823D02*
X87425238Y-56648014D01*
X87425238Y-56648014D02*
X87330000Y-56624204D01*
X87330000Y-56624204D02*
X87282381Y-56600395D01*
X87282381Y-56600395D02*
X87258571Y-56576585D01*
X87258571Y-56576585D02*
X87234762Y-56528966D01*
X87234762Y-56528966D02*
X87234762Y-56481347D01*
X87234762Y-56481347D02*
X87258571Y-56433728D01*
X87258571Y-56433728D02*
X87282381Y-56409919D01*
X87282381Y-56409919D02*
X87330000Y-56386109D01*
X87330000Y-56386109D02*
X87449047Y-56386109D01*
X87449047Y-56386109D02*
X87520476Y-56409919D01*
X88020475Y-56838490D02*
X87996666Y-56862300D01*
X87996666Y-56862300D02*
X87925237Y-56886109D01*
X87925237Y-56886109D02*
X87877618Y-56886109D01*
X87877618Y-56886109D02*
X87806190Y-56862300D01*
X87806190Y-56862300D02*
X87758571Y-56814680D01*
X87758571Y-56814680D02*
X87734761Y-56767061D01*
X87734761Y-56767061D02*
X87710952Y-56671823D01*
X87710952Y-56671823D02*
X87710952Y-56600395D01*
X87710952Y-56600395D02*
X87734761Y-56505157D01*
X87734761Y-56505157D02*
X87758571Y-56457538D01*
X87758571Y-56457538D02*
X87806190Y-56409919D01*
X87806190Y-56409919D02*
X87877618Y-56386109D01*
X87877618Y-56386109D02*
X87925237Y-56386109D01*
X87925237Y-56386109D02*
X87996666Y-56409919D01*
X87996666Y-56409919D02*
X88020475Y-56433728D01*
X88472856Y-56886109D02*
X88234761Y-56886109D01*
X88234761Y-56886109D02*
X88234761Y-56386109D01*
X70619047Y-36229919D02*
X70571428Y-36206109D01*
X70571428Y-36206109D02*
X70499999Y-36206109D01*
X70499999Y-36206109D02*
X70428571Y-36229919D01*
X70428571Y-36229919D02*
X70380952Y-36277538D01*
X70380952Y-36277538D02*
X70357142Y-36325157D01*
X70357142Y-36325157D02*
X70333333Y-36420395D01*
X70333333Y-36420395D02*
X70333333Y-36491823D01*
X70333333Y-36491823D02*
X70357142Y-36587061D01*
X70357142Y-36587061D02*
X70380952Y-36634680D01*
X70380952Y-36634680D02*
X70428571Y-36682300D01*
X70428571Y-36682300D02*
X70499999Y-36706109D01*
X70499999Y-36706109D02*
X70547618Y-36706109D01*
X70547618Y-36706109D02*
X70619047Y-36682300D01*
X70619047Y-36682300D02*
X70642856Y-36658490D01*
X70642856Y-36658490D02*
X70642856Y-36491823D01*
X70642856Y-36491823D02*
X70547618Y-36491823D01*
X70857142Y-36706109D02*
X70857142Y-36206109D01*
X70857142Y-36206109D02*
X71142856Y-36706109D01*
X71142856Y-36706109D02*
X71142856Y-36206109D01*
X71380952Y-36706109D02*
X71380952Y-36206109D01*
X71380952Y-36206109D02*
X71500000Y-36206109D01*
X71500000Y-36206109D02*
X71571428Y-36229919D01*
X71571428Y-36229919D02*
X71619047Y-36277538D01*
X71619047Y-36277538D02*
X71642857Y-36325157D01*
X71642857Y-36325157D02*
X71666666Y-36420395D01*
X71666666Y-36420395D02*
X71666666Y-36491823D01*
X71666666Y-36491823D02*
X71642857Y-36587061D01*
X71642857Y-36587061D02*
X71619047Y-36634680D01*
X71619047Y-36634680D02*
X71571428Y-36682300D01*
X71571428Y-36682300D02*
X71500000Y-36706109D01*
X71500000Y-36706109D02*
X71380952Y-36706109D01*
X79776109Y-43027618D02*
X80276109Y-42694285D01*
X79776109Y-42694285D02*
X80276109Y-43027618D01*
X80252300Y-42527618D02*
X80276109Y-42456190D01*
X80276109Y-42456190D02*
X80276109Y-42337142D01*
X80276109Y-42337142D02*
X80252300Y-42289523D01*
X80252300Y-42289523D02*
X80228490Y-42265714D01*
X80228490Y-42265714D02*
X80180871Y-42241904D01*
X80180871Y-42241904D02*
X80133252Y-42241904D01*
X80133252Y-42241904D02*
X80085633Y-42265714D01*
X80085633Y-42265714D02*
X80061823Y-42289523D01*
X80061823Y-42289523D02*
X80038014Y-42337142D01*
X80038014Y-42337142D02*
X80014204Y-42432380D01*
X80014204Y-42432380D02*
X79990395Y-42479999D01*
X79990395Y-42479999D02*
X79966585Y-42503809D01*
X79966585Y-42503809D02*
X79918966Y-42527618D01*
X79918966Y-42527618D02*
X79871347Y-42527618D01*
X79871347Y-42527618D02*
X79823728Y-42503809D01*
X79823728Y-42503809D02*
X79799919Y-42479999D01*
X79799919Y-42479999D02*
X79776109Y-42432380D01*
X79776109Y-42432380D02*
X79776109Y-42313333D01*
X79776109Y-42313333D02*
X79799919Y-42241904D01*
X79776109Y-42099047D02*
X79776109Y-41813333D01*
X80276109Y-41956190D02*
X79776109Y-41956190D01*
X80276109Y-41408572D02*
X80276109Y-41646667D01*
X80276109Y-41646667D02*
X79776109Y-41646667D01*
X82923334Y-45984204D02*
X82756667Y-45984204D01*
X82756667Y-46246109D02*
X82756667Y-45746109D01*
X82756667Y-45746109D02*
X82994762Y-45746109D01*
X83351905Y-45984204D02*
X83423333Y-46008014D01*
X83423333Y-46008014D02*
X83447143Y-46031823D01*
X83447143Y-46031823D02*
X83470952Y-46079442D01*
X83470952Y-46079442D02*
X83470952Y-46150871D01*
X83470952Y-46150871D02*
X83447143Y-46198490D01*
X83447143Y-46198490D02*
X83423333Y-46222300D01*
X83423333Y-46222300D02*
X83375714Y-46246109D01*
X83375714Y-46246109D02*
X83185238Y-46246109D01*
X83185238Y-46246109D02*
X83185238Y-45746109D01*
X83185238Y-45746109D02*
X83351905Y-45746109D01*
X83351905Y-45746109D02*
X83399524Y-45769919D01*
X83399524Y-45769919D02*
X83423333Y-45793728D01*
X83423333Y-45793728D02*
X83447143Y-45841347D01*
X83447143Y-45841347D02*
X83447143Y-45888966D01*
X83447143Y-45888966D02*
X83423333Y-45936585D01*
X83423333Y-45936585D02*
X83399524Y-45960395D01*
X83399524Y-45960395D02*
X83351905Y-45984204D01*
X83351905Y-45984204D02*
X83185238Y-45984204D01*
X83947143Y-46246109D02*
X83661429Y-46246109D01*
X83804286Y-46246109D02*
X83804286Y-45746109D01*
X83804286Y-45746109D02*
X83756667Y-45817538D01*
X83756667Y-45817538D02*
X83709048Y-45865157D01*
X83709048Y-45865157D02*
X83661429Y-45888966D01*
X88396666Y-48308490D02*
X88372857Y-48332300D01*
X88372857Y-48332300D02*
X88301428Y-48356109D01*
X88301428Y-48356109D02*
X88253809Y-48356109D01*
X88253809Y-48356109D02*
X88182381Y-48332300D01*
X88182381Y-48332300D02*
X88134762Y-48284680D01*
X88134762Y-48284680D02*
X88110952Y-48237061D01*
X88110952Y-48237061D02*
X88087143Y-48141823D01*
X88087143Y-48141823D02*
X88087143Y-48070395D01*
X88087143Y-48070395D02*
X88110952Y-47975157D01*
X88110952Y-47975157D02*
X88134762Y-47927538D01*
X88134762Y-47927538D02*
X88182381Y-47879919D01*
X88182381Y-47879919D02*
X88253809Y-47856109D01*
X88253809Y-47856109D02*
X88301428Y-47856109D01*
X88301428Y-47856109D02*
X88372857Y-47879919D01*
X88372857Y-47879919D02*
X88396666Y-47903728D01*
X88634762Y-48356109D02*
X88730000Y-48356109D01*
X88730000Y-48356109D02*
X88777619Y-48332300D01*
X88777619Y-48332300D02*
X88801428Y-48308490D01*
X88801428Y-48308490D02*
X88849047Y-48237061D01*
X88849047Y-48237061D02*
X88872857Y-48141823D01*
X88872857Y-48141823D02*
X88872857Y-47951347D01*
X88872857Y-47951347D02*
X88849047Y-47903728D01*
X88849047Y-47903728D02*
X88825238Y-47879919D01*
X88825238Y-47879919D02*
X88777619Y-47856109D01*
X88777619Y-47856109D02*
X88682381Y-47856109D01*
X88682381Y-47856109D02*
X88634762Y-47879919D01*
X88634762Y-47879919D02*
X88610952Y-47903728D01*
X88610952Y-47903728D02*
X88587143Y-47951347D01*
X88587143Y-47951347D02*
X88587143Y-48070395D01*
X88587143Y-48070395D02*
X88610952Y-48118014D01*
X88610952Y-48118014D02*
X88634762Y-48141823D01*
X88634762Y-48141823D02*
X88682381Y-48165633D01*
X88682381Y-48165633D02*
X88777619Y-48165633D01*
X88777619Y-48165633D02*
X88825238Y-48141823D01*
X88825238Y-48141823D02*
X88849047Y-48118014D01*
X88849047Y-48118014D02*
X88872857Y-48070395D01*
X85528571Y-42478490D02*
X85504762Y-42502300D01*
X85504762Y-42502300D02*
X85433333Y-42526109D01*
X85433333Y-42526109D02*
X85385714Y-42526109D01*
X85385714Y-42526109D02*
X85314286Y-42502300D01*
X85314286Y-42502300D02*
X85266667Y-42454680D01*
X85266667Y-42454680D02*
X85242857Y-42407061D01*
X85242857Y-42407061D02*
X85219048Y-42311823D01*
X85219048Y-42311823D02*
X85219048Y-42240395D01*
X85219048Y-42240395D02*
X85242857Y-42145157D01*
X85242857Y-42145157D02*
X85266667Y-42097538D01*
X85266667Y-42097538D02*
X85314286Y-42049919D01*
X85314286Y-42049919D02*
X85385714Y-42026109D01*
X85385714Y-42026109D02*
X85433333Y-42026109D01*
X85433333Y-42026109D02*
X85504762Y-42049919D01*
X85504762Y-42049919D02*
X85528571Y-42073728D01*
X86004762Y-42526109D02*
X85719048Y-42526109D01*
X85861905Y-42526109D02*
X85861905Y-42026109D01*
X85861905Y-42026109D02*
X85814286Y-42097538D01*
X85814286Y-42097538D02*
X85766667Y-42145157D01*
X85766667Y-42145157D02*
X85719048Y-42168966D01*
X86433333Y-42192776D02*
X86433333Y-42526109D01*
X86314285Y-42002300D02*
X86195238Y-42359442D01*
X86195238Y-42359442D02*
X86504761Y-42359442D01*
X96946666Y-48818490D02*
X96922857Y-48842300D01*
X96922857Y-48842300D02*
X96851428Y-48866109D01*
X96851428Y-48866109D02*
X96803809Y-48866109D01*
X96803809Y-48866109D02*
X96732381Y-48842300D01*
X96732381Y-48842300D02*
X96684762Y-48794680D01*
X96684762Y-48794680D02*
X96660952Y-48747061D01*
X96660952Y-48747061D02*
X96637143Y-48651823D01*
X96637143Y-48651823D02*
X96637143Y-48580395D01*
X96637143Y-48580395D02*
X96660952Y-48485157D01*
X96660952Y-48485157D02*
X96684762Y-48437538D01*
X96684762Y-48437538D02*
X96732381Y-48389919D01*
X96732381Y-48389919D02*
X96803809Y-48366109D01*
X96803809Y-48366109D02*
X96851428Y-48366109D01*
X96851428Y-48366109D02*
X96922857Y-48389919D01*
X96922857Y-48389919D02*
X96946666Y-48413728D01*
X97399047Y-48366109D02*
X97160952Y-48366109D01*
X97160952Y-48366109D02*
X97137143Y-48604204D01*
X97137143Y-48604204D02*
X97160952Y-48580395D01*
X97160952Y-48580395D02*
X97208571Y-48556585D01*
X97208571Y-48556585D02*
X97327619Y-48556585D01*
X97327619Y-48556585D02*
X97375238Y-48580395D01*
X97375238Y-48580395D02*
X97399047Y-48604204D01*
X97399047Y-48604204D02*
X97422857Y-48651823D01*
X97422857Y-48651823D02*
X97422857Y-48770871D01*
X97422857Y-48770871D02*
X97399047Y-48818490D01*
X97399047Y-48818490D02*
X97375238Y-48842300D01*
X97375238Y-48842300D02*
X97327619Y-48866109D01*
X97327619Y-48866109D02*
X97208571Y-48866109D01*
X97208571Y-48866109D02*
X97160952Y-48842300D01*
X97160952Y-48842300D02*
X97137143Y-48818490D01*
X75000953Y-35062300D02*
X75072381Y-35086109D01*
X75072381Y-35086109D02*
X75191429Y-35086109D01*
X75191429Y-35086109D02*
X75239048Y-35062300D01*
X75239048Y-35062300D02*
X75262857Y-35038490D01*
X75262857Y-35038490D02*
X75286667Y-34990871D01*
X75286667Y-34990871D02*
X75286667Y-34943252D01*
X75286667Y-34943252D02*
X75262857Y-34895633D01*
X75262857Y-34895633D02*
X75239048Y-34871823D01*
X75239048Y-34871823D02*
X75191429Y-34848014D01*
X75191429Y-34848014D02*
X75096191Y-34824204D01*
X75096191Y-34824204D02*
X75048572Y-34800395D01*
X75048572Y-34800395D02*
X75024762Y-34776585D01*
X75024762Y-34776585D02*
X75000953Y-34728966D01*
X75000953Y-34728966D02*
X75000953Y-34681347D01*
X75000953Y-34681347D02*
X75024762Y-34633728D01*
X75024762Y-34633728D02*
X75048572Y-34609919D01*
X75048572Y-34609919D02*
X75096191Y-34586109D01*
X75096191Y-34586109D02*
X75215238Y-34586109D01*
X75215238Y-34586109D02*
X75286667Y-34609919D01*
X75453333Y-34586109D02*
X75572381Y-35086109D01*
X75572381Y-35086109D02*
X75667619Y-34728966D01*
X75667619Y-34728966D02*
X75762857Y-35086109D01*
X75762857Y-35086109D02*
X75881905Y-34586109D01*
X76000953Y-34586109D02*
X76286667Y-34586109D01*
X76143810Y-35086109D02*
X76143810Y-34586109D01*
D11*
X110088095Y-29754819D02*
X110088095Y-28754819D01*
X110088095Y-29231009D02*
X110659523Y-29231009D01*
X110659523Y-29754819D02*
X110659523Y-28754819D01*
X111088095Y-28850057D02*
X111135714Y-28802438D01*
X111135714Y-28802438D02*
X111230952Y-28754819D01*
X111230952Y-28754819D02*
X111469047Y-28754819D01*
X111469047Y-28754819D02*
X111564285Y-28802438D01*
X111564285Y-28802438D02*
X111611904Y-28850057D01*
X111611904Y-28850057D02*
X111659523Y-28945295D01*
X111659523Y-28945295D02*
X111659523Y-29040533D01*
X111659523Y-29040533D02*
X111611904Y-29183390D01*
X111611904Y-29183390D02*
X111040476Y-29754819D01*
X111040476Y-29754819D02*
X111659523Y-29754819D01*
D10*
X86102381Y-27616109D02*
X86102381Y-28020871D01*
X86102381Y-28020871D02*
X86126191Y-28068490D01*
X86126191Y-28068490D02*
X86150000Y-28092300D01*
X86150000Y-28092300D02*
X86197619Y-28116109D01*
X86197619Y-28116109D02*
X86292857Y-28116109D01*
X86292857Y-28116109D02*
X86340476Y-28092300D01*
X86340476Y-28092300D02*
X86364286Y-28068490D01*
X86364286Y-28068490D02*
X86388095Y-28020871D01*
X86388095Y-28020871D02*
X86388095Y-27616109D01*
X86602382Y-27973252D02*
X86840477Y-27973252D01*
X86554763Y-28116109D02*
X86721429Y-27616109D01*
X86721429Y-27616109D02*
X86888096Y-28116109D01*
X87340476Y-28116109D02*
X87173810Y-27878014D01*
X87054762Y-28116109D02*
X87054762Y-27616109D01*
X87054762Y-27616109D02*
X87245238Y-27616109D01*
X87245238Y-27616109D02*
X87292857Y-27639919D01*
X87292857Y-27639919D02*
X87316667Y-27663728D01*
X87316667Y-27663728D02*
X87340476Y-27711347D01*
X87340476Y-27711347D02*
X87340476Y-27782776D01*
X87340476Y-27782776D02*
X87316667Y-27830395D01*
X87316667Y-27830395D02*
X87292857Y-27854204D01*
X87292857Y-27854204D02*
X87245238Y-27878014D01*
X87245238Y-27878014D02*
X87054762Y-27878014D01*
X87483334Y-27616109D02*
X87769048Y-27616109D01*
X87626191Y-28116109D02*
X87626191Y-27616109D01*
D11*
X114438095Y-51454819D02*
X114438095Y-50454819D01*
X114438095Y-50931009D02*
X115009523Y-50931009D01*
X115009523Y-51454819D02*
X115009523Y-50454819D01*
X115390476Y-50454819D02*
X116009523Y-50454819D01*
X116009523Y-50454819D02*
X115676190Y-50835771D01*
X115676190Y-50835771D02*
X115819047Y-50835771D01*
X115819047Y-50835771D02*
X115914285Y-50883390D01*
X115914285Y-50883390D02*
X115961904Y-50931009D01*
X115961904Y-50931009D02*
X116009523Y-51026247D01*
X116009523Y-51026247D02*
X116009523Y-51264342D01*
X116009523Y-51264342D02*
X115961904Y-51359580D01*
X115961904Y-51359580D02*
X115914285Y-51407200D01*
X115914285Y-51407200D02*
X115819047Y-51454819D01*
X115819047Y-51454819D02*
X115533333Y-51454819D01*
X115533333Y-51454819D02*
X115438095Y-51407200D01*
X115438095Y-51407200D02*
X115390476Y-51359580D01*
D10*
X92826109Y-35293333D02*
X92588014Y-35459999D01*
X92826109Y-35579047D02*
X92326109Y-35579047D01*
X92326109Y-35579047D02*
X92326109Y-35388571D01*
X92326109Y-35388571D02*
X92349919Y-35340952D01*
X92349919Y-35340952D02*
X92373728Y-35317142D01*
X92373728Y-35317142D02*
X92421347Y-35293333D01*
X92421347Y-35293333D02*
X92492776Y-35293333D01*
X92492776Y-35293333D02*
X92540395Y-35317142D01*
X92540395Y-35317142D02*
X92564204Y-35340952D01*
X92564204Y-35340952D02*
X92588014Y-35388571D01*
X92588014Y-35388571D02*
X92588014Y-35579047D01*
X92826109Y-34817142D02*
X92826109Y-35102856D01*
X92826109Y-34959999D02*
X92326109Y-34959999D01*
X92326109Y-34959999D02*
X92397538Y-35007618D01*
X92397538Y-35007618D02*
X92445157Y-35055237D01*
X92445157Y-35055237D02*
X92468966Y-35102856D01*
X88136666Y-45358490D02*
X88112857Y-45382300D01*
X88112857Y-45382300D02*
X88041428Y-45406109D01*
X88041428Y-45406109D02*
X87993809Y-45406109D01*
X87993809Y-45406109D02*
X87922381Y-45382300D01*
X87922381Y-45382300D02*
X87874762Y-45334680D01*
X87874762Y-45334680D02*
X87850952Y-45287061D01*
X87850952Y-45287061D02*
X87827143Y-45191823D01*
X87827143Y-45191823D02*
X87827143Y-45120395D01*
X87827143Y-45120395D02*
X87850952Y-45025157D01*
X87850952Y-45025157D02*
X87874762Y-44977538D01*
X87874762Y-44977538D02*
X87922381Y-44929919D01*
X87922381Y-44929919D02*
X87993809Y-44906109D01*
X87993809Y-44906109D02*
X88041428Y-44906109D01*
X88041428Y-44906109D02*
X88112857Y-44929919D01*
X88112857Y-44929919D02*
X88136666Y-44953728D01*
X88303333Y-44906109D02*
X88636666Y-44906109D01*
X88636666Y-44906109D02*
X88422381Y-45406109D01*
X101311429Y-33532300D02*
X101382857Y-33556109D01*
X101382857Y-33556109D02*
X101501905Y-33556109D01*
X101501905Y-33556109D02*
X101549524Y-33532300D01*
X101549524Y-33532300D02*
X101573333Y-33508490D01*
X101573333Y-33508490D02*
X101597143Y-33460871D01*
X101597143Y-33460871D02*
X101597143Y-33413252D01*
X101597143Y-33413252D02*
X101573333Y-33365633D01*
X101573333Y-33365633D02*
X101549524Y-33341823D01*
X101549524Y-33341823D02*
X101501905Y-33318014D01*
X101501905Y-33318014D02*
X101406667Y-33294204D01*
X101406667Y-33294204D02*
X101359048Y-33270395D01*
X101359048Y-33270395D02*
X101335238Y-33246585D01*
X101335238Y-33246585D02*
X101311429Y-33198966D01*
X101311429Y-33198966D02*
X101311429Y-33151347D01*
X101311429Y-33151347D02*
X101335238Y-33103728D01*
X101335238Y-33103728D02*
X101359048Y-33079919D01*
X101359048Y-33079919D02*
X101406667Y-33056109D01*
X101406667Y-33056109D02*
X101525714Y-33056109D01*
X101525714Y-33056109D02*
X101597143Y-33079919D01*
X101763809Y-33056109D02*
X101882857Y-33556109D01*
X101882857Y-33556109D02*
X101978095Y-33198966D01*
X101978095Y-33198966D02*
X102073333Y-33556109D01*
X102073333Y-33556109D02*
X102192381Y-33056109D01*
X102382857Y-33556109D02*
X102382857Y-33056109D01*
X102382857Y-33056109D02*
X102501905Y-33056109D01*
X102501905Y-33056109D02*
X102573333Y-33079919D01*
X102573333Y-33079919D02*
X102620952Y-33127538D01*
X102620952Y-33127538D02*
X102644762Y-33175157D01*
X102644762Y-33175157D02*
X102668571Y-33270395D01*
X102668571Y-33270395D02*
X102668571Y-33341823D01*
X102668571Y-33341823D02*
X102644762Y-33437061D01*
X102644762Y-33437061D02*
X102620952Y-33484680D01*
X102620952Y-33484680D02*
X102573333Y-33532300D01*
X102573333Y-33532300D02*
X102501905Y-33556109D01*
X102501905Y-33556109D02*
X102382857Y-33556109D01*
%TO.C,R2*%
D12*
X100400000Y-39203641D02*
X100400000Y-38896359D01*
X101160000Y-39203641D02*
X101160000Y-38896359D01*
%TO.C,SDA*%
X89140000Y-52480000D02*
X89140000Y-51100000D01*
X90520000Y-52480000D02*
X89140000Y-52480000D01*
X91790000Y-49720000D02*
X99520000Y-49720000D01*
X91790000Y-52480000D02*
X91790000Y-49720000D01*
X91790000Y-52480000D02*
X99520000Y-52480000D01*
X99520000Y-52480000D02*
X99520000Y-49720000D01*
%TO.C,R3*%
X81880000Y-48966359D02*
X81880000Y-49273641D01*
X82640000Y-48966359D02*
X82640000Y-49273641D01*
%TO.C,+3.3V REG.*%
X104300000Y-49290000D02*
X108060000Y-49290000D01*
X104300000Y-56110000D02*
X108060000Y-56110000D01*
X108060000Y-49290000D02*
X108060000Y-50550000D01*
X108060000Y-56110000D02*
X108060000Y-54850000D01*
X103020000Y-49390000D02*
X102780000Y-49060000D01*
X103260000Y-49060000D01*
X103020000Y-49390000D01*
G36*
X103020000Y-49390000D02*
G01*
X102780000Y-49060000D01*
X103260000Y-49060000D01*
X103020000Y-49390000D01*
G37*
%TO.C,C15*%
X87307836Y-40590000D02*
X87092164Y-40590000D01*
X87307836Y-41310000D02*
X87092164Y-41310000D01*
%TO.C,U1*%
X90190000Y-37590000D02*
X90640000Y-37590000D01*
X90190000Y-38040000D02*
X90190000Y-37590000D01*
X90190000Y-44810000D02*
X90190000Y-44360000D01*
X90640000Y-44810000D02*
X90190000Y-44810000D01*
X96960000Y-37590000D02*
X97410000Y-37590000D01*
X97410000Y-37590000D02*
X97410000Y-38040000D01*
X97410000Y-44360000D02*
X97410000Y-44810000D01*
X97410000Y-44810000D02*
X96960000Y-44810000D01*
X89550000Y-38040000D02*
X89210000Y-37570000D01*
X89890000Y-37570000D01*
X89550000Y-38040000D01*
G36*
X89550000Y-38040000D02*
G01*
X89210000Y-37570000D01*
X89890000Y-37570000D01*
X89550000Y-38040000D01*
G37*
%TO.C,C12*%
X82511252Y-37865000D02*
X81988748Y-37865000D01*
X82511252Y-39335000D02*
X81988748Y-39335000D01*
%TO.C,R4*%
X86243641Y-52720000D02*
X85936359Y-52720000D01*
X86243641Y-53480000D02*
X85936359Y-53480000D01*
%TO.C,D1*%
X83527500Y-48865000D02*
X83527500Y-50335000D01*
X83527500Y-50335000D02*
X85812500Y-50335000D01*
X85812500Y-48865000D02*
X83527500Y-48865000D01*
%TO.C,C8*%
X87612164Y-35340000D02*
X87827836Y-35340000D01*
X87612164Y-36060000D02*
X87827836Y-36060000D01*
%TO.C,C1*%
X91212164Y-34540000D02*
X91427836Y-34540000D01*
X91212164Y-35260000D02*
X91427836Y-35260000D01*
%TO.C,C2*%
X85140000Y-38892164D02*
X85140000Y-39107836D01*
X85860000Y-38892164D02*
X85860000Y-39107836D01*
%TO.C,R5*%
X86243641Y-54820000D02*
X85936359Y-54820000D01*
X86243641Y-55580000D02*
X85936359Y-55580000D01*
%TO.C,C3*%
X91212164Y-32840000D02*
X91427836Y-32840000D01*
X91212164Y-33560000D02*
X91427836Y-33560000D01*
%TO.C,+3.3V*%
X75920000Y-37420000D02*
X77300000Y-37420000D01*
X75920000Y-38800000D02*
X75920000Y-37420000D01*
X75920000Y-40070000D02*
X75920000Y-47800000D01*
X75920000Y-40070000D02*
X78680000Y-40070000D01*
X75920000Y-47800000D02*
X78680000Y-47800000D01*
X78680000Y-40070000D02*
X78680000Y-47800000D01*
%TO.C,USB*%
X108915000Y-40490000D02*
X108915000Y-39410000D01*
X108915000Y-44710000D02*
X108485000Y-44710000D01*
X108915000Y-45790000D02*
X108915000Y-44710000D01*
X114065000Y-38690000D02*
X110835000Y-38690000D01*
X114065000Y-46510000D02*
X110835000Y-46510000D01*
X118235000Y-38690000D02*
X116285000Y-38690000D01*
X118235000Y-38690000D02*
X118235000Y-46510000D01*
X118235000Y-46510000D02*
X116285000Y-46510000D01*
%TO.C,C13*%
X103188748Y-46265000D02*
X103711252Y-46265000D01*
X103188748Y-47735000D02*
X103711252Y-47735000D01*
%TO.C,C4*%
X86740000Y-38892164D02*
X86740000Y-39107836D01*
X87460000Y-38892164D02*
X87460000Y-39107836D01*
%TO.C,C6*%
X85127836Y-44640000D02*
X84912164Y-44640000D01*
X85127836Y-45360000D02*
X84912164Y-45360000D01*
%TO.C,SCL*%
X89150000Y-57880000D02*
X89150000Y-56500000D01*
X90530000Y-57880000D02*
X89150000Y-57880000D01*
X91800000Y-55120000D02*
X99530000Y-55120000D01*
X91800000Y-57880000D02*
X91800000Y-55120000D01*
X91800000Y-57880000D02*
X99530000Y-57880000D01*
X99530000Y-57880000D02*
X99530000Y-55120000D01*
%TO.C,GND*%
X69620000Y-37480000D02*
X71000000Y-37480000D01*
X69620000Y-38860000D02*
X69620000Y-37480000D01*
X69620000Y-40130000D02*
X69620000Y-47860000D01*
X69620000Y-40130000D02*
X72380000Y-40130000D01*
X69620000Y-47860000D02*
X72380000Y-47860000D01*
X72380000Y-40130000D02*
X72380000Y-47860000D01*
%TO.C,XSTL*%
X84960000Y-40640000D02*
X80840000Y-40640000D01*
X84960000Y-44060000D02*
X84960000Y-40640000D01*
%TO.C,FB1*%
X84849721Y-46690000D02*
X85175279Y-46690000D01*
X84849721Y-47710000D02*
X85175279Y-47710000D01*
%TO.C,C9*%
X88412164Y-46840000D02*
X88627836Y-46840000D01*
X88412164Y-47560000D02*
X88627836Y-47560000D01*
%TO.C,C14*%
X86612164Y-42840000D02*
X86827836Y-42840000D01*
X86612164Y-43560000D02*
X86827836Y-43560000D01*
%TO.C,C5*%
X97027836Y-47250000D02*
X96812164Y-47250000D01*
X97027836Y-47970000D02*
X96812164Y-47970000D01*
%TO.C,SWT*%
X75050000Y-29640000D02*
X75050000Y-29950000D01*
X75050000Y-29640000D02*
X83870000Y-29640000D01*
X75050000Y-34160000D02*
X75050000Y-33850000D01*
X80960000Y-34860000D02*
X81960000Y-34860000D01*
X81460000Y-34360000D02*
X80960000Y-34860000D01*
X81960000Y-34860000D02*
X81460000Y-34360000D01*
X83870000Y-29640000D02*
X83870000Y-29950000D01*
X83870000Y-33850000D02*
X83870000Y-34160000D01*
X83870000Y-34160000D02*
X75050000Y-34160000D01*
%TO.C,UART*%
X88580000Y-27620000D02*
X88580000Y-30380000D01*
X91230000Y-27620000D02*
X88580000Y-27620000D01*
X91230000Y-27620000D02*
X91230000Y-30380000D01*
X91230000Y-30380000D02*
X88580000Y-30380000D01*
X92500000Y-27620000D02*
X93880000Y-27620000D01*
X93880000Y-27620000D02*
X93880000Y-29000000D01*
%TO.C,R1*%
X92820000Y-33546359D02*
X92820000Y-33853641D01*
X93580000Y-33546359D02*
X93580000Y-33853641D01*
%TO.C,C7*%
X86540000Y-44972164D02*
X86540000Y-45187836D01*
X87260000Y-44972164D02*
X87260000Y-45187836D01*
%TO.C,SWD*%
X96340000Y-32480000D02*
X96340000Y-31100000D01*
X97720000Y-32480000D02*
X96340000Y-32480000D01*
X98990000Y-29720000D02*
X106720000Y-29720000D01*
X98990000Y-32480000D02*
X98990000Y-29720000D01*
X98990000Y-32480000D02*
X106720000Y-32480000D01*
X106720000Y-32480000D02*
X106720000Y-29720000D01*
%TD*%
M02*
