%TF.GenerationSoftware,KiCad,Pcbnew,10.0.5*%
%TF.CreationDate,2026-07-30T01:17:07-04:00*%
%TF.ProjectId,STM32 PCB Design,53544d33-3220-4504-9342-204465736967,rev?*%
%TF.SameCoordinates,Original*%
%TF.FileFunction,Paste,Top*%
%TF.FilePolarity,Positive*%
%FSLAX46Y46*%
G04 Gerber Fmt 4.6, Leading zero omitted, Abs format (unit mm)*
G04 Created by KiCad (PCBNEW 10.0.5) date 2026-07-30 01:17:07*
%MOMM*%
%LPD*%
G01*
G04 APERTURE LIST*
G04 Aperture macros list*
%AMRoundRect*
0 Rectangle with rounded corners*
0 $1 Rounding radius*
0 $2 $3 $4 $5 $6 $7 $8 $9 X,Y pos of 4 corners*
0 Add a 4 corners polygon primitive as box body*
4,1,4,$2,$3,$4,$5,$6,$7,$8,$9,$2,$3,0*
0 Add four circle primitives for the rounded corners*
1,1,$1+$1,$2,$3*
1,1,$1+$1,$4,$5*
1,1,$1+$1,$6,$7*
1,1,$1+$1,$8,$9*
0 Add four rect primitives between the rounded corners*
20,1,$1+$1,$2,$3,$4,$5,0*
20,1,$1+$1,$4,$5,$6,$7,0*
20,1,$1+$1,$6,$7,$8,$9,0*
20,1,$1+$1,$8,$9,$2,$3,0*%
G04 Aperture macros list end*
%ADD10RoundRect,0.135000X0.185000X-0.135000X0.185000X0.135000X-0.185000X0.135000X-0.185000X-0.135000X0*%
%ADD11RoundRect,0.135000X-0.185000X0.135000X-0.185000X-0.135000X0.185000X-0.135000X0.185000X0.135000X0*%
%ADD12RoundRect,0.375000X-0.625000X-0.375000X0.625000X-0.375000X0.625000X0.375000X-0.625000X0.375000X0*%
%ADD13RoundRect,0.500000X-0.500000X-1.400000X0.500000X-1.400000X0.500000X1.400000X-0.500000X1.400000X0*%
%ADD14RoundRect,0.140000X0.140000X0.170000X-0.140000X0.170000X-0.140000X-0.170000X0.140000X-0.170000X0*%
%ADD15RoundRect,0.075000X-0.662500X-0.075000X0.662500X-0.075000X0.662500X0.075000X-0.662500X0.075000X0*%
%ADD16RoundRect,0.075000X-0.075000X-0.662500X0.075000X-0.662500X0.075000X0.662500X-0.075000X0.662500X0*%
%ADD17RoundRect,0.250000X0.250000X0.475000X-0.250000X0.475000X-0.250000X-0.475000X0.250000X-0.475000X0*%
%ADD18RoundRect,0.135000X0.135000X0.185000X-0.135000X0.185000X-0.135000X-0.185000X0.135000X-0.185000X0*%
%ADD19RoundRect,0.218750X-0.218750X-0.256250X0.218750X-0.256250X0.218750X0.256250X-0.218750X0.256250X0*%
%ADD20RoundRect,0.140000X-0.140000X-0.170000X0.140000X-0.170000X0.140000X0.170000X-0.140000X0.170000X0*%
%ADD21RoundRect,0.140000X-0.170000X0.140000X-0.170000X-0.140000X0.170000X-0.140000X0.170000X0.140000X0*%
%ADD22RoundRect,0.125000X0.875000X-0.125000X0.875000X0.125000X-0.875000X0.125000X-0.875000X-0.125000X0*%
%ADD23RoundRect,0.250000X0.600000X-0.750000X0.600000X0.750000X-0.600000X0.750000X-0.600000X-0.750000X0*%
%ADD24RoundRect,0.250000X-0.250000X-0.475000X0.250000X-0.475000X0.250000X0.475000X-0.250000X0.475000X0*%
%ADD25RoundRect,0.250000X0.450000X0.350000X-0.450000X0.350000X-0.450000X-0.350000X0.450000X-0.350000X0*%
G04 APERTURE END LIST*
D10*
%TO.C,R2*%
X100780000Y-39560000D03*
X100780000Y-38540000D03*
%TD*%
D11*
%TO.C,R3*%
X82260000Y-48610000D03*
X82260000Y-49630000D03*
%TD*%
D12*
%TO.C,+3.3V REG.*%
X103000000Y-50400000D03*
X103000000Y-52700000D03*
D13*
X109300000Y-52700000D03*
D12*
X103000000Y-55000000D03*
%TD*%
D14*
%TO.C,C15*%
X87680000Y-40950000D03*
X86720000Y-40950000D03*
%TD*%
D15*
%TO.C,U1*%
X89637500Y-38450000D03*
X89637500Y-38950000D03*
X89637500Y-39450000D03*
X89637500Y-39950000D03*
X89637500Y-40450000D03*
X89637500Y-40950000D03*
X89637500Y-41450000D03*
X89637500Y-41950000D03*
X89637500Y-42450000D03*
X89637500Y-42950000D03*
X89637500Y-43450000D03*
X89637500Y-43950000D03*
D16*
X91050000Y-45362500D03*
X91550000Y-45362500D03*
X92050000Y-45362500D03*
X92550000Y-45362500D03*
X93050000Y-45362500D03*
X93550000Y-45362500D03*
X94050000Y-45362500D03*
X94550000Y-45362500D03*
X95050000Y-45362500D03*
X95550000Y-45362500D03*
X96050000Y-45362500D03*
X96550000Y-45362500D03*
D15*
X97962500Y-43950000D03*
X97962500Y-43450000D03*
X97962500Y-42950000D03*
X97962500Y-42450000D03*
X97962500Y-41950000D03*
X97962500Y-41450000D03*
X97962500Y-40950000D03*
X97962500Y-40450000D03*
X97962500Y-39950000D03*
X97962500Y-39450000D03*
X97962500Y-38950000D03*
X97962500Y-38450000D03*
D16*
X96550000Y-37037500D03*
X96050000Y-37037500D03*
X95550000Y-37037500D03*
X95050000Y-37037500D03*
X94550000Y-37037500D03*
X94050000Y-37037500D03*
X93550000Y-37037500D03*
X93050000Y-37037500D03*
X92550000Y-37037500D03*
X92050000Y-37037500D03*
X91550000Y-37037500D03*
X91050000Y-37037500D03*
%TD*%
D17*
%TO.C,C12*%
X83200000Y-38600000D03*
X81300000Y-38600000D03*
%TD*%
D18*
%TO.C,R4*%
X86600000Y-53100000D03*
X85580000Y-53100000D03*
%TD*%
D19*
%TO.C,D1*%
X84225000Y-49600000D03*
X85800000Y-49600000D03*
%TD*%
D20*
%TO.C,C8*%
X87240000Y-35700000D03*
X88200000Y-35700000D03*
%TD*%
%TO.C,C1*%
X90840000Y-34900000D03*
X91800000Y-34900000D03*
%TD*%
D21*
%TO.C,C2*%
X85500000Y-38520000D03*
X85500000Y-39480000D03*
%TD*%
D18*
%TO.C,R5*%
X86600000Y-55200000D03*
X85580000Y-55200000D03*
%TD*%
D20*
%TO.C,C3*%
X90840000Y-33200000D03*
X91800000Y-33200000D03*
%TD*%
D22*
%TO.C,USB*%
X109625000Y-44200000D03*
X109625000Y-43400000D03*
X109625000Y-42600000D03*
X109625000Y-41800000D03*
X109625000Y-41000000D03*
D23*
X109725000Y-47050000D03*
X115175000Y-47050000D03*
X109725000Y-38150000D03*
X115175000Y-38150000D03*
%TD*%
D24*
%TO.C,C13*%
X102500000Y-47000000D03*
X104400000Y-47000000D03*
%TD*%
D21*
%TO.C,C4*%
X87100000Y-38520000D03*
X87100000Y-39480000D03*
%TD*%
D14*
%TO.C,C6*%
X85500000Y-45000000D03*
X84540000Y-45000000D03*
%TD*%
D25*
%TO.C,XSTL*%
X84000000Y-41500000D03*
X81800000Y-41500000D03*
X81800000Y-43200000D03*
X84000000Y-43200000D03*
%TD*%
D19*
%TO.C,FB1*%
X84225000Y-47200000D03*
X85800000Y-47200000D03*
%TD*%
D20*
%TO.C,C9*%
X88040000Y-47200000D03*
X89000000Y-47200000D03*
%TD*%
%TO.C,C14*%
X86240000Y-43200000D03*
X87200000Y-43200000D03*
%TD*%
D14*
%TO.C,C5*%
X97400000Y-47610000D03*
X96440000Y-47610000D03*
%TD*%
D11*
%TO.C,R1*%
X93200000Y-33190000D03*
X93200000Y-34210000D03*
%TD*%
D21*
%TO.C,C7*%
X86900000Y-44600000D03*
X86900000Y-45560000D03*
%TD*%
M02*
